<svg xmlns="http://www.w3.org/2000/svg" viewBox="0 0 175.89 153.74"><defs><style>.cls-1{fill:#fdfdfc;}.cls-2{fill:#f6c17a;}.cls-3{fill:#0e0e0d;}.cls-4{fill:#e4c3d5;}.cls-5{fill:#2f6aed;}.cls-6{fill:#131313;}.cls-7{fill:#020202;}</style></defs><title>Corgi_U</title><g id="Layer_2" data-name="Layer 2"><g id="Layer_1-2" data-name="Layer 1"><path class="cls-1" d="M127.85,137.81c-7.06.15-12.89-2.76-17.8-7.64a12.47,12.47,0,0,1-3.7-6.64c.83,0-2.75-9.77-4.45-12.14-.62-.87.94-3.77,0-3.22-1.84-1.26-2.93-1.15-4.9-.91a35.05,35.05,0,0,1-11.74-.48,7.9,7.9,0,0,1-.2-3.42c2.65-.09,4-1.79,4.92-4,1.12-2.78,1.24-5.85,2.46-8.61,1.76-4,3.54-8,5.28-12a13.21,13.21,0,0,0,1.14-6.47,4.93,4.93,0,0,0-1.56-3.68c.55-.89,3.26-5.52,6.12-5.43,1.67,0,2.58.9,4.07.24.84-.38,2.14,1.42,2.77.92.29-.22.38,2.23.39,3s2.23,6.69,5.5,8.38c5.55,2.86,11.19,5.47,16.08,9.45,1.45,1.19,3.36,1.81,5.05,2.69l.24,4.63a15.2,15.2,0,0,0-4.65,3.86c-1-.07-1.52.38-1.55,1.45a21.25,21.25,0,0,1-1.35,6.29,4.28,4.28,0,0,0,1.57,5.25,5.19,5.19,0,0,0,5.73.18c1.31-.81,1.92-2.3,3.23-3.08,4.46,1.7,8.45,7.73,13.06,9a23.58,23.58,0,0,1,8.69,4.5c2,1.64,4.27,2.88,7,2.64a48.69,48.69,0,0,1-4.52,13.7c-1.31,4.65-3.25,5-5.63,8.19-.89,1.21-5.09-2.33-6.59-2.16-.54.06-2.18-3.67-2.62-3.29C141.74,139.23,136.05,137.65,127.85,137.81Z"/><path class="cls-2" d="M100.89,108.21c-2.5-.47-3.9-.83-5.88-.59-4,.48-5.87,0-9.75-.84a45.41,45.41,0,0,0,4.6,17.42c6,12.52,14.93,22.19,28.57,25.77,13,3.43,24.4,2.13,36.9-4a12.45,12.45,0,0,0,4-2.74c-3.16-.58-5.36-4.89-7.45-5.7-8.2.23-15.79.16-24,.32-7.06.15-11.31-3.63-16.21-8.51C109.8,127.48,100.64,110.23,100.89,108.21Z"/><path class="cls-2" d="M85,101.83c1.34-1.46.18-2.21-.72-3.08A85.52,85.52,0,0,1,73,85.29c-1.73-2.54-1.19-4.06,1.79-4.86a40,40,0,0,1,7.62-1.18,19.58,19.58,0,0,1,5.64.19c.18,1.14-.11,1.13-.22,2.18a8.93,8.93,0,0,0-.11,1.79c.06.47,1-2.25,1.21-2.63,2-4.89,4.69-8.32,8.42-12.17a4.93,4.93,0,0,1,1.56,3.68c.19,2.25.06,5.69-.84,7.75-1.75,4-2.57,8.86-4.34,12.85-1.21,2.75-2.58,3.68-3.7,6.46-.89,2.22-2.27,3.92-4.92,4A1.43,1.43,0,0,1,85,101.83Z"/><path class="cls-2" d="M110,67.58a9.77,9.77,0,0,1,0-2.53c.63.2,1.45-.2,2.06,0,5.19,2.14,10.34,4.36,12.36,5.15a36,36,0,0,1,12.52-6.69c1.89-.58,3.2.66,3.19,2.62a77.3,77.3,0,0,1-2.82,21.66c-1.69-.88-4.49.67-5.94-.51-4.89-4-9.88-5.29-15.43-8.16C112.64,77.48,110.43,70.1,110,67.58Z"/><path class="cls-2" d="M140.5,106.42c.59.45,8.45,7.73,13.06,9a23.58,23.58,0,0,1,8.69,4.5c2,1.64,4.27,2.88,7,2.64.67-2,2-3.86,2.28-6a18.16,18.16,0,0,1-7.66-6.62,4.7,4.7,0,0,1-3.48.14c-2.76-.84-5.32-.45-8.18-.76-8.51-.91-12.33-8.58-14.73-16.86a15.2,15.2,0,0,0-4.65,3.86,6.33,6.33,0,0,0-.34,3.42c2.66,1,5.81,4.41,6.33,5.13A6.57,6.57,0,0,0,140.5,106.42Z"/><path class="cls-1" d="M167.13,107.54c1.67-1.81,4.07-2.7,4.85-.35.27.81,1.09,2.38.94,3.21-.32,1.76-1,4.41-1.35,6.17-2.71-1.18-7.1-3.58-8.55-6.2C164,109.31,166.17,108.6,167.13,107.54Z"/><path class="cls-1" d="M164.88,134.81c4.1.83,8.75-.42,10.46-3.33-2.15-1-5.92-1-8.23-2C166.24,131.53,165.76,132.67,164.88,134.81Z"/><path class="cls-3" d="M102.8,79.68c-1.41-2-1-3.93,1-5.28a12.89,12.89,0,0,1,3.45-1.32c1.82-.53,2.66.23,3,2.13a13.27,13.27,0,0,1-.75,5.73c-.75,2.5-1.66,2.7-4.15,1.21A12,12,0,0,1,102.8,79.68Zm5-4.82c-.78.26-1.53.48-2.26.76-1.93.72-2.18,1.64-.8,3.12a3.67,3.67,0,0,0,2.65,1.61A6.38,6.38,0,0,0,107.78,74.86Z"/><path class="cls-3" d="M132.09,100.5c.09-.7,1.72-3.16,1.46-5-.75,1.07-5.52,6.43-6.23,8.48s-.52,4.15,1.22,5.43,5.81,0,7.55-1.1c1.31-.8,4.39-3.1,4.83-4.18a19.83,19.83,0,0,0-5.26,2.65c-1,.91-5,2.36-6,1.64s-1.13-2.57-.62-3.83C129.69,102.88,132,101.19,132.09,100.5Z"/><path class="cls-3" d="M103.84,109.39a12.81,12.81,0,0,1-4-1c1.26-.36,4.75-.1,6.92-.1s5.15,1,5.79,3.08-.84,2.67-2.43,4a21.56,21.56,0,0,1-3.07,2.24,8.79,8.79,0,0,1-3.31,1c.4-.76,2.08-1.5,2.79-2a26.81,26.81,0,0,1,2.75-1.77c1.19-.68,2.32-1.46,2-2.72a3.18,3.18,0,0,0-3.13-2.11A15.09,15.09,0,0,1,103.84,109.39Z"/><path class="cls-3" d="M135.55,67.23c.92-.09,1.77.24,1.81,1.29a31.31,31.31,0,0,1-.79,10c-.41,1.44-1.77,1.67-2.77.53-.87-1-1.6-2.09-2.43-3.11a11.8,11.8,0,0,1-2.55-4.32C130.92,69.77,134.05,67.38,135.55,67.23ZM132.78,74c.41,1.21,1.27,1.86,2,2.92a28.94,28.94,0,0,0,.63-7.72C132.89,70.19,135.16,73.35,132.78,74Z"/><path class="cls-4" d="M107.75,81.44c1.11-2.14,1.54-6.58.42-6.83s-1.93.57-2.85.9c-2.44.86-2.74,2-.95,3.88C105.27,80.35,106.18,81.41,107.75,81.44Z"/><path class="cls-4" d="M135.89,68.57c-2.55,1-3.25,1.67-5.32,3.55.41,1.21,3.8,4.63,4.56,5.68C135.84,75.19,135.87,71.27,135.89,68.57Z"/><path class="cls-3" d="M93.84,69.58c5.54-8.51,15.24-7.59,18.69-5.42a69.18,69.18,0,0,0,10.32,5c.91.22,1.78-1.2,4.38-3.48s5.75-3.27,9-4.07c3.41-.84,5.76.88,5.85,4.39a72.37,72.37,0,0,1-2.21,20.16c-2,7.58,2.61,20.14,10.34,21.35,2.84.44,5.61,1.08,8.35,1.59a6.54,6.54,0,0,0,7.27-3.08,3.67,3.67,0,0,1,4.29-1.54,4.76,4.76,0,0,1,3.32,3.48c.6,1.93.18,3.81-.19,5.69-1.08,5.52-3.58,9.67-6.18,14.68a47.76,47.76,0,0,0,7.46,2.39c1.94.41,1.93,1.87-.63,3.13a19.59,19.59,0,0,1-4.59,1.77c-1.71.45-2.87-.15-4.09.36-.28,4.71-2.3,6.62-6.59,9.37a44.19,44.19,0,0,1-5.26,3c-8.79,3.9-15.54,5.77-25,5.27-7.39-.4-14.39-2-20.63-6.08C91.3,137,83.59,121.48,82.93,102.22a4.41,4.41,0,0,0-1.37-3.29A79.45,79.45,0,0,1,71.47,86.76c-2.87-4.21-1.67-7.32,3.35-8.42a39,39,0,0,1,12.86-1C88.85,77.45,92.12,71.83,93.84,69.58Zm30.78,2.48a33,33,0,0,0-3.09-2.22c-3.77-2.36-7.52-3.31-9.68-4.21-.61-.24-1.25-.38-1.88-.58a28.15,28.15,0,0,0-2.91-.89c-1.4-.42-7.5,2-7.59,2.33a6,6,0,0,0-2.17,2.12,41.45,41.45,0,0,0-7.32,10c-.16.38-2.4,5.81-2.49,5.2-.13-.85.47-2.76.51-4.42a19.58,19.58,0,0,0-5.64-.19,40,40,0,0,0-7.62,1.18c-3,.8-3.52,2.32-1.79,4.86A85.52,85.52,0,0,0,84.24,98.75c.9.87,2.06,1.62.72,3.08a1.43,1.43,0,0,0,.1,1.53,7.9,7.9,0,0,0,.2,3.42,45.41,45.41,0,0,0,4.6,17.42c6,12.52,14.93,22.19,28.57,25.77,13,3.43,24.4,2.13,36.9-4a12.45,12.45,0,0,0,4-2.74c2.09-1.77,5.2-3.68,4.73-6.49-.2-1.23-.56-1.91-1.68-2.11a10.54,10.54,0,0,0-4.26.73c-2.22.78-6.42,2.75-7.14,2.57a6.27,6.27,0,0,1,2.24-1.91c1.18-.52,2.42-.94,3.82-1.49,2.4-1,5.68-2.6,7.88.32.93-.32,3.8,0,4.41-.13,1.31-.19,5.46-1.71,5.68-3.15-3.07,0-6.7-1.95-9.16-2.45,1.11-3.05,1.78-3.59,3-6.6.8-2,2.29-4.08,2.56-6.22.36-1.75.67-3.79,1-5.56a7.51,7.51,0,0,0-.72-2.93c-.77-2.35-2.8-2-4.47-.23-1,1.06-2.55,1.84-3.52,2.89a6.66,6.66,0,0,1-4.18-.12c-2.76-.85-4.32-.67-7.18-1-8.51-.91-12.33-8.58-14.73-16.86l-.24-4.63a77.3,77.3,0,0,0,2.82-21.66c0-2-1.3-3.2-3.19-2.62a36,36,0,0,0-12.52,6.69,10.13,10.13,0,0,1,2.7,3.34,8.41,8.41,0,0,1,1.22,3.21C127.18,75.52,125.75,73.34,124.62,72.06Z"/><path class="cls-3" d="M83.21,93.07c-.72.58-1.61.76-2.22-.09a31.37,31.37,0,0,1-4.77-8.81c-.44-1.43.57-2.36,2-2,1.27.36,2.48.88,3.74,1.28a11.94,11.94,0,0,1,4.49,2.24C85.71,88.42,84.39,92.13,83.21,93.07Zm-1.37-7.2c-1-.79-2.08-.87-3.29-1.34a29.12,29.12,0,0,0,3.67,6.81C83.83,89.14,80.21,87.72,81.84,85.87Z"/><path class="cls-4" d="M82.2,92.13c1.61-2.2,1.81-3.17,2.53-5.88-1-.78-5.71-1.81-6.92-2.28C78.63,86.55,80.75,89.86,82.2,92.13Z"/><path d="M106.44,64.46a16.82,16.82,0,0,0-6.26,2.24c-.64.55-1,1.08-.64,1.79.93,1.84,1.66,3.07,3.44,3.78s3.47.79,4.44-1.77C108.31,68.17,108.22,64.44,106.44,64.46Z"/><path d="M116.32,74.86c-1.37-.18-2.15-2.65-1.62-4.23a2.12,2.12,0,0,1,2.38-1.5,2.16,2.16,0,0,1,1.66,2C119,73,117.7,75,116.32,74.86Z"/><path d="M95.93,81.34c-1.36.29-2.91-1.79-2.93-3.46a2.13,2.13,0,0,1,1.76-2.2A2.18,2.18,0,0,1,97,77.06C97.86,78.71,97.28,81.05,95.93,81.34Z"/><path d="M70.14,65.19a24.7,24.7,0,0,1,5.61-11.28c5-5.81,11.12-10.12,19.77-10.75a1.36,1.36,0,0,0,1-1C98.86,28.66,107,20.86,119.65,17.57c.36-.1.7-.22,1.53-.49-3.05-2.26-5.66-4.39-8.42-6.21A64.69,64.69,0,0,0,83.66.46,72.17,72.17,0,0,0,36.83,11.1c-3.9,2.39-7.36,5.35-11,8l-4.17,4-.22.22-.35.39A76.64,76.64,0,0,0,2.55,56.55a70,70,0,0,0-.38,36,65.36,65.36,0,0,0,12.72,25.38c.19.23.39.44.76.87.16-.53,1.08-2.35,1.2-2.73,3.7-12.55,10.55-19.71,24-21.6.87-.13,3.21,0,3.3-.89.63-6,1.68-10.35,5.33-14.41a29,29,0,0,1,12.48-8.52c1.13-.38,2.33-.61,3.5-.91a6,6,0,0,1,1.45-.22c1.92.14,2.93-.58,2.79-2.62,0-.47.3-.88.46-1.32Z"/><path class="cls-5" d="M68.9,63a24.42,24.42,0,0,1,5.53-10.73c4.84-5.57,10.69-9.76,18.86-10.52a1.35,1.35,0,0,0,1-1c2.48-12.73,10.27-20.24,22.31-23.6.34-.09.66-.22,1.45-.49-2.82-2.06-5.25-4-7.82-5.67-8.73-5.64-19-7.59-28.34-8.39-17-1.47-30.42,2.11-43.28,10.14-3.73,2.33-7.06,5.19-10.57,7.8l-4,3.82-.2.21-.35.38A76,76,0,0,0,5.32,56.24,66,66,0,0,0,4.23,90.13a58.52,58.52,0,0,0,11.49,23.65c.17.21.35.4.7.8.16-.5.27-.86.39-1.22C20.56,101.46,28.37,94,41.07,92c.82-.14,1.16-.41,1.27-1.24A25.37,25.37,0,0,1,49.1,76.57a29.1,29.1,0,0,1,11.95-8.28c1.07-.37,2.21-.62,3.32-.92a5.4,5.4,0,0,1,1.37-.24c1.8.09,2.77-.6,2.68-2.52a3.23,3.23,0,0,1,.47-1.26Z"/><path class="cls-6" d="M68.89,63.35a3.23,3.23,0,0,0-.47,1.26c.09,1.92-.88,2.61-2.68,2.52a5.4,5.4,0,0,0-1.37.24l.48.48a20.55,20.55,0,0,1,1.73,1.49c15.12,15.66,46,45.49,46.5,46.09.22.24,3.9,3.83,5.37,4.47,5.28,2.3,10.89,2.09,13.26-2.29,3.73-5.08-.86-12.81-3.05-14.91s-5.12-3.57-6.49-2.72-.83,3.88.54,5.59,4.8,6.07,2.54,8.3c-2.42,2.39-9.93-4.49-11.15-5.76C99.3,92.77,83.69,78.69,68.89,63.35Z"/><path class="cls-7" d="M68.89,63.35l44.4,46c1.22,1.26,2.42,2.56,3.68,3.79a13.52,13.52,0,0,0,1.68,1.21c-.68-.64-1.38-1.26-2-1.93q-23.12-24-46.2-47.91c-.5-.52-1-1-1.52-1.53Z"/><path class="cls-6" d="M16.06,13c-2.15,1.8.33,4,1.58,5.95s3.87,4,5.8,6l.35-.38.2-.21,4-3.82C26.11,18.57,18.2,11.19,16.06,13Z"/><path class="cls-1" d="M130.83,108.44c-1.62-.2-4-.86-3.61-3.33.18-1.59,2-3,2.63-3.5a15.87,15.87,0,0,0,3.72-5.41c1.3,2.52,3.85,6.08,5.29,8.68C137.52,105.86,132.46,108.64,130.83,108.44Z"/><path class="cls-3" d="M136.77,106.35a10.54,10.54,0,0,1,4.15-2.22c-1.18.91-5.23,4.5-7.49,5.38a5.3,5.3,0,0,1-6.36-1.74c-1.35-1.9-.08-3.25,1.1-5.31a25,25,0,0,1,2.38-3.67c.74-.87,1.82-2.74,3-3.29a17.4,17.4,0,0,1-2.09,4.18,31.72,31.72,0,0,1-2.21,3c-1,1.23-1.89,2.52-1.09,3.76s2.48,2.14,3.86,1.51C133.9,107.14,136,106.78,136.77,106.35Z"/><path class="cls-1" d="M110.29,109.65c1.23.76,1.94,1.79.7,3.7-.75,1.25-1.76,1.4-2.27,1.86-1.28,1.17-3.23,1.76-5,3.33-.09-2.57-2.2-6.91-2.35-9.59C102.81,109.12,109.06,108.88,110.29,109.65Z"/></g></g></svg>