<svg xmlns="http://www.w3.org/2000/svg" viewBox="0 0 96.7 96.4"><defs><style>.cls-1{fill:#fdfdfc;}.cls-2{fill:#f6c17a;}.cls-3{fill:#0e0e0d;}.cls-4{fill:#e4c3d5;}</style></defs><title>Corgi_G</title><g id="Layer_2" data-name="Layer 2"><g id="Layer_1-2" data-name="Layer 1"><path class="cls-1" d="M42.48,73.74C36.37,72.72,30.42,64,27,59a10.88,10.88,0,0,1-2.12-6.32c.71.18-.79-8.87-1.87-11.19-.4-.85,1.42-3.1.51-2.77-1.38-1.39-2.33-1.47-4.07-1.58a30.74,30.74,0,0,1-10-2.32,7.14,7.14,0,0,1,.38-3c2.31.34,3.77-.9,4.9-2.67,1.41-2.22,2-4.84,3.51-7q3.25-4.73,6.5-9.47a11.66,11.66,0,0,0,2-5.4,4.3,4.3,0,0,0-.75-3.42C26.56,3.2,29.65-.35,32.1.19c1.43.31,2.08,1.19,3.47.86.78-.19,1.61,1.57,2.24,1.25.29-.15,0,2-.15,2.63s.85,6.12,3.39,8.11c4.32,3.36,8.76,6.53,12.34,10.75a24.64,24.64,0,0,0,3.92,3.14c-.18,1.34-.37,2.68-.55,4-1.67.64-3.87,2.92-5.19,4.17-.89-.23,5.59,4.55,5.5,8.34C60.65,45.66,60.22,59,64,60.86a20.62,20.62,0,0,1,6.76,5.28c.9,1.06,2.69.78,3.26,2.52.36,1.12-5.94,5.41-7.41,6.94,1.4,1.25,5.2,10.83,3.47,11.92-1.3.82-7.68-6.63-9.7-6.7-2.42-.39-5.14,3.37-7.7,2.77C47.74,82.44,47.15,74.52,42.48,73.74Zm24.28,2.64c1.39,1.25,5.46,4.13,3.13,10.83-2.33-.51-9-5.07-11.07-5.14Z"/><path class="cls-2" d="M24.41,38.75c-1.38-1.39-3.24-1.48-5-1.59a30.74,30.74,0,0,1-10-2.32,39.94,39.94,0,0,0,1.15,15.77c3.11,11.76,11.22,26.71,22.4,32,10.7,5.07,10,4.48,17.43,2.53,1.36-.38,2.07.18,5.65-2.07-2.63-1-6.44-8.15-13.53-9.33C36.37,72.72,30.42,64,27,59,25.69,57.15,23.87,40.46,24.41,38.75Z"/><path class="cls-2" d="M9.93,30.53c1.39-1,.51-1.88-.12-2.77A74.85,74.85,0,0,1,2.25,14.33c-1.08-2.48-.37-3.7,2.33-3.91a35.56,35.56,0,0,1,6.76.22,16.78,16.78,0,0,1,4.83,1.08c0,1-.28.95-.54,1.84a7.89,7.89,0,0,0-.39,1.52c0,.42,1.27-1.77,1.47-2.07a32.25,32.25,0,0,1,9.23-9.13,4.3,4.3,0,0,1,.75,3.42,16.23,16.23,0,0,1-2,6.55C22.56,17,21.06,21.07,18.9,24.23c-1.5,2.18-2.83,2.75-4.24,5a5.23,5.23,0,0,1-5.27,2.6C9.2,31.31,9.64,30.75,9.93,30.53Z"/><path class="cls-2" d="M37.06,5.05a8.73,8.73,0,0,1,.38-2.19c.51.27,1.29.06,1.77.37C43.34,5.92,47.42,8.66,49,9.68A31.6,31.6,0,0,1,60.91,5.93C62.64,5.74,63.56,7,63.24,8.7a68,68,0,0,1-5.93,18.23c-1.32-1-4-.15-5-1.4-3.58-4.23-7.67-6.17-12-9.53C37.74,14,37,7.28,37.06,5.05Z"/><path class="cls-2" d="M57.07,43.47C57.52,44,60.22,59,64,60.86a20.62,20.62,0,0,1,6.76,5.28c1.49,1.74,1.63,2.45,4.06,2.69.9-1.66.49-6.9,1.07-8.7C73.74,58.67,69.8,55.5,68.81,55c-2.24-1.18-9.31-17.15-12.05-24a13.29,13.29,0,0,0-4.63,2.58,5.42,5.42,0,0,0-.84,2.89c2.14,1.26,4.29,4.74,4.62,5.45A6.1,6.1,0,0,0,57.07,43.47Z"/><path class="cls-1" d="M77.7,61.39c1.72.85,4,3.39,2.73,5.17A4.06,4.06,0,0,1,79,68.07c-1.4.71-3.11,1-6.7-.12-.61-2.52,1.29-6.31,2.36-8.71C75.92,59.36,76,60.54,77.7,61.39Z"/><path class="cls-3" d="M50.79,37c.18-.58,2-2.44,2.06-4.07-.82.8-5.8,4.65-6.74,6.3s-1.12,3.5.17,4.88,5,.93,6.69.28c1.26-.48,4.28-2,4.84-2.82a16.66,16.66,0,0,0-5,1.43c-1,.61-4.66,1.23-5.48.43s-.56-2.4.08-3.4C48.33,38.67,50.6,37.59,50.79,37Z"/><path class="cls-3" d="M25,40.1a11.28,11.28,0,0,1-3.32-1.54c1.14-.11,4.11.68,6,1s4.28,1.71,4.5,3.59-1.16,2.17-2.74,3a19.41,19.41,0,0,1-3,1.43,7.61,7.61,0,0,1-3,.31c.47-.59,2-1,2.74-1.28a23.24,23.24,0,0,1,2.65-1.09c1.14-.39,2.24-.88,2.16-2a2.78,2.78,0,0,0-2.36-2.32A13.51,13.51,0,0,1,25,40.1Z"/><path class="cls-3" d="M59.14,8.88c.82.07,1.49.49,1.36,1.4a27.65,27.65,0,0,1-2.3,8.48c-.58,1.18-1.79,1.15-2.47,0-.59-1-1-2.06-1.6-3.08a10.57,10.57,0,0,1-1.5-4.13C54.74,10.32,57.83,8.76,59.14,8.88Zm-3.48,5.4a9.93,9.93,0,0,0,1.28,2.85,25.44,25.44,0,0,0,1.79-6.55C56.38,11,57.82,14.09,55.66,14.28Z"/><path class="cls-4" d="M59.22,10.09a11.79,11.79,0,0,0-5.16,2.2c.16,1.11,2.53,4.6,3,5.63A35.61,35.61,0,0,0,59.22,10.09Z"/><path class="cls-3" d="M22.8,4.16C29-2.29,37.17.08,39.8,2.5a59.4,59.4,0,0,0,8.08,6c.75.34,1.73-.74,4.34-2.29s5.49-1.88,8.4-2C63.7,4,65.45,5.85,65,8.89a63.46,63.46,0,0,1-5.16,17c-2.94,6.21,2.11,16.9,5.09,21.5s3.89,7.34,6.17,8.22,8.7,6.93,9.49,7.41A4.85,4.85,0,0,1,80.88,68c-.76,1.91-3.32,1.56-5.75,1.34-1.5-.14-2.58-.72-4-.18-1.74.65-2.9,4.91-3.87,6.15.2,1.7,2.66,3,3.69,5A13.06,13.06,0,0,1,71.56,85c-.41,2.61-.87,3.63-2.93,2.39a55.17,55.17,0,0,0-10.74-4.79c-1.41.57-3.27,1.49-4.71,2-4.62,1.55-4.75,4.9-12.82,2.93C34,86,21.3,74.84,17.66,69.93,15.4,66.88,6.22,47.55,8.77,30.83a3.8,3.8,0,0,0-.65-3A76.56,76.56,0,0,1,.73,15.35C-1.06,11.26.48,8.77,5,8.63a34.22,34.22,0,0,1,11.26,1.2C17.22,10.14,21,5.82,22.8,4.16Zm26.14,7.11a25.64,25.64,0,0,0-2.31-2.41C43.77,6.21,40.69,4.78,39,3.67a17.17,17.17,0,0,0-1.53-.81,21.58,21.58,0,0,0-2.37-1.24c-1.13-.59-6.79.53-6.91.78a5.38,5.38,0,0,0-2.22,1.47A36.27,36.27,0,0,0,18,11.36c-.2.31-3,4.62-3,4.08,0-.75.86-2.3,1.16-3.72a16.78,16.78,0,0,0-4.83-1.08,35.56,35.56,0,0,0-6.76-.22c-2.7.21-3.41,1.43-2.33,3.91A74.85,74.85,0,0,0,9.81,27.76c.63.89,1.51,1.73.12,2.77-.29.22-.6,3.3-.55,4.31-.74,5.34.42,10.71,1.79,15.88,3.1,11.76,12,25.9,21.27,31.27,10.25,5.93,9.15,4.59,17.64,2.52a56.36,56.36,0,0,0,7.29-3c2.13-.2,10.87,3.74,12.22,5.47.48-.19,1.23-3.92.18-6-1.28-2.48-4.38-4.24-4.08-4.95,1.45-2.45,2.87-6,4.77-8,1.3-1.38,3.56.87,5.71.57,1.27-.19,3.91-.13,4.26-2.07.38-2.13-1.5-4-3.7-5.77A72.43,72.43,0,0,0,69,55.55C66.75,54.37,57.49,38.49,56.76,31c.18-1.35.37-2.69.55-4A68,68,0,0,0,63.24,8.7c.32-1.68-.6-3-2.33-2.77A31.6,31.6,0,0,0,49,9.68,8.53,8.53,0,0,1,50.82,13a7.25,7.25,0,0,1,.53,3C50.58,14.67,49.71,12.56,48.94,11.27Z"/><path class="cls-3" d="M9.84,22.69c-.72.38-1.52.4-1.9-.44a27.45,27.45,0,0,1-2.69-8.36c-.15-1.31.87-1.94,2.07-1.35,1,.51,2,1.16,3,1.71a10.29,10.29,0,0,1,3.51,2.65C12.74,19.08,11,22.07,9.84,22.69Zm0-6.43A10,10,0,0,0,7.2,14.57,25.15,25.15,0,0,0,9.26,21C11,19.4,8.11,17.6,9.82,16.26Z"/><path class="cls-4" d="M9.11,21.72a11.91,11.91,0,0,0,3.14-4.66c-.74-.84-4.63-2.49-5.6-3.09A36.77,36.77,0,0,0,9.11,21.72Z"/><path class="cls-1" d="M48,91c.4,3-2.91,5.46-4.61,4.31-.59-.39-1.43-2.75-1.75-3.36-.69-1.32-1.38-5.46-2-6.8,2.38-.6,7.78-1.49,10.06-.5C49.59,85.79,48.13,89.76,48,91Z"/><path d="M34.31,1.22a14.65,14.65,0,0,0-5.75.91c-.65.38-1,.77-.85,1.44.51,1.74.93,2.92,2.36,3.82s2.86,1.24,4.11-.8C35.33,4.71,35.85,1.49,34.31,1.22Z"/><path class="cls-3" d="M48.16,88.25c.3-.62,1.25-3.08,2.39-3.62.06,1.27-1.19,5-1.7,7.07s-2.18,4.61-4.31,4.69-2.37-1.48-3.25-3.31a20,20,0,0,1-1.43-3.46c-.25-.94-.9-3.31-.18-3.38.73.26,1,2.35,1.28,3.15a25.12,25.12,0,0,1,1.07,3c.38,1.31.86,2.57,2.15,2.57a3,3,0,0,0,2.75-2.42A22.17,22.17,0,0,1,48.16,88.25Z"/><path d="M89.75,55c.39-.17-2.25-4.17-5.16-5.94-3.13-1.92-5.6-2.53-6.12-2s.06.68.37.61c1.15-.26,4,.85,4.57,1.28C85.34,50,86.84,51.4,89.75,55Z"/><path d="M92.31,53.66c.52-.22-3-5.58-6.92-8-4.21-2.57-7.51-3.39-8.21-2.64s.07.92.49.82c1.55-.35,5.35,1.14,6.14,1.72C86.39,47,88.4,48.83,92.31,53.66Z"/><path d="M96.66,52.72c.57-.14-4.69-6.85-9.77-10.31-5.49-3.72-9.55-5.31-10.22-4.61s.28,1,.75,1C79.17,38.73,84,41.17,85,42,88.33,44.05,91.07,46.53,96.66,52.72Z"/><path class="cls-3" d="M34.7,15.13c.57,1.85.29,2.41-1.44,2.49a8.68,8.68,0,0,1-3.83-.42c-1.18-.52-1.54-1.18-.9-2.28a8.49,8.49,0,0,1,1.4-2,2.25,2.25,0,0,1,3.58.18A7.88,7.88,0,0,1,34.7,15.13Zm-1.49,1a2.44,2.44,0,0,0-.61-2c-.74-1.13-1.38-1.12-2.15,0-.29.43-.56.88-.85,1.34A4.27,4.27,0,0,0,33.21,16.14Z"/><path class="cls-4" d="M33.86,16.56c-1.56.38-4.5,0-4.48-.82s.67-1.16,1-1.7c.95-1.44,1.73-1.45,2.67,0A3.23,3.23,0,0,1,33.86,16.56Z"/><path d="M24.46,12.8c.31-.72.38-2.77-1.27-3.17a2,2,0,0,0-2.39,1.6c-.32,1.24-.1,2.66,1.2,3.16S24.14,13.53,24.46,12.8Z"/><path d="M41.13,12.81a2,2,0,0,0,1.21-2.94c-.28-.57-1.32-2-2.41-1.67A1.81,1.81,0,0,0,38.7,10C38.64,11.57,40,13.09,41.13,12.81Z"/><path d="M38.66,5.21c-.25.28.3,1.18,1.32,1.34s1.68.45,2.46.08c.12-.06.15-.4.09-.57s-.33-.27-.58-.24C40.14,6,38.91,4.94,38.66,5.21Z"/><path d="M24.42,7.14c.36.77-.08,1.24-1,1.42a2.25,2.25,0,0,1-2-.2c-.1-.06-.1-.36,0-.52s.3-.2.51-.14C23.5,8.11,23.44,8,24.42,7.14Z"/><path class="cls-3" d="M50.79,37c.18-.58,2-2.44,2.06-4.07-.82.8-5.8,4.65-6.74,6.3s-1.12,3.5.17,4.88,5,.93,6.69.28c1.26-.48,4.28-2,4.84-2.82a16.66,16.66,0,0,0-5,1.43c-1,.61-4.66,1.23-5.48.43s-.56-2.4.08-3.4C48.33,38.67,50.6,37.59,50.79,37Z"/><path class="cls-3" d="M25,40.1a11,11,0,0,1-3.32-1.54c1.14-.1,4.11.68,6,1s4.28,1.71,4.5,3.59-1.16,2.17-2.74,3a19.41,19.41,0,0,1-3,1.43,7.61,7.61,0,0,1-3,.31c.47-.58,2-.94,2.74-1.28a23.24,23.24,0,0,1,2.65-1.09c1.14-.39,2.24-.87,2.16-2a2.78,2.78,0,0,0-2.36-2.32A13.15,13.15,0,0,1,25,40.1Z"/><ellipse class="cls-3" cx="37.55" cy="43.45" rx="12.73" ry="9.24" transform="translate(-9.74 10.86) rotate(-14.59)"/><ellipse class="cls-3" cx="45.57" cy="72.16" rx="11.22" ry="7.02" transform="translate(-13.82 10.87) rotate(-11.83)"/><rect class="cls-3" x="25.43" y="55.9" width="33.32" height="5.79" transform="translate(88.39 3.25) rotate(75.41)"/></g></g></svg>