<svg xmlns="http://www.w3.org/2000/svg" viewBox="0 0 75.07 85.07"><defs><style>.cls-1{fill:#0e0e0d;}.cls-2{fill:#f6c17a;}.cls-3{fill:#fff;}</style></defs><title>Corgi_B</title><g id="Layer_2" data-name="Layer 2"><g id="Layer_1-2" data-name="Layer 1"><path class="cls-1" d="M44.23,76.07c-1.22,1.94-3.52,7.09.25,8.61,2.22.9,9.18.38,14.21-3.21,5.42-3.89,9.83-7.28,14-13.76C75,64,75.55,54,74.66,47.83S73.18,39.5,71.17,35.1,69.07,28,68.91,24.16c.8-3.43,4.37-15.35,4.53-18.32S71.65-.6,65,2.17C58.79,4.74,54,10.78,51.2,9.68a52.21,52.21,0,0,0-9.3-4,29.36,29.36,0,0,0-12,0C26,6.5,22.72,8,20.71,10.41,19.46,9,16.61,7.8,14.42,5.77A33.42,33.42,0,0,0,8.93,1.45C5.27-1.07,2,.12,1.05,1.84S1,10.81,1.9,14,5.59,24.5,7.23,25.46c0,1.41-6,14.84-6.82,19C-1.76,56.21,5.27,70.23,8.14,74.3s7.47,5.66,8.25,6.13S25.85,87,30.45,82.82c2-1.8,2.46-3.46-1-7.09C29.45,75.73,39.47,77,44.23,76.07Z"/><path class="cls-2" d="M51,11.45c2.72,1.06,7.34-4.78,13.31-7.26,6.47-2.69,8.17-.91,8,2s-4.08,14.44-4.84,17.77c.38,3.66.22,7.7,2.21,11.94S73.47,43,73.17,49,73.31,64,71,67.54c-4.11,6.32-6.2,7.39-10.65,10.73.14-.11-9-3.21-14-3.66s-7.22-.93-9.49-.78-10.45-3.6-10,.18-7.29,6.4-8,5.95-6.13-2.82-8.9-6.75-10.17-16.63-8.07-28c.75-4,6.79-18,6.79-19.34S4.17,18.68,3.26,15.6,1.53,5.53,2.44,3.86,5.84,1,9.17,3.69s4.3,2.86,6.42,4.82a49.9,49.9,0,0,1,4.15,4.35c1.94-2.37,6.07-4.34,9.85-5.1s9.18-1,12.38-.18A50.59,50.59,0,0,1,51,11.45Z"/><path class="cls-3" d="M44.08,82.5c-1.65-5.81,4-8.51,9.51-12.14,2-.16,6.19,6.06,6.77,7.91-2.37,3.32-7.63,5.24-10.73,5.42C47.72,83.79,44.57,84.22,44.08,82.5Z"/><path class="cls-3" d="M30.45,80.25c0-2.12-.88-1.45-3.61-6.24-1.61-2.82-10.95,2.52-10.45,4.6,3.51,1.84,6.62,4.21,9.29,4.21C27.43,82.81,30.45,82.26,30.45,80.25Z"/><path class="cls-1" d="M72.68,50.29c0,5.4-23,3.61-37.31,3.61C22.18,53.9.1,56.72.1,50.29.1,35.88,8.83,26.22,22.33,22c4.11-1.29,22.46-3.25,30.37.12,4.19,1.78,17.64,5,21,20.46C74.25,44.77,72.68,47.91,72.68,50.29Z"/><path class="cls-2" d="M73.21,47.79c0,18.35-16.41,20.73-35.89,20.73S2.13,63.4,1.59,52C.75,33.91,17.84,21.25,37.32,21.25S73.21,33.68,73.21,47.79Z"/><path class="cls-3" d="M57.46,58.77c0,4.88-2.24,9.27-3.43,11.66-3.37,1.51-4.69,2.54-8.26,4.34-5.29,0-13-.11-18.62-.6-1.4-2-4.08-2.23-6.59-4.69-.2-2-.08-5.83-.08-10.71,0-12.54,8.28-22.7,18.49-22.7S57.46,46.23,57.46,58.77Z"/><path class="cls-1" d="M54.59,69.83c-1.15,1-1.56,1.78-3.07,2.57S48.86,73.7,48,74.26,45.56,76,45.56,76l-.89-.74s3.45-2.27,4.6-2.94S53.19,69.5,54.59,69.83Z"/><path class="cls-1" d="M20.48,69.21c1.34.67,2.25.73,3.57,1.81a25.62,25.62,0,0,1,3.16,2.61,12.8,12.8,0,0,0,1.61,1.6l-.41,1.34a48.24,48.24,0,0,0-3.56-3.45C23.79,72.32,20.72,70.62,20.48,69.21Z"/><path class="cls-1" d="M42,42.41a1.8,1.8,0,0,1,.64.14c-.77,1.59-2.1,4.25-2.76,6.08-.86,2.33.76,5.44-.49,5.88-1.92.4-5.59-3-6.31-5.09a17.85,17.85,0,0,1-.38-7,2.41,2.41,0,0,0,.82-.11c.23,1.39-.06,3.47.77,6.6.38,1.43,2.47,4.17,4.5,4.48a10.86,10.86,0,0,1,0-5C39.27,47,40.42,43.92,42,42.41Z"/></g></g></svg>