<svg xmlns="http://www.w3.org/2000/svg" viewBox="0 0 101.31 54.65"><defs><style>.cls-1{fill:none;}.cls-2{fill:#fdfdfc;}.cls-3{fill:#f6c17a;}.cls-4{fill:#0e0e0d;}.cls-5{fill:#e4c3d5;}</style></defs><title>Corgi1</title><g id="Layer_2" data-name="Layer 2"><g id="Layer_1-2" data-name="Layer 1"><path class="cls-1" d="M94.27,15.56a9.47,9.47,0,0,1,2.56.57A9.47,9.47,0,0,0,94.27,15.56Z"/><path class="cls-1" d="M77.39,40.46c1.66,2.46,3.88,4.21,7.49,3.87A6.65,6.65,0,0,1,85.29,46c0-.6-.08-1.2-.15-1.75A8.49,8.49,0,0,1,77.39,40.46Z"/><path class="cls-1" d="M11.54,40.64c-.2-1.82-.41-3.65-.61-5.48-1.06-2-2-4-2.86-6q1.27,3.06,2.86,6.05c.2,1.82.41,3.65.61,5.47Z"/><path class="cls-1" d="M61.33,5.61l0,0h0Z"/><path class="cls-2" d="M85.29,46c-.07-.57.26-1.77,0-2.33-3.62.35-6.28-.76-7.94-3.22-2.07-3.07-4.11-3.92-6.31-7-3.19-4.39-5.29-9.95-8.46-14.35-1.63-2.27-2.5-6.29-2.7-9a5.34,5.34,0,0,1,1.39-4.6h0A8.24,8.24,0,0,0,58,3.49a1.26,1.26,0,0,1,.6,1.59c-.9,2.33-1.64,3.9-3.91,5.06-2.43,1.23-4.54,1.52-6.38-1.31C46.85,6.64,46.2,3.17,47.48,2a1.19,1.19,0,0,0-.3.08A38.27,38.27,0,0,0,43.4,3.62h0a10.09,10.09,0,0,1,.46,3c-.06,3-1.59,12.1-5.68,14.65C31.23,25.58,24.73,28,18.89,33.53c-1.73,1.64-5.84.3-8,1.63.2,1.83.41,3.66.61,5.48h0c1.23.46,15,12.16,32.32,13.77,19,1.76,41.46-6.57,41.46-6.57C85.34,47.33,85.33,46.69,85.29,46ZM56.06,19.57a14.77,14.77,0,0,1-3,3.35c-3.08,2.19-4.36,2.1-5.87-.7-1.07-2-2.24-4.41-2.17-6.6s1.06-3.34,3.63-3a19.63,19.63,0,0,1,5,.95C56.69,14.76,57.57,16.94,56.06,19.57Z"/><path class="cls-3" d="M59.92,10.19c.2,2.68,1.07,6.7,2.7,9,3.17,4.4,5.27,10,8.46,14.35,2.2,3,4.24,3.88,6.31,7a8.49,8.49,0,0,0,7.75,3.8,4,4,0,0,0-.43-1.75c-2.11-1.48-.69-2.57.35-3.75a102.41,102.41,0,0,0,6.84-8.61q1.57-2.22,3-4.52c1-1.53,1.88-3.08,2.76-4.66.13-.24.22-.45.32-.68a5.24,5.24,0,0,0,.54-1.85,2.24,2.24,0,0,0-.3-1.25,2.9,2.9,0,0,0-1.41-1.06,9.47,9.47,0,0,0-2.56-.57,63.23,63.23,0,0,0-10.57-.05c-1.25.08-2.5.17-3.77.35a21.74,21.74,0,0,0-3.84.85c.38,1.95,1.59,4.09,1.58,5.11,0,.73-4.14-5.26-4.43-5.69-1.47-2-6.09-6.64-11.91-10.52l0,0A5.34,5.34,0,0,0,59.92,10.19ZM85.06,20.44c1.62-.69,3.16-1.52,4.81-2.15,1.9-.74,3.46.17,3.14,1.93-.7,4-2.6,7.63-4.7,11.19-.65,1.11-1.89,1-3,.49-1.79-.9-4.32-5-5.9-8C80.76,22.26,83.7,21,85.06,20.44ZM63.73,14.72a2.86,2.86,0,0,1,2.76-2A2.75,2.75,0,0,1,69.31,15c.31,2-1.37,4.67-3.27,4.57S62.88,16.82,63.73,14.72Z"/><path class="cls-3" d="M18.89,33.53c5.84-5.54,12.34-8,19.29-12.28C42.27,18.7,43.8,9.62,43.86,6.6a10.09,10.09,0,0,0-.46-3h0c-.81.33-1.66.61-2.43,1-2.75,1.42-7.65,3.19-12.28,6.62a40.52,40.52,0,0,0-3.75,3.15c-1.28,1.71-2.77,4.52-4.05,6.22-.18-.53.24-2.21,1-4a11.75,11.75,0,0,1,3-4.39A54.49,54.49,0,0,0,6.56,6.55a4.4,4.4,0,0,0-.95,0,3.31,3.31,0,0,0-1.53.43,2.92,2.92,0,0,0-1.31,3.24,91,91,0,0,0,5.3,18.94c.85,2,1.8,4.06,2.86,6C13.05,33.83,17.16,35.17,18.89,33.53Zm16-24.63a3.05,3.05,0,0,1,3.53,1.34c1,1.77.48,4.81-1.35,5.26s-4-1.7-4-3.92A2.54,2.54,0,0,1,34.89,8.9ZM10,24.06a33.25,33.25,0,0,1-3.09-11.6c-.15-1.24.94-1.77,2.21-1.83,2.07-.09,6.78,2.18,10,4-.12,2-1.81,4.39-2.59,5.52-.92,1.34-1.7,2.77-2.68,4.08C12.75,25.71,10.87,25.68,10,24.06Z"/><path class="cls-4" d="M53.61,13.54a19.63,19.63,0,0,0-5-.95c-2.57-.31-3.56.73-3.63,3s1.1,4.61,2.17,6.6c1.51,2.8,2.79,2.89,5.87.7a14.77,14.77,0,0,0,3-3.35C57.57,16.94,56.69,14.76,53.61,13.54Zm.27,6c-1,1.28-2.06,2.69-4.18,3-1.93-2.33-3.41-7.47-1.93-8s2.73.34,4,.56C55.29,15.69,55.93,17,53.88,19.5Z"/><path class="cls-4" d="M13.88,24.2c1-1.31,1.76-2.74,2.68-4.08C17.34,19,19,16.57,19.15,14.6c-3.22-1.79-7.93-4.06-10-4-1.27.06-2.36.59-2.21,1.83A33.25,33.25,0,0,0,10,24.06C10.87,25.68,12.75,25.71,13.88,24.2ZM9,12.26c3.66.7,4.74,1.4,7.94,3.25-.32,1.49-4.23,6.1-5.05,7.47C10.35,20,9.53,15.43,9,12.26Z"/><path class="cls-5" d="M51.81,15.1c-1.31-.22-2.56-1-4-.56s0,5.63,1.93,8c2.12-.31,3.14-1.72,4.18-3C55.93,17,55.29,15.69,51.81,15.1Z"/><path class="cls-5" d="M9,12.26C9.53,15.43,10.35,20,11.84,23c.82-1.37,4.73-6,5.05-7.47C13.69,13.66,12.61,13,9,12.26Z"/><path class="cls-4" d="M9.19,38.89l2.35,1.75c-.2-1.82-.41-3.65-.61-5.47q-1.59-3-2.86-6.05a91,91,0,0,1-5.3-18.94A2.92,2.92,0,0,1,4.08,6.94a3.31,3.31,0,0,1,1.53-.43,4.4,4.4,0,0,1,.95,0,54.49,54.49,0,0,1,18.33,5.69,11.75,11.75,0,0,0-3,4.39c-.76,1.78-1.18,3.46-1,4,1.28-1.7,2.77-4.51,4.05-6.22a40.52,40.52,0,0,1,3.75-3.15C33.32,7.82,38.22,6.05,41,4.63c.77-.4,1.62-.68,2.43-1h0a38.27,38.27,0,0,1,3.78-1.56,1.19,1.19,0,0,1,.3-.08,1.49,1.49,0,0,1,.91-.42c2.4-.28,7.94,1,8.93,1.53a4.71,4.71,0,0,1,.64.4,8.24,8.24,0,0,1,3.34,2.1h0l0,0c5.82,3.88,10.44,8.47,11.91,10.52.29.43,4.43,6.42,4.43,5.69,0-1-1.2-3.16-1.58-5.11a21.74,21.74,0,0,1,3.84-.85c1.27-.18,2.52-.27,3.77-.35a63.23,63.23,0,0,1,10.57.05,9.47,9.47,0,0,1,2.56.57,2.9,2.9,0,0,1,1.41,1.06,2.24,2.24,0,0,1,.3,1.25A5.24,5.24,0,0,1,98,20.29c-.1.23-.19.44-.32.68-.88,1.58-1.79,3.13-2.76,4.66s-2,3-3,4.52a102.41,102.41,0,0,1-6.84,8.61c-1,1.18-2.46,2.27-.35,3.75a4,4,0,0,1,.43,1.75c.07.55.12,1.15.15,1.75s0,1.32,0,1.83l1.52-.7A34,34,0,0,0,86.5,43a4.65,4.65,0,0,1,1.2-4.1c4.39-5,9.11-10.78,12.28-16.44,3-5.45.79-8.9-6.23-9.32a61.4,61.4,0,0,0-17.65,1c-1.56.36-7.13-5.68-9.91-8C57-2.91,44-.14,39.74,3a96.87,96.87,0,0,1-13,7.7c-1.19.42-2.65-1.1-6.63-3.33s-8.46-2.84-13-3.22c-4.79-.4-7.64,2-7,6.18a76.78,76.78,0,0,0,7,23.32"/><path class="cls-4" d="M85.32,31.9c1.1.55,2.34.62,3-.49,2.1-3.56,4-7.2,4.7-11.19.32-1.76-1.24-2.67-3.14-1.93-1.65.63-3.19,1.46-4.81,2.15-1.36.58-4.3,1.82-5.64,3.41C81,26.87,83.53,31,85.32,31.9Zm5.5-11.63c-.6,3.17-2.81,7.43-4.31,10.35-2.63-2.31-3.1-3.4-4.62-6.47C83.1,23.05,89.27,21,90.82,20.27Z"/><path class="cls-5" d="M90.82,20.27c-1.55.76-7.72,2.78-8.93,3.88,1.52,3.07,2,4.16,4.62,6.47C88,27.7,90.22,23.44,90.82,20.27Z"/><path d="M48.27,8.83c1.84,2.83,3.95,2.54,6.38,1.31,2.27-1.16,3-2.73,3.91-5.06A1.26,1.26,0,0,0,58,3.49a4.71,4.71,0,0,0-.64-.4c-1-.54-6.53-1.81-8.93-1.53a1.49,1.49,0,0,0-.91.42C46.2,3.17,46.85,6.64,48.27,8.83Z"/><path d="M37.07,15.5c1.83-.45,2.39-3.49,1.35-5.26A3.05,3.05,0,0,0,34.89,8.9a2.54,2.54,0,0,0-1.84,2.68C33.05,13.8,35.25,15.94,37.07,15.5Z"/><path d="M66,19.57c1.9.1,3.58-2.61,3.27-4.57a2.75,2.75,0,0,0-2.82-2.28,2.86,2.86,0,0,0-2.76,2C62.88,16.82,64.15,19.47,66,19.57Z"/><path d="M9.19,38.89c4.47,3.63,20.3,12.16,30,13.34C59.37,54.65,81,50,86.82,46.56a5.63,5.63,0,0,1-.58,3.2,199.25,199.25,0,0,1-36.06,4.76C27.78,55.15,9.39,43,9.49,41.35A9.09,9.09,0,0,0,9.19,38.89Z"/></g></g></svg>