<svg xmlns="http://www.w3.org/2000/svg" viewBox="0 0 116.3 103.32"><defs><style>.cls-1{fill:#fcfcfc;}.cls-2{fill:#f6c17a;}.cls-3{fill:#0e0e0c;}.cls-4{fill:#0e0e0d;}.cls-5{fill:#e4c3d5;}.cls-6{fill:#e2d78d;}.cls-7{fill:#66102f;}.cls-8{fill:#680f00;}.cls-9{fill:#fff;}.cls-10{fill:#0a602f;}.cls-11{fill:#f4f3f2;}</style></defs><title>Corgi_Q</title><g id="Layer_2" data-name="Layer 2"><g id="Layer_1-2" data-name="Layer 1"><path d="M67.86,18.34c.23-4,0-7.91,5.14-7.82,3,.06,5.52,2.27,8.49,2.65a10.71,10.71,0,0,0,5.45-.93c1.49-.56,3.43-2.13,5.15-1.81,4,.74,4,5.67,2.67,8.43-1.18,2.42,2.44,4.55,3.63,2.12,1.87-3.85,2-8.82-.92-12.28-3.62-4.36-8.12-1.63-12.38-.25-3.87,1.25-6.21-.93-9.71-1.9-2.41-.66-4.21-.18-6.57.5C63,8.7,64,13.12,63.66,18.34c-.15,2.7,4,2.69,4.2,0Z"/><path class="cls-1" d="M98.53,92.08c-1.86-.21-4.44.52-6.28.24-2.07-.31-1.45,0-3.09,1,1.56,2.54,1,3.37,3.75,5.19a3.69,3.69,0,0,0,3.6.71c1.27-.5,1.18-1.57,1.43-2.51A11.64,11.64,0,0,0,98.53,92.08Z"/><path class="cls-1" d="M46.49,90.89a10.41,10.41,0,0,0-5.23-.46c-2.48.22-4.49-1.13-6.48,0,.79,4.24,2.79,6.23,5,9.6.82,1.27,1.86,2.41,3.46,1.84a3.66,3.66,0,0,0,2.29-3.23C45.93,96.11,46.17,93.49,46.49,90.89Z"/><path class="cls-1" d="M102.35,38.38C100.13,37.1,89.26,30.74,78.93,33s-27.25,4.62-30.2,7.14C45.35,43,32.24,46.62,25.62,49.64S12,58.5,11.47,62.28,9.73,80.73,10.14,83.83s11.7,6.55,21.45,6.55,35,.48,36.15,0,16.85-.21,20.45-1.16c2.86-.76,7.91-11.85,8.51-12.14a90.44,90.44,0,0,0,8.58-3.5c2.65-1.47,10.35-7.21,10.06-12.23-.37-6.44-2.11-12-6-14.41S104.85,39.84,102.35,38.38Z"/><path class="cls-2" d="M45.35,43c1-.59.91-1,2-1.55a2,2,0,0,0,1-1.68c1.29-7.06,3.94-13.44,7-19.94a11.34,11.34,0,0,1,1.88-3.13c1.49-1.61,3-1.75,4.48-.16,1.29,1.42,2.36,3,3.51,4.59.29.38,1.13,1.64,1.38,2.1,1.27,2.37,1.05,1.75,2.09,3.56a26.42,26.42,0,0,1,1.93,4.12c.41,1,2.56,3.06,2.88,4.1a10,10,0,0,1,2.92-1.34c2.08-.79,3.88-1,7.86-.86.68,2,3.72,7.51,4.29,9.54,1.65,5.85.36,10.39-5.21,15-4.13,3.42-4.13,2.88-6.63,3.78s-13.7-.69-16.47-1.7C51.93,56.36,45.42,44.84,45.35,43Z"/><path class="cls-2" d="M92.23,34.41a45.34,45.34,0,0,0,1.55-7.26,16.44,16.44,0,0,1,.87-4.9c.82-2.08.91-5.43,2.9-5.42,1.2,0,1.45,2,1.72,3.11,1.5,6.06,3.72,13.35,4.4,19.55.06.48-1.35-.65-.4.75A42.79,42.79,0,0,0,109.35,47c3.5,2.26,5.31,6,6,10.7-4.66-3.78-8.56-4.91-14.49-5.37-4.27-.32-7.7-4.28-9-8.4C91,41.4,89,36.17,88.09,33.69A7.25,7.25,0,0,1,92.23,34.41Z"/><path class="cls-2" d="M96.09,78.11c-4,2.54-6.35,5.87-8.92,8.18a24.75,24.75,0,0,1,1.09,4.21,29,29,0,0,1,.53,3.21c2.06-.76,8.32-1.48,10.52-.71C97.42,86,96.55,79,96.09,78.11Z"/><path class="cls-1" d="M67.51,94c-1.85-.21-3.72-.37-5.55-.65a8,8,0,0,0-5.52,1,21.69,21.69,0,0,0,6.62,6.4,3.69,3.69,0,0,0,3.6.71A2.28,2.28,0,0,0,68.09,99C68,97.34,67.72,95.69,67.51,94Z"/><path class="cls-1" d="M22.33,94.19a18.48,18.48,0,0,0-10.86-1.48,20.49,20.49,0,0,0,6.16,8.64,3.64,3.64,0,0,0,4.15.84c1.51-.72,1-2.16,1-3.36C22.7,97.28,22.49,95.73,22.33,94.19Z"/><path d="M99.49,53.7c-2.18-.5-7.88.66-8.84,1.15s-1.56,1-1.33,2a8.24,8.24,0,0,0,3.58,5.41c2.11,1.52,4,2,6-.85C100.69,58.81,101.68,54.2,99.49,53.7Z"/><path class="cls-2" d="M67.51,94.44c.33-1.3-.49-5.6.42-6.64-.58-1.89-1.88-2.12-2.72-4-2-4.38-5.1-6.16-9.07-8.73C53.38,73.33,48.27,65,45.21,59.88S41.94,44.6,40.8,44.78A51.17,51.17,0,0,0,20.64,52.1c-3.67,2.37-6.73,5-8.58,8.41s-1.76,8.69-2,13.11c-.38,6.66-1.16,13.31,1.18,19.65a6.6,6.6,0,0,0,.46.82c2.9-.46,8.12-.1,10.76,1.25.15-.42-.48-1.79-.33-2.21.95-2.68.37-2,3.18-1.89,3,.24,17.85-.84,26.78-1.17,2-.08,1.67.19,2.62,2,.37.69,1.82,2,2.2,2.69a5.11,5.11,0,0,1,4.3-1C62.64,94,66.07,94.23,67.51,94.44Z"/><path d="M104.1,47.74c0-1.08-1-3.69-3.17-3.29-1.62.3-2.24,1.78-2,3.33.26,1.72,1.27,3.39,3.07,3.29S104.1,48.82,104.1,47.74Z"/><path d="M76.39,54.42A3.3,3.3,0,0,0,78.73,50c-.32-1-1.64-3.45-3.34-3.08a2.81,2.81,0,0,0-2.18,2.67C72.84,52,74.58,54.65,76.39,54.42Z"/><path class="cls-3" d="M97.68,82.46C98.9,88.1,100,92.76,99,96.77c-.42,2.15-.88,3.53-2.64,3.85-1.94.36-4.52-1.52-6.12-3.89a13.58,13.58,0,0,1-2.09-6.62c-1.28-.35-4.66.79-6.75.84-3.55.08-9.06.43-12.6.35-.55.86-.12,1.26-.08,2.74,0,1.29.26,2.57.31,3.85.08,2-.62,3.11-2.61,4.13s-3.88.22-5.51-1.15a19.87,19.87,0,0,1-5.95-7.77c-.47-1-.84-1.86-2.29-1.79s-14.06.46-16,.6c-3.21.22-6.44.11-9.66.08-2.77,0-3.78,1-3.63,3.8.07,1.28.26,2.57.22,3.85a3.51,3.51,0,0,1-4,3.68,6.64,6.64,0,0,1-4.9-2.74A26,26,0,0,1,9.14,89.24c-.49-2.17,0-10.4-.44-12.61-.91.15-2.38.55-3.13.58-1.9.08-5-.26-5.51-.9-.5-1.25,2.39-2.87,3.63-4.48a56.92,56.92,0,0,0,5.53-8.94c1.12-2.61,2.74-4.35,4.59-6.54,5.15-6.11,12-9.17,19.56-10.88,4-.92,11.81-3.47,13.7-5.57.8-7,4-14.25,7.09-20.61,1.49-3.1,1.67-5.86,5.73-5.11,2.78,1.16,5.36,4.83,7.85,8.69a58.09,58.09,0,0,1,5.83,11.4c6.71-2.32,12.23-1.82,18-.29.34-1.58,2.15-11.15,3.07-13.68.62-1.7,1.14-5,3.17-4.17a5.24,5.24,0,0,1,1.78,2.05c.89,1.76,1.56,6.91,2,8.81,1.26,6,2.55,6.23,3,12.34a3.27,3.27,0,0,0,1.83,2.87c2.65,2.2,4.25,4.66,6.59,7.46,6.43,7.7,2.26,16.87-1.24,19.81-5,4.25-6.1,4.78-9.21,6-2,.63-2.79,1.4-5.23,2.33A22.75,22.75,0,0,0,97.68,82.46ZM94.37,99.09c.94.11,2,.22,2.67-.34a16.92,16.92,0,0,0,.9-7.45c-.5-5.19-2.19-6.91-2.13-11.74.14-1.48.61-2.33,1.49-2.74,3.85-1.77,4.47-2.48,8.37-4.71,4.74-2.71,8.52-6,9-11.74a8.09,8.09,0,0,0-.57-4.15A18.41,18.41,0,0,0,109.35,47c-2.18-1.81-5.06-4-5.94-6.25-.5-1.26-.66-3.39-1.14-5.22s-1.9-8.78-3.4-14.85c-.27-1.11-.85-3.41-1.8-3.29s-1.6,2.73-2.42,4.89C94,24.05,94.2,25.61,94,28a28.4,28.4,0,0,1-1.6,6.94c-1.84-.65-9.15-1.81-12.82-1.16s-2.92.38-6.14,1.88c-1.11-1-1.45-1.19-1.89-2.58-.33-1-1-2.29-1.46-3.31-.59-1.43-4.57-8.27-4.86-8.65-1.15-1.54-2.22-3.17-3.51-4.59-1.44-1.59-3-1.45-4.48.16a11.34,11.34,0,0,0-1.88,3.13,78,78,0,0,0-6.52,19.6,3.53,3.53,0,0,1-1.28,2.32c-1.14.58-1.63.89-3.28,1.84a11,11,0,0,1-3.91,1.54,45.72,45.72,0,0,0-19,7c-3.24,2.09-6.15,4.45-7.95,7.32C11.05,63.2,10.26,67.75,10,72.68a58.72,58.72,0,0,0,1.59,19,19.2,19.2,0,0,0,4.48,8.54c.88.85,4,2.31,5.21,1.7s1-3.13.92-4.13c-.06-1.28-.22-2.56-.34-3.83.15-.43.08-.83.21-1.26.57-1.84,1-1.94,3.79-1.85,9,.28,17.39-.93,26.32-1.27,2-.07,2.54.4,3.7,2.46.39.68,3.49,6,5.59,7.78.79.69,3.21,1.67,4.29,1.12s2-1.39,1.92-2.35c-.07-1.67-.29-3.32-.44-5,.33-1.3.29-2.37,1.2-3.42,5-.4,8.52-.35,13.5-.46.83,0,5.75-1.65,6.25-1.29s1.53,4.12,1.89,4.91S92.64,98.88,94.37,99.09Z"/><path class="cls-1" d="M11.47,63.64C9.53,66.31,6,71.26,3.88,73.46,2.48,75,1.15,75.79,3.59,76a20.52,20.52,0,0,0,4.53-.48A15.51,15.51,0,0,1,10,75.16C9.93,73.09,11.13,66,11.47,63.64Z"/><path class="cls-4" d="M65.94,33.88c-1.14,1.37-4.07,2.16-5.17,2.61-1.31.54-2.57,1.2-3.89,1.69-1.53.56-2.7-.35-2.34-1.92.8-3.55,1.9-9.32,3.75-12.41.58-1,1.55-.84,2.37-.29C62,24.47,64.9,31.08,65.94,33.88Zm-5.59-5.8A31.48,31.48,0,0,0,57,35.69c1.26-.61,2.4-.79,3.41-1.72C58.51,32.12,62.27,30.3,60.35,28.08Z"/><path class="cls-5" d="M59.9,24.48c1.92,2.22,3.39,6,4.38,8.83-1,.92-6.77,2.43-8,3C56.92,33.51,58.55,27,59.9,24.48Z"/><path class="cls-4" d="M86.73,84.74a21.25,21.25,0,0,1,2.15,4.55,15.3,15.3,0,0,0,.78,2.6,14.12,14.12,0,0,0,1.07,2.85c-.5-.22-1.36-.27-1.74-.79a12,12,0,0,1-1.17-3A44.43,44.43,0,0,1,86.73,84.74Z"/><path class="cls-4" d="M37.32,95.43c-.58-.94-1.32-3.31-3-4.44a47.27,47.27,0,0,0,3.33,7.65c1.2,2.18,3.62,4.32,5.9,3.86s2.27-1.88,2.66-4A26.28,26.28,0,0,0,47,94.3a9.53,9.53,0,0,0-.38-3.82c-.5.77-.64,2.89-.76,3.82s-.13,2.11-.31,3.44-.58,2.85-1.94,3.19a4,4,0,0,1-4.05-1.79C38.56,97.58,37.71,96.07,37.32,95.43Z"/><path class="cls-4" d="M68.13,86.47a16.71,16.71,0,0,1,.53,4.47c-.1,1.93,0,2.08,0,3.1s.3,3.58.3,3.58l-1.24.55a32.9,32.9,0,0,1-.52-4.55C67.24,92.11,67,87.63,68.13,86.47Z"/><path d="M79.77,0c1.15-.06,5,0,5,0-.41,1,0,6.88.1,9s-.78,7.41.68,8.39c-1.88,0-2.6,0-4.54,0,.67-.93-.12-6.62-.18-8.43S80.55,1.43,79.77,0Z"/><path d="M87.19,1.56c.07,1.22.25,5.88.25,5.88-.8-.42-2.14-1.72-3.89-1.6s-5,1.1-5.75,2.65c-.06-2-.14-4.37-.18-6.41.6.93,4.17,1.25,5.64,1.16A7.38,7.38,0,0,0,87.19,1.56Z"/><path class="cls-6" d="M98.81,15c0-3.66-1.23-7.88-7-7.86-5.25,0-4.11,1.88-8.7,2.16-5.55.33-6.72-3.38-13-2-5.86,1.28-5.59,6.78-5.27,11.34,0,0,1.18,1.7,2.07,3-.82-4.86-.22-11.42,4.48-11.63,6-.26,6.56,2.69,11.74,2.35,4.28-.27,3.81-2.48,8.7-2.5,5.35,0,5.24,2.92,5.27,6.58a7.23,7.23,0,0,1-.54,3.43c.47,0,.68,1.37,1,1.35C98.5,17.91,98.84,18.68,98.81,15Z"/><path d="M84.92,36.86c5,.13,11.44.27,13.42-4.35.88-2,1.09-6.07-.74-8,1.21-2,.62-4.85-.33-6.47-1-1.79-6.14-2.89-6.94-.53A9.24,9.24,0,0,0,82.2,14.1c-2.54.17-4.31,1.51-6,2.92a7.19,7.19,0,0,0-6.37-.85c-1.89.52-3.17,2.06-3.75,5.28a111.39,111.39,0,0,0,7.34,14.23C76.77,36.39,78.51,36.7,84.92,36.86Z"/><path class="cls-7" d="M89.06,31.25c4.47-.43,7.89-2,8.18-6.34.24-3.78.18-7.28-3.59-7.73-3.09-.37-3.06.66-3.5,2.26-1.08-1.6-.65-1.89-2.61-3.1-2.9-1.8-6.78-2.34-9.26.21-1.31,1.35-1.12,2-1.48,2.89a5.13,5.13,0,0,0-5-2.87c-3.46.31-4.73,4-4.92,5.12,2.72,5.12,2.92,5,4.86,8.47C74.34,30.9,83.65,31.78,89.06,31.25Z"/><path class="cls-6" d="M89.46,36c4.47-.43,7.89-2,8.17-6.34,0-.53.61-2.7-.27-3-5.62-1.67-24.84-.63-28.18-1,2.71,5.12,2.65,5.54,4.59,9A54,54,0,0,0,89.46,36Z"/><path class="cls-6" d="M81.25,16.88c.76-.06,3.65,0,3.65,0a11,11,0,0,0-1.05,4.28c.06,1.94.63,5.55,1.6,6.44-1.24,0-2.76.07-4,.07.59-.65.83-4.6.79-6.24A13,13,0,0,0,81.25,16.88Z"/><path class="cls-6" d="M87.35,19c.05.76.19,3.71.19,3.71a12.43,12.43,0,0,0-3.65-.88c-1.58-.07-4.33.06-5,1,0-1.24-.08-2.21-.11-3.5.53.59,3.74.77,5.07.7A8.27,8.27,0,0,0,87.35,19Z"/><path class="cls-8" d="M82.07,20.33H83.9c-.14.18-.09.45-.09.68a.84.84,0,0,0,.28.67l-2,0c.16-.16.18-.4.16-.76S82.2,20.72,82.07,20.33Z"/><path class="cls-6" d="M72.13,18.79c0-.44.27-.78.9-1.77.53.83,1,1.2,1,1.8a19.08,19.08,0,0,0-.33,2.71c0,1.3.42,3.72,1.1,4.33-.88,0-2,0-2.87,0,.42-.43.62-3.08.6-4.18S72.13,19.22,72.13,18.79Z"/><path class="cls-6" d="M75.36,20.72c.49.6-.08,1.82-.08,1.82a2.5,2.5,0,0,0-2.06-1,2.89,2.89,0,0,0-2.19,1c0-.74-.38-1.33,0-1.82s1.48-.22,2.19-.22S74.89,20.14,75.36,20.72Z"/><path class="cls-6" d="M80.77,1c.77-.06,3.29,0,3.29,0-.28.88,0,6.29.06,8.23s-.51,6.77.45,7.66c-1.24,0-1.72,0-3,0,.45-.84-.07-6-.12-7.68S81.29,2.28,80.77,1Z"/><path class="cls-6" d="M86.75,2.74c.06.77.2,3.71.2,3.71a7.57,7.57,0,0,0-3.48-1c-1.58.09-4.48.72-5.19,1.7,0-1.24-.11-2.76-.13-4,.53.58,3.74.76,5.07.7A8.37,8.37,0,0,0,86.75,2.74Z"/><circle class="cls-9" cx="82.67" cy="4.72" r="0.68"/><circle class="cls-9" cx="82.63" cy="8.05" r="0.68"/><circle class="cls-9" cx="82.74" cy="9.91" r="0.68"/><circle class="cls-9" cx="82.74" cy="11.84" r="0.68"/><circle class="cls-9" cx="82.93" cy="13.69" r="0.68"/><circle class="cls-9" cx="82.98" cy="15.61" r="0.68"/><ellipse class="cls-10" cx="83.51" cy="30.91" rx="1.84" ry="0.93"/><ellipse class="cls-10" cx="75.56" cy="30.91" rx="1.84" ry="0.93"/><ellipse class="cls-10" cx="91.1" cy="31.41" rx="1.84" ry="0.93"/><path class="cls-6" d="M91.93,19c0-.43.28-.78.9-1.76.53.82,1,1.2,1,1.8a17.39,17.39,0,0,0-.34,2.7c0,1.31.42,3.73,1.11,4.33-.89,0-2,0-2.88,0,.43-.43.62-3.08.6-4.19S91.93,19.46,91.93,19Z"/><path class="cls-6" d="M95.17,21c.49.6-.08,1.83-.08,1.83a2.54,2.54,0,0,0-2.07-1,2.85,2.85,0,0,0-2.18,1c0-.74-.39-1.33,0-1.82s1.47-.22,2.19-.22S94.69,20.37,95.17,21Z"/><path d="M47.41,45.2a2.81,2.81,0,0,1-2.12,3.37,2.64,2.64,0,0,1-3.22-2.08,2.79,2.79,0,0,1,2.12-3.35A2.63,2.63,0,0,1,47.41,45.2Z"/><path class="cls-11" d="M46.72,45.46a2.27,2.27,0,0,1-1.52,2.69,1.89,1.89,0,0,1-2.36-1.46A2.29,2.29,0,0,1,44.35,44,1.89,1.89,0,0,1,46.72,45.46Z"/><path d="M47.72,53.4a2.82,2.82,0,0,1-3.59-1.72,2.65,2.65,0,0,1,1.71-3.44A2.81,2.81,0,0,1,49.41,50,2.63,2.63,0,0,1,47.72,53.4Z"/><path class="cls-11" d="M47.39,52.75a2.28,2.28,0,0,1-2.85-1.21A1.89,1.89,0,0,1,45.73,49a2.28,2.28,0,0,1,2.86,1.2A1.9,1.9,0,0,1,47.39,52.75Z"/><path d="M47.18,54.72a2.81,2.81,0,0,1,3.37-2.12,2.64,2.64,0,0,1,2,3.27A2.8,2.8,0,0,1,49.19,58,2.62,2.62,0,0,1,47.18,54.72Z"/><path class="cls-11" d="M47.91,54.78A2.26,2.26,0,0,1,50.44,53a1.88,1.88,0,0,1,1.5,2.33,2.28,2.28,0,0,1-2.53,1.79A1.9,1.9,0,0,1,47.91,54.78Z"/><path d="M49.05,59.4a2.82,2.82,0,0,1,3.37-2.13,2.64,2.64,0,0,1,2,3.27,2.79,2.79,0,0,1-3.36,2.1A2.62,2.62,0,0,1,49.05,59.4Z"/><path class="cls-11" d="M49.78,59.46a2.28,2.28,0,0,1,2.54-1.77A1.87,1.87,0,0,1,53.81,60a2.29,2.29,0,0,1-2.53,1.8A1.92,1.92,0,0,1,49.78,59.46Z"/><path d="M52.79,62.66a2.82,2.82,0,0,1,3.54-1.84,2.65,2.65,0,0,1,1.73,3.42,2.79,2.79,0,0,1-3.52,1.82A2.63,2.63,0,0,1,52.79,62.66Z"/><path class="cls-11" d="M53.52,62.78a2.27,2.27,0,0,1,2.67-1.55,1.87,1.87,0,0,1,1.3,2.44,2.29,2.29,0,0,1-2.67,1.59A1.91,1.91,0,0,1,53.52,62.78Z"/><path d="M62.21,66.66a2.81,2.81,0,0,1-3.28,2.26,2.66,2.66,0,0,1-2.14-3.19,2.8,2.8,0,0,1,3.28-2.23A2.61,2.61,0,0,1,62.21,66.66Z"/><path class="cls-11" d="M61.48,66.63A2.28,2.28,0,0,1,59,68.5a1.89,1.89,0,0,1-1.59-2.28,2.28,2.28,0,0,1,2.46-1.89A1.91,1.91,0,0,1,61.48,66.63Z"/><path d="M62,72.71a2.81,2.81,0,0,1-1.93-3.48,2.64,2.64,0,0,1,3.38-1.82,2.81,2.81,0,0,1,1.91,3.48A2.62,2.62,0,0,1,62,72.71Z"/><path class="cls-11" d="M62.09,72a2.27,2.27,0,0,1-1.61-2.64A1.86,1.86,0,0,1,62.89,68a2.28,2.28,0,0,1,1.64,2.63A1.91,1.91,0,0,1,62.09,72Z"/><path d="M67.14,70.26a2.82,2.82,0,0,1,2.72,2.92A2.66,2.66,0,0,1,67,75.76a2.8,2.8,0,0,1-2.69-2.92A2.63,2.63,0,0,1,67.14,70.26Z"/><path class="cls-11" d="M67.21,71a2.26,2.26,0,0,1,2.21,2.16,1.87,1.87,0,0,1-2,1.9,2.28,2.28,0,0,1-2.23-2.15A1.9,1.9,0,0,1,67.21,71Z"/><path d="M68.17,75a2.83,2.83,0,0,1,3.38-2.13,2.65,2.65,0,0,1,2,3.28,2.8,2.8,0,0,1-3.36,2.1A2.63,2.63,0,0,1,68.17,75Z"/><path class="cls-11" d="M68.91,75.07a2.27,2.27,0,0,1,2.53-1.77,1.9,1.9,0,0,1,1.5,2.34,2.29,2.29,0,0,1-2.53,1.79A1.9,1.9,0,0,1,68.91,75.07Z"/><path d="M77.93,76.07a2.82,2.82,0,0,1-1.05,3.85,2.65,2.65,0,0,1-3.69-1.06A2.79,2.79,0,0,1,74.25,75,2.63,2.63,0,0,1,77.93,76.07Z"/><path class="cls-11" d="M77.35,76.52a2.27,2.27,0,0,1-.68,3A1.88,1.88,0,0,1,74,78.83a2.27,2.27,0,0,1,.65-3A1.91,1.91,0,0,1,77.35,76.52Z"/><path d="M77.38,78.62a2.81,2.81,0,0,1,3.37-2.12,2.64,2.64,0,0,1,2,3.27,2.79,2.79,0,0,1-3.36,2.1A2.63,2.63,0,0,1,77.38,78.62Z"/><path class="cls-11" d="M78.11,78.68a2.25,2.25,0,0,1,2.53-1.76,1.88,1.88,0,0,1,1.5,2.33A2.29,2.29,0,0,1,79.61,81,1.9,1.9,0,0,1,78.11,78.68Z"/><path d="M81.88,79.68a2.82,2.82,0,0,1,3.37-2.12,2.64,2.64,0,0,1,2,3.27,2.8,2.8,0,0,1-3.36,2.1A2.63,2.63,0,0,1,81.88,79.68Z"/><path class="cls-11" d="M82.61,79.75A2.28,2.28,0,0,1,85.15,78a1.87,1.87,0,0,1,1.49,2.33,2.27,2.27,0,0,1-2.52,1.79A1.91,1.91,0,0,1,82.61,79.75Z"/><path d="M88.5,77.65a2.83,2.83,0,0,1,3.5,1.9,2.64,2.64,0,0,1-1.87,3.35A2.8,2.8,0,0,1,86.65,81,2.63,2.63,0,0,1,88.5,77.65Z"/><path class="cls-11" d="M88.8,78.32a2.28,2.28,0,0,1,2.79,1.35,1.88,1.88,0,0,1-1.31,2.44,2.27,2.27,0,0,1-2.8-1.33A1.91,1.91,0,0,1,88.8,78.32Z"/><path d="M92.18,82.19a2.81,2.81,0,0,1-.39-4,2.64,2.64,0,0,1,3.82-.33A2.8,2.8,0,0,1,96,81.85,2.62,2.62,0,0,1,92.18,82.19Z"/><path class="cls-11" d="M92.56,81.57a2.27,2.27,0,0,1-.44-3.06,1.87,1.87,0,0,1,2.75-.29,2.29,2.29,0,0,1,.47,3.07A1.9,1.9,0,0,1,92.56,81.57Z"/></g></g></svg>