<svg xmlns="http://www.w3.org/2000/svg" viewBox="0 0 181.48 121.4"><defs><style>.cls-1{fill:#0e0e0c;}.cls-2{fill:#fff;}.cls-3{fill:#f4f4f4;}.cls-4{fill:#fcfcfc;}.cls-5{fill:#f6c17a;}.cls-6{fill:#0e0e0d;}.cls-7{fill:#e4c3d5;}.cls-8{fill:#e2d78d;}</style></defs><title>Corgi_G_1</title><g id="Layer_2" data-name="Layer 2"><g id="Layer_1-2" data-name="Layer 1"><path class="cls-1" d="M114.51,68.9l6.07-5.36s.36-7.59,5.27-10.92,48.28-8.59,52.81-4.75,2.58,18.6,1.17,20.21S134.27,74.49,128,72.87c-3.25-.84-5.61-2.27-6.59-4.13C120.15,68.4,114.51,68.9,114.51,68.9Z"/><path class="cls-2" d="M117.78,67.75l5.09-4.49s-.15-6.78,4-9.57,46.25-7.48,50.05-4.27,3,15.65,1.78,17-44.24,7-49.51,5.65a9.44,9.44,0,0,1-5.59-4.45C122.51,67.33,117.78,67.75,117.78,67.75Z"/><path d="M98.23,16.11c-1.29-3.84-2.9-6-5-7-2.24-1-5-.53-8.5,1C86,6.42,87.36,1.18,76.63,0a17.84,17.84,0,0,0-5.2.73c-3.64,1.67-3.82,5.19-4.59,7.48C66.55,6.08,62.35,6,61.29,6.14c-4.26.68-8.85,2.64-9.24,8.4-.83,12,6,8.87,9.71,13.61l.65,16.25,26.28-.7,0-15C92.79,26.19,99.44,27.14,98.23,16.11Z"/><path class="cls-3" d="M96.87,16.47C94.38,9,90.55,8.11,84.24,10.84c.1-3,2-10-8.14-10-6.2,0-7.74,5.48-8.66,8.23-3.95-3.24-13.38-1.24-13.86,5.66-.77,11.29,6,8.18,9.55,12.62L63.28,43H86.81l1.28-15C91.31,25.13,99.82,25.32,96.87,16.47Z"/><path d="M78.93,38.37A36.81,36.81,0,0,1,84,30C81.2,31.22,79.54,35.28,78.93,38.37Z"/><path d="M70.77,37.88c-.88-2.4-3.14-4.83-4.83-6.9A8.61,8.61,0,0,1,70.77,37.88Z"/><path d="M74.52,37.08c.75-4.24-.17-7.77,1.9-9.66C73.08,28.54,74.52,37.08,74.52,37.08Z"/><path d="M60.21,25.13c1.55,3,4.93,1.79,9.34-1.16C64.17,26.69,60.21,25.13,60.21,25.13Z"/><path d="M90.82,26.69c-5.48,1.55-8.76-.88-12.68-3.22C80.54,28.08,87.9,29.53,90.82,26.69Z"/><path d="M77.63,22.53c-3.19,2.27-6,1.95-8.95.86C70.77,26.53,76.4,25,77.63,22.53Z"/><path class="cls-4" d="M98.53,110.16c-1.86-.21-4.44.51-6.28.23-2.07-.31-1.45,0-3.09,1,1.56,2.54,1,3.38,3.75,5.2a3.72,3.72,0,0,0,3.6.7c1.27-.5,1.18-1.57,1.43-2.5A11.69,11.69,0,0,0,98.53,110.16Z"/><path class="cls-4" d="M46.49,109a10.41,10.41,0,0,0-5.23-.47c-2.48.23-4.49-1.13-6.48,0,.79,4.24,2.79,6.23,5,9.6.82,1.27,1.86,2.41,3.46,1.85a3.68,3.68,0,0,0,2.29-3.24C45.93,114.18,46.17,111.57,46.49,109Z"/><path class="cls-4" d="M102.35,56.46c-2.22-1.29-13.09-7.64-23.42-5.43s-27.25,4.61-30.2,7.13C45.35,61,32.24,64.69,25.62,67.72S12,76.57,11.47,80.36,9.73,98.81,10.14,101.9s11.7,6.55,21.45,6.55,35,.49,36.15,0,16.85-.2,20.45-1.16c2.86-.76,7.91-11.85,8.51-12.14a85.25,85.25,0,0,0,8.58-3.5c2.65-1.46,10.35-7.21,10.06-12.23-.37-6.44-2.11-12-6-14.41S104.85,57.91,102.35,56.46Z"/><path class="cls-5" d="M45.35,61c1-.59.91-1,2-1.55a2,2,0,0,0,1-1.67c1.29-7.07,3.94-13.45,7-20a11.34,11.34,0,0,1,1.88-3.13c1.49-1.6,3-1.74,4.48-.16C63,36,64.1,37.63,65.25,39.18c.29.38,1.13,1.64,1.38,2.09,1.27,2.38,1.05,1.75,2.09,3.56A26.85,26.85,0,0,1,70.65,49c.41,1,2.56,3.06,2.88,4.1a9.75,9.75,0,0,1,2.92-1.33c2.08-.8,3.88-1,7.86-.87.68,2,3.72,7.51,4.29,9.55,1.65,5.84.36,10.38-5.21,15-4.13,3.42-4.13,2.88-6.63,3.79s-13.7-.69-16.47-1.71C51.93,74.43,45.42,62.92,45.35,61Z"/><path class="cls-5" d="M92.23,52.48a45.11,45.11,0,0,0,1.55-7.26,16.44,16.44,0,0,1,.87-4.9c.82-2.07.91-5.43,2.9-5.41,1.2,0,1.45,2,1.72,3.1,1.5,6.07,3.72,13.35,4.4,19.55.06.48-1.35-.64-.4.76A43.22,43.22,0,0,0,109.35,65c3.5,2.26,5.31,6,6,10.7-4.66-3.77-8.56-4.91-14.49-5.36-4.27-.33-7.7-4.29-9-8.4C91,59.47,89,54.24,88.09,51.76A7.25,7.25,0,0,1,92.23,52.48Z"/><path class="cls-5" d="M96.09,96.18c-4,2.54-6.35,5.88-8.92,8.18a24.75,24.75,0,0,1,1.09,4.21,29,29,0,0,1,.53,3.21c2.06-.75,8.32-1.48,10.52-.71C97.42,104,96.55,97,96.09,96.18Z"/><path class="cls-4" d="M67.51,112.1c-1.85-.21-3.72-.36-5.55-.64a7.94,7.94,0,0,0-5.52,1,21.84,21.84,0,0,0,6.62,6.41,3.72,3.72,0,0,0,3.6.7,2.27,2.27,0,0,0,1.43-2.5C68,115.41,67.72,113.76,67.51,112.1Z"/><path class="cls-4" d="M22.33,112.26a18.48,18.48,0,0,0-10.86-1.48,20.43,20.43,0,0,0,6.16,8.64,3.66,3.66,0,0,0,4.15.85c1.51-.73,1-2.16,1-3.37C22.7,115.35,22.49,113.81,22.33,112.26Z"/><path d="M99.49,71.77c-2.18-.5-7.88.67-8.84,1.15s-1.56,1-1.33,2a8.26,8.26,0,0,0,3.58,5.42c2.11,1.51,4,2,6-.86C100.69,76.89,101.68,72.28,99.49,71.77Z"/><path class="cls-5" d="M67.51,112.51c.33-1.3-.49-5.6.42-6.64-.58-1.89-1.88-2.12-2.72-4-2-4.38-5.1-6.16-9.07-8.72C53.38,91.4,48.27,83.11,45.21,78s-3.27-15.28-4.41-15.1a51.17,51.17,0,0,0-20.16,7.32c-3.67,2.37-6.73,5-8.58,8.41s-1.76,8.7-2,13.11C9.68,98.35,8.9,105,11.24,111.34a6.6,6.6,0,0,0,.46.82c2.9-.46,8.12-.09,10.76,1.25.15-.42-.48-1.79-.33-2.21.95-2.68.37-2,3.18-1.89,3,.24,17.85-.83,26.78-1.17,2-.07,1.67.2,2.62,2,.37.7,1.82,2,2.2,2.69a5.11,5.11,0,0,1,4.3-1C62.64,112.07,66.07,112.3,67.51,112.51Z"/><path d="M104.1,65.81c0-1.08-1-3.69-3.17-3.28-1.62.3-2.24,1.77-2,3.32.26,1.73,1.27,3.39,3.07,3.29S104.1,66.89,104.1,65.81Z"/><path d="M76.39,72.49a3.29,3.29,0,0,0,2.34-4.43c-.32-1-1.64-3.45-3.34-3.09a2.82,2.82,0,0,0-2.18,2.67C72.84,70.07,74.58,72.72,76.39,72.49Z"/><path class="cls-1" d="M97.68,100.53c1.22,5.64,2.3,10.3,1.28,14.31-.42,2.16-.88,3.54-2.64,3.86-1.94.35-4.52-1.53-6.12-3.9a13.55,13.55,0,0,1-2.09-6.62c-1.28-.35-4.66.8-6.75.84-3.55.09-9.06.43-12.6.36-.55.85-.12,1.26-.08,2.73,0,1.29.26,2.57.31,3.86.08,2-.62,3.1-2.61,4.12s-3.88.23-5.51-1.15a19.87,19.87,0,0,1-5.95-7.77c-.47-1-.84-1.86-2.29-1.79s-14.06.47-16,.6c-3.21.23-6.44.12-9.66.08-2.77,0-3.78,1-3.63,3.8.07,1.28.26,2.57.22,3.85-.07,2.43-1.57,3.77-4,3.68a6.64,6.64,0,0,1-4.9-2.74,26,26,0,0,1-5.56-11.34c-.49-2.16,0-10.4-.44-12.61-.91.15-2.38.56-3.13.59-1.9.07-5-.27-5.51-.9-.5-1.26,2.39-2.88,3.63-4.49A57.28,57.28,0,0,0,9.22,81c1.12-2.62,2.74-4.36,4.59-6.55,5.15-6.11,12-9.16,19.56-10.88,4-.92,11.81-3.46,13.7-5.56.8-7,4-14.26,7.09-20.61,1.49-3.11,1.67-5.87,5.73-5.12,2.78,1.17,5.36,4.83,7.85,8.69a58.37,58.37,0,0,1,5.83,11.4c6.71-2.32,12.23-1.82,18-.29.34-1.57,2.15-11.15,3.07-13.68.62-1.7,1.14-5,3.17-4.17a5.24,5.24,0,0,1,1.78,2c.89,1.76,1.56,6.91,2,8.81,1.26,6,2.55,6.23,3,12.34a3.27,3.27,0,0,0,1.83,2.87c2.65,2.2,4.25,4.66,6.59,7.46,6.43,7.7,2.26,16.87-1.24,19.82-5,4.24-6.1,4.77-9.21,6-2,.62-2.79,1.39-5.23,2.32A22.7,22.7,0,0,0,97.68,100.53Zm-3.31,16.63c.94.11,2,.22,2.67-.33a17,17,0,0,0,.9-7.45c-.5-5.2-2.19-6.92-2.13-11.75.14-1.47.61-2.33,1.49-2.73,3.85-1.77,4.47-2.48,8.37-4.71,4.74-2.72,8.52-6,9-11.75a8.11,8.11,0,0,0-.57-4.15A18.41,18.41,0,0,0,109.35,65c-2.18-1.81-5.06-4-5.94-6.25-.5-1.26-.66-3.39-1.14-5.22s-1.9-8.78-3.4-14.85c-.27-1.11-.85-3.41-1.8-3.29s-1.6,2.74-2.42,4.89c-.68,1.8-.45,3.36-.63,5.73A28.28,28.28,0,0,1,92.42,53c-1.84-.65-9.15-1.8-12.82-1.16s-2.92.38-6.14,1.88c-1.11-1-1.45-1.19-1.89-2.58-.33-1-1-2.29-1.46-3.3-.59-1.44-4.57-8.27-4.86-8.65C64.1,37.63,63,36,61.74,34.58c-1.44-1.58-3-1.44-4.48.16a11.34,11.34,0,0,0-1.88,3.13,78.15,78.15,0,0,0-6.52,19.6,3.55,3.55,0,0,1-1.28,2.33c-1.14.58-1.63.89-3.28,1.83a11.07,11.07,0,0,1-3.91,1.55,45.56,45.56,0,0,0-19,7c-3.24,2.09-6.15,4.45-7.95,7.33-2.38,3.77-3.17,8.32-3.45,13.25a58.78,58.78,0,0,0,1.59,19,19.22,19.22,0,0,0,4.48,8.53c.88.85,4,2.31,5.21,1.7s1-3.13.92-4.12c-.06-1.29-.22-2.56-.34-3.84.15-.42.08-.83.21-1.26.57-1.84,1-1.94,3.79-1.85,9,.29,17.39-.93,26.32-1.27,2-.07,2.54.4,3.7,2.46.39.69,3.49,6,5.59,7.78.79.69,3.21,1.68,4.29,1.12s2-1.39,1.92-2.35c-.07-1.66-.29-3.32-.44-5,.33-1.3.29-2.37,1.2-3.41,5-.41,8.52-.35,13.5-.46.83,0,5.75-1.66,6.25-1.3s1.53,4.12,1.89,4.91S92.64,117,94.37,117.16Z"/><path class="cls-4" d="M11.47,81.72C9.53,84.39,6,89.33,3.88,91.53c-1.4,1.49-2.73,2.33-.29,2.52a21.12,21.12,0,0,0,4.53-.47A13.92,13.92,0,0,1,10,93.23C9.93,91.16,11.13,84.1,11.47,81.72Z"/><path class="cls-6" d="M65.94,52c-1.14,1.36-4.07,2.16-5.17,2.6-1.31.54-2.57,1.2-3.89,1.69-1.53.56-2.7-.34-2.34-1.91.8-3.56,1.9-9.33,3.75-12.42.58-1,1.55-.84,2.37-.28C62,42.55,64.9,49.15,65.94,52Zm-5.59-5.81A31.66,31.66,0,0,0,57,53.76c1.26-.61,2.4-.79,3.41-1.71C58.51,50.2,62.27,48.37,60.35,46.15Z"/><path class="cls-7" d="M59.9,42.55c1.92,2.23,3.39,6,4.38,8.83-1,.92-6.77,2.43-8,3C56.92,51.58,58.55,45.11,59.9,42.55Z"/><path class="cls-6" d="M86.73,102.82a20.94,20.94,0,0,1,2.15,4.54,15,15,0,0,0,.78,2.6,13.9,13.9,0,0,0,1.07,2.85c-.5-.22-1.36-.27-1.74-.79a12,12,0,0,1-1.17-3A44.54,44.54,0,0,1,86.73,102.82Z"/><path class="cls-6" d="M37.32,113.5c-.58-.94-1.32-3.31-3-4.43a47.59,47.59,0,0,0,3.33,7.64c1.2,2.18,3.62,4.32,5.9,3.86s2.27-1.88,2.66-4a26.37,26.37,0,0,0,.71-4.14,9.56,9.56,0,0,0-.38-3.83c-.5.77-.64,2.89-.76,3.83s-.13,2.11-.31,3.43-.58,2.85-1.94,3.19a4,4,0,0,1-4.05-1.79C38.56,115.65,37.71,114.14,37.32,113.5Z"/><path class="cls-6" d="M68.13,104.54a16.71,16.71,0,0,1,.53,4.47c-.1,1.93,0,2.08,0,3.1s.3,3.59.3,3.59l-1.24.54a32.69,32.69,0,0,1-.52-4.55C67.24,110.19,67,105.71,68.13,104.54Z"/><path d="M96.35,62.43c.1.36,1.16.38,1.84-.39s1.28-1.19,1.39-2c0-.13-.25-.34-.43-.38s-.4.13-.51.36C97.85,61.63,96.26,62.07,96.35,62.43Z"/><path d="M75.16,61.17c-.28.25.17,1.21,1.16,1.48s1.64.62,2.45.33c.13,0,.19-.37.15-.56s-.3-.3-.55-.29C76.54,62.16,75.44,60.92,75.16,61.17Z"/><path class="cls-1" d="M136.89,61.41c-.81,0-1.61.1-2.41.18-.06-.79-.12-1.53-.2-2.16a7.08,7.08,0,0,0,1.51-.75c-.53,0-1.06.06-1.6.11a3.27,3.27,0,0,0-.05-.35c-.29-1.5-.32-2.92-1.08-3.89-.72.75-.47,1.73-.39,2.53s.16,1.49-.07,1.76a.64.64,0,0,1-.15.13,20.21,20.21,0,0,0-2.76.58h0c-.42-1.83.23-2.94-1-4.66a26.17,26.17,0,0,0-.27,5.11c-.47.19-.93.39-1.39.63-.72.39-.81,1.12.14,1.56a5.55,5.55,0,0,1,1.27-1c0,.69,0,1.36.05,2l-.36.18c-.72.38-.82,1.11.14,1.55a3.71,3.71,0,0,1,.29-.27,7.23,7.23,0,0,0,.2,1.62.73.73,0,0,0,1.13.4,21.46,21.46,0,0,0-.19-2.82,13.58,13.58,0,0,1,3.62-1.11,4.23,4.23,0,0,0,1.39,3c0-1-.05-2.13-.12-3.3A7.93,7.93,0,0,0,136.89,61.41Zm-7.39,1.31c-.11-.9-.15-1.56.11-1.85a4.15,4.15,0,0,1,1.76-.69l1.37-.31h.07a9.06,9.06,0,0,1,.33,1.91A17.12,17.12,0,0,0,129.5,62.72Z"/><path class="cls-6" d="M89.62,81.13c.69,2,.4,2.64-1.5,2.79a9.67,9.67,0,0,1-4.22-.34c-1.32-.53-1.74-1.24-1.07-2.47a8.93,8.93,0,0,1,1.47-2.27,2.48,2.48,0,0,1,3.94.07A8.42,8.42,0,0,1,89.62,81.13ZM88,82.29a2.68,2.68,0,0,0-.74-2.15c-.86-1.22-1.55-1.18-2.37.1-.3.48-.58,1-.88,1.5A4.67,4.67,0,0,0,88,82.29Z"/><path class="cls-7" d="M88.75,82.73c-1.71.46-5,.1-5-.75s.7-1.3,1.08-1.91c1-1.61,1.85-1.65,2.93-.08A3.53,3.53,0,0,1,88.75,82.73Z"/><path d="M84.94,54.89c5,.13,11.44.27,13.42-4.35.88-2,1.09-6.07-.74-8-2.77-2.93-2-2.53-4.69-4.59-2,8.46-4.48,5.57-4.84,4.32s1-2.27,1.54-3.77c-1.79.6-1.53.37-3.65,2-4.78,3.73-2.1,4.47-4,2-1.59-2-.46-3,0-5.18-4.17,2.49-8.79,7-6.44,2-5,1.06-3,5.8-8.23,1.6,2.2,5.19,4,11.6,6.15,12.78A50.28,50.28,0,0,0,84.94,54.89Z"/><path class="cls-8" d="M89.48,54c4.47-.43,7.89-2,8.17-6.34.25-3.78.4-3.14-2.3-5.48a11.13,11.13,0,0,1-2.06-2.33s-.45,1-1,2.72c-.74,2.19-3.31,3.15-4.44,1.51C86,41.43,90.62,38,86.34,41.21s-1,7.09-4.28,3.18.5-6-3.24-3.91-6.81,4.37-4.73.07c-2.71,1.91-2.42,5.37-5.25,2.5,2.72,5.12,3,6.21,5,9.66A54,54,0,0,0,89.48,54Z"/><path class="cls-1" d="M142.72,67.86c-.91-3.12,1.05-10.86-.58-13.92.71-.77,1.37-.46,1.52.35C144.23,57.36,143.49,64.92,142.72,67.86Z"/><path class="cls-1" d="M142.68,56.05c-1.82.93-.52,3.42,1.53,4.6,2.21,1.27,2.26,2.82.95,4.46s-4.21,1.09-6.33-1c1.61.45,4.67,1.61,5.46.1s-.18-2.08-1.5-2.86c-2.78-1.62-3.63-5.33-.4-6.28a3.32,3.32,0,0,1,3.7,1.14C144.34,55.74,144.5,55.12,142.68,56.05Z"/><path class="cls-1" d="M176.22,65.88c-1.86-2.67-2.45-10.63-5-13,.43-1,1.15-.88,1.55-.16C174.32,55.45,176,62.86,176.22,65.88Z"/><path class="cls-1" d="M172.43,54.69c-1.43,1.46.59,3.41,2.91,3.88,2.5.51,3,2,2.32,3.93s-3.65,2.37-6.32,1c1.67-.08,4.94.05,5.2-1.62s-.82-1.93-2.32-2.24c-3.16-.66-5.13-3.9-2.38-5.83a3.32,3.32,0,0,1,3.88-.09C173.91,53.88,173.86,53.23,172.43,54.69Z"/><path class="cls-1" d="M154.76,61c-.92-3.12.77-5.2-.86-8.26.7-.78,1.36-.47,1.51.34C156,56.13,155.52,58,154.76,61Z"/><path class="cls-1" d="M153.9,64c.7-.77,1.36-.46,1.51.35C156,67.37,154.3,65.33,153.9,64Z"/><path class="cls-1" d="M164.47,63.37c-2.17-4.15-1.09-3.68-2.38-8.4,1-1.14.94-.53,1.16.66C164.09,60.14,164.85,62.22,164.47,63.37Z"/><path class="cls-1" d="M160,62.26c.14-.26,0-1,.21-1.13,2.23-1.65,2.37-2.12,5.29-5.65,1.53.19,1.24.61.39,1.47C162.73,60.24,164,60.31,160,62.26Z"/><path class="cls-1" d="M159.42,56.78c.45-.48,3.34,1.54,7.85,3.43.26,1.52,0,1.23-1.06.68C162.13,58.77,159,57.27,159.42,56.78Z"/></g></g></svg>