<svg xmlns="http://www.w3.org/2000/svg" viewBox="0 0 128.61 190.27"><defs><style>.cls-1{fill:#fdfdfc;}.cls-2{fill:#f6c17a;}.cls-3{fill:#0e0e0d;}.cls-4{fill:#e4c3d5;}.cls-5{fill:#fff;}.cls-6{fill:#303030;}.cls-7{fill:#1a1a1a;}.cls-8{fill:#7c7c7c;}.cls-9{fill:#010101;}.cls-10{fill:#5f5f5f;}.cls-11{fill:#c2c2c2;}.cls-12{fill:#929292;}.cls-13{fill:#bebebe;}.cls-14{fill:#535353;}.cls-15{fill:#6e6e6e;}.cls-16{fill:#919191;}.cls-17{fill:silver;}.cls-18{fill:#6d6d6d;}.cls-19{fill:#d5d5d5;}.cls-20{fill:#e9e9e9;}.cls-21{fill:#e1e1e1;}.cls-22{fill:#aaa;}.cls-23{fill:#a3a3a3;}.cls-24{fill:#f0f0f0;}.cls-25{fill:#d3d3d3;}.cls-26{fill:#e2e2e2;}.cls-27{fill:#ededed;}.cls-28{fill:#ebebeb;}.cls-29{fill:#dbdbdb;}.cls-30{fill:#d2d2d2;}.cls-31{fill:#131313;}.cls-32{fill:#060606;}.cls-33{fill:#4b4b4b;}.cls-34{fill:#1f1f1f;}.cls-35{fill:#1e1e1e;}.cls-36{fill:#2b2b2b;}.cls-37{fill:#0c0c0c;}.cls-38{fill:#bababa;}.cls-39{fill:#c6c6c6;}.cls-40{fill:#b3b3b3;}.cls-41{fill:#272727;}.cls-42{fill:#c7c7c7;}.cls-43{fill:#595959;}.cls-44{fill:#767676;}.cls-45{fill:#c9c9c9;}.cls-46{fill:#aeaeae;}.cls-47{fill:#555;}.cls-48{fill:#7d7d7d;}.cls-49{fill:#afafaf;}.cls-50{fill:#ececec;}.cls-51{fill:#a7a7a7;}.cls-52{fill:#d9d9d9;}.cls-53{fill:#c4c4c4;}.cls-54{fill:#cbcbcb;}.cls-55{fill:#d0d0d0;}.cls-56{fill:#191919;}.cls-57{fill:#212121;}.cls-58{fill:#2c2c2c;}.cls-59{fill:#161616;}.cls-60{fill:#141414;}.cls-61{fill:#111;}.cls-62{fill:#101010;}.cls-63{fill:#151515;}.cls-64{fill:#171717;}.cls-65{fill:#efefef;}.cls-66{fill:#d8d8d8;}.cls-67{fill:#e0e0e0;}.cls-68{fill:#ddd;}.cls-69{fill:#7e7e7e;}.cls-70{fill:#646464;}.cls-71{fill:#070707;}.cls-72{fill:#333;}.cls-73{fill:#5c5c5c;}.cls-74{fill:#1c1c1c;}.cls-75{fill:#e7e7e7;}.cls-76{fill:#b9b9b9;}.cls-77{fill:#5d5d5d;}.cls-78{fill:#575757;}.cls-79{fill:#d4d4d4;}</style></defs><title>Corgi_X</title><g id="Layer_2" data-name="Layer 2"><g id="Layer_1-2" data-name="Layer 1"><path class="cls-1" d="M42.14,85.64c-2.46.92-5.64-2.45-8-1.76-2,.33-7.36,8.54-8.76,7.9-1.85-.86.68-10.85,1.91-12.27-1.65-1.33-8.45-4.78-8.24-5.93.34-1.8,2.15-1.75,2.9-2.92a20.75,20.75,0,0,1,6-6.11c3.51-2.31-.12-16,3.14-18.62.49-5.9,1.92-11.54.18-12-.35-1.31-.71-2.62-1.06-3.92a25.79,25.79,0,0,0,3.48-3.62c3-4.65,7-8.36,10.85-12.26,2.27-2.29,2.51-7.85,2.31-8.48S46.09,3,46.4,3.11c.66.23,1.26-1.62,2.06-1.53,1.42.14,1.95-.81,3.33-1.31,2.36-.85,5.88,2.28,6.58,2.87a4.32,4.32,0,0,0-.3,3.5,11.58,11.58,0,0,0,2.7,5.09c2.55,2.86,5.11,5.7,7.67,8.55,1.76,2,2.7,4.5,4.38,6.52,1.35,1.61,3,2.65,5.2,2a7,7,0,0,1,.77,2.9c-3,1.76-1.69,3-5.12,3.65C72,35.69,70,40.2,69.75,41.1c-.77,2.43-1.26,10.43-.58,10.16.32,2.32-3.68,4.68-4.72,6.7C61.69,63.36,56.9,72.75,51,74.55,46.45,75.93,46.89,83.86,42.14,85.64Zm-6.29-.72c-2,.33-8.07,5.72-10.31,6.53-3.18-6.35.48-9.73,1.7-11.15"/><path class="cls-2" d="M69,43.11c.29-2.53,1.81-8.32,3.52-8.66,3.43-.67,3.27-1,6.29-2.74a40.05,40.05,0,0,1,.89,15.79C78.11,59.56,72,75.43,61.59,82.12c-10,6.4-9.31,5.72-17,4.76-1.41-.21-2,.44-5.87-1.33,2.47-1.34,5.33-8.91,12.21-11C56.9,72.75,61.69,63.36,64.45,58A92.91,92.91,0,0,0,69,43.11Z"/><path class="cls-2" d="M78.39,28.69a5.22,5.22,0,0,1-5.57-1.89c-1.68-2-3.08-2.42-4.84-4.39-2.55-2.85-4.56-6.68-7.1-9.54a16.18,16.18,0,0,1-2.81-6.23,4.32,4.32,0,0,1,.3-3.5A32.48,32.48,0,0,1,68.7,11c.24.28,1.8,2.29,1.73,1.87a8,8,0,0,0-.59-1.46c-.37-.84-.61-.75-.77-1.76A17.2,17.2,0,0,1,73.72,8,35.26,35.26,0,0,1,80.4,6.87c2.7-.13,3.56,1,2.82,3.58a75.25,75.25,0,0,1-5.77,14.29c-.51,1-1.28,1.91.24,2.76C78,27.68,78.51,28.19,78.39,28.69Z"/><path class="cls-2" d="M45.71,17c-3.84,3.89-7.65,6.34-10.65,11-.89,1.38-3.65.85-4.82,2.05A67.77,67.77,0,0,1,22,12.74c-.54-1.64.21-3,1.95-3.05a31.43,31.43,0,0,1,12.26,2.18c1.47-1.21,5.16-4.46,8.91-7.66.44-.37,1.24-.26,1.71-.59a8.45,8.45,0,0,1,.65,2.12C47.82,8,48,14.71,45.71,17Z"/><path class="cls-2" d="M32.6,46.41C32.23,47,31.49,62.24,28,64.55a20.75,20.75,0,0,0-6,6.11c-1.24,1.92-1.3,2.64-3.67,3.2-1.12-1.53-4.21-1.76-5-3.47,1.94-1.71,3.89-7,4.38-9.54a11,11,0,0,0,4.8-1.51c2.07-1.46,7-18.21,8.85-25.37a13.53,13.53,0,0,1,4.93,2,5.6,5.6,0,0,1,1.21,2.76c-2,1.52-3.65,5.26-3.89,6A5.68,5.68,0,0,1,32.6,46.41Z"/><path class="cls-1" d="M18.35,61c-.49,2.58-3.14,7.7-5.08,9.41C12.5,69,11.21,67,10.47,65.61c-.34-.64-.09-2.17-.09-2.93,0-2.17,2.37-2.15,4.27-1.87S17.26,60.36,18.35,61Z"/><path class="cls-3" d="M55.31,16.63c-1.67,1.92-2.49,2-3.78.12a11.56,11.56,0,0,1-2.19-4.58c-.24-1.67.26-2.54,1.92-2.59a11.37,11.37,0,0,1,3.24.17,3,3,0,0,1,2.29,4.12A10.35,10.35,0,0,1,55.31,16.63Zm-2.15-1c1-.35,1.39-1.24,1.77-2.06.75-1.61.29-2.31-1.51-2.39-.69,0-1.37,0-2.09,0A5.62,5.62,0,0,0,53.16,15.67Z"/><path class="cls-3" d="M32.89,14.2a10.34,10.34,0,0,1-.95,4.29c-.42,1.08-.73,2.2-1.19,3.26-.53,1.22-1.72,1.4-2.45.31A27.66,27.66,0,0,1,24.92,14c-.24-.89.37-1.39,1.17-1.57C27.38,12.1,30.64,13.24,32.89,14.2ZM26.72,14a25.37,25.37,0,0,0,2.62,6.26,9.64,9.64,0,0,0,.9-3C28.08,17.38,29.11,14.13,26.72,14Z"/><path class="cls-4" d="M53.13,16.69c-1.5-1.49-3.07-5.08-2.19-5.59s1.76,0,2.62,0c2.26.06,2.82.93,1.84,3C54.91,15.1,54.44,16.23,53.13,16.69Z"/><path class="cls-4" d="M26.17,13.59a11.86,11.86,0,0,1,5.4,1.52c0,1.12-1.91,4.89-2.26,6A36.29,36.29,0,0,1,26.17,13.59Z"/><path class="cls-3" d="M68.76,7.79a34.57,34.57,0,0,1,11-2.64c4.48-.44,6.33,1.83,5.08,6.12a76.23,76.23,0,0,1-5.72,13.27,3.82,3.82,0,0,0-.25,3.12C83.56,43.91,77,64.26,75.1,67.58c-3,5.33-14.18,18-20.24,20.33-7.75,3-8.31-.31-13.1-1.26-1.49-.29-3.45-1-4.92-1.35a54.78,54.78,0,0,0-10,6.14c-1.89,1.5-2.47.54-3.22-2a13.09,13.09,0,0,1,0-4.72c.76-2.2,2.5-3,2.48-4.75-3.52-3.47-12.6-7.24-15-11.55a9.91,9.91,0,0,1-1.7-4.69,4.17,4.17,0,0,1,1.82-3.81c.72-.57,1.85-.32,4,.12,3.06.62,3.79.06,5.94-1.11s1.8-2.56,4.21-7.61,6-16.19,2.28-22a63.24,63.24,0,0,1-7.32-16.22c-.88-3,.61-5,3.69-5.25,2.91-.21,5.81-.25,8.6,1s3.89,2.15,4.59,1.72a60.56,60.56,0,0,0,7.24-7C46.75.82,54.58-2.58,61.52,3,63.56,4.42,67.83,8.22,68.76,7.79Zm-34,10.61a7.29,7.29,0,0,1,.14-3,8.57,8.57,0,0,1,1.35-3.52A31.43,31.43,0,0,0,24,9.69c-1.74,0-2.49,1.41-1.95,3.05a67.77,67.77,0,0,0,8.23,17.31c.35,1.3.71,2.61,1.06,3.92.24,7.56-6.89,24.5-9,26S17,61.55,14.13,61.08s-3.33,1-3.34,3.2c0,.75,2.14,4.07,3,5.25,1.31,1.72,5.93,3.66,7.39,4.86,2.15,1.77,5.28,3.19,7,5.44.39.66-2.46,2.8-3.41,5.43-.77,2.16.45,5.76.95,5.89,1.12-1.9,9.27-6.92,11.41-7a57.38,57.38,0,0,0,7.62,2.06c8.69,1,7.77,2.43,17.16-4.77,8.51-6.52,15.51-21.7,17.07-33.76.69-5.29,1.15-10.77-.27-16-.08-1-.78-4-1.1-4.21-1.52-.85-.75-1.79-.24-2.76a75.25,75.25,0,0,0,5.77-14.29c.74-2.6-.12-3.71-2.82-3.58A35.26,35.26,0,0,0,73.72,8a17.2,17.2,0,0,0-4.65,1.69c.48,1.38,1.51,2.81,1.63,3.55.09.53-3.26-3.38-3.5-3.66a36.09,36.09,0,0,0-8.83-6.4A5.28,5.28,0,0,0,56,2c-.15-.23-5.91-.61-7,.12a20.78,20.78,0,0,0-2.18,1.54c-.47.33-1,.62-1.41,1C43.86,5.94,41,7.75,38.49,10.75a28.22,28.22,0,0,0-2,2.69C35.92,14.81,35.33,17,34.73,18.4Z"/><path class="cls-3" d="M72.05,14.49a10.36,10.36,0,0,1,3.14-3.08C76.13,10.73,77,10,78,9.33s2.2-.24,2.22,1.07A27.16,27.16,0,0,1,78.59,19c-.27.88-1.06,1-1.82.68C75.53,19.25,73.42,16.52,72.05,14.49ZM77.13,18a25.1,25.1,0,0,0,1.2-6.68,10.11,10.11,0,0,0-2.38,2C77.82,14.45,75.18,16.61,77.13,18Z"/><path class="cls-4" d="M77.36,18.66a11.91,11.91,0,0,1-3.71-4.21c.63-.93,4.27-3.06,5.15-3.78A36.45,36.45,0,0,1,77.36,18.66Z"/><path class="cls-1" d="M45.23,86.26c2.13-1.28,7.6-1.1,10-.81-.48,1.41-.63,5.61-1.15,7-.24.66-.76,3.1-1.3,3.57-1.54,1.36-5.14-.7-5.13-3.69C47.44,91.17,45.48,87.42,45.23,86.26Z"/><path d="M49.73,1.59a14.47,14.47,0,0,1,5.82.16c.69.28,1.14.62,1,1.31-.28,1.79-.55,3-1.84,4.1s-2.68,1.59-4.19-.27C49.17,5.18,48.24,2.05,49.73,1.59Z"/><path d="M44.31,12.94c1.1-.52,1.07-2.79.2-4a1.85,1.85,0,0,0-2.39-.6,1.88,1.88,0,0,0-.83,2.15C41.56,12.13,43.21,13.46,44.31,12.94Z"/><path d="M63.08,12.81c1.21-.13,1.94-2.28,1.5-3.68a1.85,1.85,0,0,0-2.06-1.36A1.9,1.9,0,0,0,61,9.53C60.75,11.14,61.88,12.93,63.08,12.81Z"/><path class="cls-3" d="M47.22,89.67c-.38-.57-1.64-2.89-2.84-3.28.11,1.27,1.83,4.83,2.6,6.8s2.75,4.28,4.87,4.09,2.17-1.77,2.8-3.7a20.59,20.59,0,0,0,1-3.61c.12-1,.46-3.41-.26-3.38-.7.35-.64,2.45-.87,3.28A29.62,29.62,0,0,0,53.83,93c-.2,1.34-.51,2.65-1.79,2.83a3,3,0,0,1-3-2A22.41,22.41,0,0,0,47.22,89.67Z"/><path class="cls-1" d="M32.75,43.86c.89-2.32,4.84-6.1,6.93-7.37.49,1.4,3.44,5.34,3.89,6.76.22.66,1.31,2.9,1.18,3.6-.37,2-4.48,2.63-6.31.27C37.52,46.36,33.67,44.62,32.75,43.86Z"/><path class="cls-3" d="M41.48,39.89c-.87-1.59-2.08-2.59-1.77-4.29.68,1,5.08,6.18,5.68,8.11s.34,3.87-1.38,5-5.59-.24-7.23-1.31c-1.22-.8-4.1-3-4.48-4.07a19.48,19.48,0,0,1,5,2.66c1,.89,4.68,2.39,5.76,1.76s1.18-2.34.74-3.53A32.71,32.71,0,0,0,41.48,39.89Z"/><path class="cls-1" d="M67.52,34.56c2.14,1.27,4.33,6.12,5.23,8.39-1.46.25-5.31,3.62-6.78,3.83-.69.1-.9-.18-1.57-.43-1.93-.71.82-7.16.18-5.52S66.62,35.34,67.52,34.56Z"/><path class="cls-3" d="M65.65,39.2a11.22,11.22,0,0,0,.67-3.6c-.75.87-1.83,3.74-2.63,5.47s-1.09,4.47.32,5.74,2.44.32,4.06-.47A19.66,19.66,0,0,0,71,44.73a7.87,7.87,0,0,0,2-2.28c-.76,0-2,1.11-2.64,1.48a24.3,24.3,0,0,0-2.42,1.53c-1,.7-2,1.32-2.9.59a2.78,2.78,0,0,1-.52-3.27A13.53,13.53,0,0,0,65.65,39.2Z"/><path class="cls-5" d="M128,156.62c-7,7.83-48.92,32.29-53.88,33.64-.67-.12-7.5-1.44-9.78-5.37C53.28,165.73,21.75,110.3,5.43,82.71-.4,72.85-.14,69.75,1.05,67.2c8.31-7.76,49.83-34.73,55.76-32.07,2.16,1,5.67.39,10.93,11.32C83.56,73,114.14,127.31,126,147.33A13.5,13.5,0,0,1,128,156.62Z"/><path class="cls-6" d="M9.09,59l8.05-4.66C27.22,48.49,37.29,42.65,47.4,36.89a23.31,23.31,0,0,1,5.3-2.32,10.13,10.13,0,0,1,11.12,4.22c.82,1.18,1.52,2.45,2.28,3.67a3.1,3.1,0,0,1-.76-.49,12.44,12.44,0,0,1-.84-1.21,10.57,10.57,0,0,0-5-4.65c-.43-.87-1.31-.89-2.09-1.08l-1.31-.21L53.58,35a14.43,14.43,0,0,0-5,1.89Q43.76,39.6,39,42.37L9.36,59.44Z"/><path class="cls-7" d="M4,79.44l-.23.17a3.66,3.66,0,0,0,.22.58Q8.48,88,13,95.82l-.1.12c-3-5.2-6-10.39-9-15.62A48.43,48.43,0,0,1,.68,73.88,10,10,0,0,1,4.08,62.2c1.31-1,2.76-1.82,4.15-2.72l.13.53c-.77.46-1.56.89-2.3,1.38a12.54,12.54,0,0,0-3.91,3.73l-.81,1.43-.29.65A6.29,6.29,0,0,0,.74,71,10,10,0,0,0,2.1,75.89Z"/><path class="cls-6" d="M74.33,56.94a7.31,7.31,0,0,1-.69-.89c-1-1.76-1.94-3.56-3-5.31-1.22-2.1-2.49-4.17-3.73-6.26a1.36,1.36,0,0,1-.25-.66c.58,1,1.15,2,1.74,3a5,5,0,0,0,.49.54l.44-.08.1.43c-.47-.11-.26.17-.17.33.77,1.33,1.56,2.66,2.34,4a1.35,1.35,0,0,0,.07.41c.73,1.29,1.46,2.58,2.21,3.85.06.1.26.11.39.16s.38.1.45.22c1.68,2.89,3.34,5.79,5,8.69,0,0,0,.13,0,.19l-.22,0A1.79,1.79,0,0,0,79.4,65q-2.28-4-4.58-7.92C74.76,57,74.5,57,74.33,56.94Z"/><path class="cls-8" d="M69.48,47.71l-.1-.43a6.89,6.89,0,0,1,.63.82c.63,1,1.24,2.11,1.82,3.18A2.28,2.28,0,0,1,72,52l-.08-.12Z"/><path class="cls-9" d="M71.89,51.92,72,52c0,.16-.09.37,0,.49.72,1.28,1.47,2.55,2.21,3.82,0,0,.11.07.17.1-.13-.05-.33-.06-.39-.16-.75-1.27-1.48-2.56-2.21-3.85a1.35,1.35,0,0,1-.07-.41Z"/><path class="cls-10" d="M8.36,60l-.13-.53L9.09,59l.27.47Z"/><path class="cls-11" d="M8.36,60l1-.57L39,42.37q4.79-2.77,9.59-5.53a14.43,14.43,0,0,1,5-1.89l1.38.16c-.15.37-1,.17-.62.86A21.91,21.91,0,0,0,47,39.06L9.26,60.83A20.46,20.46,0,0,0,3.4,65.34c.05-.4-.14-.4-.4-.22l-.8.57-.05-.57a12.54,12.54,0,0,1,3.91-3.73C6.8,60.9,7.59,60.47,8.36,60Zm1.3-.28.15.23c.3-.15.61-.29.91-.45,9.73-5.62,19.44-11.27,29.2-16.83,4.41-2.5,8.57-5.47,13.43-7.15a1.48,1.48,0,0,0-.6,0,31.66,31.66,0,0,0-4.39,1.76q-19.09,10.92-38.12,22A4,4,0,0,0,9.66,59.73Zm-.88.67c-1.59.18-5.3,3.11-5.74,4.31Z"/><path class="cls-12" d="M54.34,36c-.38-.69.47-.49.62-.86L53.58,35l2.51-.13-.86.64,1.69.17,1.79.28,1.74,1.29,1.15,1.13-.17.26-.7-.58a8.09,8.09,0,0,0-5.25-2Z"/><path class="cls-13" d="M60.45,37.2l-1.74-1.29.78.2a10.57,10.57,0,0,1,5,4.65l1,1.92-.17.08-.07-.12a16.58,16.58,0,0,0-3.09-4.45A9.73,9.73,0,0,0,60.45,37.2Z"/><path class="cls-14" d="M59.49,36.11l-.78-.2-1.79-.28-.11-.5.59-.1C58.18,35.22,59.06,35.24,59.49,36.11Z"/><path class="cls-15" d="M57.4,35l-.59.1.11.5-1.69-.17.86-.64Z"/><path d="M13,95.82Q8.49,88,4,80.19a3.66,3.66,0,0,1-.22-.58q4.51,7.8,9,15.62A3,3,0,0,1,13,95.82Z"/><path class="cls-11" d="M74.33,56.94c.17,0,.43,0,.49.11Q77.13,61,79.4,65a1.79,1.79,0,0,1,.13.53c-.19-.15-.45-.27-.56-.47Q76.63,61,74.33,56.94Z"/><path class="cls-16" d="M2.15,65.12l.05.57.8-.57c.26-.18.45-.18.4.22l-.16.27-.87,1.64a9.16,9.16,0,0,0-.56,4.43H1.52c-.05-.49-.15-1-.16-1.47,0-.69,0-1.39.07-2.08l.17-.59.8-1.48-.13,0-.93.53Z"/><path class="cls-17" d="M1.43,68.14c0,.69-.08,1.39-.07,2.08,0,.5.11,1,.16,1.47a.41.41,0,0,1-.11.07c0,.13-.13.27-.1.38.31,1.15.58,2.31,1,3.43.33.93.82,1.79,1.24,2.69L2.1,75.89A10,10,0,0,1,.74,71Z"/><path class="cls-14" d="M1.43,68.14.74,71a6.29,6.29,0,0,1,.31-3.76l.55.35Z"/><path class="cls-18" d="M1.6,67.55l-.55-.35.29-.65L2.27,66l.13,0Z"/><path class="cls-19" d="M71.89,51.92l-.24.11c-.78-1.33-1.57-2.66-2.34-4-.09-.16-.3-.44.17-.33C70.28,49.11,71.09,50.51,71.89,51.92Z"/><path class="cls-20" d="M8.78,60.4,3,64.71C3.48,63.51,7.19,60.58,8.78,60.4Z"/><path class="cls-21" d="M60.45,37.2a9.73,9.73,0,0,1,1.69,1,16.58,16.58,0,0,1,3.09,4.45c-.35-.5-.68-1-1-1.5-.6-.81-1.22-1.6-1.84-2.4a1.1,1.1,0,0,0-.15.09l-.6-.5Z"/><path class="cls-22" d="M61.6,38.33l.6.5,1.26,1.86.55,1-.07.05-.58-.6-1.93-2.51Z"/><path class="cls-23" d="M2.45,74.75l-1-3a.41.41,0,0,0,.11-.07h.29c.36,1.1.73,2.2,1.09,3.31Z"/><path class="cls-24" d="M17.69,65.64c-.73-.43-1.43-.91-2.18-1.29a6.91,6.91,0,0,0-6.29,0A8.32,8.32,0,0,0,5.15,68.2c-.22.45-.48,1-1.16.74-.45-.19-.4-.79-.13-1.52.77-2.15,2.43-3.4,4.31-4.49,4.14-2.42,8.27-4.87,12.4-7.31,1.84-1.09,3.66-2.23,5.52-3.29,4.07-2.34,8.14-4.68,12.25-6.94,2.78-1.54,5.62-3,8.48-4.37a22.86,22.86,0,0,1,3.58-1.11,1.31,1.31,0,0,1,.48,0L38.53,47.22l-8.15,4.7L17.92,59.11a4.83,4.83,0,0,1-.52.23,2.29,2.29,0,0,0-1.3,3.53C16.61,63.81,17.16,64.72,17.69,65.64Z"/><path class="cls-25" d="M71,60.93l-.08.7c-3.66-6.35-7.31-12.71-11-19a9,9,0,0,0-2-2.16,17.52,17.52,0,0,0-2.08-1.39,6.69,6.69,0,0,1,4.37,2.87,7.59,7.59,0,0,0,.4,1Q65.81,51.92,71,60.93Z"/><path class="cls-26" d="M38.6,47.34,17.25,59.66c-1.09.63-1.42,1.22-1.25,2.2a7,7,0,0,0,.36.9c1.16,2,2.33,4,3.49,6.06,1.88,3.27,3.78,6.53,5.64,9.81a21.82,21.82,0,0,1,1,2.26l.16,2.85c0-.37,0-.75-.08-1.12a8.64,8.64,0,0,0-1.12-3.55c-2.61-4.46-5.18-8.95-7.76-13.43-.53-.92-1.08-1.83-1.59-2.77a2.29,2.29,0,0,1,1.3-3.53,4.83,4.83,0,0,0,.52-.23l12.46-7.19,8.15-4.7Z"/><path class="cls-26" d="M16.87,93.48c-.16-1,.48-1.53,1.19-2s1.33-.78,2-1.16L20,90.13c-.34,0-.67-.06-1-.06a7,7,0,0,1-5.69-2.81,11.21,11.21,0,0,1-1.08-1.57Q9.28,80.63,6.36,75.56a7.57,7.57,0,0,1,2-10.24,6.35,6.35,0,0,1,4.71-1.11A7.72,7.72,0,0,1,19,68.51c1.74,3.07,3.56,6.08,5.26,9.17a25.7,25.7,0,0,1,1.66,3.89,4.84,4.84,0,0,1,0,3.19c0,.08,0,.18.18.32l.45-1.15a1.89,1.89,0,0,1-.06.76c-.48.94-1,1.85-1.51,2.77l-1.47.75a5.37,5.37,0,0,1,.44-.62,5.32,5.32,0,0,0,1.69-3.23,7,7,0,0,0-.48-3.93,22.72,22.72,0,0,0-1.38-2.51c-1.77-3.13-3.49-6.27-5.31-9.36A12.21,12.21,0,0,0,16.44,66,3.33,3.33,0,0,0,14,64.85l-.77-.1a6.09,6.09,0,0,0-5,1.46,4.57,4.57,0,0,0-2.1,2.71,7.86,7.86,0,0,0,.85,6.75q2.48,4.38,5,8.72a21.45,21.45,0,0,0,2,2.84,6.47,6.47,0,0,0,6.92,2.25l.57-.11-.8,1c-.67.39-1.32.82-2,1.16a2.93,2.93,0,0,0-1.73,2Z"/><path class="cls-27" d="M25,87.46c.51-.92,1-1.83,1.51-2.77a1.89,1.89,0,0,0,.06-.76l0-.19c0-.95-.11-1.9-.16-2.85.14.15.38.28.41.45A6.75,6.75,0,0,1,25.75,87c-.26.36-.58.67-.87,1l-.62.36-.19-.05Z"/><path class="cls-28" d="M24.07,88.35l.19.05a6.13,6.13,0,0,1-.7.56c-1.51.88-3,1.77-4.53,2.61-1.08.6-2.07,1.21-1.61,2.77l-.19,0-.36-.84a2.93,2.93,0,0,1,1.73-2c.7-.34,1.35-.77,2-1.16Z"/><path class="cls-29" d="M24.07,88.35l-3.45,2,.8-1-.57.11a6.47,6.47,0,0,1-6.92-2.25,21.45,21.45,0,0,1-2-2.84q-2.55-4.33-5-8.72a7.86,7.86,0,0,1-.85-6.75,4.57,4.57,0,0,1,2.1-2.71c-.43.61-.91,1.2-1.3,1.84a6.44,6.44,0,0,0-.37,6A26.13,26.13,0,0,0,8.2,77c1.78,3.09,3.47,6.23,5.37,9.25a6.23,6.23,0,0,0,6.22,3.08,6.33,6.33,0,0,0,4.65-2.61,1.91,1.91,0,0,0,.37-2l.27-2.35a11.34,11.34,0,0,0-.71-2.34c-2.23-4-4.52-7.92-6.82-11.84a10.42,10.42,0,0,0-1.4-1.58l-1.77-1.07c.44-.58-.4-.45-.43-.76A3.33,3.33,0,0,1,16.44,66a12.21,12.21,0,0,1,2.08,2.57c1.82,3.09,3.54,6.23,5.31,9.36a22.72,22.72,0,0,1,1.38,2.51,7,7,0,0,1,.48,3.93A5.32,5.32,0,0,1,24,87.59a5.37,5.37,0,0,0-.44.62L25,87.46Z"/><path class="cls-30" d="M24.81,84.79a1.91,1.91,0,0,1-.37,2,6.33,6.33,0,0,1-4.65,2.61,6.23,6.23,0,0,1-6.22-3.08c-1.9-3-3.59-6.16-5.37-9.25a26.13,26.13,0,0,1-1.69-3,6.44,6.44,0,0,1,.37-6c.39-.64.87-1.23,1.3-1.84a6.09,6.09,0,0,1,5-1.46l.77.1c0,.31.87.18.43.76L13,65.41a5.45,5.45,0,0,0-.89-.08A5.94,5.94,0,0,0,8,67.53c-.14-.58-.34-.12-.42,0a6.39,6.39,0,0,0-1.18,4.55A9.88,9.88,0,0,0,7.64,75.5c2,3.42,4,6.82,6,10.26a6.38,6.38,0,0,0,3.95,3.16,5.12,5.12,0,0,0,2,.13,8.1,8.1,0,0,0,1.69-.54,4,4,0,0,0,2.91-2.34Z"/><path class="cls-31" d="M21.47,110.81,21,110.6l.33-.24c-.16-.34-.28-.71-.46-1q-3.69-6.43-7.4-12.85L12.89,96h0l.1-.12a3,3,0,0,0-.22-.59q-4.5-7.82-9-15.62L4,79.44c.21.34.43.68.63,1Q33.56,130.6,62.47,180.74l-.37.21a6.2,6.2,0,0,0-.35-.84Q42,145.79,22.16,111.47c-.16-.26-.38-.48-.56-.72Z"/><path class="cls-32" d="M79.75,65.55a1.85,1.85,0,0,0,.07.63,7.6,7.6,0,0,0,.73,1.27,6.31,6.31,0,0,0,.86.76l-.21.12a2.45,2.45,0,0,0,.14.83c.72,1.31,1.46,2.59,2.22,3.88S85.2,75.8,86,77.18a6.09,6.09,0,0,0,.32.91q19.23,33.36,38.48,66.71a10.66,10.66,0,0,1-.71-1Q98.87,100.11,73.64,56.37q-3.48-6-7-12c-.17-.3-.56-.61-.1-1l2.35,4a5,5,0,0,1-.49-.54c-.59-1-1.16-2-1.74-3a1.36,1.36,0,0,0,.25.66c1.24,2.09,2.51,4.16,3.73,6.26,1,1.75,2,3.55,3,5.31a7.31,7.31,0,0,0,.69.89Q76.64,61,79,65c.11.2.37.32.56.47Z"/><path class="cls-7" d="M74.16,190.26h-.63c-.4-.06-.8-.14-1.21-.19a10.77,10.77,0,0,1-7.94-5.19l-1.29-2.61.09-.05,1.36,2.35.07,0-.23-.51.6.78A10.63,10.63,0,0,0,68.62,188c.1.12.16.3.28.37a8,8,0,0,0,5.47,1.07,15.66,15.66,0,0,0,5.12-1.64,9.41,9.41,0,0,0,1-.41q8.54-4.9,17.07-9.84l.45-.08-.4.4c-.43.29-.84.62-1.29.87-6.32,3.5-12.37,7.5-18.91,10.61l-2.15.73Z"/><path class="cls-33" d="M66.59,43.33c-.46.38-.07.69.1,1q3.47,6,7,12,25.23,43.74,50.47,87.48a10.66,10.66,0,0,0,.71,1,.41.41,0,0,0,.11-.07.36.36,0,0,0,.12-.08l.57,1-.46.28-.29-.21-.27-.46a7.14,7.14,0,0,0-.38-.9q-5.16-9-10.35-17.95Q90.29,85.51,66.69,44.63a11.7,11.7,0,0,0-.78-1.07l-.44-.88-1-1.92A12.44,12.44,0,0,0,65.34,42a3.1,3.1,0,0,0,.76.49Z"/><path class="cls-18" d="M21.47,110.81l.13-.06c.15.29.31.59.47.87l39.58,68.61c.14.25.3.48.45.72l.37-.21.11,0h.32l.34.88-.19.16c-.4.12-.34.36-.17.64.38.65.75,1.3,1.12,2-.74-1.2-1.52-2.39-2.22-3.62q-20-34.67-40-69.34C21.66,111.19,21.57,111,21.47,110.81Z"/><path class="cls-34" d="M125.16,145.92l.46-.28a19.05,19.05,0,0,1,2.79,6.44,10.09,10.09,0,0,1-1.54,7.64l-.17.25-1.07,1.27-.95.85-.65.42c-1,.65-2,1.33-3,1.94-.21.13-.58,0-.87,0a27.32,27.32,0,0,0,2.34-1.5c1.08-.86,2.09-1.81,3.13-2.72l1.53-2.39a6.77,6.77,0,0,0,.62-4.93c-.11-.67-.18-1.35-.34-2A20.18,20.18,0,0,0,125.16,145.92Z"/><path class="cls-35" d="M124.93,144.73a.41.41,0,0,1-.11.07q-19.25-33.36-38.48-66.71a6.09,6.09,0,0,1-.32-.91h.22l.24,0-.1.42a8.71,8.71,0,0,0,.46,1q8,14,16.09,27.9Z"/><path class="cls-9" d="M124.93,144.73l-22-38.16q-8.06-13.95-16.09-27.9a8.71,8.71,0,0,1-.46-1c.12.18.24.36.34.54q19,33,38.06,66c.1.17.18.34.27.5A.36.36,0,0,1,124.93,144.73Z"/><path class="cls-36" d="M12.89,96l.59.53L13,96.33c.1.25.14.4.21.54,2.5,4.32,5,8.65,7.51,13,.12.22.39.35.6.52l-.33.24c-.13-.2-.28-.38-.39-.59-2.51-4.34-5-8.69-7.52-13A3.7,3.7,0,0,1,12.89,96Z"/><path class="cls-6" d="M86.48,77.22l-.24,0a2.8,2.8,0,0,0-.19-.66q-2.2-3.87-4.45-7.71a3,3,0,0,0-.4-.48l.21-.12q2.5,4.31,5,8.63A1.17,1.17,0,0,1,86.48,77.22Z"/><path class="cls-37" d="M64,184.33c-.37-.65-.74-1.3-1.12-2-.17-.28-.23-.52.17-.64L64.38,184l.23.51-.07,0-1.36-2.35-.09.05,1.29,2.61Z"/><path class="cls-38" d="M62.58,180.71l-.11,0Q33.55,130.61,4.62,80.47c-.2-.35-.42-.69-.63-1L2.1,75.89l1.43,2.37c.61-.05.54-.37.33-.77-.48-.91-.95-1.83-1.41-2.74L2.9,75c.06.1.13.19.19.3l44.77,77.63L65.27,183.1a6.71,6.71,0,0,1,.32.78l.08.46c-.52-.8-1-1.6-1.55-2.41-.2-.3-.37-.64-.81-.31l-.07,0-.34-.88c.48-.47,0-.83-.18-1.18Q50,157.38,37.18,135.25L5.33,80a5.41,5.41,0,0,0-.45-.72c-.08-.09-.28-.08-.42-.11a1,1,0,0,0,0,.37,1.53,1.53,0,0,0,.21.37q28.79,49.89,57.56,99.78A7.69,7.69,0,0,1,62.58,180.71Z"/><path d="M62.1,181c-.15-.24-.31-.47-.45-.72L22.07,111.62c-.16-.28-.32-.58-.47-.87.18.24.4.46.56.72Q42,145.79,61.75,180.11A6.2,6.2,0,0,1,62.1,181Z"/><path class="cls-19" d="M21.34,110.36c-.21-.17-.48-.3-.6-.52-2.52-4.32-5-8.65-7.51-13-.07-.14-.11-.29-.21-.54l.46.15q3.7,6.42,7.4,12.85C21.06,109.65,21.18,110,21.34,110.36Z"/><path class="cls-39" d="M81.2,68.33a3,3,0,0,1,.4.48q2.24,3.84,4.45,7.71a2.8,2.8,0,0,1,.19.66H86c-.82-1.38-1.65-2.76-2.46-4.14s-1.5-2.57-2.22-3.88A2.45,2.45,0,0,1,81.2,68.33Z"/><path class="cls-40" d="M125.68,160.2c-1,.91-2.05,1.86-3.13,2.72a27.32,27.32,0,0,1-2.34,1.5l-1,.52-.13.06-.88.47-31.72,18.3-7,4.06a15.66,15.66,0,0,1-5.12,1.64l-1-.23.87-.33,1.43-.35c0,.06.07.19.08.18a13.2,13.2,0,0,0,2.16-.67C80,187,82,186,84,184.84c2.38-1.32,4.72-2.71,7.08-4.07l27-15.6c.3-.18.58-.39.86-.59l-.13-.23c-.3.15-.61.28-.9.45q-19.12,11-38.25,22a34.52,34.52,0,0,1-4,1.67l-.33-.3a45.54,45.54,0,0,0,4.41-1.92Q99.94,174.76,120,163.15a18,18,0,0,0,5.41-4.27l.15.32.74-.19ZM120,163.84c1.13,0,4.93-2.9,5.17-3.72Z"/><path class="cls-41" d="M124.68,162.09c.18,0-31.35,18.65-47.48,27.65l.18-.36c6.54-3.11,12.59-7.11,18.91-10.61.45-.25.86-.58,1.29-.87a2.81,2.81,0,0,0,.58-.19c2-1.13,4-2.27,5.92-3.41a2.28,2.28,0,0,0,.45-.43,12.24,12.24,0,0,0,1.22-.55l8.86-5.11,4.24-2.45c.33-.18.63-.38.37-.82l1-.52c.29,0,.66.16.87,0,1-.61,2-1.29,3-1.94Z"/><path class="cls-34" d="M79.49,187.83l7-4.06,31.72-18.3.88-.47a8.37,8.37,0,0,1-.85.62q-7,4-14,8.08l-6.74,3.88Q89,182.5,80.46,187.42A9.41,9.41,0,0,1,79.49,187.83Z"/><path class="cls-42" d="M64.38,184l-1.33-2.29.19-.16.07,0c.63,1,1.21,2,1.9,3a6.15,6.15,0,0,0,2.58,2.29,5.37,5.37,0,0,1,.87.6,2.31,2.31,0,0,1,.35.66l-.39-.1A10.63,10.63,0,0,1,65,184.81Z"/><path class="cls-43" d="M68.62,188l.39.1c.95.2,1.9.43,2.86.58.77.12,1.56.14,2.35.2l-.87.33,1,.23a8,8,0,0,1-5.47-1.07C68.78,188.33,68.72,188.15,68.62,188Z"/><path class="cls-44" d="M104.53,173.87a2.28,2.28,0,0,1-.45.43c-2,1.14-3.94,2.28-5.92,3.41a2.81,2.81,0,0,1-.58.19c.13-.14.27-.27.4-.4l6.42-3.58Z"/><path class="cls-9" d="M104.4,173.92,98,177.5l-.45.08,6.74-3.88C104.31,173.77,104.36,173.84,104.4,173.92Z"/><path class="cls-38" d="M65.3,42.76l.17-.08.44.88,0,.17c-.51.48,0,.83.18,1.17L112.21,125q5.66,9.81,11.32,19.61a4.21,4.21,0,0,0,.7.7h.37l.27.46v.36a2.11,2.11,0,0,0,0,.79c.33.75.72,1.47,1.09,2.2v.8c-.52-1-1-2-1.56-2.94L74.85,61,63.36,41.1l.58.6.07-.05-.55-1c.37.57.73,1.16,1.14,1.69C64.75,42.58,65.06,42.64,65.3,42.76Z"/><path class="cls-45" d="M65.86,43.73l0-.17a11.7,11.7,0,0,1,.78,1.07q23.6,40.87,47.18,81.77,5.17,9,10.35,17.95a7.14,7.14,0,0,1,.38.9h-.37a10.16,10.16,0,0,0-.52-1.22q-14-24.31-28-48.62Q80.76,69.57,65.86,43.73Z"/><path class="cls-46" d="M124.88,146.07v-.36l.29.21a20.18,20.18,0,0,1,2.33,5c.16.66.23,1.34.34,2-.13.81-.26,1.62-.4,2.43l-.24-2.73a6.26,6.26,0,0,0,0-1.36A15.55,15.55,0,0,0,124.88,146.07Z"/><path class="cls-27" d="M62.58,180.71a7.69,7.69,0,0,0-.39-1Q33.42,129.84,4.63,80a1.53,1.53,0,0,1-.21-.37,1,1,0,0,1,0-.37c.14,0,.34,0,.42.11a5.41,5.41,0,0,1,.45.72l31.85,55.21Q50,157.38,62.72,179.52c.2.35.66.71.18,1.18Z"/><path class="cls-47" d="M127.43,155.31l.4-2.43a6.77,6.77,0,0,1-.62,4.93l-.61-.28C126.88,156.79,127.16,156.05,127.43,155.31Z"/><path class="cls-48" d="M126.6,157.53l.61.28-1.53,2.39c.21-.39.42-.79.62-1.19l.44-.58-.82.38Z"/><path class="cls-21" d="M3.24,65.61l.16-.27a20.46,20.46,0,0,1,5.86-4.51L47,39.06A21.91,21.91,0,0,1,54.34,36h1.14c.27.16-.28-.14,0,0,.68.33,2.59-.43,3.23-.05,2,1.22,3,4.62,4.14,6.61q22,38.07,43.94,76.16,9.1,15.81,18.09,31.67a9.41,9.41,0,0,1,1.19,5.26c0,.89-.24,1.78-.36,2.66l-.08.16a3.51,3.51,0,0,0-.71.4,15.74,15.74,0,0,1-1.34,1.25c-1.6,1.08-3.21,2.17-4.88,3.14q-19.86,11.49-39.76,22.93a25.44,25.44,0,0,1-3.63,1.56,13,13,0,0,1-1.9.43l.64.2-.8,0c-.2-.08-.39-.18-.58-.24a11,11,0,0,1-5.92-4.75L27.39,115.14a1.15,1.15,0,0,1,.63.47c.54.82,1,1.69,1.59,2.49a4.4,4.4,0,0,0,2,1.79q17.89,31,35.8,62.05a6.79,6.79,0,0,0,.43.74,6.23,6.23,0,0,0,2.9,2.49,7.15,7.15,0,0,0,6.89-.51Q98.92,172.32,120.24,160a7.48,7.48,0,0,0,1.78-1.37,6.08,6.08,0,0,0,1.74-4.91l-.69-2.89L60.22,41.92a6.69,6.69,0,0,0-4.37-2.87,17.52,17.52,0,0,1,2.08,1.39,9,9,0,0,1,2,2.16c3.71,6.32,7.36,12.68,11,19l.21.37c-.66.32-.56.76-.23,1.28.72,1.13,1.43,2.28,2.12,3.43.11.19.25.48.18.65a2.33,2.33,0,0,0,.45,2.13c.4.7.81,1.39,1.2,2.09.1.2.26.51.18.65-.43.72,0,1.28.29,1.84.44.84,1,1.64,1.4,2.47.3.54.18.76-.4.78-2,.08-4.1.14-6.16.21l-4.88.15c-2.16.08-4.33.2-6.5.27s-4.29.09-6.44.12c-.67,0-.9.35-.93,1,0,.44-.12.87-.18,1.3a4.14,4.14,0,0,1-.1-.68c0-1.29.11-2.58.12-3.87,0-1.59,0-3.19,0-4.78.07-2.71.16-5.42.21-8.13.06-3.25.08-6.51.12-9.76a7,7,0,0,0,.13-.9c0-1.93,0-3.87.05-5.8V40.07l.6-.34-.14-.24L38.6,47.34l-.07-.12,12.35-7.29A1.61,1.61,0,0,0,52,38.24c0-.84-.28-1.05-1-.64-1.88,1-3.78,2-5.64,3.09q-19,11-38,21.94a31.36,31.36,0,0,0-3.4,2.74A2.14,2.14,0,0,1,3.24,65.61Z"/><path class="cls-49" d="M65.59,183.88c.75.81,1.44,1.68,2.25,2.41a7.76,7.76,0,0,0,5.41,2.07l.8,0,1.39-.14.33.3-.12.06-1.43.35c-.79-.06-1.58-.08-2.35-.2-1-.15-1.91-.38-2.86-.58a2.31,2.31,0,0,0-.35-.66,5.37,5.37,0,0,0-.87-.6l-2.12-2.53Z"/><path class="cls-19" d="M75.44,188.2l-1.39.14-.64-.2a13,13,0,0,0,1.9-.43,25.44,25.44,0,0,0,3.63-1.56q19.91-11.43,39.76-22.93c1.67-1,3.28-2.06,4.88-3.14a15.74,15.74,0,0,0,1.34-1.25,3.51,3.51,0,0,1,.71-.4l-.22.45a18,18,0,0,1-5.41,4.27q-20.09,11.57-40.15,23.13A45.54,45.54,0,0,1,75.44,188.2Z"/><path class="cls-7" d="M104.4,173.92c0-.08-.09-.15-.13-.22q7-4,14-8.08a8.37,8.37,0,0,0,.85-.62l.13-.06c.26.44,0,.64-.37.82l-4.24,2.45-8.86,5.11a12.24,12.24,0,0,1-1.22.55Zm14.6-8.44,0-.06-12.34,7.13,0,0Z"/><path class="cls-12" d="M125.41,158.88l.22-.45.08-.16a8,8,0,0,0,1.15-5c0-.26,0-.52,0-.77l.27-.16.11.24.24,2.73c-.27.74-.55,1.48-.83,2.22l-.68,1.28.82-.38-.44.58-.74.19Z"/><path class="cls-50" d="M120,163.84l5.17-3.72C124.88,160.94,121.08,163.85,120,163.84Z"/><path class="cls-51" d="M126,149.06c.34.84.71,1.67,1,2.53a2.57,2.57,0,0,1,.09.75l-.27.16c-.29-.88-.57-1.76-.85-2.64Z"/><path class="cls-28" d="M66.75,183.37a12,12,0,0,1-.74-1L10.51,86.16c-1.33-2.31-2.7-4.61-4-7-1.09-1.95-2.13-3.94-3.11-5.95a9.67,9.67,0,0,1-.83-5,3.38,3.38,0,0,0-.21-1l.87-1.64a2.14,2.14,0,0,0,.7-.24,31.36,31.36,0,0,1,3.4-2.74q19-11,38-21.94c1.86-1.07,3.76-2.07,5.64-3.09.75-.41,1-.2,1,.64a1.61,1.61,0,0,1-1.11,1.69,1.31,1.31,0,0,0-.48,0A22.86,22.86,0,0,0,46.82,41c-2.86,1.37-5.7,2.83-8.48,4.37-4.11,2.26-8.18,4.6-12.25,6.94-1.86,1.06-3.68,2.2-5.52,3.29-4.13,2.44-8.26,4.89-12.4,7.31C6.29,64,4.63,65.27,3.86,67.42c-.27.73-.32,1.33.13,1.52.68.28.94-.29,1.16-.74a8.32,8.32,0,0,1,4.07-3.89,6.91,6.91,0,0,1,6.29,0c.75.38,1.45.86,2.18,1.29,2.58,4.48,5.15,9,7.76,13.43a8.64,8.64,0,0,1,1.12,3.55c0,.37.06.75.08,1.12l0,.19-.45,1.15c-.17-.14-.21-.24-.18-.32a4.84,4.84,0,0,0,0-3.19,25.7,25.7,0,0,0-1.66-3.89c-1.7-3.09-3.52-6.1-5.26-9.17a7.72,7.72,0,0,0-5.91-4.3A6.35,6.35,0,0,0,8.4,65.32a7.57,7.57,0,0,0-2,10.24q2.93,5.07,5.86,10.13a11.21,11.21,0,0,0,1.08,1.57A7,7,0,0,0,19,90.07c.34,0,.67,0,1,.06l.05.21c-.66.38-1.34.74-2,1.16s-1.35,1-1.19,2a7.41,7.41,0,0,0,.48,1.66c2.72,4.78,5.48,9.53,8.23,14.3l6,10.45a4.4,4.4,0,0,1-2-1.79c-.57-.8-1.05-1.67-1.59-2.49a1.15,1.15,0,0,0-.63-.47Z"/><path class="cls-52" d="M31.61,119.89l-6-10.45a4.84,4.84,0,0,1,.82.88Q47,145.93,67.52,181.56l.42.73.12-.07-.42-.73Q55.07,159.7,42.5,137.9c-.57-1-1-2-1.61-3-.45-.8-1-1.54-1.46-2.34-1.11-1.95-2.16-3.93-3.26-5.89-1-1.76-2-3.51-3-5.27L29,114.15c-.12-.21-.22-.43-.32-.64a1,1,0,0,1,.62.41c1,1.42,2,2.87,3,4.28s2.19,2.83,3.25,4.28c.49.66.89,1.38,1.31,2.08s.76,1.31,1.13,2a10.67,10.67,0,0,1,.57,1,3.39,3.39,0,0,0,3.25,1.78,5.83,5.83,0,0,1,1.32,0c.58.06,1.09,0,1.41-.55.19-.37.45-.43.81-.19a1.86,1.86,0,0,0,1.83.11,3.66,3.66,0,0,1,1.44-.17c.7,0,1.16-.25,1.24-.93.15-1.15.32-2.3.38-3.45.18-3.83.35-7.65.47-11.48.13-4.58.22-9.17.31-13.75,0-1,0-1.93-.08-2.89l.08-.7a2.32,2.32,0,0,0,1.61-1.16,3.53,3.53,0,0,1,2.45-1.51c1.86-.27,2.43-.85,2.66-2.7.06-.44.05-.89.08-1.34l-.12-2.22a3.83,3.83,0,0,1-3.75-5.85l-2.67-.1v0c.06-.43.16-.86.18-1.3,0-.62.26-1,.93-1,2.15,0,4.3-.06,6.44-.12s4.34-.19,6.5-.27l4.88-.15c2.06-.07,4.11-.13,6.16-.21.58,0,.7-.24.4-.78-.45-.83-1-1.63-1.4-2.47-.3-.56-.72-1.12-.29-1.84.08-.14-.08-.45-.18-.65-.39-.7-.8-1.39-1.2-2.09a2.33,2.33,0,0,1-.45-2.13c.07-.17-.07-.46-.18-.65-.69-1.15-1.4-2.3-2.12-3.43-.33-.52-.43-1,.23-1.28L84.42,85q19.08,33.07,38.17,66.16l.7,2.37,0,.32c-.11,3-1.7,4.8-4.21,6.23Q97.89,172.23,76.74,184.5a6.08,6.08,0,0,1-5.45.51c-.14,0-.36.1-.55.16a6.23,6.23,0,0,1-2.9-2.49,6.79,6.79,0,0,1-.43-.74Q49.5,150.92,31.61,119.89Zm53.3,24.27.52.35-1.1-1.91.06.62a2.45,2.45,0,0,0-.58-.24,1.12,1.12,0,0,0-1.33.67c-.22.5-.43,1.17.14,1.52a2.38,2.38,0,0,0,1.51.26C84.73,145.32,84.9,144.74,84.91,144.16Zm-5.74.1,0,.81a1.35,1.35,0,0,0-1.63.07c-.29.2-.6.36-.91.54.38.77.73,1.55,1.15,2.3a3.92,3.92,0,0,0,.67.75c.83-.49-.22-.87-.06-1.34,1.11-.9,1.11-.9,1.17-1.61.2.22.4.43.59.66l.62.75.61-.11a8.63,8.63,0,0,1-.77-1.39c-.07-.22.15-.55.24-.83.26.09.59.1.75.28a6.92,6.92,0,0,1,.64,1c.06.09.22.1.33.15,0-.11.15-.27.11-.34a9.77,9.77,0,0,0-.92-1.49c-.35-.41-.82-.29-1.19.05a3.41,3.41,0,0,0-.39.45C79.63,144,79.63,144,79.17,144.26Zm10.1-3.11c-.43-.82-.92-1.05-1.55-.77a1.16,1.16,0,0,0-.63,1.48,1.3,1.3,0,0,0,1.51,1,1.11,1.11,0,0,0,.84-1.39c-.47.42-.73,1.45-1.71.59Zm-3.6,3.37h.19c0-.17.09-.38,0-.52-.13-.33-.38-.61-.49-.94a.79.79,0,0,1,.11-.66.51.51,0,0,1,.88.13c.19.33.37.66.58,1a.45.45,0,0,0,.35.1s.13-.21.09-.27a9,9,0,0,0-1-1.59c-.14-.17-.67-.12-1,0a4.88,4.88,0,0,0-1,.73Zm-7.89,4.66.1-.24c-.35-.6-.69-1.21-1-1.81-.07-.1-.24-.13-.37-.19,0,.15-.13.35-.08.46A16.66,16.66,0,0,0,77.3,149C77.38,149.1,77.61,149.11,77.78,149.18Z"/><path class="cls-27" d="M51.89,51.74c0-1.3-.11-2.59-.13-3.88,0-1.93,0-3.86,0-5.78,0-1.06-.38-1.25-1.35-.87-2.29.9-4.6,1.74-6.87,2.7a12.15,12.15,0,0,0-1.88,1.39,8.7,8.7,0,0,1-1.33.83c-2,.94-4,1.78-5.89,2.8-2.3,1.22-4.53,2.58-6.78,3.9a2.86,2.86,0,0,0-1,.81,5.82,5.82,0,0,1-2.24,1.91c-1.48.82-3,1.64-4.39,2.55a7.8,7.8,0,0,0-1.93,1.69A1.61,1.61,0,0,0,18,61.2c.76,1.56,1.64,3.07,2.48,4.59a1.38,1.38,0,0,0,.32.4,8,8,0,0,1,2.67,4.3c.31,1,1.11,1.42,1.84,2a2.05,2.05,0,0,1,.61.6c.63,1.19,1.19,2.42,1.86,3.59a1.53,1.53,0,0,0,1,.55,24,24,0,0,1,2.57.28c.44.13.77.71,1.12,1.12.22.25.33.64.58.81,1.27.81,2.55,1.6,3.87,2.33a2.39,2.39,0,0,0,1.2.17c1.46,0,2.91,0,4.35-.16.36,0,.72-.4,1-.69a12.3,12.3,0,0,0,1.84-2.92,3.14,3.14,0,0,1,2.61-1.2c-.13.26-.23.49-.36.7a4,4,0,0,0-.39,3.58c.21.64.48.71,1,.27a3.8,3.8,0,0,0,1-3.75c-.09-.27-.15-.54-.25-.92a10.45,10.45,0,0,1,1.46,0,.75.75,0,0,0,.95-.73c.06-.6.1-1.21.14-1.82.09-1.33.17-2.67.26-4,0,1.64,0,3.29,0,4.94,0,1.33-.07,2.66-.1,4a6.06,6.06,0,0,0,.1.71l0,0a.14.14,0,0,1-.1,0l-.36,0c-.77.64-1.57,1.25-2.29,2A3.85,3.85,0,0,1,47.05,83a5.35,5.35,0,0,0-2.2.82,4.14,4.14,0,0,0-1.46,4.57c.12.44.27.88.4,1.33-.76-.72-.92-.7-1.31.23-.33.78-.62,1.59-1.76,1.25a.69.69,0,0,0-.53.15c-.46.41-.85.3-1.31,0a1.86,1.86,0,0,0-1-.29c-.93,0-1.73-.72-2.7-.51-.07,0-.17-.08-.25-.13a6.75,6.75,0,0,0-3.56-.85c-1.14,0-2.27,0-3.41,0a9.76,9.76,0,0,1-1.48-.29c.3-.45.51-.79.76-1.1a2.17,2.17,0,0,0,.52-2,1.88,1.88,0,0,1,0-.58c0-.92.48-1.85-.11-2.76-.08-.11,0-.28-.06-.43a8.47,8.47,0,0,0-2-5.07,2.32,2.32,0,0,1-.29-.51c-.62-1.11-1.2-2.24-1.85-3.34-1-1.7-2-3.37-3.07-5.07-.25-.42-.46-.84-1.05-.68-1.21-2.1-2.42-4.19-3.62-6.29a9.53,9.53,0,0,1-.38-.93c.06,0,.17-.08.17-.11a2.34,2.34,0,0,1,1.57-2.09c3.33-1.76,6.45-3.91,9.92-5.45,1.9-.84,3.52-2.27,5.33-3.33C38.89,45.78,45.45,42,52,38.24c0,2.19,0,4.38,0,6.57,0,2,0,4,0,6A6.2,6.2,0,0,1,51.89,51.74Z"/><path class="cls-53" d="M70.74,185.17c.19-.06.41-.21.55-.16a6.08,6.08,0,0,0,5.45-.51q21.17-12.23,42.36-24.42c2.51-1.43,4.1-3.28,4.21-6.23l.27.51.18-.6a6.08,6.08,0,0,1-1.74,4.91,7.48,7.48,0,0,1-1.78,1.37q-21.3,12.32-42.61,24.62A7.15,7.15,0,0,1,70.74,185.17Z"/><path class="cls-54" d="M123.76,153.76l-.18.6-.27-.51,0-.32a2.44,2.44,0,0,0-.7-2.37Q103.5,118.09,84.42,85c.21.27.41.55.63.81s.58.63.87.94q18.22,31.59,36.45,63.17a9.29,9.29,0,0,0,.7,1Z"/><path class="cls-53" d="M123.07,150.87a9.29,9.29,0,0,1-.7-1q-18.24-31.57-36.45-63.17L71,60.93q-5.2-9-10.4-18a7.59,7.59,0,0,1-.4-1Z"/><path class="cls-55" d="M71,60.93l14.9,25.82c-.29-.31-.59-.62-.87-.94s-.42-.54-.63-.81L71.15,62l-.21-.37Z"/><ellipse class="cls-34" cx="112.81" cy="169.01" rx="10.08" ry="0.05" transform="translate(-69.36 78.98) rotate(-29.98)"/><path class="cls-21" d="M50.92,96c0,1,.1,1.92.08,2.89-.09,4.58-.18,9.17-.31,13.75-.12,3.83-.29,7.65-.47,11.48-.06,1.15-.23,2.3-.38,3.45-.08.68-.54,1-1.24.93a3.66,3.66,0,0,0-1.44.17,1.86,1.86,0,0,1-1.83-.11c-.36-.24-.62-.18-.81.19-.32.58-.83.61-1.41.55a5.83,5.83,0,0,0-1.32,0,3.39,3.39,0,0,1-3.25-1.78,10.67,10.67,0,0,0-.57-1c-.37-.65-.74-1.31-1.13-2s-.82-1.42-1.31-2.08c-1.06-1.45-2.19-2.84-3.25-4.28s-2-2.86-3-4.28a1,1,0,0,0-.62-.41c.1.21.2.43.32.64l4.18,7.25c1,1.76,2,3.51,3,5.27,1.1,2,2.15,3.94,3.26,5.89.45.8,1,1.54,1.46,2.34.57,1,1,2,1.61,3q12.55,21.79,25.14,43.59l.42.73-.12.07-.42-.73Q47,145.94,26.4,110.32a4.84,4.84,0,0,0-.82-.88c-2.75-4.77-5.51-9.52-8.23-14.3a7.41,7.41,0,0,1-.48-1.66h0l.36.84.19,0C17,92.78,18,92.17,19,91.57c1.52-.84,3-1.73,4.53-2.61a6.13,6.13,0,0,0,.7-.56l.62-.36a4.8,4.8,0,0,1-.32.54A9.54,9.54,0,0,1,20.7,91a2.4,2.4,0,0,0-1.5,1.69,3.36,3.36,0,0,0,.51,2.57c.57,1,1.2,2,1.86,2.93a7.25,7.25,0,0,0,.94.89c.46.43.92.86,1.34,1.32s1,1.51,1.66,1.83a9.06,9.06,0,0,0,4.27,1.18.59.59,0,0,1,.34.08c1.63,1,3.48.23,5.19.66a10.82,10.82,0,0,0,2.14.1c.72,0,1.44.08,2.16.07.54,0,1.08-.11,1.63-.13.34,0,.7.12,1,.09,1-.09,1.92-.24,2.88-.34.58-.06,1.17-.07,1.75-.14a9.2,9.2,0,0,1,1.26-.21,1.92,1.92,0,0,0,2.18-1.86c.08-.94.17-1.87.27-2.81Z"/><path class="cls-28" d="M24.88,88c.29-.33.61-.64.87-1a6.75,6.75,0,0,0,1.15-5.7c0-.17-.27-.3-.41-.45a21.82,21.82,0,0,0-1-2.26c-1.86-3.28-3.76-6.54-5.64-9.81.58-.16.78.25,1,.65,1,1.64,2,3.25,3,4.89.62,1.06,1.18,2.14,1.78,3.22a2.08,2.08,0,0,0,.28.48A8.07,8.07,0,0,1,27.82,83a1,1,0,0,0,.05.42c.57.87.12,1.78.09,2.66a2.71,2.71,0,0,0,0,.57,2.08,2.08,0,0,1-.52,1.9c-.24.3-.45.64-.75,1.07a8,8,0,0,0,1.45.27c1.1,0,2.21-.06,3.31,0a6.61,6.61,0,0,1,3.46.8c.08.06.18.15.25.13.94-.21,1.72.46,2.62.48a1.74,1.74,0,0,1,.93.27c.45.31.83.41,1.27,0a.68.68,0,0,1,.52-.15c1.11.32,1.4-.47,1.72-1.22s.54-.93,1.28-.24a10.47,10.47,0,0,0,3.8,4c.83.4,1.66.85,2.51,1.2.43.18.79,0,.76-.56s0-1,0-1.54.05-1,.06-1.48l.21-11.13.35,0q-.15,7.21-.29,14.43a.88.88,0,0,0,.06.27l.06.14-.08.7-.3,3c-.1.94-.19,1.87-.27,2.81a1.92,1.92,0,0,1-2.18,1.86,9.2,9.2,0,0,0-1.26.21c-.58.07-1.17.08-1.75.14-1,.1-1.91.25-2.88.34-.34,0-.7-.1-1-.09-.55,0-1.09.13-1.63.13-.72,0-1.44,0-2.16-.07a10.82,10.82,0,0,1-2.14-.1c-1.71-.43-3.56.31-5.19-.66a.59.59,0,0,0-.34-.08,9.06,9.06,0,0,1-4.27-1.18c-.68-.32-1.1-1.22-1.66-1.83s-.88-.89-1.34-1.32a7.25,7.25,0,0,1-.94-.89c-.66-1-1.29-1.93-1.86-2.93a3.36,3.36,0,0,1-.51-2.57A2.4,2.4,0,0,1,20.7,91a9.54,9.54,0,0,0,3.86-2.42A4.8,4.8,0,0,0,24.88,88Z"/><path class="cls-56" d="M51,95.27l-.06-.14a2.74,2.74,0,0,0,.19-.66c0-1.52,0-3,.08-4.56.67-.13,1.35-.23,2-.37l4.57-1c0,.45,0,.9-.08,1.34-.23,1.85-.8,2.43-2.66,2.7a3.53,3.53,0,0,0-2.45,1.51A2.32,2.32,0,0,1,51,95.27Z"/><path class="cls-57" d="M57.8,88.56l-4.57,1c-.67.14-1.35.24-2,.37l.09-3.45c0-.49.2-.7.74-.67.81,0,1.63,0,2.46-.05l-.25-.7a4.06,4.06,0,0,0,3.43,1.3Z"/><path class="cls-58" d="M54.25,85l.25.7c-.83,0-1.65.1-2.46.05-.54,0-.73.18-.74.67l-.09,3.45c0,1.52,0,3-.08,4.56a2.74,2.74,0,0,1-.19.66.88.88,0,0,1-.06-.27q.13-7.22.29-14.43a.11.11,0,0,0,.09,0l2.67.1A4.07,4.07,0,0,0,54.25,85Z"/><path class="cls-59" d="M76.68,145.68c.31-.18.62-.34.91-.54a1.35,1.35,0,0,1,1.63-.07l.39.71c-.06.71-.06.71-1.17,1.61-.16.47.89.85.06,1.34Zm1.53,1.44A6.9,6.9,0,0,0,79,146c.06-.13-.21-.58-.35-.59a7,7,0,0,0-1.31.19Z"/><path class="cls-60" d="M79.17,144.26c.46-.23.46-.23,1.06.71a3.41,3.41,0,0,1,.39-.45c.37-.34.84-.46,1.19-.05a9.77,9.77,0,0,1,.92,1.49c0,.07-.07.23-.11.34-.11-.05-.27-.06-.33-.15a6.92,6.92,0,0,0-.64-1c-.16-.18-.49-.19-.75-.28-.09.28-.31.61-.24.83a8.63,8.63,0,0,0,.77,1.39l-.61.11Z"/><path class="cls-61" d="M89.27,141.15l-1.54.89c1,.86,1.24-.17,1.71-.59a1.11,1.11,0,0,1-.84,1.39,1.3,1.3,0,0,1-1.51-1,1.16,1.16,0,0,1,.63-1.48C88.35,140.1,88.84,140.33,89.27,141.15Zm-1.82.35.21.11.94-.54v-.2c-.26,0-.57-.13-.75,0S87.58,141.27,87.45,141.5Z"/><path class="cls-62" d="M84.91,144.16c0,.58-.18,1.16-.78,1.27a2.38,2.38,0,0,1-1.51-.26c-.57-.35-.36-1-.14-1.52a1.12,1.12,0,0,1,1.33-.67,2.45,2.45,0,0,1,.58.24Zm-.69-.45c-.34-.07-.74-.28-1-.17-.51.2-.39.67-.16,1.07s.55.64,1,.4S84.4,144.31,84.22,143.71Z"/><path class="cls-63" d="M85.67,144.52l-1.19-2.07a4.88,4.88,0,0,1,1-.73c.28-.12.81-.17,1,0a9,9,0,0,1,1,1.59c0,.06,0,.27-.09.27a.45.45,0,0,1-.35-.1c-.21-.3-.39-.63-.58-1a.51.51,0,0,0-.88-.13.79.79,0,0,0-.11.66c.11.33.36.61.49.94.06.14,0,.35,0,.52Z"/><path class="cls-64" d="M77.78,149.18c-.17-.07-.4-.08-.48-.2a16.66,16.66,0,0,1-.92-1.58c0-.11.05-.31.08-.46.13.06.3.09.37.19.36.6.7,1.21,1,1.81Z"/><path class="cls-65" d="M84.91,144.16l-.52-.94-.06-.62,1.1,1.91Z"/><path class="cls-53" d="M122.59,151.16a2.44,2.44,0,0,1,.7,2.37C123.06,152.74,122.82,152,122.59,151.16Z"/><path class="cls-27" d="M47.3,94c.71.19,1.44.35,2.13.6.47.17.61.12.67-.4a4.48,4.48,0,0,1,.45-1.1c0,.52,0,1,0,1.54s-.33.74-.76.56C49,94.81,48.13,94.36,47.3,94Z"/><path class="cls-66" d="M78.21,147.12l-.86-1.48a7,7,0,0,1,1.31-.19c.14,0,.41.46.35.59A6.9,6.9,0,0,1,78.21,147.12Z"/><path class="cls-67" d="M87.45,141.5c.13-.23.2-.55.4-.66s.49,0,.75,0v.2l-.94.54Z"/><path class="cls-68" d="M84.22,143.71c.18.6.3,1-.18,1.3s-.76,0-1-.4-.35-.87.16-1.07C83.48,143.43,83.88,143.64,84.22,143.71Z"/><path class="cls-50" d="M24.81,84.79l-.68,1.38c-.5.45-1,.94-1.5,1.35A6.36,6.36,0,0,1,19,88.65a5.18,5.18,0,0,1-3.19-1.43l-1.44-1.81a6.71,6.71,0,0,0-.32-.78q-2.81-4.87-5.62-9.73a5.39,5.39,0,0,0-.51-.67L7,72.06a4.08,4.08,0,0,1,0-.92c.14-.84.34-1.67.51-2.51A5.78,5.78,0,0,1,10.22,66,21.39,21.39,0,0,1,13,65.41l1.39.2,1.77,1.07,1.44,2-.1,0-.19,0a.07.07,0,0,0-.06,0,.09.09,0,0,0,0,0c.09.19.17.38.26.56l-.74-1A5,5,0,0,0,7.8,72.75a11.2,11.2,0,0,0,.9,1.92q2.6,4.56,5.23,9.09A24.25,24.25,0,0,0,15.35,86a4.53,4.53,0,0,0,3.41,2,5,5,0,0,0,5.46-6.47,18.94,18.94,0,0,0-.78-1.87l.52.56,0-.31.1-.06,1,2.61Z"/><path class="cls-69" d="M25.08,82.44l-1-2.61L17.59,68.65l-1.44-2a10.42,10.42,0,0,1,1.4,1.58c2.3,3.92,4.59,7.87,6.82,11.84A11.34,11.34,0,0,1,25.08,82.44Z"/><path class="cls-45" d="M15.81,87.22A5.18,5.18,0,0,0,19,88.65l2.22-.14a8.1,8.1,0,0,1-1.69.54,5.12,5.12,0,0,1-2-.13,6.38,6.38,0,0,1-3.95-3.16c-2-3.44-4-6.84-6-10.26a9.88,9.88,0,0,1-1.27-3.42,6.39,6.39,0,0,1,1.18-4.55c.08-.12.28-.58.42,0-.18.37-.35.74-.53,1.1-.17.84-.37,1.67-.51,2.51a4.08,4.08,0,0,0,0,.92,8.09,8.09,0,0,0,.53,1.73Q11,79.91,14.53,86A6.86,6.86,0,0,0,15.81,87.22Z"/><path class="cls-44" d="M21.22,88.51,19,88.65a6.36,6.36,0,0,0,3.63-1.13c.53-.41,1-.9,1.5-1.35A4,4,0,0,1,21.22,88.51Z"/><path class="cls-70" d="M7.44,68.63c.18-.36.35-.73.53-1.1a5.94,5.94,0,0,1,4.13-2.2,5.45,5.45,0,0,1,.89.08,21.39,21.39,0,0,0-2.77.63A5.78,5.78,0,0,0,7.44,68.63Z"/><path class="cls-71" d="M24.14,84.71A4.92,4.92,0,0,1,18.76,88c-.17-.13-.32-.35-.51-.39a4.65,4.65,0,0,1-3.07-2.44C14,83.09,12.78,81,11.59,79c-1.08-1.87-2.17-3.72-3.2-5.61A4.57,4.57,0,0,1,8.93,68a4.78,4.78,0,0,1,5-1.42,5.49,5.49,0,0,1,3,2.74q3.12,5.35,6.2,10.75A5.39,5.39,0,0,1,24,84.34C23.93,84.44,24.08,84.58,24.14,84.71Zm-6.32-7.18c.11-.2.31-.4.3-.59a2,2,0,0,0-2.91-1.66L15,75.4a1.89,1.89,0,0,0-.74,2.5,1.86,1.86,0,0,0,2.41,1ZM13.68,73a2.48,2.48,0,0,0,.92-3.33A2.45,2.45,0,1,0,13.68,73Zm6.86,12.11a2.32,2.32,0,0,0,1-3.21,2.27,2.27,0,0,0-3.15-.78,2.34,2.34,0,0,0-.88,3.13C18,85.16,19.55,85.93,20.54,85.14Z"/><path class="cls-72" d="M24.14,84.71c-.06-.13-.21-.27-.18-.37a5.39,5.39,0,0,0-.76-4.28Q20.13,74.68,17,69.31a5.49,5.49,0,0,0-3-2.74,4.78,4.78,0,0,0-5,1.42,4.57,4.57,0,0,0-.54,5.36c1,1.89,2.12,3.74,3.2,5.61C12.78,81,14,83.09,15.18,85.15a4.65,4.65,0,0,0,3.07,2.44c.19,0,.34.26.51.39a4.53,4.53,0,0,1-3.41-2,24.25,24.25,0,0,1-1.42-2.2q-2.62-4.53-5.23-9.09a11.2,11.2,0,0,1-.9-1.92,5,5,0,0,1,8.92-4.52l.74,1,6,10.38a18.94,18.94,0,0,1,.78,1.87A4.88,4.88,0,0,1,24.14,84.71Z"/><path class="cls-73" d="M15.81,87.22A6.86,6.86,0,0,1,14.53,86Q11,79.92,7.5,73.79A8.09,8.09,0,0,1,7,72.06l1,2.17,6.45,11.18Z"/><path class="cls-29" d="M24,80.2,17.3,68.66l.19,0,6.45,11.19Z"/><path class="cls-74" d="M13.68,73a2.41,2.41,0,1,1,.92-3.33A2.48,2.48,0,0,1,13.68,73Zm-.56-1.64c0-.42.11-.66,0-.77s-.36-.2-.55-.29c0,.16-.13.36-.08.48S12.8,71.1,13.12,71.39Z"/><path class="cls-74" d="M20.54,85.14c-1,.79-2.56,0-3.06-.86a2.34,2.34,0,0,1,.88-3.13,2.27,2.27,0,0,1,3.15.78A2.32,2.32,0,0,1,20.54,85.14Zm-1.13-1.67c.29,0,.58,0,.71-.14a.64.64,0,0,0,.09-.62c-.1-.15-.41-.16-.63-.23Z"/><path class="cls-75" d="M15,75.4l.25-.12,1.88.7c-.16.66-.16,1.24.68,1.41l.05.14-1.19,1.33c-.45-.17-.89-.38-1.36-.51-.64-.18-.77-.74-.88-1.25-.05-.21.29-.48.39-.75A7.25,7.25,0,0,0,15,75.4Z"/><path class="cls-76" d="M17.82,77.53l-.05-.14L17.09,76l-1.88-.7a2,2,0,0,1,2.91,1.66C18.13,77.13,17.93,77.33,17.82,77.53Z"/><path class="cls-76" d="M15,75.4a7.25,7.25,0,0,1-.18.95c-.1.27-.44.54-.39.75.11.51.24,1.07.88,1.25.47.13.91.34,1.36.51a1.86,1.86,0,0,1-2.41-1A1.89,1.89,0,0,1,15,75.4Z"/><path class="cls-77" d="M13.12,71.39c-.32-.29-.52-.4-.61-.58s.05-.32.08-.48c.19.09.44.14.55.29S13.14,71,13.12,71.39Z"/><path class="cls-78" d="M19.41,83.47l.17-1c.22.07.53.08.63.23a.64.64,0,0,1-.09.62C20,83.46,19.7,83.42,19.41,83.47Z"/><path class="cls-79" d="M17.09,76l.68,1.41C16.93,77.22,16.93,76.64,17.09,76Z"/><path class="cls-1" d="M32.75,43.86c.89-2.32,4.84-6.1,6.93-7.37.49,1.4,3.44,5.34,3.89,6.76.22.66,1.31,2.9,1.18,3.6-.37,2-4.48,2.63-6.31.27C37.52,46.36,33.67,44.62,32.75,43.86Z"/><path class="cls-3" d="M42.18,40.71c-.88-1.59-2.78-3.41-2.47-5.11.68,1,5.08,6.18,5.68,8.11s.34,3.87-1.38,5-5.59-.24-7.23-1.31c-1.22-.8-4.1-3-4.48-4.07a19.48,19.48,0,0,1,5,2.66c1,.89,4.68,2.39,5.76,1.76s1.18-2.34.74-3.53A19.69,19.69,0,0,0,42.18,40.71Z"/><path class="cls-1" d="M67.52,34.56c2.14,1.27,4.33,6.12,5.23,8.39-1.46.25-5.31,3.62-6.78,3.83-.69.1-.9-.18-1.57-.43-1.93-.71.82-7.16.18-5.52S66.62,35.34,67.52,34.56Z"/><path class="cls-3" d="M65.65,39.2a11.22,11.22,0,0,0,.67-3.6c-.75.87-1.83,3.74-2.63,5.47s-1.09,4.47.32,5.74,2.44.32,4.06-.47A19.66,19.66,0,0,0,71,44.73a7.87,7.87,0,0,0,2-2.28c-.76,0-2,1.11-2.64,1.48a24.3,24.3,0,0,0-2.42,1.53c-1,.7-2,1.32-2.9.59a2.78,2.78,0,0,1-.52-3.27A13.53,13.53,0,0,0,65.65,39.2Z"/></g></g></svg>