<svg xmlns="http://www.w3.org/2000/svg" viewBox="0 0 116.3 89.58"><defs><style>.cls-1{fill:#fcfcfc;}.cls-2{fill:#f6c17a;}.cls-3{fill:#0e0e0c;}.cls-4{fill:#0e0e0d;}.cls-5{fill:#e4c3d5;}</style></defs><title>Corgi_E</title><g id="Layer_2" data-name="Layer 2"><g id="Layer_1-2" data-name="Layer 1"><path class="cls-1" d="M17.78,78.34c1.85-.21,4.43.52,6.27.24,2.07-.31,1.45,0,3.09,1-1.55,2.54-1.05,3.37-3.75,5.19a3.69,3.69,0,0,1-3.6.71c-1.26-.5-1.17-1.57-1.42-2.51A11.64,11.64,0,0,1,17.78,78.34Z"/><path class="cls-1" d="M69.82,77.15a10.39,10.39,0,0,1,5.23-.46c2.47.22,4.48-1.13,6.47,0-.79,4.24-2.79,6.23-5,9.6-.82,1.27-1.86,2.41-3.45,1.84A3.67,3.67,0,0,1,70.8,85C70.38,82.37,70.14,79.75,69.82,77.15Z"/><path class="cls-1" d="M14,24.64c2.21-1.28,23.15-5.32,33.48-3.1s16.32,4.12,20.13,4.81,17.18,5.41,23.79,8.43,13,10,13.47,13.76,1.75,18.45,1.33,21.55-11.7,6.55-21.45,6.55-35,.48-36.15,0-16.84-.21-20.44-1.16c-2.87-.76-7.91-11.85-8.51-12.14A88.31,88.31,0,0,1,11,59.87C8.37,58.4.68,52.66,1,47.64,1.34,41.2,2.7,34.81,6.58,32.42S11.45,26.1,14,24.64Z"/><path class="cls-2" d="M56,45.67c-2.77,1-14,2.61-16.48,1.7s-2.49-.36-6.62-3.78c-5.58-4.62-6.87-9.16-5.22-15,.58-2,3.61-7.53,4.29-9.54,4-.17,5.79.07,7.86.86a9.83,9.83,0,0,1,2.92,1.34c.33-1,2.47-3.09,2.88-4.1A27.38,27.38,0,0,1,47.58,13c1-1.81.82-1.19,2.1-3.56.24-.46,1.09-1.72,1.37-2.1,1.16-1.54,2.22-3.17,3.51-4.59,1.45-1.59,3-1.45,4.48.16a11.34,11.34,0,0,1,1.88,3.13c3,6.5,5.68,12.88,7,19.94a2,2,0,0,0,1,1.68c1.14.58,1,1,2.06,1.55C70.88,31.1,64.37,42.62,56,45.67Z"/><path class="cls-2" d="M28.56,19c-.87,2.48-3.27,8.66-4.08,11.16-1.34,4.12-4.77,8.08-9,8.4C9.51,39,5.61,40.15,1,43.93c.69-4.68,2.5-8.44,6-10.7A41.81,41.81,0,0,0,13,26.5c1-1.4-.45-.27-.4-.75.69-6.2,2.91-13.48,4.4-19.55.28-1.11.53-3.1,1.73-3.11,2,0,2.08,3.34,2.89,5.42a16.44,16.44,0,0,1,.88,4.9,44.28,44.28,0,0,0,1.55,7.26A27.86,27.86,0,0,1,28.56,19Z"/><path class="cls-2" d="M20.22,64.37c4,2.54,6.34,5.87,8.91,8.18A24.75,24.75,0,0,0,28,76.76,29,29,0,0,0,27.52,80c-2.07-.76-8.33-1.48-10.52-.71C18.88,72.22,19.76,65.22,20.22,64.37Z"/><path class="cls-1" d="M48.79,80.29c1.85-.21,3.72-.37,5.56-.65a8,8,0,0,1,5.52,1,21.92,21.92,0,0,1-6.62,6.4,3.72,3.72,0,0,1-3.61.71,2.26,2.26,0,0,1-1.42-2.51C48.31,83.6,48.59,82,48.79,80.29Z"/><path class="cls-1" d="M95.19,80.56a13.29,13.29,0,0,1,8.32-1.22,17,17,0,0,1-4.72,7.14,2.65,2.65,0,0,1-3.18.7c-1.15-.6-.81-1.79-.76-2.78C94.9,83.12,95.07,81.84,95.19,80.56Z"/><path d="M16.81,40c2.19-.5,7.89.66,8.85,1.15s1.56,1,1.33,2a8.25,8.25,0,0,1-3.59,5.41c-2.11,1.52-4,2-6-.85C15.62,45.07,14.63,40.46,16.81,40Z"/><path class="cls-2" d="M48.8,80.7c-.33-1.3.48-5.6-.42-6.64.57-1.89,1.87-2.12,2.71-4,2-4.38,5.1-6.16,9.07-8.73C62.92,59.59,68,51.3,71.09,46.14S74.36,30.86,75.51,31a51.12,51.12,0,0,1,20.15,7.32c3.67,2.37,6.73,5,8.58,8.41s2.71,8.65,3,13.07c.38,6.65.86,13.46-1.48,19.8a5.43,5.43,0,0,1-.46.81c-2.9-.46-7.32-.2-10,1.15-.15-.42-.44-1.13-.59-1.56-1-2.68-.89-2.63-3.71-2.54-3,.24-17.85-.84-26.78-1.17-2-.08-1.66.19-2.62,2-.37.69-1.81,2-2.2,2.69a5.11,5.11,0,0,0-4.3-1C53.67,80.26,50.24,80.49,48.8,80.7Z"/><path d="M12.21,34c0-1.08,1-3.69,3.16-3.29,1.62.3,2.24,1.78,2,3.33-.25,1.72-1.26,3.39-3.07,3.29S12.21,35.08,12.21,34Z"/><path d="M39.92,40.68a3.3,3.3,0,0,1-2.35-4.44c.32-1,1.64-3.45,3.35-3.08a2.82,2.82,0,0,1,2.18,2.67C43.46,38.26,41.72,40.91,39.92,40.68Z"/><path class="cls-3" d="M19,64.08c-2.44-.93-3.21-1.7-5.23-2.33-3.1-1.24-4.16-1.77-9.2-6C1.09,52.79-3.07,43.62,3.36,35.92c2.33-2.8,3.94-5.26,6.58-7.46a3.27,3.27,0,0,0,1.83-2.87c.46-6.11,1.09-6.71,2.35-12.7a52.28,52.28,0,0,1,2.62-8.45C17.05,3.82,18,1.5,18.6,1.25c2-.8,3.35,3.46,4,5.16.92,2.54,1.58,11.83,1.92,13.41,5.84-2.36,10.8-2.16,17.52.16.9-2.71,3.85-6.64,6.56-10.85,2.49-3.86,3.74-7.8,6.53-9,4-.74,6,1.12,7.45,4.22,3.05,6.36,5.9,14.81,6.69,21.78,1.89,2.1,9.67,4.65,13.7,5.57,7.55,1.71,14.42,4.77,19.56,10.88,1.85,2.19,3.47,3.93,4.59,6.54a57,57,0,0,0,5.54,8.94c1.23,1.61,4.13,3.23,3.63,4.48-.51.64-3.62,1-5.51.9-.76,0-2.23-.43-3.13-.58-.42,2.21,0,10.44-.44,12.61a26.23,26.23,0,0,1-5.56,11.34,6.67,6.67,0,0,1-4.9,2.74c-2.44.09-3.95-1.26-4-3.68,0-1.28.16-2.57.22-3.85.16-2.82-.86-3.84-3.63-3.8-3.22,0-6.45.14-9.66-.08-1.89-.14-14.44-.53-15.94-.6s-1.82.74-2.29,1.79a20,20,0,0,1-6,7.77c-1.63,1.37-3.45,2.19-5.5,1.15s-2.7-2.11-2.62-4.13c0-1.28.28-2.56.31-3.85.05-1.48.48-1.88-.08-2.74-3.54.08-9-.27-12.59-.35-2.09,0-5.48-1.19-6.75-.84A13.48,13.48,0,0,1,26.1,83c-1.6,2.37-4.18,4.25-6.12,3.89-1.76-.32-2.22-1.7-2.64-3.85-1-4,.06-8.67,1.28-14.31A22.75,22.75,0,0,0,19,64.08Zm7.21,15.54c.36-.79,1.4-4.56,1.89-4.91S33.55,76,34.38,76c5,.11,8.53.06,13.51.46.91,1.05.87,2.12,1.2,3.42-.16,1.66-.37,3.31-.45,5,0,1,.94,1.85,1.92,2.35s3.5-.43,4.29-1.12c2.1-1.82,5.2-7.1,5.59-7.78,1.17-2.06,1.74-2.53,3.7-2.46,8.93.34,17.38,1.55,26.32,1.27,2.82-.09,3.22,0,3.79,1.85.14.43.06.83.21,1.26-.12,1.27-.28,2.55-.34,3.83,0,1-.23,3.53.92,4.13s4.33-.85,5.21-1.7A19.1,19.1,0,0,0,104.73,78a58.7,58.7,0,0,0,1.59-19c-.27-4.93-1.06-9.48-3.44-13.26-1.81-2.87-4.72-5.23-7.95-7.32a45.81,45.81,0,0,0-19-7A11,11,0,0,1,72,29.82c-1.65-.95-2.14-1.26-3.28-1.84a3.52,3.52,0,0,1-1.27-2.32,78.45,78.45,0,0,0-6.53-19.6A11.34,11.34,0,0,0,59,2.93c-1.48-1.61-3-1.75-4.48-.16-1.29,1.42-2.35,3.05-3.51,4.59-.28.38-4.27,7.22-4.85,8.65-.42,1-1.14,2.27-1.47,3.31-.43,1.39-.78,1.57-1.88,2.58-3.22-1.5-2.48-1.24-6.15-1.88s-11,.51-12.82,1.16a28.91,28.91,0,0,1-1.59-6.94c-.18-2.37.05-3.93-.64-5.73-.81-2.16-1.48-4.77-2.42-4.89S17.7,5.8,17.43,6.91c-1.5,6.07-2.93,13-3.4,14.85s-.64,4-1.14,5.22C12,29.2,9.14,31.42,7,33.23A18.57,18.57,0,0,0,2.2,42.48a8.2,8.2,0,0,0-.57,4.15c.49,5.73,4.27,9,9,11.74,3.89,2.23,4.51,2.94,8.36,4.71.89.41,1.36,1.26,1.49,2.74.06,4.83-1.62,6.55-2.12,11.74a16.77,16.77,0,0,0,.9,7.45c.62.56,1.72.45,2.67.34C23.66,85.14,25.89,80.41,26.24,79.62Z"/><path class="cls-1" d="M104.83,49.9c1.94,2.67,5.52,7.62,7.59,9.82,1.4,1.49,2.73,2.33.29,2.52a20.43,20.43,0,0,1-4.52-.48,16,16,0,0,0-1.86-.34C106.38,59.35,105.18,52.29,104.83,49.9Z"/><path class="cls-4" d="M55.64,9.82c.83-.55,1.79-.68,2.37.29,1.86,3.09,3,8.86,3.76,12.41.35,1.57-.82,2.48-2.35,1.92-1.32-.49-2.58-1.15-3.89-1.69-1.1-.45-4-1.24-5.17-2.61C51.41,17.34,54.3,10.73,55.64,9.82Zm.25,10.41c1,.93,2.15,1.11,3.41,1.72A30.73,30.73,0,0,0,56,14.34C54,16.56,57.79,18.38,55.89,20.23Z"/><path class="cls-5" d="M56.4,10.74C54.49,13,53,16.72,52,19.57c1,.92,6.77,2.43,8,3C59.38,19.77,57.76,13.3,56.4,10.74Z"/><path class="cls-4" d="M29.57,71a20.76,20.76,0,0,0-2.14,4.55,15.7,15.7,0,0,1-.79,2.6A13.55,13.55,0,0,1,25.57,81c.5-.22,1.37-.27,1.75-.79a11.67,11.67,0,0,0,1.16-3A43,43,0,0,0,29.57,71Z"/><path class="cls-4" d="M79,81.69c.58-.94,1.32-3.31,3-4.44a49.11,49.11,0,0,1-3.33,7.65c-1.21,2.18-3.63,4.32-5.9,3.86s-2.27-1.88-2.67-4.05a27.5,27.5,0,0,1-.71-4.15c0-1.06-.16-2.69.38-3.82.51.77.64,2.89.77,3.82s.12,2.11.3,3.44.58,2.85,1.94,3.19a4,4,0,0,0,4.05-1.79C77.74,83.84,78.59,82.33,79,81.69Z"/><path class="cls-4" d="M48.17,72.73a17.13,17.13,0,0,0-.53,4.47c.11,1.93,0,2.08,0,3.1s-.3,3.58-.3,3.58l1.25.55a32.9,32.9,0,0,0,.52-4.55C49.06,78.37,49.31,73.89,48.17,72.73Z"/></g></g></svg>