<svg xmlns="http://www.w3.org/2000/svg" viewBox="0 0 122.17 89.82"><defs><style>.cls-1{fill:#231f20;}.cls-2{fill:#f7f2ed;}.cls-3,.cls-4{fill:none;stroke:#231f20;stroke-linecap:round;stroke-width:0.5px;}.cls-3{stroke-linejoin:bevel;}.cls-4{stroke-miterlimit:10;}.cls-5{fill:#fdfdfc;}.cls-6{fill:#f6c17a;}.cls-7{fill:#0e0e0d;}.cls-8{fill:#e4c3d5;}</style></defs><title>Corgi_F2</title><g id="Layer_2" data-name="Layer 2"><g id="Layer_1-2" data-name="Layer 1"><path class="cls-1" d="M83.55,44.66c5.6-5.28,11.24-6.88,16.94-4.61,7,2.78,21.3,10.6,21.66,14.25.44,4.58-4.86,5.23-10.66,4.38-1,4.56-5,6.24-12.56,4.27-.68,4.26-2.39,5.26-4.78,5a13.21,13.21,0,0,1-6.55-2.5c-1.7,3.46-5.1,4.72-9,4.47-2.2-.15-3.58-.79-5.8-3.7-1.82-2.39-1.76-5.34-.9-8.31C73,54.17,78,49.94,83.55,44.66Z"/><path class="cls-2" d="M84.05,45.63c5.28-4.46,9.53-7.3,16.2-4.31,6.35,2.84,20.77,9.75,21.1,12.82.42,3.87-3.06,4.9-11,3.29,1.44,5.31-5.71,6.75-11.88,4.48-.64,3.59-1.56,5.12-3.83,5.17a10.13,10.13,0,0,1-7.33-2.92c-.87,3.45-4.9,5-8.59,4.78-2.07-.12-3-.58-5-3-1.71-2-1.77-5-1-7.48C73.51,55.42,78.78,50.08,84.05,45.63Z"/><path class="cls-3" d="M111.11,58.16s-13.72-5.27-14.36-7.11"/><path class="cls-4" d="M87.6,65.15c0-1.67.09-4-2.47-5.15-3.24-1.49-5,.6-6.67,2.19"/><path class="cls-3" d="M111.1,57.91s-13.71-5-14.35-6.86"/><path class="cls-3" d="M99.1,62.59s-13.72-5.27-14.36-7.1"/><path class="cls-3" d="M99.1,62.47c.57-.07-13.72-5.15-14.36-7"/><path class="cls-4" d="M87.34,65.15c0-1.74.35-4-2.21-5.15-3.24-1.49-5,.6-6.67,2.19"/><path class="cls-1" d="M38.77,30.9c-2-7.44-5.92-11.77-12-12.86C19.4,16.71,3.12,15.81.9,18.72c-2.8,3.66,1.36,7,6.74,9.34-1.52,4.43.93,7.93,8.41,10.26-1.67,4-.74,5.73,1.43,6.78a13.23,13.23,0,0,0,6.88,1.33c-.39,3.83,1.83,6.7,5.3,8.55,1.94,1,3.46,1.22,6.88-.08,2.81-1.07,4.31-3.61,5.15-6.58C42.74,44.56,40.74,38.34,38.77,30.9Z"/><path class="cls-2" d="M37.83,31.45c-2.13-6.57-4.24-11.23-11.49-12.21C19.45,18.31,3.55,16.57,1.65,19c-2.39,3.06,0,5.77,7.61,8.59-4,3.75,1.29,8.75,7.72,10.07-1.34,3.39-1.37,5.17.53,6.42a10.16,10.16,0,0,0,7.77,1.38c-1.08,3.39,1.53,6.83,4.78,8.59,1.82,1,2.8,1.07,5.88.09,2.51-.81,4.12-3.29,4.83-5.81C41.62,45.33,40,38,37.83,31.45Z"/><path class="cls-3" d="M8.24,27.82s14.43,2.76,15.94,1.54"/><path class="cls-4" d="M24.52,46.16c.89-1.41,2-3.41,4.82-3.06,3.53.44,3.94,3.16,4.5,5.37"/><path class="cls-3" d="M8.37,27.61s14.3,3,15.81,1.75"/><path class="cls-3" d="M16.1,37.93S30.53,40.69,32,39.47"/><path class="cls-3" d="M16.17,37.82c-.45-.35,14.36,2.87,15.87,1.65"/><path class="cls-4" d="M24.74,46.3c.93-1.46,1.8-3.55,4.6-3.2,3.53.44,3.94,3.16,4.5,5.37"/><path class="cls-5" d="M49.62,67c-4.48-3.76-6.53-8.76-6.93-14.48A10.36,10.36,0,0,1,44,46.33c.49.49,3.62-7.59,3.85-10,.09-.88,2.65-1.84,1.76-2-.46-1.79-1.2-2.31-2.56-3.24A29.05,29.05,0,0,1,40,24.38a6.77,6.77,0,0,1,1.74-2.23c1.71,1.38,3.5,1.08,5.26.18,2.22-1.12,4-3,6.23-4q4.92-2.28,9.83-4.58a10.94,10.94,0,0,0,4.24-3.41,4.15,4.15,0,0,0,1-3.15c.82-.26,5-1.66,6.78,0,1,1,1.11,2,2.4,2.37.73.23.56,2,1.22,2.09.31,0-1,1.6-1.38,2.07S75.1,19,76.21,21.86c1.9,4.81,4,9.52,4.87,14.67A23.41,23.41,0,0,0,82.76,41c-.79,1-1.59,2-2.38,3a12.76,12.76,0,0,0-5-.12,1.05,1.05,0,0,0-1.76.06,17.53,17.53,0,0,1-4.27,3.18,3.55,3.55,0,0,0-1.89,4.13,4.29,4.29,0,0,0,3.48,3.24c1.25.2,2.45-.39,3.69-.16,1.85,3.49,1.05,9.43,3.23,12.74a19.46,19.46,0,0,1,3,7.54,8,8,0,0,0,3,5.49,40.15,40.15,0,0,1-10.29,6.07c-3.35,2.19-4.73,1.32-8,2-1.22.27-1.9-4.23-2.93-4.94-.37-.26.64-3.48.17-3.48C57.5,75.43,54.82,71.34,49.62,67Z"/><path class="cls-6" d="M50.34,34.77C49.88,33,48.41,32,47.05,31.09A29.05,29.05,0,0,1,40,24.38a37.8,37.8,0,0,0-6.63,13.38c-3.12,11.05-2.8,22,3.75,31.65C43.38,78.66,51.16,84,62.32,87a10.21,10.21,0,0,0,4,.45c-1.65-2.08-.67-6-1.53-7.62C59.51,75.53,54.82,71.34,49.62,67c-4.48-3.76-6.53-8.76-6.93-14.48C42.54,50.36,49.08,35.9,50.34,34.77Z"/><path class="cls-6" d="M42.51,21.14c1.63-.18,1.32-1.28,1.23-2.31A70.76,70.76,0,0,1,44,4.28c.32-2.53,1.48-3.18,3.77-2.06a33.45,33.45,0,0,1,5.4,3.42,16.52,16.52,0,0,1,3.41,3.2c-.51.81-.69.64-1.33,1.24a7.94,7.94,0,0,0-1,1.05c-.22.33,1.88-.83,2.19-1a30.38,30.38,0,0,1,11.89-3,4.15,4.15,0,0,1-1,3.15,15.58,15.58,0,0,1-4.75,4.37c-3.27,1.54-6.44,4.12-9.71,5.64-2.27,1.06-3.62.89-5.84,2-1.76.9-3.55,1.2-5.26-.18C41.81,21.66,42.17,21.17,42.51,21.14Z"/><path class="cls-6" d="M76.81,13.45a8,8,0,0,1,1.35-1.59c.29.46,1,.66,1.26,1.15,2.07,4.16,4.07,8.36,4.9,10a30,30,0,0,1,11.45,2.66c1.5.67,1.64,2.16.56,3.37A64,64,0,0,1,82.76,41c-.58-1.47-3.17-2-3.43-3.56-.87-5.15-3.27-8.69-5.16-13.5C73.05,21.06,75.7,15.25,76.81,13.45Z"/><path class="cls-6" d="M74.63,54.3c.12.6,1.05,9.43,3.23,12.74a19.46,19.46,0,0,1,3,7.54,8,8,0,0,0,3,5.49c1.53-.91,3.36-1.31,4.7-2.49a15,15,0,0,1-1.17-8.31,3.88,3.88,0,0,1-2.25-1.81c-1.26-2-3.07-3.18-4.68-4.93-4.81-5.21-3-12.08,0-18.56a12.76,12.76,0,0,0-5-.12A5.19,5.19,0,0,0,73.3,45.8c1.14,2.05,1.22,5.91,1.14,6.64A5.52,5.52,0,0,0,74.63,54.3Z"/><path class="cls-5" d="M90.62,69.53c2-.22,4,.53,3.22,2.42-.28.66-.63,2.08-1.17,2.52-1.16.92-3,2.21-4.2,3.11-1-2.22-2.49-6.11-2-8.53C87.7,68.92,89.44,69.66,90.62,69.53Z"/><path class="cls-5" d="M75.8,86c2.1,2.75,4.83,3.85,7.48,3L80.81,83.5Z"/><path class="cls-7" d="M65.72,17.06a2.79,2.79,0,0,1,3.52-2.72,10.53,10.53,0,0,1,2.87,1.05c1.42.66,1.53,1.59.7,3a11.08,11.08,0,0,1-3.59,3.17c-1.83,1.14-2.51.77-3.25-1.51A10,10,0,0,1,65.72,17.06Zm5.73-.29c-.63-.26-1.22-.53-1.82-.76-1.6-.6-2.26-.17-2.2,1.52A3,3,0,0,0,68.2,20,5.28,5.28,0,0,0,71.45,16.77Z"/><path class="cls-7" d="M72.62,46c.43-.39,2.79-1,3.64-2.32-1.06.26-7,1-8.51,1.89s-2.59,2.3-2.21,4,3.63,3.16,5.31,3.44c1.25.2,4.42.45,5.29,0a16.36,16.36,0,0,0-4.72-1.22c-1.14,0-4.38-1.23-4.67-2.27s.7-2.22,1.7-2.73C69.82,46.19,72.19,46.41,72.62,46Z"/><path class="cls-7" d="M50.15,36.15a10.94,10.94,0,0,1-2-2.85c1,.46,3,2.53,4.37,3.71s2.66,3.45,1.93,5.08-2,1.21-3.69,1.15A17,17,0,0,1,47.68,43a7.1,7.1,0,0,1-2.61-1.19c.67-.25,2.11.21,2.84.27a20.09,20.09,0,0,1,2.68.39c1.12.23,2.24.36,2.72-.61a2.62,2.62,0,0,0-.8-3A12.86,12.86,0,0,1,50.15,36.15Z"/><path class="cls-7" d="M92.92,27.17c.63.45,1,1.11.43,1.79a26.11,26.11,0,0,1-5.94,5.79c-1,.68-2,.08-2-1.18,0-1.09.14-2.18.17-3.27a9.88,9.88,0,0,1,.77-4.08C88.65,26.23,91.9,26.44,92.92,27.17Zm-5.43,2.72a9.39,9.39,0,0,0-.32,2.92,24,24,0,0,0,4.6-4.46C89.65,27.56,89.34,30.77,87.49,29.89Z"/><path class="cls-8" d="M67.84,20.86c1.86-.73,4.55-3.26,4-4s-1.52-.7-2.27-1c-2-.79-2.8-.24-2.71,1.91A4,4,0,0,0,67.84,20.86Z"/><path class="cls-8" d="M92.4,28.19a11.17,11.17,0,0,0-5.25-.69c-.4,1-.16,5-.26,6A33.93,33.93,0,0,0,92.4,28.19Z"/><path class="cls-7" d="M65.64,5.88c8.1-2.28,13.64,3.58,14.61,6.82A56.12,56.12,0,0,0,84,21.46c.44.63,1.76.22,4.62.21A17,17,0,0,1,96.39,24C99,25.37,99.5,27.73,97.64,30A59.9,59.9,0,0,1,85.26,41.33c-5.37,3.64-9.35,14-5.2,19C81.59,62.11,83,64,84.41,65.82a5.4,5.4,0,0,0,6.21,2.05,3,3,0,0,1,3.51,1.38,3.94,3.94,0,0,1,.17,4,9.36,9.36,0,0,1-3.22,3.45c-3.69,2.85-7.51,4.07-11.86,5.77A38.8,38.8,0,0,0,82.56,88c1,1.32.19,2.22-2.1,1.62a17,17,0,0,1-3.83-1.41c-1.31-.65-1.7-1.65-2.74-2-2.74,2.79-5,2.88-9.22,2.26a39.11,39.11,0,0,1-4.93-1c-7.61-2.37-12.83-4.88-18.45-10.35-4.39-4.29-7.86-9.12-9.55-15C27.3,46.49,30.93,32.64,41,20.27A3.63,3.63,0,0,0,42,17.48a66.69,66.69,0,0,1,.35-13.1C42.82.19,45.28-1.09,49,1a32.35,32.35,0,0,1,8.58,6.38C58.23,8.06,63.34,6.34,65.64,5.88ZM83.47,24.21a25,25,0,0,0-.71-3.07A43,43,0,0,0,79,13.24c-.24-.48-.57-.92-.86-1.38a20.14,20.14,0,0,0-1.32-2.15c-.64-1-5.78-2.83-6-2.69a5,5,0,0,0-2.51.14,34.51,34.51,0,0,0-10,2.27c-.31.16-4.67,2.31-4.39,1.89.38-.6,1.8-1.47,2.73-2.48a16.52,16.52,0,0,0-3.41-3.2,33.45,33.45,0,0,0-5.4-3.42C45.52,1.1,44.36,1.75,44,4.28a70.76,70.76,0,0,0-.3,14.55c.09,1,.4,2.13-1.23,2.31-.34,0-.7.52-.78,1A6.77,6.77,0,0,0,40,24.38a37.8,37.8,0,0,0-6.63,13.38c-3.12,11.05-2.8,22,3.75,31.65C43.38,78.66,51.16,84,62.32,87a10.21,10.21,0,0,0,4,.45c2.27,0,5.25.55,6.5-1.46.54-.88.69-1.49.1-2.23a8.63,8.63,0,0,0-3-1.87c-1.82-.72-5.51-1.79-5.86-2.3a5.34,5.34,0,0,1,2.44,0c1,.32,2,.74,3.19,1.16,2,.71,5,1.48,4.74,4.5a23.79,23.79,0,0,1,2.82,2.32c.92.6,4.34,1.92,5.26,1.14-1.9-1.7-3.11-4.87-4.38-6.53,2.36-1.29,3.08-1.26,5.46-2.49,1.59-.82,3.65-1.29,5-2.48,1.18-.9,2.48-2,3.64-2.93a6.25,6.25,0,0,0,1.15-2.22c.8-1.89-.64-2.8-2.66-2.58-1.18.13-2.59-.25-3.77-.12a5.51,5.51,0,0,1-2.54-2.36c-1.26-2-2.33-2.77-3.94-4.52-4.81-5.21-3-12.08,0-18.56.79-1,1.59-2,2.38-3A64,64,0,0,0,96.33,29c1.08-1.21.94-2.7-.56-3.37A30,30,0,0,0,84.32,23a8.41,8.41,0,0,1-.14,3.56,6.82,6.82,0,0,1-1,2.66C83.18,27.77,83.48,25.63,83.47,24.21Z"/><path class="cls-7" d="M46.2,14.72c-.77,0-1.42-.4-1.34-1.26a26.2,26.2,0,0,1,1.83-8.1c.51-1.13,1.65-1.16,2.34-.1s1.06,1.9,1.62,2.83a9.8,9.8,0,0,1,1.58,3.84C50.29,13.18,47.45,14.78,46.2,14.72Zm3.07-5.24A9.28,9.28,0,0,0,48,6.85a24.26,24.26,0,0,0-1.43,6.25C48.73,12.61,47.24,9.75,49.27,9.48Z"/><path class="cls-8" d="M46.08,13.58a11.08,11.08,0,0,0,4.78-2.28c-.2-1-2.57-4.24-3.07-5.19A34.47,34.47,0,0,0,46.08,13.58Z"/><path d="M76.29,9.56a14,14,0,0,0-5.12-2c-.71,0-1.22.12-1.38.76-.42,1.66-.64,2.82.08,4.24s1.73,2.38,3.73,1.32C75.44,12.89,77.4,10.52,76.29,9.56Z"/><path d="M76.78,21.43c-.77-.85.1-2.82,1.29-3.52a1.76,1.76,0,0,1,2.3.37,1.78,1.78,0,0,1-.07,2.17C79.46,21.75,77.54,22.29,76.78,21.43Z"/><path d="M60.52,14.35c-1-.56-.83-2.7.07-3.75a1.75,1.75,0,0,1,2.29-.42,1.8,1.8,0,0,1,.65,2.08C63.17,13.76,61.52,14.91,60.52,14.35Z"/></g></g></svg>