<svg xmlns="http://www.w3.org/2000/svg" viewBox="0 0 83.02 104.71"><defs><style>.cls-1{fill:#fdfdfc;}.cls-2{fill:#f6c17a;}.cls-3{fill:#0e0e0d;}.cls-4{fill:#e4c3d5;}.cls-5{fill:#fff;}.cls-6{fill:#fa1a00;}</style></defs><title>Corgi_N</title><g id="Layer_2" data-name="Layer 2"><g id="Layer_1-2" data-name="Layer 1"><path class="cls-1" d="M38.12,93.87c-2.53,1.3-5.13-1.3-7.57-.27a58,58,0,0,0-9.67,8.17c-3.69-2.61-.43-11.13.62-12.68a104,104,0,0,0-11.27-5.68c.14-2,3.5-2.28,4.17-3.62a22.44,22.44,0,0,1,5.7-7.31c3.47-2.91-.46-16.8,2.71-20,1.43.16,2.55,1.2,4,1.38a4.92,4.92,0,0,0,4.87-2.41A4.05,4.05,0,0,0,31,46.28a19.72,19.72,0,0,1-3.64-4.89,1.2,1.2,0,0,0-1.91-.63,14.47,14.47,0,0,0-5.53-1.5l-1.63-4.08a26.31,26.31,0,0,0,3.29-4.31C24.17,25.51,28,21,31.65,16.38c2.14-2.75,1.72-8.73,1.43-9.39S31.9,4.2,32.24,4.28c.74.17,1.15-1.89,2-1.9,1.54,0,2-1.11,3.41-1.81,2.43-1.21,6.59,1.71,7.42,2.26a4.72,4.72,0,0,0,.1,3.79,12.58,12.58,0,0,0,3.54,5.12C51.81,14.5,54.92,17.23,58,20c2.14,1.9,3.46,4.5,5.52,6.45C65.17,28,67,28.9,69.36,27.93a7.65,7.65,0,0,1,1.17,3A33.1,33.1,0,0,1,60.61,36c-1.8.58-2.77.91-3.86,2.72-1-.1,1.46,1.78,1.27,2.77-.53,2.71.26,12.59,1,12.22a11.82,11.82,0,0,1-.57,7.18C56.11,67,52.15,77.7,46,80.36,41.32,82.4,42.77,92.36,38.12,93.87Z"/><path class="cls-2" d="M55.81,39c1.08-1.81,3-2.39,4.8-3A33.1,33.1,0,0,0,70.53,31a43.08,43.08,0,0,1,2.92,16.83c-.18,13.13-4.78,30.92-15.11,39.39-9.89,8.1-9.28,7.29-17.6,7.2-1.53,0-2.13.73-6.47-.7C36.76,91.93,38.89,83.46,46,80.36,52.15,77.7,56.11,67,58.41,60.89,59.27,58.59,56.82,40.62,55.81,39Z"/><path class="cls-2" d="M69.73,27.76a5.63,5.63,0,0,1-6.2-1.34c-2.06-2-3.61-2.21-5.74-4.1C54.69,19.57,52.07,15.71,49,13a17.67,17.67,0,0,1-3.79-6.34,4.72,4.72,0,0,1-.1-3.79A35,35,0,0,1,57.15,10c.29.27,2.21,2.23,2.08,1.79a8.6,8.6,0,0,0-.81-1.49c-.5-.86-.75-.73-1-1.79A18.6,18.6,0,0,1,62.16,6.1a38.1,38.1,0,0,1,7-2c2.88-.48,3.94.61,3.46,3.49a80.56,80.56,0,0,1-4.42,16.05c-.42,1.1-1.13,2.21.6,2.93C69.2,26.73,69.8,27.21,69.73,27.76Z"/><path class="cls-2" d="M33.23,19.28C29.58,23.93,25.8,27,23.16,32.4c-.79,1.59-3.8,1.36-4.92,2.78a73.41,73.41,0,0,1-11-17.55C6.48,16,7.12,14.37,9,14.12a34.17,34.17,0,0,1,13.43.82c1.42-1.48,5-5.43,8.61-9.32.42-.45,1.29-.44,1.75-.85a9.73,9.73,0,0,1,1,2.2C34.37,9.29,35.37,16.53,33.23,19.28Z"/><path class="cls-2" d="M22.81,52.45c-.34.63.76,17.12-2.71,20a22.44,22.44,0,0,0-5.7,7.31c-1.1,2.21-1.07,3-3.55,3.88C9.47,82.17,6.12,82.31,5,80.58c1.87-2.09,3.31-8,3.51-10.79a11.83,11.83,0,0,0,5-2.21c2-1.83,5.27-20.41,6.35-28.32a14.47,14.47,0,0,1,5.53,1.5A6,6,0,0,1,27,43.57c-1.92,1.87-3.27,6.09-3.43,6.91A6.17,6.17,0,0,1,22.81,52.45Z"/><path class="cls-1" d="M9.32,69.85C9.12,72.68,6.91,78.49,5,80.58c-1-1.37-2.63-3.39-3.59-4.78C1,75.14,1.08,73.47,1,72.66c-.26-2.33,2.27-2.6,4.34-2.53S8.07,69.32,9.32,69.85Z"/><path class="cls-3" d="M43.48,17.68c-1.56,2.27-2.42,2.45-4,.6a12.73,12.73,0,0,1-2.91-4.64c-.46-1.77,0-2.76,1.74-3a12,12,0,0,1,3.49-.22c2.32.34,3.38,1.83,3,4.14A11.24,11.24,0,0,1,43.48,17.68Zm-2.43-.76a3.45,3.45,0,0,0,1.64-2.43c.61-1.83,0-2.52-1.92-2.38-.73.05-1.46.16-2.24.24A6,6,0,0,0,41.05,16.92Z"/><path class="cls-3" d="M76.22,45.49A12.3,12.3,0,0,0,73.11,48c.34,1.34,4.18-1.8,6.07-2.67s4.08-2.94,3.82-5-1.73-2.18-3.64-2.68a21.18,21.18,0,0,0-3.64-.77,10.63,10.63,0,0,0-2.84-.07c-.18.45-.43.42-.37,1,.66.5,2.18.48,3,.65a28.89,28.89,0,0,0,3.17.44c1.31.11,2.7.1,2.92,1.34a3.05,3.05,0,0,1-1.89,3.09A14.54,14.54,0,0,0,76.22,45.49Z"/><path class="cls-3" d="M19.12,17.85a11.13,11.13,0,0,1-.49,4.73c-.31,1.21-.51,2.45-.87,3.64-.41,1.38-1.67,1.72-2.59.64a29.88,29.88,0,0,1-4.63-8.29c-.37-.92.23-1.53,1.06-1.82C13,16.28,16.59,17.11,19.12,17.85Zm-6.65.57a27.51,27.51,0,0,0,3.6,6.39,11,11,0,0,0,.6-3.31C14.35,21.86,15.06,18.25,12.47,18.42Z"/><path class="cls-4" d="M41.15,18c-1.8-1.41-3.93-5.06-3-5.72S40,12,40.91,11.94c2.43-.22,3.15.64,2.35,3C42.85,16.09,42.49,17.36,41.15,18Z"/><path class="cls-4" d="M11.83,18c2.59-.18,3.46.15,6,.95.12,1.21-1.44,5.49-1.68,6.69A39,39,0,0,1,11.83,18Z"/><path class="cls-3" d="M56.81,6.53a37,37,0,0,1,11.48-4.2c4.76-1,7,1.18,6.21,5.93a82,82,0,0,1-4.49,15,4.13,4.13,0,0,0,.12,3.37c7,16.85,2.47,39.51.89,43.3C68.49,76,58,91,51.83,94.21c-7.95,4.17-10.72,1.13-16,.71-1.63-.13-3.72-.1-5.34-.33a49.21,49.21,0,0,0-7,6.38c-1.84,1.83-3.95,1.39-5.06-1.23a14.18,14.18,0,0,1-.56-5.07c.54-2.45,2.31-3.56,2.08-5.4C15.78,86,5.58,83.06,2.47,78.74A10.77,10.77,0,0,1,.06,73.91a4.52,4.52,0,0,1,1.48-4.3c.7-.71,2-.58,4.31-.38,3.36.29,4.07-.4,6.23-1.92s1.62-3,3.57-8.68,4.43-18.12-.27-23.86A68.22,68.22,0,0,1,5.52,18.28c-1.32-3.06,0-5.48,3.3-6.1,3.1-.58,6.21-1,9.34,0S22.61,14,23.3,13.41A64.25,64.25,0,0,0,30.21,5c2.12-3.23,10.1-7.85,18.24-2.71C50.82,3.56,55.86,7.11,56.81,6.53Zm-35.2,15.6a8,8,0,0,1-.22-3.25,9.24,9.24,0,0,1,1-3.94A34.17,34.17,0,0,0,9,14.12c-1.86.25-2.5,1.83-1.72,3.51a73.67,73.67,0,0,0,11,17.56c.54,1.35,1.09,2.71,1.63,4.07,1.2,8.09-4.35,27.14-6.4,29-1.88,1.86-5.56,2.4-8.66,2.25S1.37,72,1.62,74.32c.09.81,2.8,4.1,3.91,5.26,1.62,1.68,6.82,3.19,8.54,4.3,2.52,1.63,6.06,2.77,8.22,5,.51.66-2.29,3.31-3,6.25-.56,2.41,1.19,6.13,1.74,6.2,1-2.17,9.12-9,11.38-8.92,3.76.15,6.9,1.27,8.43,1.26,9.44,0,8.64,1.65,17.82-7.25,8.32-8,13.95-25.19,14.13-38.33.08-5.76-.11-11.7-2.28-17.1-.21-1.08-1.33-4.22-1.7-4.38-1.73-.72-1-1.83-.6-2.93a80.56,80.56,0,0,0,4.42-16c.48-2.88-.58-4-3.46-3.49a38.1,38.1,0,0,0-7,2,18.6,18.6,0,0,0-4.78,2.39c.68,1.42,2,2.82,2.18,3.61.16.55-3.91-3.23-4.2-3.5A39.17,39.17,0,0,0,45.09,2.83a5.66,5.66,0,0,0-2.71-1c-.2-.23-6.42.08-7.45,1a23.62,23.62,0,0,0-2.16,1.92c-.46.41-1,.79-1.39,1.24C29.87,7.63,27,9.94,24.7,13.46a28.24,28.24,0,0,0-1.78,3.13C22.45,18.14,22.08,20.58,21.61,22.13Z"/><path class="cls-3" d="M61.17,13.31a11.32,11.32,0,0,1,3-3.7c.92-.83,1.76-1.77,2.71-2.57s2.33-.53,2.52.87a29.85,29.85,0,0,1-.63,9.47c-.19,1-1,1.17-1.88,1C65.49,18,62.89,15.32,61.17,13.31Zm5.88,3.15a27.33,27.33,0,0,0,.47-7.32,10.64,10.64,0,0,0-2.3,2.45C67.35,12.55,64.8,15.2,67.05,16.46Z"/><path class="cls-4" d="M67.38,17.13c-2.25-1.26-2.81-2-4.5-4.06.56-1.08,4.2-3.82,5.06-4.7A39,39,0,0,1,67.38,17.13Z"/><path class="cls-1" d="M41.42,93.91c2-1.56,7.62-2,10.13-2a25.94,25.94,0,0,1-.34,7.26c-.17.7-.46,2.55-1,3.09-1.41,1.56-4.23-.78-4.9-2.76C45,98.34,41.81,95.06,41.42,93.91Z"/><path class="cls-1" d="M73.78,47.39c.06-2.78-.61-7.08-.81-9.37a32.43,32.43,0,0,1,5.52.67c.64.08,1.91-.14,2.71.84,1.31,1.5,0,3-1,3.91S74.79,46.79,73.78,47.39Z"/><path d="M35.62,2.23a15.91,15.91,0,0,1,6.27-.55c.78.23,1.29.54,1.26,1.29-.07,2-.21,3.3-1.46,4.62s-2.68,2-4.53.23C35.47,6.16,34.08,2.91,35.62,2.23Z"/><path d="M31.21,15.09c1.12-.7.81-3.13-.27-4.29a2,2,0,0,0-2.64-.35,2,2,0,0,0-.63,2.41C28.16,14.56,30.1,15.78,31.21,15.09Z"/><path d="M51.34,12.62c1.28-.29,1.8-2.69,1.15-4.14a2,2,0,0,0-2.38-1.2,2.05,2.05,0,0,0-1.38,2.07C48.64,11.12,50.06,12.9,51.34,12.62Z"/><path class="cls-3" d="M43.86,97.05c-.48-.57-2.12-2.9-3.46-3.17.28,1.35,2.57,5,3.63,7s3.49,4.26,5.74,3.79,2.48-1.83,2.92-4a22.85,22.85,0,0,0,.6-4c0-1-.31-4-1.07-3.93-.71.47-.38,2.71-.53,3.63a28.49,28.49,0,0,0-.32,3.48c-.06,1.46-.23,2.9-1.58,3.25a3.26,3.26,0,0,1-3.52-1.82A25.4,25.4,0,0,0,43.86,97.05Z"/><path class="cls-5" d="M70.53,31c-1.44.24-14.38,7.07-20.67,7.31s-18.42,1.12-21.41.14-10.32-3.26-10.32-3.26,2.09,6.3,1.63,9.94-3.39,16.48-4.05,18.41,17.52,8.79,24.76,9.12,23.25.74,26.47.9c2.9-3.37,5.41-14.37,6-18.93.4-3.21-.15-13.38-.41-15.31S71.53,32.7,70.53,31Z"/><path class="cls-1" d="M25.33,52.67c-.11-2.43.93-6.4.77-8.71,2.08-.07,4.79.78,6.36,1,.66.08,2.53.15,3.33,1.14,1.32,1.5-.06,3-1.11,3.94S26.68,52.71,25.33,52.67Z"/><path class="cls-3" d="M28.21,45.1c-1.07-1.2-2.31-1.82-2.38-3.35.79.75,5.61,4.31,6.51,5.86s1.08,3.26-.18,4.57-4.87.91-6.49.32c-1.22-.45-4.14-1.81-4.68-2.61a16.69,16.69,0,0,1,4.8,1.3c1,.57,4.52,1.12,5.32.36s.55-2.25-.07-3.19A27.38,27.38,0,0,0,28.21,45.1Z"/><path class="cls-6" d="M46.31,41.05c3.66-1.92,5.15,2.61,6.24,5.5,1.82-2.15,2.53-7.19,6.71-3.08,2.58,2.52-2.74,6.29-5.39,8.14-2.17,1.51-3.89.3-5.31-1.09C45.92,47.91,42.65,43,46.31,41.05Z"/><path d="M37.38,42.53c-.06-.69-.33-1-.8-1a1.29,1.29,0,0,0-.29,0,2.61,2.61,0,0,1-.38.08.43.43,0,0,1-.32-.11.46.46,0,0,1-.15-.32q0-.48.57-.54h.2l.75,0a6.35,6.35,0,0,0,.87,0,7.71,7.71,0,0,0,.94-.16l.62-.13.19,0c.41,0,.63.11.66.43a.46.46,0,0,1-.1.34.37.37,0,0,1-.29.16,2.58,2.58,0,0,1-.38,0,1.47,1.47,0,0,0-.3,0c-.47,0-.68.4-.62,1.09L39,48c.06.7.32,1,.8,1l.29,0a2.55,2.55,0,0,1,.37-.08.39.39,0,0,1,.47.41c0,.34-.16.52-.57.56h-.2l-.73-.05a5,5,0,0,0-.77,0,6.92,6.92,0,0,0-1,.16l-.64.15-.09,0H36.8c-.4,0-.61-.11-.64-.45s.11-.46.4-.48h.38a1,1,0,0,0,.29,0c.48,0,.68-.41.62-1.11Z"/><path d="M37,55.17,40.79,63V57.35c0-.72,0-1.13,0-1.2-.08-.49-.32-.73-.7-.73a1.85,1.85,0,0,0-.34,0l-.33,0a.44.44,0,0,1-.32-.13A.46.46,0,0,1,39,55c0-.33.21-.5.63-.5h.18l.63.09a5.49,5.49,0,0,0,.79,0,8,8,0,0,0,1-.07l.49-.07h.2q.6,0,.6.48c0,.32-.19.47-.57.47h-.3c-.28,0-.47.06-.55.18a1.72,1.72,0,0,0-.16.8v6a2.91,2.91,0,0,1-.22,1.35.79.79,0,0,1-.75.39c-.46,0-.85-.32-1.17-1L36,55.56v6.51c0,.7.23,1,.71,1l.34,0,.33,0a.4.4,0,0,1,.45.45c0,.32-.21.47-.63.47h-.18l-.58-.08a5.6,5.6,0,0,0-.89-.07,7.29,7.29,0,0,0-.94.07L34,64h-.21c-.4,0-.6-.16-.6-.49s.15-.43.45-.43l.38,0a1,1,0,0,0,.29,0q.72,0,.72-1V56.47c0-.7-.25-1-.73-1l-.28,0a2.31,2.31,0,0,1-.38,0,.4.4,0,0,1-.45-.46c0-.33.2-.49.6-.49H34a10.36,10.36,0,0,0,1.07.07,6.13,6.13,0,0,0,.63,0,6.13,6.13,0,0,1,.63,0,.57.57,0,0,1,.57.29Z"/><path d="M48.92,62.37l0-.26c0-.15,0-.28.06-.38L47.18,57c-.13-.31-.2-.49-.24-.55a.72.72,0,0,0-.47-.3.44.44,0,0,0-.26,0l-.12,0-.14,0c-.42-.08-.6-.29-.54-.61s.28-.46.65-.38a3,3,0,0,1,.54.16,8,8,0,0,0,1.21.34,9.44,9.44,0,0,0,1.3.13,3.38,3.38,0,0,1,.51.05c.37.07.53.27.47.58s-.31.41-.76.32l-.14,0-.34-.06-.28-.06c-.1,0-.17,0-.18.08s0,.07,0,.08a1.28,1.28,0,0,0,0,.13l1.42,4,2.82-3.16a.53.53,0,0,0,.11-.21c0-.08,0-.14-.16-.16h-.28l-.36,0-.37,0c-.37-.08-.53-.27-.46-.6s.27-.45.64-.38a3.48,3.48,0,0,1,.49.14,9.11,9.11,0,0,0,1.31.36,7.34,7.34,0,0,0,1.33.14l.47,0c.35.07.49.26.43.58s-.25.41-.59.35a1.74,1.74,0,0,1-.31-.09l-.3-.09a.7.7,0,0,0-.64.22l-.27.28-3.52,3.72-.12.58a7.92,7.92,0,0,0-.22,1.77.57.57,0,0,0,.52.46l.35,0a1.4,1.4,0,0,1,.34,0,.39.39,0,0,1,.34.52c-.06.33-.3.45-.71.37H50.6a.16.16,0,0,0-.09,0l-.74-.25a6.17,6.17,0,0,0-.82-.21A6.84,6.84,0,0,0,48.1,65l-.72,0h-.09l-.09,0c-.42-.08-.59-.28-.53-.6A.41.41,0,0,1,47.2,64l.31.1.32.1q.57.1.84-.6C48.7,63.5,48.78,63.1,48.92,62.37Z"/><path d="M17.79,34.63c3.25,1.22,14.57,3.7,21.35,3.5,14-.43,28.78-4,32.64-5.87a1.73,1.73,0,0,1-.26,1.41,219.77,219.77,0,0,1-24.71,4.64c-15.45,1.89-28.7-2-28.71-2.66A2.28,2.28,0,0,0,17.79,34.63Z"/><path d="M15.13,62.75c2.83,2,13.3,6.43,19.9,8C48.69,74,64,73.46,68.18,72.65a1.71,1.71,0,0,1-.62,1.29,117.81,117.81,0,0,1-25.33-.43c-15.42-2.17-27.24-9-27.06-9.69A2.46,2.46,0,0,0,15.13,62.75Z"/></g></g></svg>