<svg xmlns="http://www.w3.org/2000/svg" xmlns:xlink="http://www.w3.org/1999/xlink" viewBox="0 0 80.14 128.32"><defs><style>.cls-1{fill:#fcfcfc;}.cls-2{fill:#0e0e0d;}.cls-3{fill:#fdfdfc;}.cls-4{fill:#f6c17a;}.cls-5{fill:#e4c3d5;}.cls-6{fill:#fff;}.cls-7{fill:#d5eff6;}.cls-8{stroke:#b2c8ce;stroke-miterlimit:10;stroke-width:0.5px;fill:url(#linear-gradient);}.cls-9{font-size:8px;font-family:MuseoSans-700, Museo Sans;font-weight:700;letter-spacing:0.11em;}.cls-10{letter-spacing:0.12em;}</style><linearGradient id="linear-gradient" x1="40.93" y1="85.3" x2="37.93" y2="68.31" gradientTransform="translate(14.56 -5.81) rotate(10.23)" gradientUnits="userSpaceOnUse"><stop offset="0.82" stop-color="#e0e1d6"/><stop offset="1" stop-color="#aad7d1"/></linearGradient></defs><title>Corgi_M_1</title><g id="Layer_2" data-name="Layer 2"><g id="Layer_1-2" data-name="Layer 1"><path class="cls-1" d="M68.81,87.73a79.33,79.33,0,0,1,8.73,5.12c1.62,1.25,3.07,1.86.69,2.44a21.45,21.45,0,0,1-4.54.27,13.79,13.79,0,0,0-1.89,0C71.52,93.47,69.54,90,68.81,87.73Z"/><path class="cls-2" d="M69.83,88.21c-.74-1.11.55-.23-1-1.3,1.32.09,2.7,2.1,4.23,2.67s3.53,1.77,7.1,4.59c-.08,2.11-3.17,1.38-5.43,1.88-1.52.34-2.56.54-3.49.07s-.88-1.34-.11-.9,1.55.1,2.87,0a19.67,19.67,0,0,0,5.38-.71c-.66-1.11-4.32-2.8-6.24-3.82S70.94,89.88,69.83,88.21Z"/><path class="cls-3" d="M29,102.49c-4.22-5.13-6.9-13.77-10.48-20-1.34-2.34,6.33-7.62,6.57-10.4.82.28-.08-10.56-1.13-13.4-.39-1-11.76-7.27-15.43-9.18A8.36,8.36,0,0,1,9.26,46c2.69.63,4.54-.69,6.05-2.67,1.88-2.49,2.84-5.53,4.82-8q4.29-5.28,8.58-10.56a13.74,13.74,0,0,0,2.91-6.18c.27-1.43,4.4-.94,7.25-.07,1.66.51,6,.33,5.8,1.09s.55,4.54,3.36,7.13c4.78,4.39,9.72,8.56,13.54,13.89,1.13,1.59,2.87,2.74,4.33,4.08-.35,1.57-.69,3.14-1,4.71a15.81,15.81,0,0,0-5.72,2.6c-1-.36-1.64,0-2,1a21.91,21.91,0,0,1-3.07,5.94,4.45,4.45,0,0,0,.13,5.69A5.41,5.41,0,0,0,60,66.49c1.52-.45,2.55-1.78,4.07-2.21,4,2.94-6.25,21.39-2,23.93a24.47,24.47,0,0,1,7.47,6.89c1,1.34-6.22,10.39-8.1,12.05,2.68,2.82-5.47,7.67-11,7-2.82-.69-7.25,1.35-10.21.39C34.5,112.73,33.22,107.63,29,102.49Z"/><path class="cls-4" d="M26.37,58.4c-1.49-1.77-4.61-2.28-6.65-2.58-4.1-.6-7.52-4.4-11.19-6.31a47.3,47.3,0,0,0-.16,18.74c2.54,14.19-.63,28.14,9.17,38.75,9,8.92,9,11.19,18,9.61,1.65-.32,3.38.51,7.83-1.8-3-1.45-8.69-9-13-12.48S22.1,88.72,18.52,82.49C17.18,80.15,25.57,60.37,26.37,58.4Z"/><path class="cls-4" d="M9.59,44.47c1.74-1.1.78-2.17.12-3.29A89.63,89.63,0,0,1,2.07,24.59C1,21.57,2,20.2,5.2,20.2a42,42,0,0,1,8,.91,20.1,20.1,0,0,1,5.6,1.74C18.64,24,18.35,24,18,25a8.85,8.85,0,0,0-.61,1.75c-.07.5,1.67-2,1.93-2.31C22.64,20.08,29,15.84,33.82,13c.9,1.28,5.61,8.16,3.32,8.59S33.8,32.56,32.68,35s-1.41,4.74-6.31,6.57-9.18-.7-11.06,1.79a6.19,6.19,0,0,1-6.48,2.55C8.65,45.33,9.22,44.7,9.59,44.47Z"/><path class="cls-4" d="M39.08,20.26c-.43-.44-1.11-7.91-.85-8.41.58.36,8,2.78,8.57,3.19,4.62,3.57,9.18,7.21,11,8.56a37.44,37.44,0,0,1,14.4-3.28c2-.06,3,1.53,2.47,3.49a80,80,0,0,1-8.75,21c-1.46-1.34-13.11-1.56-16.81-4.4s-5.58-7-7.29-10.44S39.69,20.9,39.08,20.26Z"/><path class="cls-4" d="M54.12,68c0,.78-1.16,13.59-.44,19.65s-3.43,13-1.4,15.77c1.59,2.2,7.28,9.26,10.12,9.78,1.23-1.87,10.25-3.76,11.53-6.94-.43-6.79-4.5-17.62-5.76-21.2-1-2.84-2.51-16.8-3.3-35.59a15.81,15.81,0,0,0-5.72,2.6,6.46,6.46,0,0,0-1.28,3.34C60.28,57.11,54.25,64.74,54.12,68Z"/><path class="cls-2" d="M68.8,24.18c1,.16,1.22,1.44,1,2.5-.77,3.41-.22,5.51-2,8.53-.8,1.33-2.23,1.19-2.92-.23-.6-1.23-1-2.53-1.59-3.78-.47-1.05-1.49-3.31-1.37-5C64.47,24.91,67.25,23.92,68.8,24.18Zm-3.64,5.5c.09,1.32.77,2.21,1.24,3.48a30.09,30.09,0,0,0,2.75-7.57C66.33,25.87,67.73,29.66,65.16,29.68Z"/><path class="cls-5" d="M69.78,25.07c-2.83.27-3.72.78-6.31,2.1.08,1.32,2.54,5.68,3,6.94C67.92,31.69,69,27.76,69.78,25.07Z"/><path class="cls-2" d="M27.33,14.56c10.9-2.71,16.19-2.18,20.23-.32,3.86,1.76,7.52,6.85,9,7.86.85.47,2.11-.72,5.34-2.29s3.94.76,8.46-.35c4.26-.48,6.29,1.76,5.41,5.31-1.7,6.87-3.29,12.92-6.82,19-4.07,7.06-2.12,17.48-1.77,24,.38,7.18.49,12.7,1.73,15.32,2.76,5.81,9.12,34.72,3.71,37.52-1.82,1-6.23-1.59-8.36-3.54s-2.53-3.38-3.89-3.86c-1.2.23-5.37.75-6.74,1.61-.92.58-12.68,2.39-14.43,2.83-5.61,1.39-6.46,1.62-15.81-1.47-5.95-2-6-5.6-9.49-11.29-1.1-1.81-3.11-12.91-3.62-14.21-1.65-4.19-6.69-26.46-2.07-46,.32-1.38.43-4.09-.29-5.32-2.78-4.75-5.23-8.51-7-13.72C-.85,20.68-.3,18.2,5,18.47c4.5.22,9.79.47,14,2.16C20.16,21.08,25,16.34,27.33,14.56ZM57.52,25.47A31.62,31.62,0,0,0,55,22.4C51.9,19,48.4,17,46.47,15.53c-.54-.41-1.15-.73-1.72-1.09-.91-.71-1.5.31-2.4-.24-1.27-.81-8.07,0-8.24.26-1.06.26-4.4.45-5.19,1.18a25.18,25.18,0,0,0-7.94,7c-.27.35-4,5.17-3.94,4.54.11-.89,1.24-2.64,1.73-4.29a20.1,20.1,0,0,0-5.6-1.74,42,42,0,0,0-8-.91C2,20.2,1,21.57,2.07,24.59A89.63,89.63,0,0,0,9.71,41.18c.66,1.12,1.62,2.19-.12,3.29-.37.23-1,3.84-1.06,5-1.39,6.24-.47,18.33.65,24.56,2.54,14.19,3.63,31.09,14.07,38.32,11.53,8,9.87,4,20.11,2.42,1.66-.27,11.76-1.81,13.94-2.06,2.9-.34,3.08-1.1,4.48-.88,3-1.14,9.27-2.73,10.4-3.76,1.67-1.51-2.79-21.76-4.57-24.13S65,58.45,64.87,49.48c.34-1.57.68-3.14,1-4.71a80,80,0,0,0,8.75-21c.55-2-.42-3.55-2.47-3.49a37.44,37.44,0,0,0-14.4,3.28,10.21,10.21,0,0,1,1.8,4.09,8.6,8.6,0,0,1,.34,3.55C59.14,29.65,58.3,27.07,57.52,25.47Z"/><path class="cls-2" d="M10.24,35.2c-.89.38-1.83.33-2.21-.7A32.75,32.75,0,0,1,5.66,24.36c0-1.55,1.22-2.21,2.57-1.39,1.17.7,2.25,1.56,3.4,2.3,1,.63,3,2,3.89,3.47C14,31.22,11.68,34.58,10.24,35.2Zm.59-7.6C10,26.54,9,26.16,7.9,25.36A30.06,30.06,0,0,0,9.71,33.2C11.93,31.43,8.69,29,10.83,27.6Z"/><path class="cls-5" d="M9.47,34c2.22-1.77,2.69-2.67,4.15-5.2-.79-1.06-5.22-3.38-6.31-4.18C7.43,27.41,8.64,31.31,9.47,34Z"/><path class="cls-3" d="M31.4,123.51c-.38,2.27-3,5.31-4.81,3.87-.63-.5-1.28-2.45-1.59-3.17a28.82,28.82,0,0,1-1.66-7.81c2.72-.46,8.86-1,11.32.36C34.44,118.08,31.62,122.19,31.4,123.51Z"/><path class="cls-3" d="M73.54,112.38c.44,2.23.38,7-2.19,7.09a11.73,11.73,0,0,1-3.75-1c-1.68-.8-3.89-3.44-5.2-5.25,1.92-2.39,7.78-3.47,10.81-4.2C74,110.28,73.09,110.15,73.54,112.38Z"/><path d="M42.93,36.94a17.55,17.55,0,0,0-6.9-.48c-.84.25-1.4.6-1.36,1.43.12,2.14.3,3.62,1.7,5s3,2.2,5,.17C43.16,41.25,44.62,37.66,42.93,36.94Z"/><path class="cls-2" d="M33,119.31c.42-.69,1.43-3.79,2.83-4.32-.06,1.52-1.9,5.83-2.69,8.2s-3,5.23-5.54,5.12-3-1.54-3.87-3.79a23.57,23.57,0,0,1-1.36-4.22c-.2-1.14-.39-4.44.46-4.44.84.38.55,2.94.88,3.92a24.06,24.06,0,0,1,.87,3.24c.31,1.57,1.18,3.91,2.71,4a4.49,4.49,0,0,0,4-2.85A28.64,28.64,0,0,1,33,119.31Z"/><path class="cls-6" d="M8.53,49.51S22.84,57.61,38,56.73,57.48,53.57,60.52,52s5.13-7.36,5.13-7.36-1.18,9.47-.86,13.48c.34,4.25,1.45,16.43,1.49,18.67s-20.82,4-28.68,4.84c-9.7,1.06-24,5.17-27.72,2.05-1.63-3.75-1.36-7.49-2-12.48C6.93,64,8.53,49.51,8.53,49.51Z"/><path d="M66.24,12.15c-2-10-12-12.77-29.45-12S5,10.47,4.6,20.85L7.07,41.37s-2,19.12-.27,21.14,5.28,2.36,5.28,2.36l8.55-.36S18.39,46.69,17.94,44c-.35-2.21-.62-15.43,1.11-17,1.12-1,3.76-1.86,5.29-.85.89.58,2.1,0,2.82-.15a4.52,4.52,0,0,1,3.56.51s1.74-.15,3.85-.29A50.28,50.28,0,0,1,41.78,26c1.51.34,4.44-.75,4.44-.75s1.57.3,2.91.45c.94.1,1.08.33,1.89-.09.52-.27,1.78.43,3.45-.14,1.15,2,3.08,12.45,3.79,15.48S56.05,63,56.05,63l7.55-.32s6.21-1.17,7.72-3.93,1.43-14.91,1.43-14.91a123.66,123.66,0,0,0-1.24-17C70.64,21.15,67,16.14,66.24,12.15Z"/><path class="cls-2" d="M8.93,82.06s41.38,1.65,44.4.09,11.59-6.63,13.26-6.34c0,0,4,10.42,4.33,14.35.36,4.17,9,14.6,9.08,16.79s-32.53,10-40.36,10.78c-9.67,1-28.53,1.78-32.24-1.3-1.64-3.68,4.23-12.3,3.55-17.2C10,92.2,8.93,82.06,8.93,82.06Z"/><path class="cls-7" d="M9.3,82.07s39.48-1,42.42-2.55,11.43-3,14.56-4.37c.06,2,2,9.61,2.84,13.39.85,4,6,13.48,9.69,18.17,0,2-31.08,9.29-38.68,10.09-9.38,1-27.22,1.82-30.81-1.18-1.58-3.6,4.14-12.05,3.49-16.84C11.88,91.9,9.3,82.07,9.3,82.07Z"/><path d="M48.22,32c-.37,1.48.44,2.53,2,3.16s2.85-.13,3.89-1.08c.15-.15,0-.69-.15-.94s-.64-.25-1-.08C50.24,34.32,50.23,34.31,48.22,32Z"/><path d="M30.23,32c.1,1.53-.89,2.41-2.55,2.75S24.9,34.14,24.06,33c-.13-.17.08-.68.31-.89s.67-.13,1,.1C27.84,33.92,27.84,33.91,30.23,32Z"/><path d="M8.6,80.73c4.68.43,8.62.61,13,.61,3.62,0,13.59,0,18.57-1,4.19-.81,11.9-1.83,15-2.47S67,75.15,67,75.15l.3,1.38s-18.88,3.3-20.74,3.72S37.12,81.61,32.73,82a109.43,109.43,0,0,1-14.52.18C15.66,81.88,9,81.9,9,81.9Z"/><rect class="cls-8" x="26.58" y="62.48" width="26.25" height="31.81" transform="translate(-13.3 8.3) rotate(-10.23)"/><path class="cls-3" d="M29.67,68.93c.67,1.38,1.36,3.56-.78,4.44-1.34.6-3.36-.2-4.1-.43-1.76-.55-5.06-.33-7.22-1.38,1.31-2.22,2.19-7.28,3.51-9.65C22.54,62.51,29,67.55,29.67,68.93Z"/><path class="cls-2" d="M25,65.32c-.31-.6-3.64-2.26-4-4,1.05.71,7.21,4,8.54,5.56s1.86,3.57.69,5.32-5.34,2-7.3,1.56c-1.46-.29-4.56-1.12-5.32-2a15.78,15.78,0,0,1,5.21.42c1.25.47,5.34.46,6.09-.56s.19-2.71-.7-3.67C27,66.68,25.29,65.92,25,65.32Z"/><path class="cls-3" d="M49.39,70c-1.4-.57-3.36-1.71-2.5-3.73.5-1.3,2.43-2,3.09-2.31,1.57-.73,2.29-2.9,4.49-3.53.62,2.46,4.13,7.38,4.85,9.95C57.91,70.85,50.8,70.55,49.39,70Z"/><path class="cls-2" d="M55.13,69.67a7.15,7.15,0,0,1,3,.6,28.09,28.09,0,0,1-5.83.8c-2.35.2-5.31-.58-6.14-2.6s.62-2.79,2.11-4.24a21.21,21.21,0,0,1,2.9-2.53,6,6,0,0,1,2.57-1.4,8.37,8.37,0,0,1-1.94,2.39,28,28,0,0,1-2.63,2c-1.15.79-2.22,1.67-1.77,2.92a3.22,3.22,0,0,0,3.35,1.86A15.19,15.19,0,0,1,55.13,69.67Z"/><text class="cls-9" transform="translate(30.18 80.79) rotate(-10.23)">K<tspan class="cls-10" x="6.04" y="0">ON</tspan><tspan class="cls-10"><tspan x="-1.56" y="9.6">MARI</tspan></tspan></text><path d="M18.48,54.23c3.16.73,5.1,1.75,8,2.05s9.76.84,12.65.34,8.17-.95,10.28-1.35,8.71-1.78,8.71-1.78l.23,1S44.84,56.69,43.56,57a84.9,84.9,0,0,1-9.48.72,52.69,52.69,0,0,1-9.87-.84L17.57,55.1Z"/></g></g></svg>