<svg xmlns="http://www.w3.org/2000/svg" xmlns:xlink="http://www.w3.org/1999/xlink" viewBox="0 0 116.3 89.58"><defs><style>.cls-1{fill:none;}.cls-2{fill:#fff;}.cls-3{fill:#fcfcfc;}.cls-4{fill:url(#New_Pattern_Swatch_3);}.cls-5{fill:url(#New_Pattern_Swatch_2);}.cls-6{fill:#030200;}.cls-7{fill:#0e0e0c;}.cls-8{fill:#0e0e0d;}.cls-9{fill:#e4c3d5;}</style><pattern id="New_Pattern_Swatch_3" data-name="New Pattern Swatch 3" width="137.42" height="110.57" patternTransform="translate(49.57 67.16)" patternUnits="userSpaceOnUse" viewBox="0 0 137.42 110.57"><rect class="cls-1" width="137.42" height="110.57"/><path d="M28,22.31c-.11-4.72-.36-10.65-.67-16.75L24.54,6c.61,15.5,1.05,31.66,1.22,42.5.26,16-.34,43.53-.63,59.15l2.18-.31c.1-8.1.29-20,.61-24.88C28.42,74.59,28.43,39.17,28,22.31Z"/><path d="M41.24,39.11c.2-8.23-.14-22.72-.54-35.41l-1.65.23c1,28.76,0,54.39-.36,70-.26,10.63-.92,22.22-1.69,32l.82-.12c.53-5,1.07-10.12,1.41-13.16C40.1,85,40.82,56,41.24,39.11Z"/><path d="M34.71,28.22c-.06-6.41-.3-15.19-.58-23.6l-2.25.31c.57,18.24.4,33.75.61,46.92.23,14.37-.84,38.65-1.47,54.93l2.13-.3c.25-5.37.52-11.08.71-14.52C34.28,84.22,34.86,45.5,34.71,28.22Z"/><path d="M46.51,28.69c.19-7.7.08-17.22-.11-25.78l-1.23.17c-.25,18.66-1.37,40.86-1.78,54.06-.42,13.41-1.22,33.38-1.9,48.18l1.79-.25c.33-3.76.66-7.38.94-9.88C45.09,87.5,46.1,45.55,46.51,28.69Z"/><path d="M53.05,33.25c.21-8.48.13-20.95,0-31.26l-2.66.37c0,19.09-.39,42.36-.83,56.53C49.17,71,48,89.51,47,104.56l2.17-.31c.32-4.57.64-8.74.91-11.18C51,85.38,52.64,50.11,53.05,33.25Z"/><path d="M21.31,18.92c-.08-3.83-.27-8.09-.5-12.45l-1.71.24c.28,15.19.28,30.86.44,41.09.28,17.69.45,46.84.38,60.52l1.36-.19c.18-5.88.53-17,.89-22.58C22.67,77.73,21.7,35.78,21.31,18.92Z"/><path d="M11,35.63C10.84,29,10.15,18.46,9.37,8.06L7.63,8.3c.61,18.49.55,40.42.75,53.48.22,13.36.36,33.26.39,48.09l1.59-.22c.37-6.76.87-15.79,1.16-20.33C12,81.5,11.38,52.49,11,35.63Z"/><path d="M16.55,30.22c-.13-5.63-.65-14.14-1.28-23l-1.83.25c.39,16.57.36,34.45.54,45.71.26,15.89.41,41,.39,55.89l1.29-.18c.35-6.45,1.05-19.27,1.42-25C17.58,76.1,16.93,47.08,16.55,30.22Z"/><path d="M5.39,44.2C5.21,35.94,4.18,21.51,3.18,8.92L0,9.36,3.78,110.57l1.41-.2c.27-4.82.55-9.57.73-12.48C6.42,90.08,5.78,61.06,5.39,44.2Z"/><path d="M67.6,37.79c.21-8.3.13-20.41,0-30.58L67.33,0,64.91.34c.41,35.48-2.35,67.81-3.68,86.16-.39,5.32-.89,10.86-1.44,16.28l4.43-.62c.15-1.81.29-3.38.42-4.55C65.51,89.92,67.19,54.65,67.6,37.79Z"/><path d="M60.13,1l-2.35.33c.14,25.14-1.17,45.44-1.69,62.11C55.76,74,54.48,89.7,53.27,103.68l2.32-.32c.8-8.18,3.17-46,3.83-63.06C59.83,29.61,60,12.21,60.13,1Z"/><path class="cls-2" d="M19.54,47.8c-.16-10.23-.16-25.9-.44-41.09l-3.83.53c.63,8.84,1.15,17.35,1.28,23,.38,16.86,1,45.88.53,53.69-.37,5.73-1.07,18.55-1.42,25l4.26-.59C20,94.64,19.82,65.49,19.54,47.8Z"/><path class="cls-2" d="M14,53.2c-.18-11.26-.15-29.14-.54-45.71l-4.07.57c.78,10.4,1.47,21,1.62,27.57.39,16.86,1,45.87.53,53.69-.29,4.54-.79,13.57-1.16,20.33l4-.56C14.39,94.23,14.24,69.09,14,53.2Z"/><path class="cls-2" d="M7.63,8.3l-4.45.62c1,12.59,2,27,2.21,35.28.39,16.86,1,45.88.53,53.69-.18,2.91-.46,7.66-.73,12.48l3.58-.5c0-14.83-.17-34.73-.39-48.09C8.18,48.72,8.24,26.79,7.63,8.3Z"/><path class="cls-2" d="M25.76,48.45c-.17-10.84-.61-27-1.22-42.5l-3.73.52c.23,4.36.42,8.62.5,12.45.39,16.86,1.36,58.81.86,66.63-.36,5.58-.71,16.7-.89,22.58l3.85-.53C25.42,92,26,64.43,25.76,48.45Z"/><path class="cls-2" d="M32.49,51.85c-.21-13.17,0-28.68-.61-46.92l-4.51.63c.31,6.1.56,12,.67,16.75.39,16.86.38,52.28-.12,60.1-.32,4.92-.51,16.78-.61,24.88l3.71-.51C31.65,90.5,32.72,66.22,32.49,51.85Z"/><path class="cls-2" d="M39.05,3.93l-4.92.69c.28,8.41.52,17.19.58,23.6.15,17.28-.43,56-.85,63.74-.19,3.44-.46,9.15-.71,14.52L37,106c.77-9.82,1.43-21.41,1.69-32C39.08,58.32,40,32.69,39.05,3.93Z"/><path class="cls-2" d="M45.17,3.08,40.7,3.7c.4,12.69.74,27.18.54,35.41C40.82,56,40.1,85,39.23,92.67c-.34,3-.88,8.12-1.41,13.16l3.67-.51c.68-14.8,1.48-34.77,1.9-48.18C43.8,43.94,44.92,21.74,45.17,3.08Z"/><path class="cls-2" d="M50.38,2.36l-4,.55c.19,8.56.3,18.08.11,25.78-.41,16.86-1.42,58.81-2.29,66.5-.28,2.5-.61,6.12-.94,9.88l3.73-.51c1-15,2.16-33.61,2.54-45.67C50,44.72,50.41,21.45,50.38,2.36Z"/><path class="cls-2" d="M57.78,1.33,53,2c.14,10.31.22,22.78,0,31.26-.41,16.86-2.09,52.13-3,59.82-.27,2.44-.59,6.61-.91,11.18l4.09-.57c1.21-14,2.49-29.7,2.82-40.24C56.61,46.77,57.92,26.47,57.78,1.33Z"/><path class="cls-2" d="M67.6,7.21c.13,10.17.21,22.28,0,30.58-.41,16.86-2.09,52.13-3,59.82-.13,1.17-.27,2.74-.42,4.55l4.17-.58c.11-1.37.23-2.76.34-4.14l.56-44.87Z"/><path class="cls-2" d="M64.91.34,60.13,1c-.1,11.21-.3,28.61-.71,39.3-.66,17.06-3,54.88-3.83,63.06l4.2-.58c.55-5.42,1.05-11,1.44-16.28C62.56,68.15,65.32,35.82,64.91.34Z"/><path d="M97.2,19.73c.13-4.72.17-10.68.16-16.8l-2.83-.14c-.16,15.55-.53,31.71-.9,42.54-.54,16-2.5,43.25-3.57,58.75l2.18.1c.5-8,1.29-19.82,1.84-24.66C95,71.84,96.75,36.58,97.2,19.73Z"/><path d="M109.5,38.9c.61-8.16,1-22.65,1.23-35.35l-1.65-.08c-.49,28.81-2.68,54.15-3.85,69.59-.79,10.53-2,22-3.28,31.58l.83,0c.77-4.92,1.56-9.88,2-12.84C106.08,84.34,108.25,55.6,109.5,38.9Z"/><path d="M103.55,26.84c.26-6.38.46-15.17.6-23.6l-2.26-.1c-.34,18.26-1.28,33.66-1.73,46.81-.49,14.35-2.77,38.32-4.2,54.41l2.14.1c.51-5.3,1.07-10.94,1.42-14.33C100.33,82.51,102.84,44.08,103.55,26.84Z"/><path d="M115.27,29.5c.57-7.63.94-17.13,1.18-25.68l-1.24-.06c-1.18,18.53-3.4,40.42-4.47,53.48-1.09,13.27-2.88,33-4.29,47.61l1.8.08c.51-3.68,1-7.23,1.43-9.66C110.92,87.78,114,46.21,115.27,29.5Z"/><path d="M121.55,35.25c.63-8.4,1.17-20.83,1.55-31.12L120.44,4c-.93,19-2.5,42.1-3.65,56.11-1,11.94-3.07,30.2-4.81,45l2.18.1c.54-4.49,1.07-8.59,1.47-11C116.87,86.76,120.3,52,121.55,35.25Z"/><path d="M90.67,15.1c.11-3.82.14-8.1.12-12.48l-1.71-.08c-.48,15.18-1.26,30.77-1.61,41-.6,17.66-1.89,46.71-2.64,60.31l1.37.07c.47-5.83,1.37-16.82,2-22.32C89.09,73.9,90.22,32,90.67,15.1Z"/><path d="M79.57,29.82c.18-6.6,0-17.24-.24-27.74L77.58,2c-.31,18.52-1.47,40.33-1.91,53.37-.45,13.33-1.3,33.17-2,47.94l1.59.07c.7-6.65,1.65-15.55,2.17-20C78.31,75.67,79.11,46.67,79.57,29.82Z"/><path d="M85.37,25.47c.15-5.63.06-14.2-.13-23.11l-1.83-.09c-.45,16.57-1.36,34.35-1.74,45.6-.54,15.86-1.63,40.91-2.4,55.7l1.29.06c.67-6.36,2-19,2.66-24.62C84.11,71.33,84.91,42.33,85.37,25.47Z"/><path d="M73.57,37.32c.22-8.26-.08-22.81-.45-35.53l-3.18-.15-.65,50.93-.56,44.87-.07,5.64,1.41.06c.51-4.74,1-9.42,1.35-12.28C72.31,83.17,73.11,54.17,73.57,37.32Z"/><path d="M135,4.69c-1.36,35.4-5.73,67.06-8,85.08-.64,5.22-1.41,10.64-2.24,15.94l4.45.21c.23-1.78.45-3.32.64-4.45,1.25-7.5,4.68-42.3,5.93-59,.62-8.22,1.14-20.29,1.52-30.44l.09-7.23Z"/><path d="M130.21,4.47l-2.36-.12c-1.12,25-3.43,45-4.78,61.52-.85,10.42-2.91,25.83-4.81,39.53l2.32.11c1.21-8,5.45-45.2,7-62.06C128.48,32.88,129.55,15.6,130.21,4.47Z"/><path d="M136.14,106.24l.31-24.2c-.81,7.36-1.92,15.82-3,24.07Z"/><path class="cls-2" d="M89.08,2.54l-3.84-.18c.19,8.91.28,17.48.13,23.11C84.91,42.33,84.11,71.33,83.22,79c-.65,5.63-2,18.26-2.66,24.62l4.27.2c.75-13.6,2-42.65,2.64-60.31C87.82,33.31,88.6,17.72,89.08,2.54Z"/><path class="cls-2" d="M83.41,2.27l-4.08-.19c.26,10.5.42,21.14.24,27.74-.46,16.85-1.26,45.85-2.15,53.54-.52,4.47-1.47,13.37-2.17,20l4,.19c.77-14.79,1.86-39.84,2.4-55.7C82.05,36.62,83,18.84,83.41,2.27Z"/><path class="cls-2" d="M77.58,2l-4.46-.21c.37,12.72.67,27.27.45,35.53-.46,16.85-1.26,45.85-2.15,53.54-.33,2.86-.84,7.54-1.35,12.28l3.59.17c.71-14.77,1.56-34.61,2-47.94C76.11,42.33,77.27,20.52,77.58,2Z"/><path class="cls-2" d="M94.53,2.79l-3.74-.17c0,4.38,0,8.66-.12,12.48C90.22,32,89.09,73.9,88.21,81.58c-.64,5.5-1.54,16.49-2,22.32l3.86.18c1.07-15.5,3-42.8,3.57-58.75C94,34.5,94.37,18.34,94.53,2.79Z"/><path class="cls-2" d="M101.89,3.14l-4.53-.21c0,6.12,0,12.08-.16,16.8C96.75,36.58,95,71.84,94.08,79.52c-.55,4.84-1.34,16.62-1.84,24.66l3.72.18c1.43-16.09,3.71-40.06,4.2-54.41C100.61,36.8,101.55,21.4,101.89,3.14Z"/><path class="cls-2" d="M109.08,3.47l-4.93-.23c-.14,8.43-.34,17.22-.6,23.6-.71,17.24-3.22,55.67-4,63.29-.35,3.39-.91,9-1.42,14.33l3.85.18c1.26-9.63,2.49-21,3.28-31.58C106.4,57.62,108.59,32.28,109.08,3.47Z"/><path class="cls-2" d="M115.21,3.76l-4.48-.21c-.24,12.7-.62,27.19-1.23,35.35-1.25,16.7-3.42,45.44-4.67,52.94-.49,3-1.28,7.92-2,12.84l3.67.17c1.41-14.61,3.2-34.34,4.29-47.61C111.81,44.18,114,22.29,115.21,3.76Z"/><path class="cls-2" d="M120.44,4l-4-.19c-.24,8.55-.61,18.05-1.18,25.68-1.25,16.71-4.35,58.28-5.59,65.77-.41,2.43-.92,6-1.43,9.66l3.73.18c1.74-14.79,3.83-33,4.81-45C117.94,46.11,119.51,23,120.44,4Z"/><path class="cls-2" d="M127.85,4.35l-4.75-.22c-.38,10.29-.92,22.72-1.55,31.12-1.25,16.71-4.68,51.51-5.92,59-.4,2.37-.93,6.47-1.47,11l4.1.19c1.9-13.7,4-29.11,4.81-39.53C124.42,49.38,126.73,29.4,127.85,4.35Z"/><path class="cls-2" d="M129.88,101.47c-.19,1.13-.41,2.67-.64,4.45l4.17.19c1.12-8.25,2.23-16.71,3-24.07l.88-70c-.38,10.15-.9,22.22-1.52,30.44C134.56,59.17,131.13,94,129.88,101.47Z"/><path class="cls-2" d="M135,4.69l-4.79-.22c-.66,11.13-1.73,28.41-2.67,39-1.51,16.86-5.75,54.06-7,62.06l4.21.2c.83-5.3,1.6-10.72,2.24-15.94C129.27,71.75,133.64,40.09,135,4.69Z"/></pattern><pattern id="New_Pattern_Swatch_2" data-name="New Pattern Swatch 2" width="179.26" height="144.23" patternTransform="translate(-46 33.5)" patternUnits="userSpaceOnUse" viewBox="0 0 179.26 144.23"><rect class="cls-1" width="179.26" height="144.23"/><path d="M36.58,29.1c-.14-6.15-.47-13.89-.88-21.85L32,7.76c.8,20.23,1.37,41.3,1.6,55.45.33,20.84-.44,56.77-.82,77.15l2.84-.4c.13-10.56.38-26,.79-32.46C37.07,97.31,37.08,51.1,36.58,29.1Z"/><path d="M53.79,51c.27-10.74-.18-29.64-.7-46.19l-2.15.3c1.25,37.51,0,71-.47,91.28-.34,13.87-1.2,29-2.2,41.8l1.07-.15c.69-6.57,1.39-13.21,1.83-17.17C52.31,110.85,53.25,73,53.79,51Z"/><path d="M45.28,36.81C45.21,28.45,44.89,17,44.53,6l-2.94.41c.74,23.79.52,44,.79,61.2.3,18.76-1.1,50.43-1.91,71.66l2.78-.39c.32-7,.68-14.46.92-18.94C44.71,109.86,45.48,59.36,45.28,36.81Z"/><path d="M60.68,37.43c.24-10,.1-22.47-.15-33.63L58.92,4c-.33,24.35-1.78,53.3-2.32,70.52C56.05,92,55,118.08,54.12,137.39l2.34-.32c.42-4.91.86-9.64,1.23-12.89C58.82,114.14,60.14,59.42,60.68,37.43Z"/><path d="M69.21,43.37c.27-11.06.16-27.33,0-40.78l-3.47.48c0,24.91-.5,55.27-1.08,73.74-.5,15.74-2,40-3.32,59.58l2.83-.39c.42-6,.84-11.42,1.2-14.59C66.48,111.38,68.67,65.37,69.21,43.37Z"/><path d="M27.8,24.68c-.11-5-.35-10.55-.65-16.24l-2.24.31c.37,19.82.37,40.26.58,53.6.37,23.08.58,61.11.49,79l1.79-.24c.22-7.68.68-22.18,1.15-29.47C29.57,101.4,28.3,46.68,27.8,24.68Z"/><path d="M14.34,46.47c-.2-8.61-1.09-22.38-2.11-36L10,10.83c.8,24.12.72,52.73,1,69.76.28,17.42.47,43.38.5,62.74l2.07-.29c.48-8.82,1.14-20.6,1.52-26.53C15.68,106.32,14.84,68.47,14.34,46.47Z"/><path d="M21.59,39.42c-.17-7.34-.85-18.45-1.67-30l-2.38.33c.49,21.62.47,44.93.7,59.63.33,20.73.54,53.51.51,72.91l1.68-.23c.45-8.43,1.37-25.15,1.85-32.62C22.93,99.27,22.09,61.42,21.59,39.42Z"/><path d="M7,57.66c-.24-10.77-1.58-29.6-2.89-46L0,12.21l4.93,132L6.77,144c.35-6.29.71-12.48,1-16.28C8.38,117.51,7.54,79.66,7,57.66Z"/><path d="M88.19,49.29c.26-10.82.16-26.62,0-39.89L87.83,0,84.68.44c.53,46.29-3.08,88.46-4.81,112.4-.5,6.93-1.15,14.16-1.88,21.23l5.78-.8c.2-2.37.38-4.42.56-5.94C85.46,117.3,87.65,71.29,88.19,49.29Z"/><path d="M78.44,1.31l-3.07.42c.18,32.8-1.52,59.29-2.2,81-.43,13.74-2.1,34.25-3.68,52.49l3-.42c1.06-10.67,4.14-60,5-82.26C78,38.62,78.31,15.92,78.44,1.31Z"/><path class="cls-2" d="M25.49,62.35c-.21-13.34-.21-33.78-.58-53.6l-5,.69c.82,11.53,1.5,22.64,1.67,30,.5,22,1.34,59.85.69,70-.48,7.47-1.4,24.19-1.85,32.62L26,141.3C26.07,123.46,25.86,85.43,25.49,62.35Z"/><path class="cls-2" d="M18.24,69.4c-.23-14.7-.21-38-.7-59.63l-5.31.74c1,13.58,1.91,27.35,2.11,36,.5,22,1.34,59.85.69,70-.38,5.93-1,17.71-1.52,26.53l5.24-.73C18.78,122.91,18.57,90.13,18.24,69.4Z"/><path class="cls-2" d="M10,10.83l-5.81.81C5.45,28.06,6.79,46.89,7,57.66c.51,22,1.35,59.85.7,70-.25,3.8-.61,10-1,16.28l4.67-.65c0-19.36-.22-45.32-.5-62.74C10.67,63.56,10.75,35,10,10.83Z"/><path class="cls-2" d="M33.61,63.21C33.38,49.06,32.81,28,32,7.76l-4.86.68c.3,5.69.54,11.25.65,16.24.5,22,1.77,76.72,1.12,86.91-.47,7.29-.93,21.79-1.15,29.47l5-.7C33.17,120,33.94,84.05,33.61,63.21Z"/><path class="cls-2" d="M42.38,67.63c-.27-17.18-.05-37.41-.79-61.2l-5.89.82c.41,8,.74,15.7.88,21.85.5,22,.49,68.21-.16,78.4-.41,6.42-.66,21.9-.79,32.46l4.84-.67C41.28,118.06,42.68,86.39,42.38,67.63Z"/><path class="cls-2" d="M50.94,5.13,44.53,6c.36,11,.68,22.43.75,30.79.2,22.55-.57,73.05-1.11,83.15-.24,4.48-.6,11.94-.92,18.94l5-.69c1-12.81,1.86-27.93,2.2-41.8C51,76.08,52.19,42.64,50.94,5.13Z"/><path class="cls-2" d="M58.92,4l-5.83.81c.52,16.55,1,35.45.7,46.19-.54,22-1.48,59.83-2.62,69.87-.44,4-1.14,10.6-1.83,17.17l4.78-.67C55,118.08,56.05,92,56.6,74.54,57.14,57.32,58.59,28.37,58.92,4Z"/><path class="cls-2" d="M65.72,3.07l-5.19.73c.25,11.16.39,23.58.15,33.63-.54,22-1.86,76.71-3,86.75-.37,3.25-.81,8-1.23,12.89l4.86-.68c1.29-19.62,2.82-43.84,3.32-59.58C65.22,58.34,65.76,28,65.72,3.07Z"/><path class="cls-2" d="M75.37,1.73l-6.18.86c.18,13.45.29,29.72,0,40.78-.54,22-2.73,68-3.86,78-.36,3.17-.78,8.62-1.2,14.59l5.34-.75C71.07,117,72.74,96.5,73.17,82.76,73.85,61,75.55,34.53,75.37,1.73Z"/><path class="cls-2" d="M88.18,9.4c.17,13.27.27,29.07,0,39.89-.54,22-2.73,68-3.86,78-.18,1.52-.36,3.57-.56,5.94l5.44-.76c.15-1.79.3-3.6.45-5.4l.73-58.54Z"/><path class="cls-2" d="M84.68.44l-6.24.87c-.13,14.61-.4,37.31-.93,51.26-.86,22.26-3.94,71.59-5,82.26l5.48-.76c.73-7.07,1.38-14.3,1.88-21.23C81.6,88.9,85.21,46.73,84.68.44Z"/><path d="M126.8,25.73c.17-6.15.22-13.92.21-21.91l-3.7-.18c-.21,20.28-.69,41.36-1.17,55.49-.71,20.81-3.27,56.43-4.66,76.64l2.85.13c.65-10.49,1.67-25.85,2.4-32.17C123.89,93.71,126.2,47.72,126.8,25.73Z"/><path d="M142.84,50.74c.8-10.64,1.3-29.54,1.6-46.11l-2.15-.1c-.63,37.57-3.5,70.64-5,90.77-1,13.74-2.65,28.64-4.28,41.2l1.07.05c1-6.42,2-12.89,2.68-16.75C138.38,110,141.21,72.53,142.84,50.74Z"/><path d="M135.08,35c.34-8.32.59-19.78.78-30.78l-2.94-.14c-.45,23.82-1.68,43.92-2.26,61.07-.64,18.72-3.61,50-5.48,71l2.79.13c.67-6.91,1.39-14.27,1.86-18.69C130.87,107.63,134.15,57.5,135.08,35Z"/><path d="M150.37,38.49c.75-10,1.22-22.35,1.53-33.51l-1.62-.07c-1.53,24.17-4.43,52.72-5.82,69.76-1.42,17.31-3.75,43.05-5.59,62.1l2.34.11c.66-4.8,1.33-9.43,1.86-12.6C144.7,114.5,148.74,60.28,150.37,38.49Z"/><path d="M158.57,46c.82-11,1.52-27.18,2-40.6l-3.47-.16c-1.21,24.8-3.26,54.91-4.76,73.2-1.27,15.57-4,39.39-6.27,58.68l2.84.13c.71-5.86,1.4-11.2,1.91-14.29C152.46,113.17,156.93,67.78,158.57,46Z"/><path d="M118.28,19.7c.14-5,.18-10.57.16-16.29l-2.24-.1c-.62,19.8-1.64,40.15-2.09,53.46-.79,23-2.47,60.93-3.45,78.68l1.79.08c.6-7.59,1.79-21.94,2.61-29.11C116.22,96.4,117.69,41.69,118.28,19.7Z"/><path d="M103.8,38.9c.23-8.61,0-22.49-.31-36.19l-2.28-.1c-.42,24.15-1.92,52.61-2.5,69.61-.59,17.4-1.7,43.28-2.62,62.55l2.07.09c.92-8.68,2.16-20.29,2.83-26.12C102.15,98.72,103.2,60.89,103.8,38.9Z"/><path d="M111.36,33.23c.2-7.35.08-18.53-.17-30.16L108.81,3c-.58,21.61-1.77,44.81-2.27,59.48-.71,20.69-2.13,53.37-3.13,72.67l1.68.08c.88-8.3,2.62-24.78,3.47-32.12C109.72,93.05,110.77,55.21,111.36,33.23Z"/><path d="M96,48.68c.29-10.77-.11-29.76-.59-46.35l-4.15-.19-.84,66.43-.73,58.54-.1,7.35,1.85.09c.66-6.19,1.32-12.29,1.76-16C94.32,108.5,95.37,70.67,96,48.68Z"/><path d="M176.1,6.12c-1.77,46.18-7.46,87.48-10.39,111-.84,6.8-1.85,13.88-2.92,20.78l5.8.28c.31-2.33.59-4.33.84-5.81,1.62-9.78,6.1-55.17,7.73-77,.8-10.72,1.49-26.47,2-39.71l.12-9.42Z"/><path d="M169.85,5.83l-3.08-.15c-1.45,32.68-4.46,58.73-6.22,80.25-1.12,13.59-3.8,33.7-6.28,51.56l3,.15c1.58-10.44,7.11-59,9.07-81C167.6,42.89,169,20.35,169.85,5.83Z"/><path d="M177.6,138.59,178,107c-1.05,9.6-2.49,20.64-4,31.4Z"/><path class="cls-2" d="M116.2,3.31l-5-.24c.25,11.63.37,22.81.17,30.16-.59,22-1.64,59.82-2.8,69.84-.85,7.34-2.59,23.82-3.47,32.12l5.57.26c1-17.75,2.66-55.64,3.45-78.68C114.56,43.46,115.58,23.11,116.2,3.31Z"/><path class="cls-2" d="M108.81,3l-5.32-.25c.33,13.7.54,27.58.31,36.19-.6,22-1.65,59.82-2.81,69.84-.67,5.83-1.91,17.44-2.83,26.12l5.25.25c1-19.3,2.42-52,3.13-72.67C107,47.77,108.23,24.57,108.81,3Z"/><path class="cls-2" d="M101.21,2.61l-5.83-.28c.48,16.59.88,35.58.59,46.35-.6,22-1.65,59.82-2.8,69.84-.44,3.74-1.1,9.84-1.76,16l4.68.22c.92-19.27,2-45.15,2.62-62.55C99.29,55.22,100.79,26.76,101.21,2.61Z"/><path class="cls-2" d="M123.31,3.64l-4.87-.23c0,5.72,0,11.3-.16,16.29-.59,22-2.06,76.7-3.22,86.72-.82,7.17-2,21.52-2.61,29.11l5,.24c1.39-20.21,4-55.83,4.66-76.64C122.62,45,123.1,23.92,123.31,3.64Z"/><path class="cls-2" d="M132.92,4.09,127,3.82c0,8,0,15.76-.21,21.91-.6,22-2.91,68-4.07,78-.73,6.32-1.75,21.68-2.4,32.17l4.85.23c1.87-21,4.84-52.25,5.48-71C131.24,48,132.47,27.91,132.92,4.09Z"/><path class="cls-2" d="M142.29,4.53l-6.43-.3c-.19,11-.44,22.46-.78,30.78-.93,22.49-4.21,72.62-5.25,82.56-.47,4.42-1.19,11.78-1.86,18.69l5,.24c1.63-12.56,3.24-27.46,4.28-41.2C138.79,75.17,141.66,42.1,142.29,4.53Z"/><path class="cls-2" d="M150.28,4.91l-5.84-.28c-.3,16.57-.8,35.47-1.6,46.11-1.63,21.79-4.46,59.28-6.09,69.06-.64,3.86-1.67,10.33-2.68,16.75l4.8.22c1.84-19.05,4.17-44.79,5.59-62.1C145.85,57.63,148.75,29.08,150.28,4.91Z"/><path class="cls-2" d="M157.11,5.23,151.9,5c-.31,11.16-.78,23.55-1.53,33.51-1.63,21.79-5.67,76-7.3,85.79-.53,3.17-1.2,7.8-1.86,12.6l4.87.23c2.27-19.29,5-43.11,6.27-58.68C153.85,60.14,155.9,30,157.11,5.23Z"/><path class="cls-2" d="M166.77,5.68l-6.19-.29c-.49,13.42-1.19,29.63-2,40.6-1.64,21.79-6.11,67.18-7.74,77-.51,3.09-1.2,8.43-1.91,14.29l5.35.25c2.48-17.86,5.16-38,6.28-51.56C162.31,64.41,165.32,38.36,166.77,5.68Z"/><path class="cls-2" d="M169.43,132.36c-.25,1.48-.53,3.48-.84,5.81l5.44.25c1.47-10.76,2.91-21.8,4-31.4l1.15-91.33c-.49,13.24-1.18,29-2,39.71C175.53,77.19,171.05,122.58,169.43,132.36Z"/><path class="cls-2" d="M176.1,6.12l-6.25-.29c-.85,14.52-2.25,37.06-3.48,50.85-2,22-7.49,70.52-9.07,81l5.49.25c1.07-6.9,2.08-14,2.92-20.78C168.64,93.6,174.33,52.3,176.1,6.12Z"/></pattern></defs><title>Corgi_Z</title><g id="Layer_2" data-name="Layer 2"><g id="Layer_1-2" data-name="Layer 1"><path class="cls-3" d="M17.78,78.34c1.85-.21,4.43.52,6.27.24,2.07-.31,1.45,0,3.09,1-1.55,2.54-1.05,3.37-3.75,5.19a3.69,3.69,0,0,1-3.6.71c-1.26-.5-1.17-1.57-1.42-2.51A11.64,11.64,0,0,1,17.78,78.34Z"/><path class="cls-3" d="M69.82,77.15a10.39,10.39,0,0,1,5.23-.46c2.47.22,4.48-1.13,6.47,0-.79,4.24-2.79,6.23-5,9.6-.82,1.27-1.86,2.41-3.45,1.84A3.67,3.67,0,0,1,70.8,85C70.38,82.37,70.14,79.75,69.82,77.15Z"/><path class="cls-3" d="M14,24.64C16.17,23.36,27,17,37.37,19.21s27.26,4.62,30.2,7.14c3.39,2.88,16.5,6.53,23.12,9.56s13.62,8.85,14.14,12.63,1.75,18.45,1.33,21.55-11.7,6.55-21.45,6.55-35,.48-36.15,0-16.84-.21-20.44-1.16c-2.87-.76-7.91-11.85-8.51-12.14A88.31,88.31,0,0,1,11,59.87C8.37,58.4.68,52.66,1,47.64c.37-6.44,2.11-12,6-14.41S11.45,26.1,14,24.64Z"/><path class="cls-4" d="M56,45.67c-2.77,1-14,2.61-16.48,1.7s-2.49-.36-6.62-3.78c-5.58-4.62-6.87-9.16-5.22-15,.58-2,3.61-7.53,4.29-9.54,4-.17,5.79.07,7.86.86a9.83,9.83,0,0,1,2.92,1.34c.33-1,2.47-3.09,2.88-4.1A27.38,27.38,0,0,1,47.58,13c1-1.81.82-1.19,2.1-3.56.24-.46,1.09-1.72,1.37-2.1,1.16-1.54,2.22-3.17,3.51-4.59,1.45-1.59,3-1.45,4.48.16a11.34,11.34,0,0,1,1.88,3.13c3,6.5,5.68,12.88,7,19.94a2,2,0,0,0,1,1.68c1.14.58,1,1,2.06,1.55C70.88,31.1,64.37,42.62,56,45.67Z"/><path class="cls-4" d="M28.56,19c-.87,2.48-3.27,8.66-4.08,11.16-1.34,4.12-4.77,8.08-9,8.4C9.51,39,5.61,40.15,1,43.93c.69-4.68,2.5-8.44,6-10.7A41.81,41.81,0,0,0,13,26.5c1-1.4-.45-.27-.4-.75.69-6.2,2.91-13.48,4.4-19.55.28-1.11.53-3.1,1.73-3.11,2,0,2.08,3.34,2.89,5.42a16.44,16.44,0,0,1,.88,4.9,44.28,44.28,0,0,0,1.55,7.26A27.86,27.86,0,0,1,28.56,19Z"/><path class="cls-5" d="M20.22,64.37c4,2.54,6.34,5.87,8.91,8.18A24.75,24.75,0,0,0,28,76.76,29,29,0,0,0,27.52,80c-2.07-.76-8.33-1.48-10.52-.71C18.88,72.22,19.76,65.22,20.22,64.37Z"/><path class="cls-3" d="M48.79,80.29c1.85-.21,3.72-.37,5.56-.65a8,8,0,0,1,5.52,1,21.92,21.92,0,0,1-6.62,6.4,3.72,3.72,0,0,1-3.61.71,2.26,2.26,0,0,1-1.42-2.51C48.31,83.6,48.59,82,48.79,80.29Z"/><path class="cls-3" d="M94,80.45A18.49,18.49,0,0,1,104.83,79a20.49,20.49,0,0,1-6.16,8.64,3.64,3.64,0,0,1-4.15.84c-1.5-.72-1-2.16-1-3.36C93.6,83.54,93.82,82,94,80.45Z"/><path d="M16.81,40c2.19-.5,7.89.66,8.85,1.15s1.56,1,1.33,2a8.25,8.25,0,0,1-3.59,5.41c-2.11,1.52-4,2-6-.85C15.62,45.07,14.63,40.46,16.81,40Z"/><path class="cls-4" d="M48.8,80.7c-.33-1.3.48-5.6-.42-6.64.57-1.89,1.87-2.12,2.71-4,2-4.38,5.1-6.16,9.07-8.73C62.92,59.59,68,51.3,71.09,46.14S74.36,30.86,75.51,31a51.12,51.12,0,0,1,20.15,7.32c3.67,2.37,6.73,5,8.58,8.41s1.76,8.69,2,13.11c.37,6.66,1.16,13.31-1.19,19.65a5.53,5.53,0,0,1-.46.82c-2.9-.46-8.12-.1-10.75,1.25-.15-.42.47-1.79.32-2.21-1-2.68-.36-2-3.18-1.89-3,.24-17.85-.84-26.78-1.17-2-.08-1.66.19-2.62,2-.37.69-1.81,2-2.2,2.69a5.11,5.11,0,0,0-4.3-1C53.67,80.26,50.24,80.49,48.8,80.7Z"/><path class="cls-6" d="M9.16,34.12c0-1.08,1-3.68,3.16-3.28,1.63.3,2.24,1.78,2,3.32-.25,1.73-1.26,3.39-3.07,3.29S9.16,35.2,9.16,34.12Z"/><path class="cls-6" d="M39.28,40.68a3.3,3.3,0,0,1-2.35-4.44c.32-1,1.64-3.45,3.35-3.08a2.84,2.84,0,0,1,2.18,2.67C42.82,38.26,41.08,40.91,39.28,40.68Z"/><path class="cls-7" d="M19,64.08c-2.44-.93-3.21-1.7-5.23-2.33-3.1-1.24-4.16-1.77-9.2-6C1.09,52.79-3.07,43.62,3.36,35.92c2.33-2.8,3.94-5.26,6.58-7.46a3.27,3.27,0,0,0,1.83-2.87c.46-6.11,1.09-6.71,2.35-12.7a52.28,52.28,0,0,1,2.62-8.45C17.05,3.82,18,1.5,18.6,1.25c2-.8,3.35,3.46,4,5.16.92,2.54,1.87,12.25,2.21,13.83,5.74-1.53,11.25-2,18,.29a58,58,0,0,1,5.82-11.4c2.49-3.86,3.74-7.8,6.53-9,4-.74,6,1.12,7.45,4.22,3.05,6.36,5.9,14.81,6.69,21.78,1.89,2.1,9.67,4.65,13.7,5.57,7.55,1.71,14.42,4.77,19.56,10.88,1.85,2.19,3.47,3.93,4.59,6.54a57,57,0,0,0,5.54,8.94c1.23,1.61,4.13,3.23,3.63,4.48-.51.64-3.62,1-5.51.9-.76,0-2.23-.43-3.13-.58-.42,2.21,0,10.44-.44,12.61a26.23,26.23,0,0,1-5.56,11.34,6.67,6.67,0,0,1-4.9,2.74c-2.44.09-3.95-1.26-4-3.68,0-1.28.16-2.57.22-3.85.16-2.82-.86-3.84-3.63-3.8-3.22,0-6.45.14-9.66-.08-1.89-.14-14.44-.53-15.94-.6s-1.82.74-2.29,1.79a20,20,0,0,1-6,7.77c-1.63,1.37-3.45,2.19-5.5,1.15s-2.7-2.11-2.62-4.13c0-1.28.28-2.56.31-3.85.05-1.48.48-1.88-.08-2.74-3.54.08-9-.27-12.59-.35-2.09,0-5.48-1.19-6.75-.84A13.48,13.48,0,0,1,26.1,83c-1.6,2.37-4.18,4.25-6.12,3.89-1.76-.32-2.22-1.7-2.64-3.85-1-4,.06-8.67,1.28-14.31A22.75,22.75,0,0,0,19,64.08Zm7.21,15.54c.36-.79,1.4-4.56,1.89-4.91S33.55,76,34.38,76c5,.11,8.53.06,13.51.46.91,1.05.87,2.12,1.2,3.42-.16,1.66-.37,3.31-.45,5,0,1,.94,1.85,1.92,2.35s3.5-.43,4.29-1.12c2.1-1.82,5.2-7.1,5.59-7.78,1.17-2.06,1.74-2.53,3.7-2.46,8.93.34,17.38,1.55,26.32,1.27,2.82-.09,3.22,0,3.79,1.85.14.43.06.83.21,1.26-.12,1.27-.28,2.55-.34,3.83,0,1-.23,3.53.92,4.13s4.33-.85,5.21-1.7A19.1,19.1,0,0,0,104.73,78a58.7,58.7,0,0,0,1.59-19c-.27-4.93-1.06-9.48-3.44-13.26-1.81-2.87-4.72-5.23-7.95-7.32a45.81,45.81,0,0,0-19-7A11,11,0,0,1,72,29.82c-1.65-.95-2.14-1.26-3.28-1.84a3.52,3.52,0,0,1-1.27-2.32,78.45,78.45,0,0,0-6.53-19.6A11.34,11.34,0,0,0,59,2.93c-1.48-1.61-3-1.75-4.48-.16-1.29,1.42-2.35,3.05-3.51,4.59-.28.38-4.27,7.22-4.85,8.65-.42,1-1.14,2.27-1.47,3.31-.43,1.39-.78,1.57-1.88,2.58-3.22-1.5-2.48-1.24-6.15-1.88s-11,.51-12.82,1.16a28.91,28.91,0,0,1-1.59-6.94c-.18-2.37.05-3.93-.64-5.73-.81-2.16-1.48-4.77-2.42-4.89S17.7,5.8,17.43,6.91c-1.5,6.07-2.93,13-3.4,14.85s-.64,4-1.14,5.22C12,29.2,9.14,31.42,7,33.23A18.57,18.57,0,0,0,2.2,42.48a8.2,8.2,0,0,0-.57,4.15c.49,5.73,4.27,9,9,11.74,3.89,2.23,4.51,2.94,8.36,4.71.89.41,1.36,1.26,1.49,2.74.06,4.83-1.62,6.55-2.12,11.74a16.77,16.77,0,0,0,.9,7.45c.62.56,1.72.45,2.67.34C23.66,85.14,25.89,80.41,26.24,79.62Z"/><path class="cls-3" d="M104.83,49.9c1.94,2.67,5.52,7.62,7.59,9.82,1.4,1.49,2.73,2.33.29,2.52a20.43,20.43,0,0,1-4.52-.48,16,16,0,0,0-1.86-.34C106.38,59.35,105.18,52.29,104.83,49.9Z"/><path class="cls-8" d="M55.64,9.82c.83-.55,1.79-.68,2.37.29,1.86,3.09,3,8.86,3.76,12.41.35,1.57-.82,2.48-2.35,1.92-1.32-.49-2.58-1.15-3.89-1.69-1.1-.45-4-1.24-5.17-2.61C51.41,17.34,54.3,10.73,55.64,9.82Zm.25,10.41c1,.93,2.15,1.11,3.41,1.72A30.73,30.73,0,0,0,56,14.34C54,16.56,57.79,18.38,55.89,20.23Z"/><path class="cls-9" d="M56.4,10.74C54.49,13,53,16.72,52,19.57c1,.92,6.77,2.43,8,3C59.38,19.77,57.76,13.3,56.4,10.74Z"/><path class="cls-8" d="M29.57,71a20.76,20.76,0,0,0-2.14,4.55,15.7,15.7,0,0,1-.79,2.6A13.55,13.55,0,0,1,25.57,81c.5-.22,1.37-.27,1.75-.79a11.67,11.67,0,0,0,1.16-3A43,43,0,0,0,29.57,71Z"/><path class="cls-8" d="M79,81.69c.58-.94,1.32-3.31,3-4.44a49.11,49.11,0,0,1-3.33,7.65c-1.21,2.18-3.63,4.32-5.9,3.86s-2.27-1.88-2.67-4.05a27.5,27.5,0,0,1-.71-4.15c0-1.06-.16-2.69.38-3.82.51.77.64,2.89.77,3.82s.12,2.11.3,3.44.58,2.85,1.94,3.19a4,4,0,0,0,4.05-1.79C77.74,83.84,78.59,82.33,79,81.69Z"/><path class="cls-8" d="M48.17,72.73a17.13,17.13,0,0,0-.53,4.47c.11,1.93,0,2.08,0,3.1s-.3,3.58-.3,3.58l1.25.55a32.9,32.9,0,0,0,.52-4.55C49.06,78.37,49.31,73.89,48.17,72.73Z"/></g></g></svg>