<svg xmlns="http://www.w3.org/2000/svg" viewBox="0 0 77.59 64.71"><defs><style>.cls-1{fill:#f7f2ed;}.cls-2{fill:#fcfcfc;}.cls-3{fill:#f6c17a;}.cls-4{fill:#0e0e0c;}.cls-5{fill:#0e0e0d;}.cls-6{fill:#1e231e;}.cls-7{fill:#0b6814;}.cls-8{fill:#328734;}</style></defs><title>Corgi_S</title><g id="Layer_2" data-name="Layer 2"><g id="Layer_1-2" data-name="Layer 1"><path d="M73.2,47.2a14.67,14.67,0,0,0,1.55-1.7,6.59,6.59,0,0,0,.79-3.2c-.23-2.22-.25-2.31-1.55-3.5a3.7,3.7,0,0,0-1.82-3.69,10.46,10.46,0,0,0-8-1.11c-.4-4-4.55-7.22-9.62-7.22a10.53,10.53,0,0,0-7.64,3.07,11.64,11.64,0,0,0-8.64-3.56,12.52,12.52,0,0,0-5.37,1.18,12.52,12.52,0,0,0-5.37-1.18,11.78,11.78,0,0,0-8.29,3.19,16.32,16.32,0,0,0-2.45-.19A13.36,13.36,0,0,0,6.48,34.17,8,8,0,0,0,4,40c0,1.69-.36,3.69.47,5.12-2.09,1.6-2.84,5.68-2.29,8.14.6,2.65,1.37,3.58,4.06,5.17a9.89,9.89,0,0,0,5.56,1.81,17.23,17.23,0,0,0,4.93-.4c1.32,2.45,2.81,3.54,6.06,4.2a19,19,0,0,0,3.11.71A11.46,11.46,0,0,0,35,60.62a11.46,11.46,0,0,0,9.08,4.09,12.38,12.38,0,0,0,6.5-1.8c1.67,1.12,2.4.78,4.73.78.82.9,5.42.07,6-.6,1.26,0,2.23-1.44,3-2.6a18.8,18.8,0,0,0,2.27.16,7.61,7.61,0,0,0,2.22-.43,6.38,6.38,0,0,0,3.09-1.85c1,0,1.82-1,2.38-2C75.19,54.57,75,48.63,73.2,47.2Z"/><path class="cls-1" d="M72.17,46.89a9.09,9.09,0,0,0,1.19-1.13c1.75-2,1.65-5.88-.19-6.93.9-1.32-.47-2.56-2.15-3.5a11.08,11.08,0,0,0-8-1c-.38-3.85-4.35-6.89-9.21-6.89a10.12,10.12,0,0,0-7.33,2.93A11.17,11.17,0,0,0,38.16,27,12.13,12.13,0,0,0,33,28.12,12.16,12.16,0,0,0,27.86,27a11.38,11.38,0,0,0-7.95,3,16.3,16.3,0,0,0-2.34-.18c-7.22,0-13.06,4.74-13.06,10.58a8.8,8.8,0,0,0,1.25,4.49A7.67,7.67,0,0,0,2.49,51c0,4.61,4.61,8.34,10.29,8.34a12.31,12.31,0,0,0,4.09-.69c1.6,2.94,5.21,5,9.43,5a11,11,0,0,0,8.7-3.9,11,11,0,0,0,8.7,3.9,11.84,11.84,0,0,0,6.23-1.71C51.53,63,53.34,63,55.58,63c.44.54,5.16.26,5.39-.63,1.51,0,2.32-1.63,3-2.73a12.53,12.53,0,0,0,1.75.13c2.18,0,4.78-.55,5.52-2.06,1.76.06,2.93-1.76,3-6.18A5.5,5.5,0,0,0,72.17,46.89Z"/><path class="cls-2" d="M12,10.19C13.29,9.39,22.05,7.64,28.21,9s9.73,3.61,12,4A95.69,95.69,0,0,1,54.4,18.28c3.94,1.88,7.71,6.19,8,8.54s2.66,5.85.14,10.55c-.91,1.7-6.33,6.88-12.14,6.88s-20.88.3-21.54,0S18.67,44.11,16.77,43c-5-3.08-4.43-6.58-4.78-6.76s-3.83-1.81-5.41-2.72S1.26,28.8.52,26.26C-.6,22.41,2,18.8,4.31,17.32S10.47,11.1,12,10.19Z"/><path class="cls-3" d="M34.75,25c-1.71.62-8.66,1.61-10.22,1.05s-1.55-.23-4.11-2.35c-3.46-2.86-4.26-5.68-3.23-9.31.35-1.26,2.24-4.67,2.66-5.92a66.66,66.66,0,0,1,7.59.5c2.62.21,2.32-.2,2.57-.83a10.9,10.9,0,0,1,.81-2.24c.65-1.12,3.19-2.81,3.37-3,.71-1,1.31-.57,2.11-1.45S38.41,0,39.33,1a12.05,12.05,0,0,1,1.45,2.51c1.88,4,.54,3.35,1.33,7.74a1.22,1.22,0,0,0,.64,1c.7.36,1.48.42,2.13.79C44.83,14.27,39.94,23.14,34.75,25Z"/><path class="cls-3" d="M17.72,8.48c-.54,1.55-2,5.38-2.53,6.93-.83,2.56-3,5-5.61,5.21-3.68.29-6.1,1-9,3.33.43-2.9,1.55-5.23,3.72-6.63a18.9,18.9,0,0,0,3.17-3.7c.6-.87-.25-2.86-.37-3.13C5.75,7.47,5,7.25,6,3.48c.17-.69.32-1.92,1.07-1.92,1.23,0,4.62,2.48,5.49,3.72a36.92,36.92,0,0,1,2.43,4.24A17.39,17.39,0,0,1,17.72,8.48Z"/><path d="M10.43,21.49a14.34,14.34,0,0,1,5.49.72c.6.3,1,.63.82,1.24a5.1,5.1,0,0,1-2.22,3.36c-1.31.94-2.5,1.24-3.72-.53S9.07,21.8,10.43,21.49Z"/><path class="cls-3" d="M29.51,44.57a48.34,48.34,0,0,1,2.19-4.38c1.24-2.72,3.16-3.82,5.62-5.41,1.72-1.11,4.89-6.25,6.79-9.45s2.08-11.71,2.78-11.59c7,.81,8.71,1.45,12.71,3.2,3.32,1.16,7.16,2.35,9.91,5.9,1.52,2,2.31,7.65,2.46,10.39C70,37.32,59,44.76,56.45,44.78c-1.87.15-11.07-.52-16.61-.73-1.22,0-1,.13-1.63,1.23C38,45.72,30.07,45.21,29.51,44.57Z"/><path class="cls-4" d="M11.81,36.45c-1.52-.57-2-1.05-3.25-1.44-1.92-.77-2.58-1.1-5.71-3.73A9,9,0,0,1,2.08,19a33.47,33.47,0,0,1,4.09-4.63A2,2,0,0,0,7.3,12.58a39.62,39.62,0,0,1-1.79-6.2,5.88,5.88,0,0,1,.25-4C6,2,6.53.57,6.92.41,8.18-.09,10.12,2.35,11,3.1c1.25,1.1,2.46,2.46,4.21,5.9A21.36,21.36,0,0,1,28.7,8.65c.56-1.68,1.61-3.23,3.94-5.28A17.52,17.52,0,0,1,38.47,0C39.11-.08,40,.08,41,2c1.89,4,.85,5.15,1.34,9.47,1.18,1.31,9,2.51,11.54,3.08,5.35,2.1,12.56,3.22,15.75,7a16.17,16.17,0,0,1,2.85,4.07,34.9,34.9,0,0,0,3.43,5.54c.77,1,2,1.8,1.67,2.58-.32.4-2.25.61-3.42.56-.47,0-1.59-.46-2.15-.56-1.45,3.41-9,7.82-10.49,9a12.61,12.61,0,0,1-6.09,2.52c-2,0-3.72-.42-5.71-.56-1.17-.08-9.21-.5-10.15-.54s-1.09,1.23-1.78,1.42c-1.48.42-6.67-.54-8.24-1-2.2,0-5.63.08-7.83,0-1.29,0-3.06-.88-4.24-1.05s-3-1.4-4.65-4A7.8,7.8,0,0,1,11.81,36.45ZM31,6c-.91,1.3-1.11,3.25-1.79,3.88-2-.93-4.18-.32-6.46-.72a23.55,23.55,0,0,0-7.95.72,12.12,12.12,0,0,0-2-3.6,18.23,18.23,0,0,1-2.22-2.36,6.2,6.2,0,0,0-3.27-2c-.59-.07-.95,1.35-1.12,2C5.26,7.69,8.31,12.65,8,13.44c-.55,1.38-2.33,2.75-3.69,3.88a11.37,11.37,0,0,0-2.94,5.73A5.1,5.1,0,0,0,1,25.63c.3,3.55,2.65,5.6,5.59,7.29a51.57,51.57,0,0,0,5.19,2.92c.55.25.84.78.92,1.69,0,3,3.81,5.13,4.75,5.52a32.61,32.61,0,0,0,3.87.8c3.09.07,5.29,0,8.38.29.56.65,7.55,1.57,7.79,1.14.72-1.27,1.07-1.57,2.3-1.52,5.53.21,10.77,1,16.32.79a9.37,9.37,0,0,0,5.05-2.28C62,41.41,71,37,71.42,32.88a16.41,16.41,0,0,0-1.91-10c-1.12-1.78-4.61-3.95-6.59-4.74a84.18,84.18,0,0,0-13.43-3.78,31,31,0,0,1-4.61-1.21c-.44-.23-3-.81-3.11-1.29C41.58,6.74,41.2,5.07,39.33,1,39,.35,35.19,1.8,34.19,2.9"/><path class="cls-2" d="M70.14,24.14c1.2,1.65,4.33,6.67,5.61,8,.87.93,1.7,1.45.18,1.57a13.42,13.42,0,0,1-2.81-.3c-.79-.17-1-.48-1.7-.58A17.18,17.18,0,0,0,70.14,24.14Z"/><path class="cls-5" d="M36.61,6.83c.62,0,.79-.3.82.39.09,2.24-.11,1.06-.73,3.23-.28,1-1.18,1.11-1.85.35s-1.05-.3-.65-1.26S35.61,6.93,36.61,6.83Z"/><path d="M21.68,18c-.29,1.13.34,1.93,1.53,2.41a2.65,2.65,0,0,0,3-.83c.12-.11,0-.52-.11-.71s-.49-.2-.77-.07C23.21,19.78,23.21,19.78,21.68,18Z"/><path d="M6.39,16.87A1.92,1.92,0,0,0,8.12,19c1.18.26,1.87-.51,2.43-1.38.09-.13-.06-.52-.21-.67s-.45-.11-.68.08C8,18.29,8,18.29,6.39,16.87Z"/><path class="cls-4" d="M44.86,11.83c-6,4.17-4.25,5.82-6.11,10.47-1.66,4.14-2.18,4.09-4.4,9.22-4.69,10.87-7.53,20.9-7.68,25.22s-1.18,6.48.69,7S49.29,66.32,52,62.18s1.66-9.39,2.28-12.58,1.66-8.8,2.9-11.81S60.28,33.65,60.28,27s1.9-8,.26-9.93S48.19,9.53,44.86,11.83Z"/><path d="M10.67,48.11c-.25-.28-1.13,1-.89,2.08a1,1,0,0,0,1,.94A5.44,5.44,0,0,0,13.23,51c.12,0,0-.51-.18-.5-.63,0-1.3.5-2.34.13C9,49.67,11.06,48.53,10.67,48.11Z"/><path d="M20.84,46.45c-.36-.13-.54,1.39.2,2.25a1,1,0,0,0,1.32.37,5.65,5.65,0,0,0,2.09-1.31c.08-.11-.23-.45-.39-.36-.55.33-.92,1.06-2,1.22C20.12,48.61,21.38,46.63,20.84,46.45Z"/><path d="M58.61,49.63c-.35-.12-.54,1.4.2,2.26a1,1,0,0,0,1.32.36A5.53,5.53,0,0,0,62.22,51c.08-.11-.23-.46-.39-.36-.55.33-.92,1.06-2,1.22C57.89,51.79,59.15,49.82,58.61,49.63Z"/><path d="M66.42,44c-.35-.12-.54,1.39.2,2.26a1,1,0,0,0,1.32.36A5.4,5.4,0,0,0,70,45.26c.08-.1-.23-.45-.39-.35-.55.33-.92,1.06-2,1.22C65.7,46.11,67,44.14,66.42,44Z"/><path d="M20.12,54.45c-.35-.12-.54,1.4.2,2.26a1,1,0,0,0,1.32.37,5.65,5.65,0,0,0,2.09-1.31c.08-.11-.23-.46-.39-.36-.55.33-.92,1.06-2,1.22C19.4,56.61,20.66,54.64,20.12,54.45Z"/><path d="M64.46,53.08c-.36-.12-.54,1.39.2,2.26A1,1,0,0,0,66,55.7a5.31,5.31,0,0,0,2.09-1.31c.09-.1-.22-.45-.39-.35-.54.33-.92,1.06-2,1.22C63.74,55.24,65,53.27,64.46,53.08Z"/><path class="cls-6" d="M36.69,48.62c.44,0,.57-.22.59.28.06,1.6-.09.75-.53,2.3-.2.69-.84.79-1.31.25s-.75-.21-.47-.9S36,48.69,36.69,48.62Z"/><path class="cls-6" d="M43.62,43.3c.44,0,.57-.22.59.28.06,1.6-.09.75-.53,2.3-.19.69-.84.79-1.31.25s-.75-.21-.47-.9S42.91,43.37,43.62,43.3Z"/><path class="cls-6" d="M39.51,35.71c.44,0,.57-.22.59.28.06,1.59-.08.75-.53,2.3-.19.68-.84.79-1.31.25s-.75-.21-.47-.9S38.8,35.78,39.51,35.71Z"/><path class="cls-6" d="M48.52,32.47c.44,0,.57-.22.59.28.07,1.59-.08.75-.52,2.3-.2.69-.84.79-1.32.25s-.75-.21-.46-.9S47.81,32.54,48.52,32.47Z"/><path class="cls-6" d="M38.51,56.29c.44,0,.56-.22.58.28.07,1.59-.08.75-.52,2.3-.2.68-.84.79-1.32.24s-.74-.21-.46-.9S37.79,56.36,38.51,56.29Z"/><path class="cls-6" d="M48.52,52.89c.44,0,.57-.22.59.28.07,1.59-.08.75-.52,2.3-.2.69-.84.79-1.32.25s-.75-.21-.46-.9S47.81,53,48.52,52.89Z"/><path class="cls-6" d="M48,21.28c.44,0,.57-.22.59.28.06,1.6-.08.76-.53,2.3-.19.69-.84.79-1.31.25s-.75-.21-.46-.9S47.31,21.35,48,21.28Z"/><path class="cls-6" d="M51.66,41.18c.44,0,.56-.22.58.28.07,1.59-.08.75-.52,2.3-.2.68-.84.79-1.32.25s-.74-.21-.46-.9S50.94,41.25,51.66,41.18Z"/><path class="cls-6" d="M55,17.4c.44,0,.56-.23.59.27.08,1.59-.07.75-.5,2.31-.18.68-.83.8-1.31.26s-.75-.2-.47-.89S54.28,17.48,55,17.4Z"/><path class="cls-6" d="M54.5,26.11c.43-.05.56-.23.59.27.08,1.59-.08.75-.5,2.31-.19.68-.83.8-1.31.26s-.75-.2-.48-.89S53.78,26.18,54.5,26.11Z"/><polygon class="cls-7" points="57.62 16.43 52.26 15.86 50.55 15.98 45.76 16.43 47.76 14.3 51.02 14 51.5 14 57.62 12.94 57.62 16.43"/><polygon class="cls-7" points="55.47 16.76 57.25 16.66 57.7 16.34 58.94 15.37 59.15 17.58 58.3 18.24 58.16 18.3 56.76 20 55.47 16.76"/><polygon class="cls-7" points="46.89 8.51 49.56 11.55 50.62 12.29 53.63 14.28 51.11 14.92 49.06 13.56 48.78 13.33 44.62 11.15 46.89 8.51"/><polygon class="cls-8" points="46.79 10.9 46.53 10.64 46.44 10.7 46.2 10.9 46.3 9.93 46.47 9.79 46.49 9.79 46.79 9.31 46.79 10.9"/><polygon class="cls-8" points="55.65 14.48 55.84 14.16 55.77 14.09 55.52 13.9 56.49 13.79 56.66 13.92 56.67 13.95 57.2 14.14 55.65 14.48"/><polygon class="cls-8" points="58.65 16.1 58.6 16.45 58.69 16.5 58.96 16.59 58.21 17.01 58.02 16.95 58.01 16.93 57.5 16.92 58.65 16.1"/><polygon class="cls-8" points="47.91 15.37 48.1 15.05 48.03 14.98 47.78 14.79 48.75 14.69 48.92 14.81 48.93 14.84 49.46 15.03 47.91 15.37"/></g></g></svg>