<svg xmlns="http://www.w3.org/2000/svg" viewBox="0 0 116.3 89.58"><defs><style>.cls-1{fill:#fcfcfc;}.cls-2{fill:#f6c17a;}.cls-3{fill:#0e0e0c;}.cls-4{fill:#0e0e0d;}.cls-5{fill:#e4c3d5;}.cls-6{fill:#faff27;}.cls-7{fill:#af3615;}.cls-8{fill:#ffdf43;}</style></defs><title>Corgi_H</title><g id="Layer_2" data-name="Layer 2"><g id="Layer_1-2" data-name="Layer 1"><path class="cls-1" d="M98.53,78.34c-1.86-.21-4.44.52-6.28.24-2.07-.31-1.45,0-3.09,1,1.56,2.54,1,3.37,3.75,5.19a3.69,3.69,0,0,0,3.6.71c1.27-.5,1.18-1.57,1.43-2.51A11.64,11.64,0,0,0,98.53,78.34Z"/><path class="cls-1" d="M46.49,77.15a10.41,10.41,0,0,0-5.23-.46c-2.48.22-4.49-1.13-6.48,0,.79,4.24,2.79,6.23,5,9.6.82,1.27,1.86,2.41,3.46,1.84A3.66,3.66,0,0,0,45.5,85C45.93,82.37,46.17,79.75,46.49,77.15Z"/><path class="cls-1" d="M102.35,24.64c-2.22-1.28-13.09-7.64-23.42-5.43s-27.25,4.62-30.2,7.14c-3.38,2.88-16.49,6.53-23.11,9.56S12,44.76,11.47,48.54,9.73,67,10.14,70.09s11.7,6.55,21.45,6.55,35,.48,36.15,0,16.85-.21,20.45-1.16c2.86-.76,7.91-11.85,8.51-12.14a90.44,90.44,0,0,0,8.58-3.5c2.65-1.47,10.35-7.21,10.06-12.23-.37-6.44-2.11-12-6-14.41S104.85,26.1,102.35,24.64Z"/><path class="cls-2" d="M45.35,29.23c1-.59.91-1,2-1.55a2,2,0,0,0,1-1.68c1.29-7.06,3.94-13.44,7-19.94a11.34,11.34,0,0,1,1.88-3.13c1.49-1.61,3-1.75,4.48-.16C63,4.19,64.1,5.82,65.25,7.36c.29.38,1.13,1.64,1.38,2.1,1.27,2.37,1.05,1.75,2.09,3.56a26.42,26.42,0,0,1,1.93,4.12c.41,1,2.56,3.06,2.88,4.1a10,10,0,0,1,2.92-1.34c2.08-.79,3.88-1,7.86-.86.68,2,3.72,7.51,4.29,9.54,1.65,5.85.36,10.39-5.21,15-4.13,3.42-4.13,2.88-6.63,3.78s-13.7-.69-16.47-1.7C51.93,42.62,45.42,31.1,45.35,29.23Z"/><path class="cls-2" d="M92.23,20.67a45.34,45.34,0,0,0,1.55-7.26,16.44,16.44,0,0,1,.87-4.9c.82-2.08.91-5.43,2.9-5.42,1.2,0,1.45,2,1.72,3.11,1.5,6.07,3.72,13.35,4.4,19.55.06.48-1.35-.65-.4.75a42.79,42.79,0,0,0,6.08,6.73c3.5,2.26,5.31,6,6,10.7-4.66-3.78-8.56-4.91-14.49-5.37-4.27-.32-7.7-4.28-9-8.4C91,27.66,88.62,21.48,87.74,19A27.77,27.77,0,0,1,92.23,20.67Z"/><path class="cls-2" d="M96.09,64.37c-4,2.54-6.35,5.87-8.92,8.18a24.75,24.75,0,0,1,1.09,4.21A29,29,0,0,1,88.79,80c2.06-.76,8.32-1.48,10.52-.71C97.42,72.22,96.55,65.22,96.09,64.37Z"/><path class="cls-1" d="M67.51,80.29c-1.85-.21-3.72-.37-5.55-.65a8,8,0,0,0-5.52,1,21.69,21.69,0,0,0,6.62,6.4,3.69,3.69,0,0,0,3.6.71,2.28,2.28,0,0,0,1.43-2.51C68,83.6,67.72,82,67.51,80.29Z"/><path class="cls-1" d="M22.33,80.45A18.48,18.48,0,0,0,11.47,79a20.49,20.49,0,0,0,6.16,8.64,3.64,3.64,0,0,0,4.15.84c1.51-.72,1-2.16,1-3.36C22.7,83.54,22.49,82,22.33,80.45Z"/><path d="M99.49,40c-2.18-.5-7.88.66-8.84,1.15s-1.56,1-1.33,2a8.24,8.24,0,0,0,3.58,5.41c2.11,1.52,4,2,6-.85C100.69,45.07,101.68,40.46,99.49,40Z"/><path class="cls-2" d="M67.51,80.7c.33-1.3-.49-5.6.42-6.64-.58-1.89-1.88-2.12-2.72-4-2-4.38-5.1-6.16-9.07-8.73-2.76-1.78-7.87-10.07-10.93-15.23S41.94,30.86,40.8,31a51.17,51.17,0,0,0-20.16,7.32c-3.67,2.37-6.73,5-8.58,8.41s-1.76,8.69-2,13.11c-.38,6.66-1.16,13.31,1.18,19.65a6.6,6.6,0,0,0,.46.82c2.9-.46,8.12-.1,10.76,1.25.15-.42-.48-1.79-.33-2.21.95-2.68.37-2,3.18-1.89,3,.24,17.85-.84,26.78-1.17,2-.08,1.67.19,2.62,2,.37.69,1.82,2,2.2,2.69a5.11,5.11,0,0,1,4.3-1C62.64,80.26,66.07,80.49,67.51,80.7Z"/><path d="M104.06,32.08c0-1-1-3.55-3-3.16-1.57.29-2.16,1.71-1.94,3.2.25,1.67,1.22,3.27,3,3.18S104.06,33.13,104.06,32.08Z"/><path d="M79.93,38.6a3.3,3.3,0,0,0,2.35-4.44c-.32-1-1.64-3.45-3.35-3.09a2.86,2.86,0,0,0-2.18,2.68C76.39,36.17,78.13,38.83,79.93,38.6Z"/><path class="cls-3" d="M97.68,68.72C98.9,74.36,100,79,99,83c-.42,2.15-.88,3.53-2.64,3.85-1.94.36-4.52-1.52-6.12-3.89a13.55,13.55,0,0,1-2.09-6.62c-1.28-.35-4.66.79-6.75.84-3.55.08-9.06.43-12.6.35-.55.86-.12,1.26-.08,2.74,0,1.29.26,2.57.31,3.85.08,2-.62,3.11-2.61,4.13s-3.88.22-5.51-1.15a19.87,19.87,0,0,1-5.95-7.77c-.47-1-.84-1.86-2.29-1.79s-14.06.46-16,.6c-3.21.22-6.44.11-9.66.08-2.77,0-3.78,1-3.63,3.8.07,1.28.26,2.57.22,3.85a3.51,3.51,0,0,1-4,3.68,6.64,6.64,0,0,1-4.9-2.74A26,26,0,0,1,9.14,75.5c-.49-2.17,0-10.4-.44-12.61-.91.15-2.38.55-3.13.58-1.9.08-5-.26-5.51-.9-.5-1.25,2.39-2.87,3.63-4.48a56.92,56.92,0,0,0,5.53-8.94c1.12-2.61,2.74-4.35,4.59-6.54,5.15-6.11,12-9.17,19.56-10.88,4-.92,11.81-3.47,13.7-5.57.8-7,3.65-15.42,6.69-21.78,1.49-3.1,3.4-5,7.46-4.22,2.78,1.17,4,5.11,6.52,9,2.72,4.21,5.66,8.14,6.57,10.85C81,17.66,86,17.46,91.83,19.82c.34-1.58,1-10.87,1.91-13.41.62-1.7,1.93-6,4-5.16.63.25,1.55,2.57,1.86,3.19a51.34,51.34,0,0,1,2.63,8.45c1.26,6,1.88,6.59,2.34,12.7a3.27,3.27,0,0,0,1.83,2.87c2.65,2.2,4.25,4.66,6.59,7.46,6.43,7.7,2.26,16.87-1.24,19.81-5,4.25-6.1,4.78-9.21,6-2,.63-2.79,1.4-5.23,2.33A22.75,22.75,0,0,0,97.68,68.72ZM94.37,85.35c.94.11,2,.22,2.67-.34a16.92,16.92,0,0,0,.9-7.45c-.5-5.19-2.19-6.91-2.13-11.74.14-1.48.61-2.33,1.49-2.74,3.85-1.77,4.47-2.48,8.37-4.71,4.74-2.71,8.52-6,9-11.74a8.09,8.09,0,0,0-.57-4.15,18.41,18.41,0,0,0-4.75-9.25c-2.18-1.81-5.06-4-5.94-6.25-.5-1.26-.66-3.39-1.14-5.22s-1.9-8.78-3.4-14.85C98.6,5.8,98,3.5,97.07,3.62s-1.6,2.73-2.42,4.89c-.68,1.8-.45,3.36-.63,5.73a28.4,28.4,0,0,1-1.6,6.94c-1.84-.65-9.15-1.81-12.82-1.16s-2.92.38-6.14,1.88c-1.11-1-1.45-1.19-1.89-2.58-.33-1-1-2.29-1.46-3.31-.59-1.43-4.57-8.27-4.86-8.65C64.1,5.82,63,4.19,61.74,2.77c-1.44-1.59-3-1.45-4.48.16a11.34,11.34,0,0,0-1.88,3.13,78,78,0,0,0-6.52,19.6A3.53,3.53,0,0,1,47.58,28c-1.14.58-1.63.89-3.28,1.84a11,11,0,0,1-3.91,1.54,45.72,45.72,0,0,0-19,7c-3.24,2.09-6.15,4.45-7.95,7.32C11.05,49.46,10.26,54,10,58.94a58.7,58.7,0,0,0,1.59,19,19.2,19.2,0,0,0,4.48,8.54c.88.85,4,2.31,5.21,1.7s1-3.13.92-4.13c-.06-1.28-.22-2.56-.34-3.83.15-.43.08-.83.21-1.26.57-1.84,1-1.94,3.79-1.85,9,.28,17.39-.93,26.32-1.27,2-.07,2.54.4,3.7,2.46.39.68,3.49,6,5.59,7.78.79.69,3.21,1.67,4.29,1.12s2-1.39,1.92-2.35c-.07-1.67-.29-3.32-.44-5,.33-1.3.29-2.37,1.2-3.42,5-.4,8.52-.35,13.5-.46.83,0,5.75-1.65,6.25-1.29s1.53,4.12,1.89,4.91S92.64,85.14,94.37,85.35Z"/><path class="cls-1" d="M11.47,49.9C9.53,52.57,6,57.52,3.88,59.72c-1.4,1.49-2.73,2.33-.29,2.52a20.52,20.52,0,0,0,4.53-.48A15.51,15.51,0,0,1,10,61.42C9.93,59.35,11.13,52.29,11.47,49.9Z"/><path class="cls-4" d="M65.94,20.14c-1.14,1.37-4.07,2.16-5.17,2.61-1.31.54-2.57,1.2-3.89,1.69-1.53.56-2.7-.35-2.34-1.92.8-3.55,1.9-9.32,3.75-12.41.58-1,1.55-.84,2.37-.29C62,10.73,64.9,17.34,65.94,20.14Zm-5.59-5.8A31.48,31.48,0,0,0,57,22c1.26-.61,2.4-.79,3.41-1.72C58.51,18.38,62.27,16.56,60.35,14.34Z"/><path class="cls-5" d="M59.9,10.74c1.92,2.22,3.39,6,4.38,8.83-1,.92-6.77,2.43-8,3C56.92,19.77,58.55,13.3,59.9,10.74Z"/><path class="cls-4" d="M86.73,71a21.25,21.25,0,0,1,2.15,4.55,15,15,0,0,0,.78,2.6A14.12,14.12,0,0,0,90.73,81c-.5-.22-1.36-.27-1.74-.79a12,12,0,0,1-1.17-3A44.43,44.43,0,0,1,86.73,71Z"/><path class="cls-4" d="M37.32,81.69c-.58-.94-1.32-3.31-3-4.44a47.27,47.27,0,0,0,3.33,7.65c1.2,2.18,3.62,4.32,5.9,3.86s2.27-1.88,2.66-4.05A26.28,26.28,0,0,0,47,80.56a9.53,9.53,0,0,0-.38-3.82c-.5.77-.64,2.89-.76,3.82s-.13,2.11-.31,3.44-.58,2.85-1.94,3.19a4,4,0,0,1-4.05-1.79C38.56,83.84,37.71,82.33,37.32,81.69Z"/><path class="cls-4" d="M68.13,72.73a16.71,16.71,0,0,1,.53,4.47c-.1,1.93,0,2.08,0,3.1s.3,3.58.3,3.58l-1.24.55a32.9,32.9,0,0,1-.52-4.55C67.24,78.37,67,73.89,68.13,72.73Z"/><path class="cls-6" d="M76.83,20.94c1.88,3.07,1.83,4.27,1.83,4.27a4.13,4.13,0,0,1-1.77-.36c.22.88.47,3.17.47,3.17A16.48,16.48,0,0,1,75.9,24a4.34,4.34,0,0,1,1.46.32Z"/><path d="M101.54,25.21a6.88,6.88,0,1,0,6.89,6.88A6.88,6.88,0,0,0,101.54,25.21Zm0,12.29A5.41,5.41,0,1,1,107,32.09,5.41,5.41,0,0,1,101.54,37.5Z"/><path d="M79.6,27.94a6.88,6.88,0,1,0,6.88,6.88A6.89,6.89,0,0,0,79.6,27.94Zm0,12.29A5.41,5.41,0,1,1,85,34.82,5.41,5.41,0,0,1,79.6,40.23Z"/><rect x="85.94" y="32.09" width="9.87" height="1.42" transform="translate(-3.16 10.63) rotate(-6.58)"/><path d="M54.71,62.38C53,63,51.22,64.2,49.33,65s-4.8,1.76-4.83,2.43S47,71,47,71s3.72,3.71,5.49,3.71S58.32,73.3,61.59,71c2.41-1.68,2.59-2.84,3.83-4.49S67.79,65,67.68,63s-8.16-5.52-8.84-5.52S56.49,61.78,54.71,62.38Z"/><path d="M45.42,27.63c2.06.64,3.37,5.62,5.08,7.71,1.55,1.89,9.64,9.35,12.06,10.67,2,1.1,11.79,5.93,13.5,6.55s11.48,3.4,16.09,5.2c4.3,1.68,12.95,1.74,12.95,4,0,2-3.23,4.69-4.16,5.21s-6.74,3.92-10.78,3.93c-4.33,0-18.15-4.45-21.94-5.53s-10.08-5.72-10.86-6c-4.14-1.5-14.26-11-16.6-13.56-2.69-2.94-3.25-7.08-3.95-8a24.09,24.09,0,0,1-1.44-5.42c.05-.36-.21-.83.67-1.14s5.07-2.75,6-2.9S44.05,27.2,45.42,27.63Z"/><path class="cls-7" d="M46.3,31.17c4,5.26.85,4.45,7.59,10.28S71.58,52.8,77.63,54.56s14.94,4.53,18.86,5.2,8.61,1.81,7.31,3.22c-3.23,3.47-4.31,3-8.79,5.46s-7.64,1.2-13.24-1-15.59-2.2-24.41-9.5S42.19,46.59,41,43.31,37.22,37,37,34.76s-1.45-2.63.74-3.33,7.35-3.35,8-1.81Z"/><path class="cls-7" d="M62.92,53.73c-1.17,2.33-.25,2-2.2,4.56a21.8,21.8,0,0,1-6.89,5.81,53.33,53.33,0,0,1-5.48,2.3c-1.14.3-2.5.81-2.12,1.43.94,1.54,4,4.26,5.32,5.35s2.22.53,3.84-.45,4.53-1,7.09-4.21,4.41-5,4.75-6.48,1.1-2.8,1.16-3.79.42-1.17-.21-1.48-4.91-4.41-5.09-3.72Z"/><path class="cls-8" d="M53,40.7c1.51.85,6.88,5.25,7.67,5.73s-1.78,4.47-2.1,5.13a10.88,10.88,0,0,1-4.26,3.92c-1.51-.68-7.24-5.23-9.85-7.91C45.7,42.69,51.56,39.86,53,40.7Z"/><path class="cls-8" d="M74.17,53.36c2.31.32,10.93,3.4,12.12,3.75s1.31,5.28,1.23,6.26a8.5,8.5,0,0,1-2.29,5.38C83,68.64,73.37,65.59,71.7,64.83,70.62,63.52,72.91,54.35,74.17,53.36Z"/></g></g></svg>