<svg xmlns="http://www.w3.org/2000/svg" viewBox="0 0 130.95 76.48"><defs><style>.cls-1{fill:#231f20;}.cls-2{fill:#f7f2ed;}.cls-3,.cls-4{fill:none;stroke:#231f20;stroke-linecap:round;stroke-width:0.5px;}.cls-3{stroke-linejoin:bevel;}.cls-4{stroke-miterlimit:10;}.cls-5{fill:#fdfdfc;}.cls-6{fill:#f6c17a;}.cls-7{fill:#0e0e0d;}.cls-8{fill:#e4c3d5;}</style></defs><title>Corgi_F</title><g id="Layer_2" data-name="Layer 2"><g id="Layer_1-2" data-name="Layer 1"><path class="cls-1" d="M90.9,14c3.53-6.83,8.32-10.22,14.45-10,7.53.3,23.62,2.93,25.16,6.25,1.94,4.17-2.84,6.55-8.59,7.67.53,4.65-2.62,7.54-10.43,8.2.77,4.24-.51,5.76-2.85,6.31a13.15,13.15,0,0,1-7-.18c-.45,3.83-3.23,6.15-7,7.21-2.13.6-3.64.45-6.71-1.56-2.51-1.64-3.43-4.45-3.61-7.54C84.09,26.48,87.38,20.83,90.9,14Z" transform="translate(0 0)"/><path class="cls-2" d="M91.7,14.74c3.49-6,6.56-10.06,13.85-9.45,6.93.57,22.83,2.3,24.16,5.09,1.68,3.5-1.26,5.63-9.27,6.75,3.12,4.53-3.15,8.26-9.72,8.17.59,3.6.22,5.34-1.9,6.15a10.11,10.11,0,0,1-7.88-.32c.33,3.54-3,6.34-6.51,7.36-2,.57-3,.44-5.77-1.18-2.28-1.33-3.31-4.1-3.47-6.71C85,27.47,88.21,20.69,91.7,14.74Z" transform="translate(0 0)"/><path class="cls-3" d="M121.38,17.56s-14.69-.41-15.9-1.93" transform="translate(0 0)"/><path class="cls-4" d="M101.53,32c-.57-1.57-1.23-3.77-4-4-3.55-.33-4.53,2.23-5.56,4.27" transform="translate(0 0)"/><path class="cls-3" d="M121.3,17.33s-14.61-.18-15.82-1.7" transform="translate(0 0)"/><path class="cls-3" d="M111.53,25.74s-14.69-.41-15.9-1.93" transform="translate(0 0)"/><path class="cls-3" d="M111.48,25.62c.52-.25-14.64-.29-15.85-1.81" transform="translate(0 0)"/><path class="cls-4" d="M101.28,32.06c-.58-1.64-1-3.86-3.79-4.12-3.55-.33-4.53,2.23-5.56,4.27" transform="translate(0 0)"/><path class="cls-1" d="M30.63,40.53c-7.34-2.31-13.12-1.28-17.26,3.25C8.29,49.34-1.16,62.63.12,66.06c1.6,4.31,6.66,2.58,11.5-.72,2.93,3.65,7.2,3.44,13.16-1.64,2.47,3.53,4.45,3.68,6.49,2.41A13.14,13.14,0,0,0,36.07,61c3,2.37,6.65,2,10.06.08C48.05,60,49,58.81,49.74,55.22c.59-2.95-.75-5.58-2.83-7.87C44.3,44.46,38,42.83,30.63,40.53Z" transform="translate(0 0)"/><path class="cls-2" d="M30.6,41.61c-6.7-1.7-11.76-2.4-16.46,3.21C9.68,50.15-.28,62.66.76,65.57c1.32,3.66,4.9,3.07,11.33-1.84,1,5.41,8.09,3.57,12.64-1.16,2.15,2.94,3.64,3.91,5.71,3a10.1,10.1,0,0,0,5.31-5.83c2.29,2.72,6.6,2.35,9.82.54,1.81-1,2.4-1.8,3.21-4.92.66-2.56-.58-5.24-2.33-7.19C44.36,45.81,37.29,43.32,30.6,41.61Z" transform="translate(0 0)"/><path class="cls-3" d="M11.74,64.7S21.77,54,21.54,52" transform="translate(0 0)"/><path class="cls-4" d="M35.94,60.72c-.72-1.51-1.82-3.53,0-5.71,2.26-2.75,4.78-1.65,7-.94" transform="translate(0 0)"/><path class="cls-3" d="M11.63,64.48S21.77,54,21.54,52" transform="translate(0 0)"/><path class="cls-3" d="M24.48,63.45s10-10.74,9.8-12.66" transform="translate(0 0)"/><path class="cls-3" d="M24.42,63.33c-.54.2,10.09-10.62,9.86-12.54" transform="translate(0 0)"/><path class="cls-4" d="M36.17,60.61c-.75-1.57-2.05-3.42-.26-5.6,2.26-2.75,4.78-1.65,7-.94" transform="translate(0 0)"/><path class="cls-5" d="M74.38,63.29C68.53,63.4,63.7,61,59.63,57a10.42,10.42,0,0,1-3.07-5.5c.69,0-2.27-8.1-3.68-10.07-.52-.71.78-3.12,0-2.66-1.53-1-2.42-.95-4.06-.76a29.16,29.16,0,0,1-9.73-.39,6.77,6.77,0,0,1-.16-2.83c2.19-.08,3.34-1.49,4.08-3.33.92-2.3,1-4.85,2-7.13C46.5,21,48,17.68,49.42,14.37A10.9,10.9,0,0,0,50.36,9a4.11,4.11,0,0,0-1.29-3c.45-.73,2.7-4.57,5.07-4.49,1.38,0,2.14.74,3.37.2.7-.31,1.77,1.17,2.3.76.24-.18.31,1.84.32,2.47s1.85,5.54,4.56,6.94C69.28,14.2,74,16.36,78,19.66a23.83,23.83,0,0,0,4.18,2.23c.07,1.28.13,2.55.2,3.83a12.65,12.65,0,0,0-3.85,3.2c-.86-.06-1.27.31-1.29,1.21a17.64,17.64,0,0,1-1.11,5.21,3.52,3.52,0,0,0,1.3,4.34,4.28,4.28,0,0,0,4.74.15c1.08-.67,1.59-1.9,2.67-2.55,3.7,1.41,7,6.4,10.83,7.46a19.39,19.39,0,0,1,7.19,3.73,8.07,8.07,0,0,0,5.84,2.18A40.06,40.06,0,0,1,105,62c-1.08,3.85-2.69,4.11-4.66,6.79-.74,1-4.21-1.93-5.46-1.79-.45,0-1.81-3-2.17-2.73C85.89,64.46,81.17,63.15,74.38,63.29Z" transform="translate(0 0)"/><path class="cls-6" d="M53.72,38.58c-1.53-1-3.26-.8-4.9-.61a29.16,29.16,0,0,1-9.73-.39A37.49,37.49,0,0,0,42.91,52c4.92,10.37,12.37,18.38,23.66,21.35C77.39,76.2,86.79,75.12,97.15,70a10.28,10.28,0,0,0,3.27-2.27c-2.61-.48-4.44-4-6.17-4.72-6.79.19-13.08.13-19.87.27C68.53,63.4,63.7,61,59.63,57,58.11,55.44,53.51,40.26,53.72,38.58Z" transform="translate(0 0)"/><path class="cls-6" d="M38.85,33.48c1.11-1.21.15-1.84-.6-2.56A70.61,70.61,0,0,1,28.9,19.78c-1.43-2.11-1-3.37,1.48-4a34.5,34.5,0,0,1,6.31-1,16.05,16.05,0,0,1,4.67.16c.16,1-.09.94-.17,1.81a7.27,7.27,0,0,0-.1,1.48c0,.39.87-1.86,1-2.18A30.59,30.59,0,0,1,49.07,6,4.11,4.11,0,0,1,50.36,9a15.23,15.23,0,0,1-.7,6.42c-1.44,3.32-2.12,7.34-3.59,10.65-1,2.28-2.14,3.05-3.06,5.35-.74,1.84-1.89,3.25-4.08,3.33A1.18,1.18,0,0,1,38.85,33.48Z" transform="translate(0 0)"/><path class="cls-6" d="M59.6,5.11a7.8,7.8,0,0,1,0-2.1c.51.16,1.2-.17,1.7,0,4.3,1.77,8.57,3.61,10.24,4.27A30,30,0,0,1,81.88,1.77c1.57-.47,2.65.55,2.64,2.17a63.67,63.67,0,0,1-2.33,18c-1.4-.73-3.72.55-4.92-.42-4.06-3.31-8.19-4.39-12.78-6.76C61.78,13.31,59.94,7.19,59.6,5.11Z" transform="translate(0 0)"/><path class="cls-6" d="M84.85,37.28c.5.37,7,6.4,10.83,7.46a19.39,19.39,0,0,1,7.19,3.73,8.07,8.07,0,0,0,5.84,2.18c.55-1.7,1.66-3.2,1.89-5a15,15,0,0,1-6.35-5.48,3.82,3.82,0,0,1-2.88.12c-2.29-.7-4.41-.37-6.78-.63-7-.75-10.21-7.1-12.2-14a12.65,12.65,0,0,0-3.85,3.2,5.18,5.18,0,0,0-.28,2.84c2.2.79,4.81,3.65,5.24,4.25A5.73,5.73,0,0,0,84.85,37.28Z" transform="translate(0 0)"/><path class="cls-5" d="M106.92,38.21c1.38-1.5,3.37-2.24,4-.29.22.67.9,2,.77,2.65-.26,1.47-.82,3.66-1.11,5.11-2.24-1-5.89-3-7.08-5.13C104.32,39.67,106.12,39.08,106.92,38.21Z" transform="translate(0 0)"/><path class="cls-5" d="M106.61,60.36c3.4.69,6.17-.27,7.59-2.69l-5.46-2.48Z" transform="translate(0 0)"/><path class="cls-7" d="M53.63,15.13a2.8,2.8,0,0,1,.85-4.37,10.59,10.59,0,0,1,2.86-1.1c1.51-.44,2.2.19,2.48,1.77a11,11,0,0,1-.63,4.74c-.61,2.07-1.37,2.24-3.43,1A9.61,9.61,0,0,1,53.63,15.13Zm4.12-4c-.65.21-1.27.4-1.87.62-1.6.6-1.81,1.36-.66,2.59a3,3,0,0,0,2.19,1.33A5.26,5.26,0,0,0,57.75,11.14Z" transform="translate(0 0)"/><path class="cls-7" d="M77.89,32.37c.07-.57,1.42-2.61,1.21-4.14-.62.89-4.58,5.33-5.16,7s-.43,3.43,1,4.49,4.81,0,6.26-.9c1.08-.67,3.63-2.57,4-3.46a16.29,16.29,0,0,0-4.35,2.19c-.85.75-4.11,2-5,1.35s-.94-2.13-.51-3.17C75.9,34.35,77.82,33,77.89,32.37Z" transform="translate(0 0)"/><path class="cls-7" d="M54.49,39.74a10.64,10.64,0,0,1-3.36-.85c1-.3,3.94-.09,5.73-.09s4.27.85,4.8,2.55-.7,2.22-2,3.3a18.89,18.89,0,0,1-2.54,1.85,7.38,7.38,0,0,1-2.75.82c.34-.63,1.73-1.24,2.31-1.67A21.9,21.9,0,0,1,59,44.18c1-.57,1.92-1.21,1.65-2.25A2.63,2.63,0,0,0,58,40.18,12.77,12.77,0,0,1,54.49,39.74Z" transform="translate(0 0)"/><path class="cls-7" d="M80.76,4.82c.76-.08,1.46.19,1.5,1.06a26.13,26.13,0,0,1-.66,8.27c-.34,1.2-1.46,1.38-2.29.44S78,12.86,77.29,12a9.79,9.79,0,0,1-2.11-3.57C76.92,6.92,79.51,4.94,80.76,4.82Zm-2.3,5.62a9.27,9.27,0,0,0,1.68,2.41,24,24,0,0,0,.53-6.39C78.55,7.27,80.43,9.88,78.46,10.44Z" transform="translate(0 0)"/><path class="cls-8" d="M57.73,16.59c.92-1.78,1.28-5.45.34-5.66s-1.6.47-2.36.74c-2,.72-2.27,1.66-.79,3.22A4,4,0,0,0,57.73,16.59Z" transform="translate(0 0)"/><path class="cls-8" d="M81,5.93a11.12,11.12,0,0,0-4.41,2.94c.34,1,3.15,3.83,3.78,4.7A34.24,34.24,0,0,0,81,5.93Z" transform="translate(0 0)"/><path class="cls-7" d="M46.21,6.76C50.8-.29,58.83.48,61.69,2.27a57.48,57.48,0,0,0,8.55,4.16c.75.18,1.47-1,3.62-2.89A17,17,0,0,1,81.3.18c2.83-.71,4.78.73,4.85,3.63a60.12,60.12,0,0,1-1.83,16.7c-1.65,6.28,2.16,16.69,8.56,17.69,2.36.37,4.65.89,6.92,1.31a5.39,5.39,0,0,0,6-2.55,3.06,3.06,0,0,1,3.56-1.27,3.94,3.94,0,0,1,2.75,2.88,9.55,9.55,0,0,1-.15,4.72c-.9,4.57-3,8-5.13,12.15a38.13,38.13,0,0,0,6.18,2c1.61.35,1.6,1.55-.52,2.6a16.48,16.48,0,0,1-3.8,1.47c-1.42.37-2.38-.12-3.39.29-.23,3.91-1.9,5.49-5.46,7.77a38.26,38.26,0,0,1-4.35,2.5c-7.29,3.23-12.88,4.78-20.71,4.36-6.12-.33-11.92-1.69-17.09-5-13.61-8.81-20-21.62-20.55-37.58A3.59,3.59,0,0,0,36,31.08,66.19,66.19,0,0,1,27.67,21c-2.38-3.48-1.38-6.06,2.77-7a32.7,32.7,0,0,1,10.66-.84C42.07,13.28,44.78,8.62,46.21,6.76ZM71.7,8.81A27,27,0,0,0,69.14,7a43.06,43.06,0,0,0-8-3.48c-.5-.2-1-.32-1.55-.48a22.84,22.84,0,0,0-2.42-.74C56,1.92,50.94,3.94,50.87,4.2A5,5,0,0,0,49.07,6,34.42,34.42,0,0,0,43,14.28c-.13.32-2,4.81-2.07,4.31-.11-.7.4-2.28.42-3.66a16.05,16.05,0,0,0-4.67-.16,34.5,34.5,0,0,0-6.31,1c-2.47.67-2.91,1.93-1.48,4a70.61,70.61,0,0,0,9.35,11.14c.75.72,1.71,1.35.6,2.56a1.18,1.18,0,0,0,.08,1.27,6.77,6.77,0,0,0,.16,2.83A37.49,37.49,0,0,0,42.91,52c4.92,10.37,12.37,18.38,23.66,21.35C77.39,76.2,86.79,75.12,97.15,70a10.28,10.28,0,0,0,3.27-2.27c1.74-1.46,4.31-3,3.93-5.38-.17-1-.47-1.58-1.4-1.74a8.6,8.6,0,0,0-3.52.6c-1.85.65-5.32,2.28-5.92,2.13a5,5,0,0,1,1.85-1.58c1-.44,2-.78,3.16-1.24,2-.79,4.72-2.15,6.54.27a23.11,23.11,0,0,1,3.65-.11c1.08-.16,4.52-1.41,4.71-2.61-2.55,0-5.56-1.61-7.6-2,.93-2.52,1.48-3,2.47-5.47.65-1.66,1.89-3.38,2.12-5.14.29-1.46.55-3.15.81-4.61a6.16,6.16,0,0,0-.6-2.43c-.64-1.95-2.32-1.69-3.7-.19-.8.87-2.12,1.52-2.92,2.39a5.55,5.55,0,0,1-3.46-.1c-2.28-.7-3.58-.55-6-.81-7-.75-10.21-7.1-12.2-14-.07-1.28-.13-2.55-.2-3.83A63.67,63.67,0,0,0,84.52,3.94c0-1.62-1.07-2.64-2.64-2.17A30,30,0,0,0,71.51,7.32a8.23,8.23,0,0,1,2.24,2.76,7.1,7.1,0,0,1,1,2.66C73.82,11.68,72.64,9.88,71.7,8.81Z" transform="translate(0 0)"/><path class="cls-7" d="M37.4,26.22c-.6.48-1.34.63-1.84-.07a26,26,0,0,1-4-7.3c-.37-1.19.47-2,1.68-1.62,1.05.3,2.06.73,3.1,1.07a9.69,9.69,0,0,1,3.71,1.85C39.47,22.37,38.38,25.44,37.4,26.22Zm-1.14-6a9.49,9.49,0,0,0-2.72-1.11,23.72,23.72,0,0,0,3,5.65C37.91,23,34.91,21.79,36.26,20.25Z" transform="translate(0 0)"/><path class="cls-8" d="M36.56,25.44a11.31,11.31,0,0,0,2.1-4.87c-.84-.65-4.73-1.5-5.73-1.89A33.88,33.88,0,0,0,36.56,25.44Z" transform="translate(0 0)"/><path d="M56.65,2.52a13.93,13.93,0,0,0-5.19,1.85c-.54.46-.83.9-.53,1.48C51.7,7.38,52.3,8.4,53.78,9s2.87.65,3.68-1.46C58.19,5.59,58.11,2.5,56.65,2.52Z" transform="translate(0 0)"/><path d="M64.83,11.13c-1.14-.14-1.78-2.19-1.34-3.5a1.74,1.74,0,0,1,2-1.24,1.77,1.77,0,0,1,1.37,1.68C67.06,9.6,66,11.28,64.83,11.13Z" transform="translate(0 0)"/><path d="M47.93,16.5c-1.12.24-2.4-1.48-2.42-2.86A1.75,1.75,0,0,1,47,11.82,1.79,1.79,0,0,1,48.82,13C49.54,14.33,49.05,16.26,47.93,16.5Z" transform="translate(0 0)"/></g></g></svg>