<svg xmlns="http://www.w3.org/2000/svg" viewBox="0 0 138.61 99.16"><defs><style>.cls-1{fill:#68170c;}.cls-2{fill:#a0260d;}.cls-3{fill:none;}.cls-4{fill:#fdfdfc;}.cls-5{fill:#f6c17a;}.cls-6{fill:#0e0e0d;}.cls-7{fill:#e4c3d5;}</style></defs><title>Corgi_J</title><g id="Layer_2" data-name="Layer 2"><g id="Layer_1-2" data-name="Layer 1"><path class="cls-1" d="M90.48,93.81c7.75,1,15.47-1.25,19.12-4,8.67-6.41-2.82-23-4.35-37.47-2.32-22.08-3.39-36.86-23.18-38.54-15.54-1.32-13.62,19.53-11.3,41.61S82,92.67,90.48,93.81Z"/><path class="cls-1" d="M72.94,99.13c28-.82,21.6-21.94,18.58-43.34C88.44,34,89.55,13.34,69.93,13.5c-15.83.13-16.79,17.45-21.4,40C44.2,74.68,37.38,100.17,72.94,99.13Z"/><path class="cls-1" d="M123,25.52C115.15,3.07,99.64.4,70.92,0S24.1,3.69,19,24.14c-4,16,23.07,16.7,51.8,17.08S126.06,34.24,123,25.52Z"/><path class="cls-1" d="M94.36,2.17c18.84.47,25.33,11.8,34.43,34.19s17.46,40.42-2.09,47.79C99.31,94.47,104.43,73,95.34,50.6S85.29,1.94,94.36,2.17Z"/><path class="cls-1" d="M44.52,3.32c-18.85.47-25.33,11.8-34.43,34.19S-7.83,77.58,11.72,85c27.39,10.32,22.73-10.8,31.82-33.19S53.59,3.09,44.52,3.32Z"/><path class="cls-2" d="M125,82c17.36-6.42,10.92-17.9,5.23-35.55S121.15,16.93,104.68,19c-12.92,1.59-7.77,18.3-2.08,36S100.08,91.22,125,82Z"/><path class="cls-2" d="M14.4,83.12c-17.53-5.93-10.49-19-4.79-36.66S18.71,16.93,35.17,19c12.93,1.59,7.78,18.3,2.09,36S43.08,92.83,14.4,83.12Z"/><path class="cls-2" d="M123,27.68C115.15,5.24,99.64,2.57,70.92,2.19S24.1,5.86,19,26.31c-4,16,23.07,16.7,51.8,17.08S126.06,36.4,123,27.68Z"/><path class="cls-1" d="M53.51,12.54c-22.1,1.63-22.31,13-27,34.67S18.5,88,37.84,92.55c24.21,5.7,17.6-15.72,22.33-37.41S62.1,11.91,53.51,12.54Z"/><path class="cls-1" d="M79.86,12.54C102,14.17,100.43,22.61,105.17,44.3c1.54,7.08,1.94,12.69,3,19.84,1.27,8.93,5,17.33,2.42,23.27-1.47,3.41-8.68,1.6-13.54,3.68C82.67,97.23,77.94,76.83,73.2,55.14S71.28,11.91,79.86,12.54Z"/><path class="cls-2" d="M56.37,12.54c-22.11,1.63-22.31,13-27,34.67S21,83.27,39.22,91.09C53.56,97.23,58.3,76.83,63,55.14S65,11.91,56.37,12.54Z"/><path class="cls-1" d="M74.13,12.54C52,14.17,50.86,32.79,46.89,56.27,43.18,78.16,40.54,89,58.8,96.79c14.34,6.13,17.25-20,22-41.65S82.71,11.91,74.13,12.54Z"/><path class="cls-2" d="M88.87,92.19c7.75,1,16.71-.1,19.12-4,4.57-7.32-2.82-23-4.34-37.47-2.33-22.08-3.4-36.86-23.19-38.54-15.54-1.32-13.62,19.53-11.3,41.61S80.34,91,88.87,92.19Z"/><path class="cls-1" d="M65.73,12.54C87.84,14.17,88.87,29.94,91.63,52c3.14,25,4.58,42.82-14.92,46.64-16.11,3.16-12.9-21.78-17.64-43.47S57.14,11.91,65.73,12.54Z"/><path class="cls-2" d="M72.66,96.76C97.48,96,91.79,74.83,89.1,53.43,86.36,31.61,83.89,11.13,70,11.13S55.08,28.57,51,51.12C47.19,72.29,41.16,97.78,72.66,96.76Z"/><path class="cls-3" d="M98.2,25.76a6.6,6.6,0,0,1,1.86-.19A6.6,6.6,0,0,0,98.2,25.76Z"/><path class="cls-3" d="M92.37,46.3a5.38,5.38,0,0,0,5.9.94,4.75,4.75,0,0,1,.65,1c-.15-.39-.32-.79-.49-1.14A6,6,0,0,1,92.37,46.3Z"/><path class="cls-3" d="M48,61.07c-.54-1.19-1.09-2.37-1.63-3.56a46,46,0,0,1-3.27-3.44,46,46,0,0,0,3.27,3.44c.54,1.19,1.09,2.37,1.63,3.56Z"/><path class="cls-3" d="M73.78,26.38h0Z"/><path class="cls-4" d="M98.92,48.28c-.17-.36-.22-1.25-.49-1.58-2.36,1-4.4.89-6.06-.4-2.09-1.61-3.65-1.73-5.81-3.28-3.13-2.25-5.78-5.54-8.89-7.8a14,14,0,0,1-3.82-5.44,3.78,3.78,0,0,1-.09-3.41h0A5.82,5.82,0,0,0,71,25.7c.49.16.78.42.76.94-.09,1.77-.24,3-1.51,4.28s-2.73,2-4.59.53C64.25,30.29,63,28.1,63.64,27l-.19.12A28.76,28.76,0,0,0,61.25,29h0a7.49,7.49,0,0,1,1,1.91c.63,2,1.62,8.51-.58,11.14-3.71,4.47-7.56,7.54-10.27,12.57-.8,1.49-3.86,1.5-5,2.87.54,1.19,1.09,2.37,1.63,3.56h0c.93,0,12.85,4.85,24.85,2.09,13.17-3,26.49-13.65,26.49-13.65C99.25,49.16,99.1,48.73,98.92,48.28ZM73.33,37a10.21,10.21,0,0,1-1.27,2.92C70.47,42,69.6,42.27,68,40.72a10.16,10.16,0,0,1-2.93-4c-.46-1.57,0-2.49,1.78-2.85a13.7,13.7,0,0,1,3.54-.46C72.69,33.58,73.76,34.85,73.33,37Z"/><path class="cls-5" d="M73.85,29.78a14,14,0,0,0,3.82,5.44c3.11,2.26,5.76,5.55,8.89,7.8,2.16,1.55,3.72,1.67,5.81,3.28a6,6,0,0,0,6.06.84,2.91,2.91,0,0,0-.68-1.09c-1.75-.53-1-1.58-.6-2.6a73.59,73.59,0,0,0,2.7-7.33c.38-1.23.72-2.47,1-3.72s.58-2.5.82-3.75c0-.2,0-.36.07-.53a3.77,3.77,0,0,0,0-1.37,1.71,1.71,0,0,0-.13-.34,1.47,1.47,0,0,0-.35-.43,2,2,0,0,0-1.18-.41,6.6,6.6,0,0,0-1.86.19,45.37,45.37,0,0,0-7.14,2.31c-.82.34-1.65.68-2.46,1.08a16.15,16.15,0,0,0-2.4,1.43c.69,1.23,2,2.4,2.21,3.09.16.49-4-2.63-4.26-2.85a37.9,37.9,0,0,0-10.37-4.44h0A3.78,3.78,0,0,0,73.85,29.78ZM93.08,31.1c.94-.83,1.79-1.73,2.76-2.53s2.37-.65,2.55.61a24.35,24.35,0,0,1-.68,8.59c-.19.89-1,1.12-1.91,1-1.41-.21-4-2.43-5.77-4.11A11.76,11.76,0,0,1,93.08,31.1ZM77.43,32a2,2,0,0,1,1.41-2,2,2,0,0,1,2.41.91c.65,1.26.11,3.46-1.19,3.81S77.32,33.59,77.43,32Z"/><path class="cls-5" d="M51.38,54.64c2.71-5,6.56-8.1,10.27-12.57,2.2-2.63,1.21-9.09.58-11.14a7.49,7.49,0,0,0-1-1.91h0c-.47.41-1,.78-1.41,1.22-1.54,1.58-4.45,3.86-6.81,7.2a28.77,28.77,0,0,0-1.82,3c-.48,1.43-.87,3.66-1.35,5.09a6.15,6.15,0,0,1-.21-2.91,8.4,8.4,0,0,1,1-3.63,39,39,0,0,0-13.62.24,4.11,4.11,0,0,0-.65.19,2.39,2.39,0,0,0-.94.63,2.09,2.09,0,0,0-.16,2.48,64.16,64.16,0,0,0,7.79,11.58,46,46,0,0,0,3.27,3.44C47.52,56.14,50.58,56.13,51.38,54.64Zm5.31-20.17a2.16,2.16,0,0,1,2.68.13c1.09,1,1.39,3.13.26,3.84s-3.09-.25-3.58-1.75A1.81,1.81,0,0,1,56.69,34.47ZM43.3,50.23a23.85,23.85,0,0,1-4.66-7.14c-.37-.8.24-1.4,1.08-1.72,1.38-.52,5.06,0,7.63.45a9.35,9.35,0,0,1-.52,4.3c-.33,1.11-.53,2.24-.9,3.34A1.54,1.54,0,0,1,43.3,50.23Z"/><path class="cls-6" d="M70.34,33.44a13.7,13.7,0,0,0-3.54.46c-1.81.36-2.24,1.28-1.78,2.85a10.16,10.16,0,0,0,2.93,4c1.65,1.55,2.52,1.32,4.11-.84A10.21,10.21,0,0,0,73.33,37C73.76,34.85,72.69,33.58,70.34,33.44Zm1.51,4a4.58,4.58,0,0,1-2.15,3c-1.82-1.14-4-4.28-3.07-4.94s1.91-.38,2.85-.52C72,34.52,72.67,35.24,71.85,37.4Z"/><path class="cls-6" d="M45.93,49.46c.37-1.1.57-2.23.9-3.34a9.35,9.35,0,0,0,.52-4.3c-2.57-.49-6.25-1-7.63-.45-.84.32-1.45.92-1.08,1.72a23.85,23.85,0,0,0,4.66,7.14A1.54,1.54,0,0,0,45.93,49.46Zm-6-6.94a14,14,0,0,1,6.07.42C46.14,44,44.53,48,44.29,49.1A30.72,30.72,0,0,1,40,42.52Z"/><path class="cls-7" d="M69.48,34.89c-.94.14-2-.14-2.85.52s1.25,3.8,3.07,4.94a4.58,4.58,0,0,0,2.15-3C72.67,35.24,72,34.52,69.48,34.89Z"/><path class="cls-7" d="M40,42.52a30.72,30.72,0,0,0,4.34,6.58C44.53,48,46.14,44,46,42.94A14,14,0,0,0,40,42.52Z"/><path class="cls-6" d="M46,60.41l2,.66c-.54-1.19-1.09-2.37-1.63-3.56a46,46,0,0,1-3.27-3.44,64.16,64.16,0,0,1-7.79-11.58A2.09,2.09,0,0,1,35.48,40a2.39,2.39,0,0,1,.94-.63,4.11,4.11,0,0,1,.65-.19A39,39,0,0,1,50.69,39a8.4,8.4,0,0,0-1,3.63,6.15,6.15,0,0,0,.21,2.91c.48-1.43.87-3.66,1.35-5.09a28.77,28.77,0,0,1,1.82-3c2.36-3.34,5.27-5.62,6.81-7.2.43-.44.94-.81,1.41-1.22h0a28.76,28.76,0,0,1,2.2-1.89l.19-.12a1.13,1.13,0,0,1,.52-.49,18.65,18.65,0,0,1,6.36-.95l.52.13a5.82,5.82,0,0,1,2.72.67h0a37.9,37.9,0,0,1,10.37,4.44c.3.22,4.42,3.34,4.26,2.85-.23-.69-1.52-1.86-2.21-3.09a16.15,16.15,0,0,1,2.4-1.43c.81-.4,1.64-.74,2.46-1.08a45.37,45.37,0,0,1,7.14-2.31,6.6,6.6,0,0,1,1.86-.19,2,2,0,0,1,1.18.41,1.47,1.47,0,0,1,.35.43,1.71,1.71,0,0,1,.13.34,3.77,3.77,0,0,1,0,1.37c0,.17,0,.33-.07.53-.24,1.25-.51,2.51-.82,3.75s-.65,2.49-1,3.72a73.59,73.59,0,0,1-2.7,7.33c-.44,1-1.15,2.07.6,2.6a2.91,2.91,0,0,1,.68,1.09c.17.35.34.75.49,1.14s.33.88.43,1.23l.87-.81A26.24,26.24,0,0,0,99.07,46a3.3,3.3,0,0,1-.11-3,73.81,73.81,0,0,0,4.62-13.82c.85-4.35-1.45-6.17-6.27-4.89a43.36,43.36,0,0,0-11.67,4.63c-1,.58-6.07-2.25-8.47-3.21-8.23-4-16.35.71-18.52,3.78a68.24,68.24,0,0,1-7,8.08c-.71.54-2-.16-5.21-.78s-6.34,0-9.48.73c-3.32.79-4.7,3.07-3.38,5.73a54.67,54.67,0,0,0,9.94,14.16"/><path class="cls-6" d="M95.8,38.76c.87.13,1.72-.1,1.91-1a24.35,24.35,0,0,0,.68-8.59c-.18-1.26-1.43-1.53-2.55-.61S94,30.27,93.08,31.1a11.76,11.76,0,0,0-3,3.55C91.77,36.33,94.39,38.55,95.8,38.76Zm1.12-9.06c.3,2.27-.24,5.63-.6,7.94a11.31,11.31,0,0,1-4.55-3.34C92.34,33.29,96.05,30.56,96.92,29.7Z"/><path class="cls-7" d="M96.92,29.7c-.87.86-4.58,3.59-5.15,4.6a11.31,11.31,0,0,0,4.55,3.34C96.68,35.33,97.22,32,96.92,29.7Z"/><path d="M65.7,31.45c1.86,1.5,3.22.84,4.59-.53s1.42-2.51,1.51-4.28c0-.52-.27-.78-.76-.94l-.52-.13a18.65,18.65,0,0,0-6.36.95,1.13,1.13,0,0,0-.52.49C63,28.1,64.25,30.29,65.7,31.45Z"/><path d="M59.63,38.44c1.13-.71.83-2.88-.26-3.84a2.16,2.16,0,0,0-2.68-.13,1.81,1.81,0,0,0-.64,2.22C56.54,38.19,58.5,39.14,59.63,38.44Z"/><path d="M80.06,34.74c1.3-.35,1.84-2.55,1.19-3.81A2,2,0,0,0,78.84,30a2,2,0,0,0-1.41,2C77.32,33.59,78.76,35.09,80.06,34.74Z"/><path d="M46,60.41c3.82,1.45,16.39,3.69,23.2,2.31,14.13-2.84,27.67-10.81,30.84-14.41a3.94,3.94,0,0,1,.31,2.29A141.28,141.28,0,0,1,77.14,61.83c-15,5.41-30.06,1.29-30.36.17A6.54,6.54,0,0,0,46,60.41Z"/></g></g></svg>