<svg xmlns="http://www.w3.org/2000/svg" viewBox="0 0 196.34 233.85"><defs><style>.cls-1{fill:#e5e4df;}.cls-2{fill:#afc144;}.cls-3{fill:none;}.cls-4{fill:#fdfdfc;}.cls-5{fill:#f6c17a;}.cls-6{fill:#0e0e0d;}.cls-7{fill:#e4c3d5;}.cls-8{fill:#2f3536;}</style></defs><title>Corgi_T</title><g id="Layer_2" data-name="Layer 2"><g id="Layer_1-2" data-name="Layer 1"><path d="M196.34,102.09c0-18.08-44-32.73-98.17-32.73S0,84,0,102.09a11.59,11.59,0,0,0,.6,3.62c3.29,19.55,19.53,112.37,33,120.56,15.05,9.16,125.71,10.48,133,1.43S196,104.7,196,104.7h0A11,11,0,0,0,196.34,102.09Z"/><path class="cls-1" d="M194.18,103.35c0-17.66-42.79-32-95.56-32s-95.57,14.33-95.57,32a11.32,11.32,0,0,0,.58,3.54c3.2,19.11,19,109.82,32.11,117.82,14.64,8.95,122.37,10.25,129.48,1.4s28.66-120.2,28.66-120.2h0A11.12,11.12,0,0,0,194.18,103.35Z"/><ellipse class="cls-2" cx="100.48" cy="102.15" rx="83.85" ry="19.4"/><path class="cls-3" d="M140.3,65.56a9.58,9.58,0,0,1,2.62.14A9.58,9.58,0,0,0,140.3,65.56Z"/><path class="cls-3" d="M127.7,92.88c2,2.15,4.51,3.52,8,2.59a7.12,7.12,0,0,1,.68,1.59c-.13-.58-.28-1.17-.44-1.7A8.47,8.47,0,0,1,127.7,92.88Z"/><path class="cls-3" d="M62.76,103.77l-1.5-5.3a66.56,66.56,0,0,1-3.8-5.5,66.56,66.56,0,0,0,3.8,5.5l1.5,5.3Z"/><path class="cls-3" d="M106.18,61.1h0Z"/><path class="cls-4" d="M136.4,97.06c-.17-.54,0-1.79-.34-2.3-3.52.93-6.33.27-8.36-1.88-2.54-2.7-4.69-3.2-7.36-5.83-3.87-3.81-6.84-9-10.68-12.79-2-2-3.49-5.79-4.13-8.41a5.31,5.31,0,0,1,.62-4.76h0a8.35,8.35,0,0,0-3.64-1.53,1.28,1.28,0,0,1,.85,1.48c-.51,2.44-1,4.11-3,5.62s-4.23,2.24-6.5-.25c-1.76-1.93-3-5.25-1.9-6.64a2,2,0,0,0-.29.13,39.94,39.94,0,0,0-3.46,2.16h0a10.32,10.32,0,0,1,.93,2.86c.43,3,.4,12.2-3.22,15.39-6.15,5.4-12.17,8.84-17,15.25-1.45,1.9-5.71,1.25-7.59,2.91l1.5,5.3h0c1.28.25,16.82,9.55,34.13,8.32,19-1.34,39.84-13.23,39.84-13.23C136.66,98.36,136.54,97.73,136.4,97.06Z"/><path class="cls-5" d="M105.53,65.85c.64,2.62,2.15,6.44,4.13,8.41,3.84,3.82,6.81,9,10.68,12.79,2.67,2.63,4.82,3.13,7.36,5.83A8.47,8.47,0,0,0,136,95.36a4,4,0,0,0-.71-1.66c-2.32-1.11-1.1-2.42-.26-3.75a102,102,0,0,0,5.34-9.61q1.2-2.46,2.25-5c.7-1.67,1.36-3.35,2-5,.09-.26.14-.48.21-.72A5.32,5.32,0,0,0,145,67.7a2.78,2.78,0,0,0-.11-.5,2,2,0,0,0-.39-.67,2.85,2.85,0,0,0-1.56-.83,9.58,9.58,0,0,0-2.62-.14,62.71,62.71,0,0,0-10.44,1.67c-1.22.28-2.44.58-3.66,1a22,22,0,0,0-3.65,1.48c.69,1.85,2.23,3.77,2.39,4.78.12.71-4.94-4.52-5.3-4.89-1.78-1.79-7.09-5.57-13.46-8.45h0A5.31,5.31,0,0,0,105.53,65.85Zm26.47,6c1.49-.95,2.88-2,4.4-2.91,1.75-1,3.44-.39,3.42,1.39,0,4-1.33,8-2.82,11.81-.46,1.2-1.7,1.34-2.88,1-1.91-.6-5.08-4.26-7.13-7C128.06,74.36,130.75,72.67,132,71.88Z"/><path class="cls-5" d="M68.85,95.56c4.86-6.41,10.88-9.85,17-15.25,3.62-3.19,3.65-12.39,3.22-15.39a10.32,10.32,0,0,0-.93-2.86h0c-.74.46-1.53.87-2.23,1.39-2.48,1.85-7,4.4-11,8.54a39.14,39.14,0,0,0-3.18,3.71c-1,1.89-2,4.91-3,6.8-.27-.5-.12-2.22.34-4.1.59-2.39,1.81-4.55,2.25-4.82a54.57,54.57,0,0,0-19-2.64,6.69,6.69,0,0,0-.94.12,3.48,3.48,0,0,0-1.45.67,2.94,2.94,0,0,0-.76,3.42A90.24,90.24,0,0,0,57.46,93a66.56,66.56,0,0,0,3.8,5.5C63.14,96.81,67.4,97.46,68.85,95.56Zm-10.29-7.9a33.34,33.34,0,0,1-4.93-11c-.35-1.19.63-1.9,1.88-2.16,2-.42,7.05,1,10.52,2.29.19,2-1.08,4.63-1.66,5.87-.7,1.47-1.23,3-2,4.46C61.52,88.85,59.66,89.12,58.56,87.66Z"/><path class="cls-6" d="M62.39,87.17c.75-1.46,1.28-3,2-4.46C65,81.47,66.22,78.8,66,76.84c-3.47-1.24-8.5-2.71-10.52-2.29-1.25.26-2.23,1-1.88,2.16a33.34,33.34,0,0,0,4.93,11C59.66,89.12,61.52,88.85,62.39,87.17Zm-6.81-11c3.72.09,4.91.6,8.36,1.91-.07,1.52-3.18,6.71-3.76,8.19C58.23,83.64,56.66,79.23,55.58,76.2Z"/><path class="cls-7" d="M55.58,76.2c1.08,3,2.65,7.44,4.6,10.1.58-1.48,3.69-6.67,3.76-8.19C60.49,76.8,59.3,76.29,55.58,76.2Z"/><path class="cls-6" d="M60.15,102.43l2.61,1.34-1.5-5.3a66.56,66.56,0,0,1-3.8-5.5,90.24,90.24,0,0,1-8.32-17.82,2.94,2.94,0,0,1,.76-3.42,3.48,3.48,0,0,1,1.45-.67,6.69,6.69,0,0,1,.94-.12,54.57,54.57,0,0,1,19,2.64c-.44.27-1.66,2.43-2.25,4.82-.46,1.88-.61,3.6-.34,4.1,1-1.89,2-4.91,3-6.8A39.14,39.14,0,0,1,74.89,72c4-4.14,8.56-6.69,11-8.54.7-.52,1.49-.93,2.23-1.39h0a39.94,39.94,0,0,1,3.46-2.16,2,2,0,0,1,.29-.13,1.62,1.62,0,0,1,.83-.56c2.33-.67,8-.31,9.07.06.25.09.48.19.69.29a8.35,8.35,0,0,1,3.64,1.53h0c6.37,2.88,11.68,6.66,13.46,8.45.36.37,5.42,5.6,5.3,4.89-.16-1-1.7-2.93-2.39-4.78a22,22,0,0,1,3.65-1.48c1.22-.37,2.44-.67,3.66-1a62.71,62.71,0,0,1,10.44-1.67,9.58,9.58,0,0,1,2.62.14,2.85,2.85,0,0,1,1.56.83,2,2,0,0,1,.39.67,2.78,2.78,0,0,1,.11.5,5.32,5.32,0,0,1-.23,1.92c-.07.24-.12.46-.21.72-.6,1.7-1.26,3.38-2,5s-1.45,3.31-2.25,5A102,102,0,0,1,135,90c-.84,1.33-2.06,2.64.26,3.75a4,4,0,0,1,.71,1.66c.16.53.31,1.12.44,1.7s.26,1.3.33,1.8l1.37-.94a32.65,32.65,0,0,0-1-4,4.68,4.68,0,0,1,.51-4.25c3.52-5.65,7.24-12.11,9.44-18.21,2.13-5.87-.67-8.91-7.67-8.18a61.24,61.24,0,0,0-17.24,3.9c-1.48.6-8-4.45-11.09-6.31-10.57-7.42-22.91-2.57-26.59,1.22a94.78,94.78,0,0,1-11.57,9.71c-1.1.61-2.79-.65-7.08-2.2S57,68.13,52.46,68.5c-4.79.38-7.2,3.25-6,7.24A77.08,77.08,0,0,0,57.25,97.6"/><path class="cls-6" d="M134.12,83.14c1.18.37,2.42.23,2.88-1,1.49-3.85,2.77-7.76,2.82-11.81,0-1.78-1.67-2.43-3.42-1.39-1.52.89-2.91,2-4.4,2.91-1.25.79-3.94,2.48-5,4.28C129,78.88,132.21,82.54,134.12,83.14Zm3.54-12.37c-.08,3.23-1.56,7.78-2.57,10.91-3-1.85-3.61-2.85-5.61-5.63C130.5,74.77,136.25,71.77,137.66,70.77Z"/><path class="cls-7" d="M137.66,70.77c-1.41,1-7.16,4-8.18,5.28,2,2.78,2.64,3.78,5.61,5.63C136.1,78.55,137.58,74,137.66,70.77Z"/><path d="M93.82,66.41c2.27,2.49,4.31,1.86,6.5.25s2.53-3.18,3-5.62a1.28,1.28,0,0,0-.85-1.48c-.21-.1-.44-.2-.69-.29-1.07-.37-6.74-.73-9.07-.06a1.62,1.62,0,0,0-.83.56C90.86,61.16,92.06,64.48,93.82,66.41Z"/><path d="M60.15,102.43c5,2.85,22,8.7,31.8,8.27,20.27-.89,40.86-9,46-13.34a5.68,5.68,0,0,1-.05,3.25,199.12,199.12,0,0,1-34.81,10.57c-22,4.27-42.12-4.75-42.28-6.38A9,9,0,0,0,60.15,102.43Z"/><path d="M87.4,66.9c.83,1.64.15,3.08-1.52,4.23s-3.37.6-4.83-.25c-.22-.13-.23-.79-.08-1.13s.68-.47,1.17-.37C85.65,70.11,85.65,70.1,87.4,66.9Z"/><path d="M109.5,68.08c-.81,1.64-.12,3.08,1.56,4.21s3.37.57,4.83-.29c.22-.13.22-.79.07-1.13s-.69-.46-1.17-.36C111.29,71.27,111.29,71.26,109.5,68.08Z"/><path d="M96.24,77.42c-1.37-.34-.47,3.44,1.19,4,2.58,1,4,.27,4.31-.51a1.87,1.87,0,0,0,.11-1.11c-.14-.4-.58-.42-1-.3C97.68,80.46,97.61,77.76,96.24,77.42Z"/><path class="cls-8" d="M104.59,29.53c1.59-4.17,2-10.21-1-11.76-4.22-2.18-6.1-5.47-6.75-9.78S101-.81,105,.12c2.07.48,3.17,1.68,1.63,4.32-1.92-1.55-3.94-3.15-6.18-.61s-1.27,5.06-.08,7.56c1.32,2.77,4.27,4.57,6.37,6.51,2.38,4.59,1.76,9.1-5.89,20.29C103.08,34.5,102,33.29,104.59,29.53Z"/><path class="cls-8" d="M89.26,35.62c-.56-3.21-1.2-5.3-3.83-5.45C81.74,30,82.34,20.74,78,19.4c5.08-1.84,4.93,4.85,5.64,6.88.85,2.45,2,2.27,4.13,3,3.15,2.51,3.58,12,2.24,16.29C89.48,42.29,89.81,38.82,89.26,35.62Z"/><path class="cls-8" d="M121.58,29c-.55,3.21-1.19,5.3-3.82,5.45-3.69.21-3.09,9.43-7.48,10.76,5.08,1.85,4.93-4.84,5.64-6.88.85-2.44,2-2.26,4.13-3,3.15-2.51,3.58-12,2.24-16.3C121.8,22.35,122.14,25.82,121.58,29Z"/></g></g></svg>