<svg xmlns="http://www.w3.org/2000/svg" viewBox="0 0 131.1 96.78"><defs><style>.cls-1{fill:#020200;}.cls-2{fill:#ffe02c;}.cls-3{fill:#fdfdfc;}.cls-4{fill:#0e0e0d;}.cls-5{fill:#e4c3d5;}.cls-6{fill:#af4100;}.cls-7{fill:#915813;}</style></defs><title>Corgi_P</title><g id="Layer_2" data-name="Layer 2"><g id="Layer_1-2" data-name="Layer 1"><path class="cls-1" d="M95,70.45,123.29,81l7.81-19.63s-41.17-8.85-48.45-7.21c-1.49,5.17-2.82,10.66-3.31,12.59-3.48-2.45-12.51-3.21-12.51-3.21L63,77.42l-2.58-1.54-3.62,4.88,12.61,6,3-11.16,16.08,4Z"/><path class="cls-2" d="M94.82,69.73l28.53,8.87L128.53,62S90.2,53.73,83.42,55.25c-1.39,4.81-2.81,11-3.26,12.43-5.23-2.36-12.82-3.37-12.82-3.37L65,73.07h0L63.6,78.74,60,77.79,57.8,79.92,69,84.18l2.53-9.57,16.59,3.33Z"/><path class="cls-2" d="M38.94,87.58c-2.17,1.47-25.2-5.13-25.26-6.31-.1-1.82,1.67-2.2,2.13-3.51a20.9,20.9,0,0,1,4.42-7.36c2.86-3.07-3.1-15.89-.55-19.22,1.06-2.12,2.59-11.06,1.85-10.53a13.56,13.56,0,0,0-5.25-.76l-2-3.56A25,25,0,0,0,16.87,32c1.82-5.23,4.84-9.77,7.67-14.46,1.66-2.76.59-8.22.26-8.78s-1.4-2.44-1.08-2.41c.7.08.84-1.86,1.65-2,1.41-.19,1.7-1.24,2.92-2,2.1-1.38,6.26.83,7.08,1.24a4.37,4.37,0,0,0,.52,3.47,11.61,11.61,0,0,0,3.83,4.31c3.14,2.19,6.3,4.35,9.45,6.52,2.18,1.5,3.68,3.74,5.79,5.31,1.69,1.25,3.5,1.88,5.53.73a7.1,7.1,0,0,1,1.42,2.65,30.81,30.81,0,0,1-8.55,5.75c-1.59.73-2.45,1.15-3.24,2.94-1,0,1.54,1.47,1.48,2.4-.18,2.55,1.66,11.54,2.25,11.12a10.92,10.92,0,0,1,.29,6.66c-1.42,5.9-3.87,16.15-9.21,19.29C40.85,77.13,43.14,84.74,38.94,87.58Z"/><path class="cls-2" d="M49.28,35.59c.79-1.79,2.49-2.54,4.08-3.27a30.81,30.81,0,0,0,8.55-5.75A39.56,39.56,0,0,1,66.48,41.7c1.31,12.09-.91,29-9.45,37.9-8.18,8.56-7.71,7.74-15.37,8.6-1.41.13-1.74.13-5.89-.69,2.09-1.88,3-9.13,9.16-12.78,5.34-3.14,7.79-13.39,9.21-19.29C54.67,53.24,50.4,37,49.28,35.59Z"/><path class="cls-2" d="M60.82,23.72c1.4,2.07-4,1.92-5.71.67-2.12-1.57-3.7-2.83-5.88-4.33-3.15-2.17-6-5.42-9.15-7.61a16.41,16.41,0,0,1-4.19-5.4,4.37,4.37,0,0,1-.52-3.47A32.4,32.4,0,0,1,47.25,8.8c.3.21,2.29,1.79,2.12,1.41a7.79,7.79,0,0,0-.91-1.28c-.56-.74-.78-.59-1.16-1.53a16.66,16.66,0,0,1,4.12-2.73A35.57,35.57,0,0,1,57.66,2c2.59-.77,3.69.12,3.57,2.81A74.88,74.88,0,0,1,59,20.1c-.27,1.06-.79,2.16.88,2.63C60.21,22.83,60.82,23.2,60.82,23.72Z"/><path class="cls-2" d="M26.31,20c-2.82,4.69-5.95,8-7.77,13.19-.55,1.55-3.35,1.68-4.21,3.11A67.84,67.84,0,0,1,2.27,21.44c-.91-1.46-.5-3,1.18-3.42a31.42,31.42,0,0,1,12.43-.76c1.14-1.52,4-5.55,6.87-9.53.33-.47,1.13-.55,1.51-1A8.26,8.26,0,0,1,25.4,8.66C26.24,10.72,28,17.27,26.31,20Z"/><path class="cls-2" d="M20.47,51.69c-.24.61,2.62,15.64-.24,18.71a20.9,20.9,0,0,0-4.42,7.36c-.76,2.16-.64,2.87-2.82,4C11.55,80.5,8.49,81,7.3,79.54c1.48-2.13,2.15-7.69,2-10.31a10.85,10.85,0,0,0,4.31-2.6c1.67-1.9,2.55-19.34,2.65-26.73a13.36,13.36,0,0,1,5.25.75,5.56,5.56,0,0,1,1.83,2.4C21.81,45,21,49,21,49.79A6,6,0,0,1,20.47,51.69Z"/><path class="cls-3" d="M10,69.19c.13,2.63,1.86,8.53.38,10.65-1.51,0-7.17.15-8.21-1-.49-.55-1.53-4.25.24-5.24S3.88,72.5,5.5,71.46A36.8,36.8,0,0,1,10,69.19Z"/><path class="cls-4" d="M35.56,17.41c-1.18,2.26-2,2.52-3.66,1a11.61,11.61,0,0,1-3.19-3.93c-.63-1.58-.35-2.53,1.26-3a11.11,11.11,0,0,1,3.18-.6,3,3,0,0,1,3.19,3.47A10.3,10.3,0,0,1,35.56,17.41ZM33.24,17a3.23,3.23,0,0,0,1.24-2.41c.35-1.75-.26-2.32-2-2-.67.14-1.33.31-2,.48A5.6,5.6,0,0,0,33.24,17Z"/><path class="cls-4" d="M13.19,20.31a10.44,10.44,0,0,1,.08,4.4c-.15,1.14-.19,2.3-.39,3.44-.22,1.31-1.34,1.76-2.31.88a27.62,27.62,0,0,1-5.18-7.1c-.45-.8,0-1.44.76-1.79C7.34,19.55,10.78,19.91,13.19,20.31Zm-6,1.26a24.66,24.66,0,0,0,4,5.47,9.92,9.92,0,0,0,.17-3.11C9.26,24.53,9.5,21.13,7.15,21.57Z"/><path class="cls-5" d="M33.45,18c-1.81-1.09-4.17-4.2-3.45-4.91s1.71-.46,2.55-.64c2.21-.47,3,.24,2.49,2.47C34.8,16,34.61,17.23,33.45,18Z"/><path class="cls-5" d="M6.51,21.29a11.87,11.87,0,0,1,5.61.21c.25,1.09-.71,5.2-.79,6.34A35.8,35.8,0,0,1,6.51,21.29Z"/><path class="cls-4" d="M46.56,5.67A34.13,34.13,0,0,1,56.64.51C60.89-1,63.22.8,63,5.27a76.57,76.57,0,0,1-2.44,14.24,3.79,3.79,0,0,0,.48,3.09c8.36,14.7,6.71,36,5.69,39.69C65.1,68.18,57.18,83.11,51.83,86.8c-6.83,4.73-8.15,1.65-13,1.86-1.13,0-17.54-3.3-27-7.21-3.25-1.34-4.85-.63-7.45-.76-.78,0-2.95-.58-3.39-2.29A7,7,0,0,1,2.08,73a11.8,11.8,0,0,1,4.7-3.6c3-1,3.68-1.17,5.5-2.81s1.15-2.91,2.31-8.38,2-17.15-2.94-21.9A63.49,63.49,0,0,1,.73,22.22c-1.55-2.66-.58-5,2.35-6s5.6-1.6,8.59-1.09,4.29,1.18,4.86.59a60,60,0,0,0,5.41-8.49c1.58-3.21,8.4-8.36,16.46-4.54C40.71,3.6,45.75,6.3,46.56,5.67ZM16,24a7.25,7.25,0,0,1-.56-3,8.73,8.73,0,0,1,.48-3.74A31.42,31.42,0,0,0,3.45,18c-1.68.44-2.09,2-1.18,3.42A67.84,67.84,0,0,0,14.33,36.33l2,3.57c2,7.29-.94,25.43-2.62,27.34-1.52,1.92-6,2.93-8.26,4.74-2.62,2.12-3.59,3.73-3,5.81s6,1.88,7.48,1.64c2.14-.34,4.35,1.3,6.06,2.12,2.5,1.22,24.31,6.14,25.72,6,8.67-1.1,8.12.54,15.57-8.67C64,70.51,67.24,54.12,65.93,42c-.58-5.3-1.41-10.74-4-15.46-.31-1-1.7-3.73-2-3.83-1.67-.47-1.15-1.57-.88-2.63A74.88,74.88,0,0,0,61.23,4.85c.12-2.69-1-3.58-3.57-2.81a35.57,35.57,0,0,0-6.24,2.63A16.66,16.66,0,0,0,47.3,7.4c.79,1.22,2.12,2.37,2.41,3.07.21.49-4-2.53-4.26-2.75A36.59,36.59,0,0,0,35.37,3.58,5.34,5.34,0,0,0,32.77,3c-.21-.19-5.9.79-6.74,1.75a22.06,22.06,0,0,0-1.77,2c-.38.43-.79.83-1.13,1.29-1.21,1.66-3.58,4.1-5.3,7.6a24.35,24.35,0,0,0-1.29,3.08C16.28,20.19,16.22,22.48,16,24Z"/><path class="cls-4" d="M51.33,11.4a10.4,10.4,0,0,1,2.32-3.73c.76-.87,1.42-1.83,2.21-2.67s2.08-.75,2.41.52a27.77,27.77,0,0,1,.49,8.77c-.07.92-.82,1.19-1.62,1.09C55.82,15.22,53.13,13.05,51.33,11.4Zm5.76,2.23a25.56,25.56,0,0,0-.4-6.77,9.82,9.82,0,0,0-1.84,2.51C56.92,10,54.87,12.73,57.09,13.63Z"/><path class="cls-5" d="M57.46,14.21A11.89,11.89,0,0,1,52.87,11C53.26,9.94,56.3,7,57,6.1A36.07,36.07,0,0,1,57.46,14.21Z"/><path class="cls-3" d="M42.09,87.46c1.77-1.74,7.13-2.85,9.57-3.14-.14,1.48.7,5.6.53,7.08-.08.69,0,3.18-.43,3.76-1.18,1.69-5.16.54-5.85-2.38C45.39,91.71,42.61,88.53,42.09,87.46Z"/><path d="M26.6,4.1a14.56,14.56,0,0,1,5.7-1.21c.74.11,1.25.34,1.3,1,.15,1.8.18,3.05-.83,4.41s-2.23,2.18-4.13.72C26.9,7.72,25.26,4.89,26.6,4.1Z"/><path d="M24,16.4c1-.76.39-3-.73-3.9a1.87,1.87,0,0,0-2.47,0,1.9,1.9,0,0,0-.3,2.29C21.13,16.26,23.05,17.16,24,16.4Z"/><path d="M42.22,11.87c1.14-.41,1.34-2.67.59-3.93a1.85,1.85,0,0,0-2.32-.83,1.87,1.87,0,0,0-1,2.05C39.56,10.8,41.07,12.28,42.22,11.87Z"/><path class="cls-4" d="M44.83,90.31c-.5-.46-2.28-2.43-3.54-2.52.41,1.21,2.92,4.27,4.13,6s3.68,3.53,5.69,2.84S52.8,94.39,53,92.37a21.53,21.53,0,0,0,.1-3.75c-.11-1-.36-3.41-1-3.22-.59.51,0,2.53-.07,3.4A26.9,26.9,0,0,0,52,92c.12,1.35.12,2.69-1.08,3.16a3,3,0,0,1-3.44-1.27A22.82,22.82,0,0,0,44.83,90.31Z"/><path class="cls-3" d="M19.87,50.19c.19-3.11.21-6.4,2.37-8.93,1.2,1.36,6.25,2.55,7.41,3.93a4,4,0,0,1,.63,2.25c-.27,1.74-3,2.68-5.5,2.73A40.62,40.62,0,0,0,19.87,50.19Z"/><path class="cls-3" d="M51.53,35.14c1.48,2.73,3.2,5.54,2.7,8.82-1.74-.51-6.66,1.14-8.38.58-.8-.27-1.16-.91-1.72-1.58-.69-1.63,1.17-3.88,3.24-5.22A42.35,42.35,0,0,0,51.53,35.14Z"/><path class="cls-4" d="M24.44,43c-1-.71-3-1.31-3.61-2.81,1.05.46,7.08,2.27,8.55,3.48s2.3,2.86,1.59,4.61-4.35,2.66-6.15,2.66c-1.34,0-4.7-.31-5.52-.91a17.27,17.27,0,0,1,5.14-.44c1.19.21,4.79-.51,5.27-1.56s-.33-2.44-1.29-3.14C27.11,43.91,25.39,43.69,24.44,43Z"/><path class="cls-4" d="M49,37.71a11.55,11.55,0,0,0,2.56-2.63c-1.11.31-3.6,2.1-5.22,3.1s-3.38,3.13-2.91,5S45.3,44.76,47.08,45a20,20,0,0,0,3.32.26,7.6,7.6,0,0,0,2.93-.79c-.65-.38-2.24-.15-3-.22a23.09,23.09,0,0,0-2.87-.06c-1.2,0-2.4,0-2.73-1.12a2.77,2.77,0,0,1,1.36-3A13.41,13.41,0,0,0,49,37.71Z"/><circle class="cls-6" cx="22.15" cy="21.43" r="2.86"/><circle class="cls-6" cx="46.94" cy="15.63" r="2.95"/><path class="cls-7" d="M76.12,66.21c-1.52-.81-8.85-1.9-8.85-1.9L65,73.07h0l-1.48,5.66-3.73-1.9-2,3.08,11.39,4.72,2.57-9.79,3.43.64S76.06,68,76.12,66.21Z"/><path class="cls-4" d="M6.27,17a58.66,58.66,0,0,1-3,6.91L1,19.83,2.88,17Z"/><path class="cls-4" d="M61.41,7A59.25,59.25,0,0,1,56,1.77l4.59-.71,2,2.77Z"/><path class="cls-4" d="M80.73,29.29c-6-9.84-5.83-13.67-5.83-13.67s4.42.06,5.65,1.15C79.84,14,79,6.66,79,6.66s4.48,9,4.68,12.93a13.41,13.41,0,0,1-4.67-1Z"/><path class="cls-4" d="M87.88,39.94c1.28-15.55,5-20.08,5-20.08s5.55,2.76,6.13,4.83c1.65-3.85,7.24-13.16,7.24-13.16S103.79,25.14,100.48,30a15.82,15.82,0,0,1-5-4.06Z"/></g></g></svg>