<svg xmlns="http://www.w3.org/2000/svg" viewBox="0 0 96.76 101.43"><defs><style>.cls-1{fill:#fdfdfc;}.cls-2{fill:#f6c17a;}.cls-3{fill:#0e0e0d;}.cls-4{fill:#e4c3d5;}.cls-5{fill:#ead618;}.cls-6{fill:#6c3593;}</style></defs><title>Corgi_A</title><g id="Layer_2" data-name="Layer 2"><g id="Layer_1-2" data-name="Layer 1"><path class="cls-1" d="M57.39,77.68C50.7,77.81,42.66,69.77,38,65.14a11.8,11.8,0,0,1-3.51-6.29c.79,0-2.61-9.26-4.22-11.5-.59-.83.89-3.57,0-3.05-1.74-1.2-2.77-1.09-4.64-.87A33,33,0,0,1,14.51,43a7.87,7.87,0,0,1-.19-3.24c2.52-.09,3.83-1.7,4.67-3.8,1.06-2.64,1.17-5.55,2.33-8.16,1.67-3.78,3.35-7.56,5-11.35a12.64,12.64,0,0,0,1.08-6.13,4.72,4.72,0,0,0-1.49-3.49C26.44,6,29,1.58,31.73,1.67c1.58.05,2.44.85,3.85.22.8-.35,2,1.35,2.63.88.27-.21.36,2.11.37,2.82s2.11,6.34,5.21,7.94c5.25,2.71,10.6,5.18,15.23,9A27.69,27.69,0,0,0,63.81,25c.07,1.46.15,2.92.22,4.38a14.64,14.64,0,0,0-4.4,3.66c-1-.07-1.45.36-1.47,1.38a20.11,20.11,0,0,1-1.28,6,4,4,0,0,0,1.49,5,4.9,4.9,0,0,0,5.43.16c1.24-.76,1.82-2.17,3-2.91,4.23,1.61,6.44,15.87,10.81,17.08A22.24,22.24,0,0,1,85.89,64c1.17,1,4.35-.17,5.3,1.56a102.45,102.45,0,0,0-7.88,9.86c1.6,1,8.11,7.35,5.85,11.27A57.44,57.44,0,0,0,77,83.27c-2.65.08-3.93,3.52-6.76,3.4C65.34,87.23,62.51,77.58,57.39,77.68Z"/><path class="cls-2" d="M31.24,44.13c-1.74-1.2-3.73-.92-5.6-.7A33,33,0,0,1,14.51,43a43.23,43.23,0,0,0,4.36,16.51C24.51,71.35,36.1,85.61,49,89c12.37,3.24,11.47,2.76,19-.79,1.38-.67,2.24-.22,5.59-3.32-3-.55-8.45-7.37-16.22-7.21C50.7,77.81,42.66,69.77,38,65.14,36.27,63.41,31,46.05,31.24,44.13Z"/><path class="cls-2" d="M14.23,38.29c1.27-1.38.17-2.1-.68-2.92A81.07,81.07,0,0,1,2.85,22.62C1.22,20.21,1.73,18.77,4.55,18a38.19,38.19,0,0,1,7.22-1.11,17.88,17.88,0,0,1,5.34.18c.18,1.08-.1,1.07-.2,2.06a8,8,0,0,0-.11,1.69c.06.46,1-2.12,1.14-2.49a35,35,0,0,1,8-11.53,4.72,4.72,0,0,1,1.49,3.49,17.6,17.6,0,0,1-.81,7.34C25,21.43,24.17,26,22.5,29.82c-1.15,2.61-2.45,3.48-3.51,6.12a5.63,5.63,0,0,1-5.08,3.8C13.61,39.27,14,38.58,14.23,38.29Z"/><path class="cls-2" d="M38,5.84a9.21,9.21,0,0,1,0-2.4c.59.18,1.38-.19,2,.05,4.92,2,9.8,4.12,11.71,4.88A34.22,34.22,0,0,1,63.46,2c1.79-.55,3,.62,3,2.48A73.41,73.41,0,0,1,63.81,25c-1.61-.84-4.25.63-5.63-.49-4.64-3.77-9.37-5-14.62-7.73C40.46,15.22,38.36,8.22,38,5.84Z"/><path class="cls-2" d="M66.85,42.64c.57.42,6.44,15.87,10.81,17.08A22.24,22.24,0,0,1,85.89,64c1.92,1.56,2.22,2.28,4.84,2.05.63-1.94,3.74-3.21,4-5.23C92.16,59.68,88.4,55,87,52.46a11.76,11.76,0,0,1-5.44,0C79,51.71,68.31,36.16,64,29.42a14.64,14.64,0,0,0-4.4,3.66,5.93,5.93,0,0,0-.32,3.24c2.52.91,5.5,4.18,6,4.86A6.4,6.4,0,0,0,66.85,42.64Z"/><path class="cls-1" d="M90.11,51.42c1.85-.93,4.27-1.73,5,.5.26.77,1,2.25.89,3-.3,1.67-.94,4.18-1.28,5.84-2.56-1.12-7-5.48-8.36-8C87.28,51.83,88.25,52.35,90.11,51.42Z"/><path class="cls-3" d="M31.14,17.3a3.2,3.2,0,0,1,1-5,12.35,12.35,0,0,1,3.27-1.25c1.73-.51,2.52.22,2.84,2a12.51,12.51,0,0,1-.72,5.43c-.7,2.36-1.56,2.56-3.92,1.14A10.83,10.83,0,0,1,31.14,17.3Zm4.71-4.56c-.74.24-1.45.45-2.14.71-1.83.69-2.07,1.56-.75,3a3.41,3.41,0,0,0,2.51,1.52A6,6,0,0,0,35.85,12.74Z"/><path class="cls-3" d="M15.4,58.57a12.52,12.52,0,0,1,3.88,1c.25,1.36-4.55.11-6.63.1s-4.94-1-5.56-2.95.67-2.69,2.2-3.94a20.76,20.76,0,0,1,3-2.22,11.09,11.09,0,0,1,2.56-1.25c.34.34.56.2.74.76-.38.73-1.77,1.34-2.45,1.84a26.71,26.71,0,0,1-2.7,1.71C9.27,54.26,8,54.83,8.33,56a3,3,0,0,0,3,2A14.8,14.8,0,0,1,15.4,58.57Z"/><path class="cls-3" d="M62.17,5.51c.87-.09,1.67.22,1.72,1.22a29.8,29.8,0,0,1-.76,9.46c-.38,1.36-1.67,1.58-2.62.5s-1.52-2-2.31-3a11.25,11.25,0,0,1-2.41-4.09C57.78,7.92,60.74,5.65,62.17,5.51Zm-2.63,6.43a10.8,10.8,0,0,0,1.92,2.76,27.5,27.5,0,0,0,.61-7.31C59.65,8.31,61.79,11.3,59.54,11.94Z"/><path class="cls-4" d="M35.83,19c1.05-2,1.46-6.23.39-6.47s-1.83.54-2.7.85c-2.31.82-2.59,1.9-.9,3.68C33.48,17.93,34.34,18.94,35.83,19Z"/><path class="cls-4" d="M62.49,6.78c-2.42.92-3.08,1.58-5.05,3.36.4,1.15,3.61,4.39,4.33,5.38A39.3,39.3,0,0,0,62.49,6.78Z"/><path class="cls-3" d="M22.65,7.73C27.9-.33,37.09.54,40.36,2.59a64.7,64.7,0,0,0,9.78,4.76c.86.21,1.68-1.14,4.14-3.3S59.73,1,62.79.2C66-.6,68.25,1,68.33,4.36a68.21,68.21,0,0,1-2.09,19.1C64.36,30.64,71.85,41,75.93,45.27s4.26,5.92,6.87,6.4,3.53.82,6.46-.84c2.06-1.17,3.14-1.81,4.07-1.46a4.5,4.5,0,0,1,3.15,3.3,10.81,10.81,0,0,1-.18,5.39c-1,5.23-9.08,12.13-11.55,16.87.56,1.77,2.63,2,4.14,4a14.39,14.39,0,0,1,1.61,4.84c.08,2.85-1.66,4.13-4.09,3.22a49.78,49.78,0,0,0-9-2.89c-1.38.88-3.29,1.73-4.72,2.53-4.6,2.57-5.86,6.49-14.81,6-7-.38-22.75-9.63-27.59-14.11-3-2.79-16.6-21.48-17.23-39.73a4.12,4.12,0,0,0-1.3-3.12A83.12,83.12,0,0,1,1.45,24c-2.72-4-1.58-6.94,3.17-8a37.08,37.08,0,0,1,12.19-1C17.91,15.19,21,9.86,22.65,7.73Zm29.16,2.35A28.08,28.08,0,0,0,48.88,8c-3.57-2.24-7.12-3.14-9.17-4-.57-.23-1.19-.37-1.78-.55a27.82,27.82,0,0,0-2.76-.85C33.85,2.2,28.06,4.51,28,4.8a5.75,5.75,0,0,0-2.06,2A39.66,39.66,0,0,0,19,16.33c-.15.37-2.28,5.51-2.36,4.94-.12-.81.45-2.62.48-4.19a17.88,17.88,0,0,0-5.34-.18A38.19,38.19,0,0,0,4.55,18c-2.82.76-3.33,2.2-1.7,4.61a81.07,81.07,0,0,0,10.7,12.75c.85.82,1.95,1.54.68,2.92-.26.29,0,3.62.28,4.69.28,5.81,2.58,11.28,5.06,16.49,5.64,11.87,17.9,25.11,28.81,29,12.06,4.26,10.62,3.06,19.23-.84,1.39-.63,3.78-3,7.13-4.66,2-1,12.28,1.8,14.06,3.37.47-.3.52-4.4-1-6.36-1.85-2.38-5.49-3.63-5.31-4.44,1.05-2.89,3.79-5.41,5.41-7.94,1.1-1.72,5.19-5.26,6-7.47.53-1.51,1.61-5.63,1.36-6.4-.74-2.23-1.75-3.59-4.5-2.16S84.41,54,81.91,53.09,66.31,37.27,64,29.42C64,28,63.88,26.5,63.81,25A73.41,73.41,0,0,0,66.48,4.51c0-1.86-1.23-3-3-2.48A34.22,34.22,0,0,0,51.59,8.37a9.37,9.37,0,0,1,2.56,3.16,7.89,7.89,0,0,1,1.16,3.05C54.23,13.36,52.88,11.29,51.81,10.08Z"/><path class="cls-3" d="M12.58,30c-.69.55-1.53.72-2.11-.09A29.85,29.85,0,0,1,6,21.56c-.42-1.36.54-2.24,1.93-1.85,1.2.34,2.35.84,3.54,1.22A11.09,11.09,0,0,1,15.67,23C14.94,25.58,13.69,29.1,12.58,30Zm-1.3-6.83a11.18,11.18,0,0,0-3.12-1.27,27.21,27.21,0,0,0,3.47,6.46C13.16,26.27,9.73,24.92,11.28,23.16Z"/><path class="cls-4" d="M11.61,29.1c1.53-2.09,1.73-3,2.4-5.57-.95-.74-5.4-1.72-6.55-2.16A39.18,39.18,0,0,0,11.61,29.1Z"/><path class="cls-1" d="M66,94.8c.21,2.08-1.37,5.39-3.3,4.55C62,99.06,61,97.5,60.5,96.94a26.16,26.16,0,0,1-3.33-6.46c2.28-1.06,7.55-3,10-2.4C67.33,89.29,65.84,93.58,66,94.8Z"/><path class="cls-1" d="M10.93,58.36c-1.28-.38-3.1-1.23-2.54-3.14C8.71,54,10,53.67,10.51,53.33a31.33,31.33,0,0,1,4.73-2.91c.77,2.17,3.22,6.32,3.57,8.77C17.63,59.07,12.22,58.75,10.93,58.36Z"/><path d="M34.28,2.32a16,16,0,0,0-5.93,2.12c-.61.52-1,1-.61,1.69C28.63,7.88,29.31,9,31,9.72s3.29.74,4.21-1.67C36.06,5.83,36,2.3,34.28,2.32Z"/><path d="M43.64,12.17c-1.3-.16-2-2.51-1.53-4a2,2,0,0,1,2.25-1.42,2,2,0,0,1,1.58,1.92C46.2,10.42,44.94,12.34,43.64,12.17Z"/><path d="M24.32,18.31c-1.29.28-2.75-1.69-2.77-3.27A2,2,0,0,1,23.21,13a2,2,0,0,1,2.12,1.31C26.15,15.82,25.6,18,24.32,18.31Z"/><path class="cls-3" d="M66.3,92c.2-.71.72-3.52,1.83-4.32.31,1.34-.27,5.57-.4,7.85s-1.39,5.32-3.64,5.83-3-.63-4.31-2.4a23.12,23.12,0,0,1-2.21-3.38c-.45-1-1.41-3.81-.66-4,.83.13,1.47,2.3,2,3.08a29.11,29.11,0,0,1,1.74,3c.65,1.31,1.42,2.55,2.79,2.3a3.27,3.27,0,0,0,2.44-3.12A25.45,25.45,0,0,1,66.3,92Z"/><path class="cls-3" d="M14.31,45.87s16.23-2.46,22-4.86,17.22-6.66,19.52-8.8,8-7.25,8-7.25.72,6.59,2.67,9.7S76.5,48.24,77.91,49.71,65.65,65,59.2,68.32s-20.76,13.88-24.8,12-9.79-11-12.2-14.9C18.86,60,14.31,45.87,14.31,45.87Z"/><path class="cls-1" d="M55,45.35c-1.33-.37-3.22-1.2-2.66-3.12.32-1.23,2-2.07,2.56-2.41,1.35-.83,3.46-2.73,5.38-3.53.82,2.17,3.42,5.34,4.34,7.6C63.44,44.49,56.37,45.72,55,45.35Z"/><polygon class="cls-5" points="48.66 61.56 51.68 60.43 50.53 57.37 48.55 61.26 48.66 61.56"/><path class="cls-5" d="M46.77,47.3l-1.29-3.44L42.6,44.94l-.27,2.9,0,0a9.71,9.71,0,0,0-1.55,17.45l-.49,5.34,3-1.15.27-3.07A9.72,9.72,0,1,0,46.77,47.3ZM38.48,59.65a7.7,7.7,0,0,1,3.64-9.51L40.94,63A7.56,7.56,0,0,1,38.48,59.65Zm9.89,4.51a7.65,7.65,0,0,1-4.67.23l.3-3.53,3.86-1.44L48.45,61l1.73-3.41L46.58,56l.36,1-2.7,1,.6-7,1.71,4.57,4,1.86-2.94-7.86a7.69,7.69,0,0,1,.78,14.65Z"/><polygon class="cls-6" points="48.26 61.66 51.28 60.53 50.13 57.47 48.15 61.36 48.26 61.66"/><path class="cls-6" d="M46.37,47.4,45.09,44,42.2,45l-.27,2.9,0,0a9.71,9.71,0,0,0-1.55,17.45l-.49,5.34,3-1.15.27-3.07A9.72,9.72,0,1,0,46.37,47.4ZM38.08,59.75a7.7,7.7,0,0,1,3.64-9.51L40.54,63.11A7.56,7.56,0,0,1,38.08,59.75ZM48,64.26a7.65,7.65,0,0,1-4.67.23L43.6,61l3.86-1.44.59,1.57,1.73-3.41-3.6-1.58.36.95-2.7,1,.6-7,1.71,4.57,4,1.86L47.2,49.61A7.69,7.69,0,0,1,48,64.26Z"/></g></g></svg>