<svg xmlns="http://www.w3.org/2000/svg" viewBox="0 0 102.6 90.77"><defs><style>.cls-1{fill:#fcfcfc;}.cls-2{fill:#f6c17a;}.cls-3{fill:#0e0e0c;}.cls-4{fill:#7a0808;}.cls-5{fill:#fff;}.cls-6{fill:#0e0e0d;}.cls-7{fill:#e4c3d5;}</style></defs><title>Corgi_C</title><g id="Layer_2" data-name="Layer 2"><g id="Layer_1-2" data-name="Layer 1"><path class="cls-1" d="M40.92,80.2c-1.67-.22-3.34-.38-5-.66a6.44,6.44,0,0,0-4.95,1c1.4,2.61,1.06,5.25,3.48,7.12.91.7,3.17,1.81,4.41,1.24s1.64-2.83,1.59-3.82C40.38,83.41,41.1,81.9,40.92,80.2Z"/><path class="cls-1" d="M59.92,82.38c-1.48-.19-3.82-.38-5.29-.63a5.64,5.64,0,0,0-4.43.94c1.25,2.34,2.09,3.91,4.25,5.59.81.64,2.84,1.49,3.95,1a3.93,3.93,0,0,0,1.67-3.16C60,84.55,60.08,83.91,59.92,82.38Z"/><path class="cls-1" d="M90.29,33.49c-2-1.14-20.43-4.7-29.54-2.75S46.35,34.39,43,35s-15.15,4.77-21,7.44-11.42,8.8-11.88,12.14S8.58,70.85,9,73.58s10.32,5.77,18.92,5.77,30.91.43,31.89,0,14.86-.18,18-1c2.52-.67,7-10.46,7.5-10.71a77.1,77.1,0,0,0,7.57-3.09c2.34-1.29,9.13-6.36,8.88-10.79-.33-5.68-1.53-11.31-5-13.42S92.5,34.77,90.29,33.49Z"/><path class="cls-2" d="M40,37.53c.92-.52.81-.85,1.82-1.37a1.74,1.74,0,0,0,.9-1.47c1.13-6.24,3.47-11.87,6.13-17.6a10.45,10.45,0,0,1,1.66-2.76c1.31-1.42,2.68-1.54,4-.14,1.14,1.25,2.07,2.69,3.09,4,.25.34,1,1.45,1.22,1.85,1.12,2.09.93,1.54,1.85,3.14a25,25,0,0,1,1.7,3.63c.36.9.79,1.77,1.08,2.68a2.25,2.25,0,0,0,2.42,1.68c3.51.09,7.09.24,10.61.39.6,1.77,1.21,3.55,1.72,5.35,1.46,5.16.32,9.16-4.6,13.24-3.64,3-3.63,2.54-5.84,3.34S55.63,52.93,53.18,52C45.81,49.35,40.07,39.19,40,37.53Z"/><path class="cls-2" d="M79.7,31.58a2.76,2.76,0,0,0,2.55-1.68c.49-1.21.35-5,.48-6.33a14.38,14.38,0,0,1,.77-4.32c.72-1.83.8-4.79,2.55-4.78,1.06,0,1.28,1.76,1.52,2.74C88.9,22.57,90.85,29,91.46,34.46c0,.42-1.2-.57-.36.67a38.4,38.4,0,0,0,5.37,5.93c3.08,2,4.68,5.31,5.28,9.44-4.1-3.33-7.54-4.34-12.77-4.73-3.77-.29-6.79-3.78-8-7.42-.72-2.2-1.55-4.47-2.32-6.67C79,31.68,79.36,31.61,79.7,31.58Z"/><path class="cls-2" d="M84.76,68.53c-3.56,2.24-5.59,5.18-7.86,7.22a21.44,21.44,0,0,1,1,3.71,26.93,26.93,0,0,1,.47,2.83c1.82-.66,7.34-1.3,9.28-.62C85.94,75.46,85.17,69.28,84.76,68.53Z"/><path class="cls-1" d="M59.72,82.19c-1.66-.22-3.34-.38-5-.66a6.4,6.4,0,0,0-4.95,1c1.4,2.61,2,4.58,4.45,6.45.91.71,2.83.64,4.08.07s2-.8,1.92-1.79C60.15,85.59,59.9,83.89,59.72,82.19Z"/><path class="cls-1" d="M19.77,83a17.2,17.2,0,0,0-9.65-1.26c.59,3.22,1.14,6.57,5.47,7.33a3.37,3.37,0,0,0,3.69.72c1.34-.61.94-1.83.88-2.85C20.1,85.64,19.91,84.33,19.77,83Z"/><path class="cls-3" d="M82.29,29.69c.21-4.11-.59-10.07-3.54-14.58-5-7.65-13.73-13.19-17.93-14,.29.42-.85.89-.59,1.29,3.34,5.2,5.17,9.7,5.15,13.94,0,9.42-2,14-2,14S78.34,31.63,82.29,29.69Z"/><path class="cls-4" d="M80.48,29.18c3.2-13.28-11.94-24.75-17.33-26,.24.38-.68.8-.48,1.17A24.23,24.23,0,0,1,66.23,17a62.71,62.71,0,0,1-1,12.78S77.3,30.93,80.48,29.18Z"/><path class="cls-3" d="M58.47,3.46a3.89,3.89,0,0,0,4,4.14,3.8,3.8,0,1,0,0-7.6C60.33,0,58.47,1.36,58.47,3.46Z"/><circle class="cls-5" cx="62.6" cy="3.8" r="3.04"/><path d="M92.39,48.71c-1.93-.44-7,.58-7.81,1s-1.37.91-1.17,1.78a7.27,7.27,0,0,0,3.16,4.77c1.86,1.34,3.55,1.76,5.28-.75C93.44,53.22,94.31,49.15,92.39,48.71Z"/><path class="cls-2" d="M59.55,82.94c.3-1.15-.43-4.94.37-5.86-.51-1.67-1.65-1.87-2.39-3.49-1.77-3.87-4.5-5.44-8-7.7-2.44-1.58-7-8.89-9.65-13.44S37,39,36,39.13a45,45,0,0,0-17.78,6.46C15,47.68,12.27,50,10.64,53S8.25,60.64,8,64.53A79.66,79.66,0,0,0,9.35,82a4.66,4.66,0,0,0,.4.72c2.56-.41,7.89-.43,10.22.76.13-.37-.19-.64-.06-1,.84-2.36-.06-2.44,2.42-2.36,2.67.22,15.75-.73,23.62-1,1.74-.07,1.47.17,2.31,1.75.33.61,1.61,1.72,2,2.37A4.51,4.51,0,0,1,54,82.3C55.26,82.55,58.28,82.75,59.55,82.94Z"/><path d="M91.83,41.74c0-1-.87-3.25-2.79-2.9a2.37,2.37,0,0,0-1.78,2.93c.23,1.53,1.12,3,2.72,2.91S91.83,42.69,91.83,41.74Z"/><path d="M67.38,47.63a2.91,2.91,0,0,0,2.08-3.91c-.29-.85-1.45-3-3-2.72a2.5,2.5,0,0,0-1.92,2.36C64.26,45.5,65.79,47.83,67.38,47.63Z"/><path class="cls-3" d="M86.17,72.37c1.08,5,2,9.08,1.13,12.62-.37,1.9-.78,3.12-2.33,3.4-1.71.31-4-1.34-5.4-3.43a11.92,11.92,0,0,1-1.84-5.84c-1.13-.31-4.12.7-6,.74-3.12.07-8,.38-11.11.31-.49.76-.11,1.11-.07,2.42,0,1.13.23,2.26.27,3.39.08,1.78-.54,2.74-2.3,3.64s-3.42.2-4.86-1a17.48,17.48,0,0,1-5.25-6.86c-.42-.92-.74-1.63-2-1.57s-12.4.4-14.06.52c-2.83.2-5.68.11-8.52.07-2.44,0-3.34.87-3.21,3.35.06,1.14.23,2.27.2,3.4a3.1,3.1,0,0,1-3.54,3.25A5.86,5.86,0,0,1,13,88.35a23,23,0,0,1-4.91-10c-.43-1.91,0-9.17-.39-11.12-.8.13-2.09.48-2.76.51C3.24,67.8.5,67.51.05,67c-.44-1.11,2.12-2.54,3.2-4a50.12,50.12,0,0,0,4.88-7.88,22.72,22.72,0,0,1,4.06-5.78c4.53-5.39,10.59-8.08,17.25-9.59,3.55-.81,10.42-3.06,12.09-4.91a65.67,65.67,0,0,1,5.9-19.22c1.31-2.74,3-4.38,6.57-3.72,2.46,1,3.56,4.51,5.76,7.91,2.4,3.72,5,7.18,5.79,9.57.75-.2,14.58.21,14.93-.2,1-1.15,1.41-9.53,2.22-11.77.54-1.5,1.7-5.26,3.49-4.55.55.22,1.37,2.26,1.64,2.81a46.67,46.67,0,0,1,2.32,7.46c1.11,5.28,1.66,5.81,2.06,11.2a2.91,2.91,0,0,0,1.62,2.53c2.33,1.94,3.75,4.11,5.81,6.58,5.67,6.79,2,14.88-1.09,17.48-4.45,3.75-5.39,4.21-8.13,5.31-1.78.55-2.46,1.23-4.61,2A20.2,20.2,0,0,0,86.17,72.37ZM83.25,87a3.12,3.12,0,0,0,2.35-.3,14.88,14.88,0,0,0,.8-6.57c-.45-4.58-1.93-6.1-1.88-10.36.12-1.3.54-2.06,1.31-2.41,3.4-1.56,4-2.19,7.39-4.16,4.18-2.39,7.51-5.31,7.94-10.36a7.19,7.19,0,0,0-.51-3.66,16.25,16.25,0,0,0-4.18-8.16c-1.93-1.6-4.47-3.55-5.24-5.52-.45-1.11-.59-3-1-4.6s-1.67-7.75-3-13.1c-.24-1-.75-3-1.58-2.9s-1.42,2.41-2.14,4.31c-.6,1.59-.4,3-.56,5.06s-.2,4.38-.69,5.59a2.76,2.76,0,0,1-2.55,1.68,6.23,6.23,0,0,1-1,.1c-.58,0-9.35-.37-12.86-.46a2.25,2.25,0,0,1-2.42-1.68c-.29-.91-.72-1.78-1.08-2.68-.52-1.27-4.52-8.28-4.77-8.62-1-1.36-2-2.8-3.09-4-1.28-1.4-2.65-1.28-4,.14a10.45,10.45,0,0,0-1.66,2.76A69.06,69.06,0,0,0,43.1,34.38a3.1,3.1,0,0,1-1.13,2c-1,.51-1.43.79-2.89,1.62a9.46,9.46,0,0,1-3.45,1.36,40.34,40.34,0,0,0-16.77,6.18,22.51,22.51,0,0,0-7,6.46c-2.09,3.33-2.79,7.34-3,11.69a51.66,51.66,0,0,0,1.4,16.77,16.94,16.94,0,0,0,3.95,7.54c.78.75,3.56,2,4.59,1.49s.86-2.76.82-3.64a44.18,44.18,0,0,1-.12-4.49c.51-1.62.86-1.71,3.35-1.63C30.69,80,38.14,79,46,78.66c1.74-.07,2.24.35,3.27,2.17.34.6,3.08,5.26,4.93,6.86.7.61,2.83,1.48,3.79,1s1.73-1.23,1.69-2.08c-.07-1.46-.26-2.92-.39-4.39.29-1.14.25-2.09,1.05-3,4.39-.36,7.52-.31,11.92-.41.73,0,5.07-1.45,5.51-1.14s1.35,3.63,1.67,4.33S81.73,86.86,83.25,87Z"/><path class="cls-3" d="M83.65,34.43c-3.15.21-7.31-.57-12.26-.57a51.71,51.71,0,0,1-8.19-.64c-3-.26-2.21-4.33,1.25-5.82,2.47-1.07,8.07-.93,9.94-.83s5.82.85,8.72,1.37C88,28.8,87.78,34.15,83.65,34.43Z"/><path class="cls-5" d="M82.83,33.5c-2.79.16-6.48-.43-10.86-.43a54,54,0,0,1-7.26-.48c-2.63-.2-2-3.28,1.11-4.41,2.19-.81,7.4-.31,9.06-.24s5.16.65,7.73,1C86.94,29.63,86.5,33.3,82.83,33.5Z"/><path class="cls-1" d="M10.12,55.77c-1.71,2.36-4.87,6.72-6.7,8.66-1.23,1.31-2.41,2-.25,2.22a18,18,0,0,0,4-.42,13.59,13.59,0,0,1,1.64-.3C8.76,64.1,9.81,57.87,10.12,55.77Z"/><path class="cls-6" d="M58.17,29.52c-1,1.2-3.59,1.9-4.56,2.3-1.15.47-2.26,1-3.43,1.48-1.35.5-2.38-.3-2.07-1.68.71-3.14,1.68-8.23,3.31-11,.51-.85,1.37-.74,2.09-.25C54.7,21.21,57.25,27,58.17,29.52Zm-4.93-5.13a27.16,27.16,0,0,0-3,6.72,11.12,11.12,0,0,0,3-1.51C51.62,28,54.93,26.36,53.24,24.39Z"/><path class="cls-7" d="M52.85,21.22c1.68,2,3,5.28,3.86,7.79-.9.81-6,2.14-7.08,2.67C50.21,29.19,51.65,23.47,52.85,21.22Z"/><path class="cls-6" d="M76.51,74.38a18.31,18.31,0,0,1,1.89,4,13.16,13.16,0,0,0,.7,2.3A12.05,12.05,0,0,0,80,83.2c-.44-.19-1.2-.24-1.54-.7a10.85,10.85,0,0,1-1-2.68A40.14,40.14,0,0,1,76.51,74.38Z"/><path class="cls-6" d="M32.92,83.81c-.51-.83-1.16-2.92-2.62-3.91a43.21,43.21,0,0,0,2.94,6.74c1.06,1.92,3.2,3.81,5.2,3.41s2-1.66,2.35-3.58a23.51,23.51,0,0,0,.63-3.65,8.41,8.41,0,0,0-.34-3.38,11.28,11.28,0,0,0-.67,3.38c-.11.82-.11,1.86-.27,3s-.51,2.51-1.71,2.81a3.5,3.5,0,0,1-3.57-1.58C34,85.7,33.27,84.37,32.92,83.81Z"/><path class="cls-6" d="M60.1,75.91a14.89,14.89,0,0,1,.47,3.94c-.09,1.7,0,1.83,0,2.74s.26,3.16.26,3.16l-1.09.48a28.39,28.39,0,0,1-.46-4C59.32,80.88,59.1,76.93,60.1,75.91Z"/><path class="cls-1" d="M86.35,79.75c-1.7-.58-5.75,1.06-7.35,1.62a9.55,9.55,0,0,0,2.49,4.89,3.66,3.66,0,0,0,4.52.66C87.11,85.75,86.63,82.29,86.35,79.75Z"/></g></g></svg>