<svg xmlns="http://www.w3.org/2000/svg" viewBox="0 0 222.8 206.69"><defs><style>.cls-1{fill:#f9f043;}.cls-2{fill:#7c6218;}.cls-3{fill:#67a01d;}.cls-4{fill:none;}.cls-5{fill:#fdfdfc;}.cls-6{fill:#f6c17a;}.cls-7{fill:#0e0e0d;}.cls-8{fill:#e4c3d5;}</style></defs><title>Corgi_L</title><g id="Layer_2" data-name="Layer 2"><g id="Layer_1-2" data-name="Layer 1"><path d="M175.73,29.33a79.22,79.22,0,0,1,8.65,6.94l19.69-24.43L193.82,0Z"/><path d="M190.67,23c4.08-8.34,13.3-7.07,18.94-.9s10.48,16.72,12.9,16.9-10.88-.54-18.54,0S186.64,31.21,190.67,23Z"/><path d="M3.41,139.75C6,115.27,18.87,83.23,39.68,64.31S93.13,20.24,129,26.1c30,4.9,57.78-5.35,59.51-4.05s-.82,14.82.08,23.85c.79,7.9,25.74,44.62-4.42,87.31s-59.15,68-92.06,71c-57,5.1-83.62,1.71-88.74-3.81C-2.44,191.19.39,168.26,3.41,139.75Z"/><path class="cls-1" d="M6,139.14c2.53-23.81,15-55,35.29-73.37s52-42.88,86.94-37.17c29.14,4.76,56.22-5.2,57.9-3.94s-.8,14.42.08,23.2c.77,7.68,25,43.4-4.31,84.92s-57.54,66.17-89.57,69C36.84,206.77,11,203.47,6,198.1.28,189.18,3,166.87,6,139.14Z"/><path class="cls-2" d="M178.62,30.36c2.88,2.82,4.69,4.62,4.69,4.62l17.51-22.91-6.18-8.24Z"/><path class="cls-3" d="M192.2,23.4c3.4-7.69,11.07-6.51,15.77-.83S216.7,38,218.71,38.14s-9.06-.5-15.44,0S188.85,31,192.2,23.4Z"/><path class="cls-4" d="M152.68,98.8a9.5,9.5,0,0,1,2.56.56A9.5,9.5,0,0,0,152.68,98.8Z"/><path class="cls-4" d="M135.8,123.7c1.66,2.46,3.87,4.21,7.49,3.86a6.83,6.83,0,0,1,.41,1.69c0-.6-.09-1.21-.15-1.75A8.47,8.47,0,0,1,135.8,123.7Z"/><path class="cls-4" d="M70,123.88c-.2-1.83-.41-3.65-.61-5.48a66.52,66.52,0,0,1-2.86-6.05,66.52,66.52,0,0,0,2.86,6.05c.2,1.83.41,3.65.61,5.48Z"/><path class="cls-4" d="M119.74,88.84l0,0h0Z"/><path class="cls-5" d="M143.7,129.25c-.07-.57.26-1.78,0-2.33-3.62.34-6.28-.76-7.94-3.22-2.07-3.08-4.11-3.92-6.31-7-3.2-4.39-5.29-10-8.46-14.36-1.63-2.26-2.5-6.28-2.7-9a5.36,5.36,0,0,1,1.38-4.61h0a8.36,8.36,0,0,0-3.34-2.09,1.26,1.26,0,0,1,.6,1.59c-.9,2.33-1.64,3.9-3.91,5.05-2.43,1.24-4.55,1.53-6.38-1.31-1.42-2.19-2.07-5.65-.79-6.85l-.31.08c-1.26.51-2.47.89-3.77,1.56h0a10.49,10.49,0,0,1,.46,3c-.07,3-1.59,12.1-5.68,14.66-7,4.33-13.45,6.74-19.29,12.27-1.74,1.65-5.84.31-8,1.64.2,1.83.41,3.65.61,5.48h0c1.22.45,15,12.15,32.32,13.76,19,1.77,41.46-6.56,41.46-6.56C143.75,130.57,143.74,129.93,143.7,129.25ZM114.47,102.8a14.64,14.64,0,0,1-3,3.36c-3.07,2.18-4.35,2.1-5.86-.7-1.07-2-2.24-4.41-2.17-6.61s1-3.34,3.63-3a19.56,19.56,0,0,1,4.94,1C115.1,98,116,100.17,114.47,102.8Z"/><path class="cls-6" d="M118.33,93.43c.2,2.68,1.07,6.7,2.7,9,3.17,4.4,5.26,10,8.46,14.36,2.2,3,4.24,3.87,6.31,7a8.47,8.47,0,0,0,7.75,3.8,3.88,3.88,0,0,0-.44-1.76c-2.11-1.48-.68-2.57.36-3.75a103.26,103.26,0,0,0,6.84-8.61q1.58-2.22,3-4.51c1-1.53,1.88-3.09,2.76-4.66.13-.24.22-.46.32-.68a5.35,5.35,0,0,0,.54-1.86,2.8,2.8,0,0,0,0-.51,2.09,2.09,0,0,0-.28-.73,2.83,2.83,0,0,0-1.4-1.07,9.5,9.5,0,0,0-2.56-.56,62.18,62.18,0,0,0-10.57,0c-1.25.08-2.51.17-3.77.34a22.5,22.5,0,0,0-3.84.86c.38,1.94,1.58,4.09,1.58,5.11,0,.72-4.14-5.26-4.43-5.69-1.47-2.06-6.09-6.65-11.91-10.53l0,0A5.36,5.36,0,0,0,118.33,93.43Zm25.14,10.25c1.62-.69,3.16-1.52,4.8-2.16,1.9-.74,3.47.18,3.15,1.94-.71,4-2.61,7.63-4.7,11.19-.65,1.1-1.89,1-3,.49-1.78-.91-4.32-5-5.89-8.06C139.17,105.49,142.1,104.26,143.47,103.68ZM122.14,98a2.87,2.87,0,0,1,2.76-2,2.76,2.76,0,0,1,2.82,2.28c.31,2-1.38,4.68-3.27,4.58S121.29,100.05,122.14,98Z"/><path class="cls-6" d="M77.3,116.76c5.84-5.53,12.34-7.94,19.29-12.27,4.09-2.56,5.61-11.63,5.68-14.66a10.49,10.49,0,0,0-.46-3h0c-.81.34-1.66.62-2.43,1-2.75,1.43-7.65,3.2-12.29,6.63a40.64,40.64,0,0,0-3.74,3.15c-1.28,1.7-2.77,4.51-4,6.22-.18-.53.24-2.22,1-4,1-2.26,2.52-4.2,3-4.4A54.49,54.49,0,0,0,65,89.78a6.19,6.19,0,0,0-1,0,3.65,3.65,0,0,0-1.54.43,2.93,2.93,0,0,0-1.3,3.24,90.25,90.25,0,0,0,5.3,18.94,66.52,66.52,0,0,0,2.86,6.05C71.46,117.07,75.56,118.41,77.3,116.76Zm16-24.63a3.05,3.05,0,0,1,3.53,1.35c1,1.77.48,4.81-1.35,5.25s-4-1.7-4-3.92A2.55,2.55,0,0,1,93.3,92.13ZM68.44,107.29a33.2,33.2,0,0,1-3.09-11.6c-.15-1.24.94-1.77,2.21-1.82,2.06-.09,6.78,2.18,10,4-.12,2-1.81,4.4-2.59,5.52-.93,1.35-1.7,2.77-2.68,4.08C71.16,109,69.28,108.92,68.44,107.29Z"/><path class="cls-7" d="M112,96.78a19.56,19.56,0,0,0-4.94-1c-2.58-.31-3.56.73-3.63,3s1.1,4.62,2.17,6.61c1.51,2.8,2.79,2.88,5.86.7a14.64,14.64,0,0,0,3-3.36C116,100.17,115.1,98,112,96.78Zm.28,6c-1,1.27-2.06,2.68-4.19,3-1.92-2.32-3.4-7.46-1.92-8s2.73.34,4,.57C113.7,98.93,114.34,100.22,112.29,102.74Z"/><path class="cls-7" d="M72.29,107.43c1-1.31,1.75-2.73,2.68-4.08.78-1.12,2.47-3.55,2.59-5.52-3.22-1.78-7.94-4-10-4-1.27,0-2.36.58-2.21,1.82a33.2,33.2,0,0,0,3.09,11.6C69.28,108.92,71.16,109,72.29,107.43ZM67.36,95.5c3.66.7,4.74,1.39,7.94,3.25-.33,1.49-4.23,6.1-5,7.47C68.76,103.27,67.93,98.66,67.36,95.5Z"/><path class="cls-8" d="M110.22,98.34c-1.31-.23-2.56-1.06-4-.57s0,5.64,1.92,8c2.13-.31,3.15-1.72,4.19-3C114.34,100.22,113.7,98.93,110.22,98.34Z"/><path class="cls-8" d="M67.36,95.5c.57,3.16,1.4,7.77,2.89,10.72.82-1.37,4.72-6,5-7.47C72.1,96.89,71,96.2,67.36,95.5Z"/><path class="cls-7" d="M67.6,122.13,70,123.88c-.2-1.83-.41-3.65-.61-5.48a66.52,66.52,0,0,1-2.86-6.05,90.25,90.25,0,0,1-5.3-18.94,2.93,2.93,0,0,1,1.3-3.24A3.65,3.65,0,0,1,64,89.74a6.19,6.19,0,0,1,1,0A54.49,54.49,0,0,1,83.3,95.47c-.48.2-2,2.14-3,4.4-.76,1.77-1.18,3.46-1,4,1.28-1.71,2.77-4.52,4-6.22a40.64,40.64,0,0,1,3.74-3.15c4.64-3.43,9.54-5.2,12.29-6.63.77-.39,1.62-.67,2.43-1h0c1.3-.67,2.51-1,3.77-1.56l.31-.08a1.61,1.61,0,0,1,.9-.42c2.41-.28,7.95,1,8.94,1.54a5.43,5.43,0,0,1,.64.4,8.36,8.36,0,0,1,3.34,2.09h0l0,0c5.82,3.88,10.44,8.47,11.91,10.53.29.43,4.43,6.41,4.43,5.69,0-1-1.2-3.17-1.58-5.11a22.5,22.5,0,0,1,3.84-.86c1.26-.17,2.52-.26,3.77-.34a62.18,62.18,0,0,1,10.57,0,9.5,9.5,0,0,1,2.56.56,2.83,2.83,0,0,1,1.4,1.07,2.09,2.09,0,0,1,.28.73,2.8,2.8,0,0,1,0,.51,5.35,5.35,0,0,1-.54,1.86c-.1.22-.19.44-.32.68-.88,1.57-1.8,3.13-2.76,4.66s-2,3-3,4.51a103.26,103.26,0,0,1-6.84,8.61c-1,1.18-2.47,2.27-.36,3.75a3.88,3.88,0,0,1,.44,1.76c.06.54.12,1.15.15,1.75s.05,1.32,0,1.83l1.51-.71a31.81,31.81,0,0,0-.33-4.15,4.68,4.68,0,0,1,1.2-4.11c4.39-5,9.11-10.78,12.28-16.43,3.05-5.45.79-8.9-6.23-9.33a61.85,61.85,0,0,0-17.66,1c-1.55.37-7.12-5.68-9.91-8-9.22-9.05-22.19-6.27-26.44-3.13a94.73,94.73,0,0,1-13,7.7c-1.18.42-2.65-1.1-6.62-3.33s-8.47-2.83-13-3.22c-4.79-.4-7.63,2-7.05,6.19a76.93,76.93,0,0,0,7.05,23.31"/><path class="cls-7" d="M143.72,115.14c1.11.55,2.35.61,3-.49,2.09-3.56,4-7.21,4.7-11.19.32-1.76-1.25-2.68-3.15-1.94-1.64.64-3.18,1.47-4.8,2.16-1.37.58-4.3,1.81-5.64,3.4C139.4,110.1,141.94,114.23,143.72,115.14Zm5.51-11.64c-.6,3.18-2.81,7.43-4.31,10.36-2.63-2.31-3.11-3.41-4.62-6.47C141.51,106.29,147.68,104.27,149.23,103.5Z"/><path class="cls-8" d="M149.23,103.5c-1.55.77-7.72,2.79-8.93,3.89,1.51,3.06,2,4.16,4.62,6.47C146.42,110.93,148.63,106.68,149.23,103.5Z"/><path d="M106.68,92.06c1.83,2.84,3.95,2.55,6.38,1.31,2.27-1.15,3-2.72,3.91-5.05a1.26,1.26,0,0,0-.6-1.59,5.43,5.43,0,0,0-.64-.4c-1-.54-6.53-1.82-8.94-1.54a1.61,1.61,0,0,0-.9.42C104.61,86.41,105.26,89.87,106.68,92.06Z"/><path d="M95.48,98.73c1.83-.44,2.39-3.48,1.35-5.25a3.05,3.05,0,0,0-3.53-1.35,2.55,2.55,0,0,0-1.84,2.68C91.46,97,93.65,99.18,95.48,98.73Z"/><path d="M124.45,102.81c1.89.1,3.58-2.61,3.27-4.58A2.76,2.76,0,0,0,124.9,96a2.87,2.87,0,0,0-2.76,2C121.29,100.05,122.55,102.7,124.45,102.81Z"/><path d="M67.6,122.13c4.47,3.63,20.3,12.16,30,13.33,20.15,2.43,41.79-2.25,47.61-5.67a5.69,5.69,0,0,1-.59,3.21,200.11,200.11,0,0,1-36.06,4.76c-22.39.63-40.78-11.55-40.68-13.18A9,9,0,0,0,67.6,122.13Z"/></g></g></svg>