<svg xmlns="http://www.w3.org/2000/svg" viewBox="0 0 159.79 147.4"><defs><style>.cls-1{fill:#62ff06;}.cls-2{fill:#1fffff;}.cls-3{fill:#a924ff;}.cls-4{fill:#ff27f0;}.cls-5{fill:#fdfdfc;}.cls-6{fill:#f6c17a;}.cls-7{fill:#0e0e0d;}.cls-8{fill:#e4c3d5;}.cls-9{fill:#ffff29;}.cls-10{fill:#00ffe0;}.cls-11{fill:#ff2cfa;}</style></defs><title>Corgi_R</title><g id="Layer_2" data-name="Layer 2"><g id="Layer_1-2" data-name="Layer 1"><polygon class="cls-1" points="75.35 147.4 68.07 147.22 100.87 0 120.16 0.04 75.35 147.4"/><polygon class="cls-2" points="110.51 146.37 104.73 146.37 30.22 0.02 57.43 0.36 110.51 146.37"/><polygon class="cls-3" points="91.24 147.03 87.42 147.22 0 0.51 13.68 0.02 91.24 147.03"/><polygon class="cls-4" points="79.01 147.22 82.84 147.22 158.16 0.02 138.36 0.57 79.01 147.22"/><path class="cls-5" d="M92.93,124.62c-6.13-.85-12.32-9.38-15.9-14.28a10.94,10.94,0,0,1-2.29-6.26c.71.16-1-8.85-2.18-11.14-.42-.84,1.33-3.13.44-2.79-1.42-1.34-2.37-1.4-4.12-1.46a30.85,30.85,0,0,1-10.1-2,7.16,7.16,0,0,1,.29-3c2.32.28,3.75-1,4.83-2.8,1.35-2.26,1.88-4.9,3.31-7.12,2.08-3.22,4.17-6.43,6.23-9.65a11.56,11.56,0,0,0,1.88-5.45,4.35,4.35,0,0,0-.85-3.41c.6-.69,3.59-4.33,6.06-3.86,1.44.28,2.11,1.14,3.49.77.78-.21,1.66,1.52,2.28,1.19.28-.16,0,2-.08,2.63s1,6.1,3.61,8c4.41,3.25,8.94,6.29,12.63,10.41a25.17,25.17,0,0,0,4,3c-.14,1.35-.29,2.69-.43,4-1.65.69-3.79,3-5.08,4.32-.89-.21,5.72,4.39,5.74,8.18,3.63,2.09,3.57,15.45,7.39,17.19a20.68,20.68,0,0,1,6.9,5.1c.93,1,2.71.7,3.33,2.42.39,1.11-5.79,5.58-7.21,7.15,1.43,1.21,5.49,10.68,3.79,11.82-1.27.85-7.86-6.42-9.88-6.44-2.43-.31-5,3.52-7.62,3C98.43,133.17,97.63,125.27,92.93,124.62Zm24.34,2c1.43,1.21,5.57,4,3.43,10.74-2.34-.44-9.19-4.81-11.2-4.83"/><path class="cls-6" d="M73.9,90.14c-1.42-1.35-3.27-1.39-5-1.45a30.85,30.85,0,0,1-10.1-2,39.81,39.81,0,0,0,1.58,15.73c3.43,11.67,12,26.39,23.27,31.38,10.84,4.76,10.09,4.19,17.49,2,1.36-.42,2.08.12,5.59-2.23-2.65-.93-6.65-8-13.78-8.95-6.13-.85-12.32-9.38-15.9-14.28C75.69,108.5,73.41,91.86,73.9,90.14Z"/><path class="cls-6" d="M59.2,82.32c1.36-1.07.46-1.89-.19-2.77a74,74,0,0,1-7.93-13.21c-1.15-2.45-.47-3.68,2.22-4a35.51,35.51,0,0,1,6.76,0,17.07,17.07,0,0,1,4.86,1c0,1-.25,1-.48,1.86a7.74,7.74,0,0,0-.35,1.53c0,.42,1.22-1.81,1.41-2.12a32.42,32.42,0,0,1,9-9.38,4.35,4.35,0,0,1,.85,3.41,16.35,16.35,0,0,1-1.8,6.59c-2.06,3.23-3.45,7.32-5.53,10.54-1.43,2.22-2.74,2.83-4.09,5.09a5.22,5.22,0,0,1-5.2,2.74C58.49,83.13,58.92,82.55,59.2,82.32Z"/><path class="cls-6" d="M85.63,56.11a8.72,8.72,0,0,1,.31-2.2c.52.25,1.29,0,1.78.32,4.2,2.57,8.36,5.2,10,6.17a31.71,31.71,0,0,1,11.77-4.07c1.72-.24,2.68,1,2.4,2.71a67.87,67.87,0,0,1-5.43,18.38c-1.34-1-4,0-5.07-1.26-3.69-4.13-7.84-6-12.25-9.2C86.55,65.05,85.64,58.34,85.63,56.11Z"/><path class="cls-6" d="M106.69,94c.45.47,3.57,15.45,7.39,17.19a20.68,20.68,0,0,1,6.9,5.1c1.54,1.7,1.7,2.4,4.13,2.58.86-1.69,3.89-2.4,4.42-4.21-2.19-1.39-4.93-6.27-5.82-8.74a11,11,0,0,1-5-.74C116.46,104,109,88.25,106,81.46a13.54,13.54,0,0,0-4.56,2.71,5.48,5.48,0,0,0-.76,2.92c2.17,1.19,4.42,4.62,4.77,5.31A5.89,5.89,0,0,0,106.69,94Z"/><path class="cls-5" d="M126.67,105.37c1.83-.57,4.16-1,4.5,1.19.13.74.62,2.21.37,2.91-.51,1.48-1.46,3.68-2,5.15-2.19-1.39-5.6-6-6.49-8.5C124,105.34,124.84,106,126.67,105.37Z"/><path class="cls-7" d="M100.22,87.67c.17-.59,1.92-2.5,2-4.13-.8.83-5.68,4.81-6.57,6.49s-1,3.52.31,4.87,5,.79,6.69.09c1.24-.52,4.22-2.08,4.76-2.95a17.41,17.41,0,0,0-4.92,1.56c-1,.65-4.63,1.37-5.47.59s-.62-2.38,0-3.4C97.81,89.4,100.05,88.26,100.22,87.67Z"/><path class="cls-7" d="M74.52,91.48A11.21,11.21,0,0,1,71.15,90c1.14-.14,4.13.56,6,.86s4.32,1.6,4.59,3.47-1.1,2.2-2.66,3.11a17.67,17.67,0,0,1-3,1.51,7.51,7.51,0,0,1-3,.4c.46-.6,2-1,2.7-1.36a24.45,24.45,0,0,1,2.63-1.16c1.12-.42,2.21-.94,2.09-2.08a2.77,2.77,0,0,0-2.42-2.26A13.06,13.06,0,0,1,74.52,91.48Z"/><path class="cls-7" d="M107.8,59.33c.82.05,1.5.45,1.4,1.36a27.6,27.6,0,0,1-2.07,8.54c-.55,1.19-1.76,1.2-2.47.08s-1.1-2-1.68-3a10.38,10.38,0,0,1-1.61-4.1C103.44,60.89,106.48,59.25,107.8,59.33Zm-3.33,5.5a10,10,0,0,0,1.35,2.8,25.11,25.11,0,0,0,1.62-6.6C105.09,61.52,106.62,64.57,104.47,64.83Z"/><path class="cls-8" d="M107.92,60.53a11.85,11.85,0,0,0-5.11,2.35c.2,1.1,2.66,4.53,3.17,5.55A36.79,36.79,0,0,0,107.92,60.53Z"/><path class="cls-7" d="M71.35,55.61c6-6.61,14.25-4.47,16.94-2.12a60,60,0,0,0,8.25,5.77c.75.32,1.7-.79,4.27-2.41s5.43-2,8.34-2.29c3.07-.26,4.87,1.56,4.46,4.62a63.68,63.68,0,0,1-4.69,17.16c-2.77,6.29,2.58,16.83,5.68,21.35s3,6,5.35,6.85,3.11,1.26,6,.17c2.06-.77,3.14-1.2,3.94-.74a4.17,4.17,0,0,1,2.39,3.47,10,10,0,0,1-.94,4.91c-1.71,4.63-10.08,9.77-13,13.74.25,1.7,2.1,2.26,3.19,4.31a13.18,13.18,0,0,1,.77,4.66c-.34,2.61-.77,3.65-2.87,2.47a54.79,54.79,0,0,0-10.86-4.5c-1.39.61-3.23,1.58-4.65,2.1-4.58,1.68-4.62,5-12.74,3.29C84.84,137.06,71.8,126.3,68,121.5c-2.35-3-12.06-22.06-10-38.84a3.85,3.85,0,0,0-.73-3,76.37,76.37,0,0,1-7.73-12.21c-1.91-4-.43-6.58,4.06-6.84a34.31,34.31,0,0,1,11.29.89C65.93,61.74,69.55,57.32,71.35,55.61ZM97.67,62a28,28,0,0,0-2.37-2.35c-2.94-2.57-6.06-3.91-7.81-5a17.11,17.11,0,0,0-1.55-.76,23.1,23.1,0,0,0-2.4-1.18c-1.14-.56-6.77.72-6.89,1a5.22,5.22,0,0,0-2.18,1.53,36.45,36.45,0,0,0-7.72,7.7c-.19.31-2.89,4.7-2.88,4.17,0-.76.79-2.33,1.05-3.76a17.07,17.07,0,0,0-4.86-1,35.51,35.51,0,0,0-6.76,0c-2.69.29-3.37,1.52-2.22,4A74,74,0,0,0,59,79.55c.65.88,1.55,1.7.19,2.77-.28.23-.5,3.32-.42,4.33-.6,5.36.71,10.7,2.22,15.82,3.43,11.67,12.71,25.56,22.13,30.67,10.4,5.65,9.27,4.35,17.7,2A56.47,56.47,0,0,0,108,132c2.13-.26,11,3.43,12.37,5.13.47-.21,1.11-4,0-6-1.35-2.45-4.5-4.12-4.21-4.84,1.38-2.49,4.25-4.39,6.1-6.47,1.26-1.41,5.51-4,6.54-6,.71-1.3,2.3-4.91,2.18-5.65-.35-2.15-1.07-3.54-3.8-2.64s-6.14,1.34-8.29.14S107,89,106,81.46c.14-1.35.29-2.69.43-4A67.87,67.87,0,0,0,111.89,59c.28-1.7-.68-2.95-2.4-2.71A31.71,31.71,0,0,0,97.72,60.4a8.74,8.74,0,0,1,1.88,3.27,7.31,7.31,0,0,1,.61,3C99.41,65.35,98.47,63.27,97.67,62Z"/><path class="cls-7" d="M58.9,74.49c-.71.4-1.51.44-1.92-.38a27.57,27.57,0,0,1-2.91-8.29c-.19-1.3.82-2,2-1.41,1,.48,2,1.11,3.06,1.63a10.37,10.37,0,0,1,3.58,2.55C61.7,70.81,60.05,73.84,58.9,74.49Zm-.2-6.43A9.89,9.89,0,0,0,56,66.45a25,25,0,0,0,2.23,6.41C60,71.17,57,69.45,58.7,68.06Z"/><path class="cls-8" d="M58.15,73.54a11.83,11.83,0,0,0,3-4.74c-.76-.82-4.69-2.36-5.68-2.93A36.57,36.57,0,0,0,58.15,73.54Z"/><path class="cls-5" d="M99,141.67c.48,3-2.76,5.54-4.5,4.44-.6-.38-1.5-2.71-1.84-3.32-.72-1.29-1.52-5.42-2.22-6.73,2.36-.67,7.73-1.7,10-.78C100.37,136.47,99,140.48,99,141.67Z"/><path d="M82.77,52.35A14.61,14.61,0,0,0,77,53.43c-.64.39-1,.79-.81,1.46.56,1.72,1,2.89,2.46,3.75s2.9,1.16,4.1-.92C83.88,55.82,84.31,52.58,82.77,52.35Z"/><path class="cls-7" d="M99,139c.28-.62,1.16-3.12,2.29-3.69.09,1.28-1.06,5.06-1.51,7.12s-2,4.67-4.17,4.81-2.41-1.41-3.34-3.22a20.58,20.58,0,0,1-1.53-3.42c-.27-.94-1-3.29-.27-3.37.74.24,1,2.32,1.37,3.1a27.62,27.62,0,0,1,1.15,3c.41,1.29.92,2.54,2.22,2.51a3,3,0,0,0,2.68-2.5A22.81,22.81,0,0,1,99,139Z"/><path d="M87.67,57.56c-.46,1.07,0,2,1.13,2.62a2.62,2.62,0,0,0,3-.35c.14-.09.11-.51,0-.72s-.45-.27-.76-.19C88.91,59.52,88.91,59.52,87.67,57.56Z"/><path d="M73.72,59.19c.58,1,.2,2-.82,2.73a2.63,2.63,0,0,1-3.07,0c-.15-.08-.17-.5-.09-.72s.41-.32.72-.27C72.71,61.28,72.71,61.28,73.72,59.19Z"/><path d="M82.49,64.57c.85-.26.43,2.17-.59,2.62-1.6.71-2.52.33-2.75-.15a1.24,1.24,0,0,1-.12-.7c.08-.26.36-.29.64-.23C81.7,66.56,81.64,64.84,82.49,64.57Z"/><path d="M139.67,104.58c.38-.17-2.36-4.1-5.32-5.79-3.19-1.83-5.67-2.37-6.17-1.8s.07.68.38.6c1.15-.3,4,.74,4.61,1.15C135.12,99.72,136.66,101.06,139.67,104.58Z"/><path d="M142.19,103.18c.52-.24-3.17-5.5-7.14-7.78-4.27-2.45-7.6-3.18-8.28-2.41s.1.91.52.8c1.53-.39,5.37,1,6.18,1.55C136.09,96.66,138.15,98.46,142.19,103.18Z"/><path d="M146.51,102.11c.57-.15-4.87-6.71-10-10-5.58-3.57-9.69-5-10.34-4.33s.3,1,.78,1c1.74-.13,6.59,2.18,7.66,3C138,93.68,140.76,96.08,146.51,102.11Z"/><polygon class="cls-9" points="2.76 31.4 0 33.8 1.58 34.64 3.94 32.34 2.76 31.4"/><polygon class="cls-9" points="34.2 28.17 31.44 30.56 33.02 31.4 35.38 29.1 34.2 28.17"/><polygon class="cls-9" points="58.22 39.24 55.46 41.63 57.04 42.48 59.4 40.18 58.22 39.24"/><polygon class="cls-10" points="86.32 22.43 89.18 24.71 89.72 23 87.03 21.1 86.32 22.43"/><polygon class="cls-11" points="99.67 40.39 102.53 42.66 103.07 40.96 100.38 39.06 99.67 40.39"/><polygon class="cls-11" points="38.72 87.1 41.58 89.38 42.12 87.67 39.43 85.77 38.72 87.1"/><polygon class="cls-11" points="149.32 35.98 152.18 38.25 152.72 36.54 150.03 34.64 149.32 35.98"/><polygon class="cls-11" points="83.93 3.2 86.78 5.47 87.33 3.76 84.63 1.86 83.93 3.2"/><polygon class="cls-9" points="84.02 39.67 80.56 40.84 81.69 42.22 84.75 40.98 84.02 39.67"/><polygon class="cls-9" points="38.72 9.85 41.58 12.12 42.12 10.41 39.43 8.51 38.72 9.85"/><polygon class="cls-11" points="52.07 27.8 54.93 30.08 55.47 28.37 52.78 26.47 52.07 27.8"/><polygon class="cls-11" points="11.41 65.17 7.95 66.34 9.09 67.72 12.15 66.49 11.41 65.17"/><polygon class="cls-9" points="105.92 13.27 109.49 12.54 108.54 11.03 105.35 11.87 105.92 13.27"/><polygon class="cls-10" points="128.25 14.58 131.83 13.85 130.87 12.34 127.68 13.18 128.25 14.58"/><polygon class="cls-9" points="117.64 26.11 116.31 29.51 118.1 29.52 119.13 26.39 117.64 26.11"/><polygon class="cls-9" points="133.88 58.86 137.46 58.13 136.5 56.62 133.31 57.46 133.88 58.86"/><polygon class="cls-9" points="156.22 60.17 159.79 59.44 158.84 57.93 155.65 58.77 156.22 60.17"/><polygon class="cls-10" points="23.2 106.04 26.78 105.31 25.82 103.8 22.64 104.64 23.2 106.04"/><polygon class="cls-10" points="152.65 88.3 151.32 91.7 153.11 91.72 154.13 88.58 152.65 88.3"/><polygon class="cls-9" points="23.24 78.04 20.48 80.43 22.05 81.28 24.42 78.97 23.24 78.04"/><polygon class="cls-9" points="51.15 121.17 48.39 123.56 49.97 124.41 52.34 122.11 51.15 121.17"/><polygon class="cls-11" points="45.01 109.73 47.86 112.01 48.41 110.3 45.71 108.4 45.01 109.73"/></g></g></svg>