<svg xmlns="http://www.w3.org/2000/svg" viewBox="0 0 72.16 170.56"><defs><style>.cls-1{fill:#deb4d4;}.cls-2{fill:#fcfcfc;}.cls-3{fill:#f6c17a;}.cls-4{fill:#0e0e0c;}.cls-5{fill:#0e0e0d;}.cls-6{fill:#966a35;}.cls-6,.cls-7{stroke:#b58555;stroke-linecap:round;stroke-linejoin:round;}.cls-7{fill:none;}</style></defs><title>Corgi_I</title><g id="Layer_2" data-name="Layer 2"><g id="Layer_1-2" data-name="Layer 1"><path class="cls-1" d="M62.87,54.41C56.82,39.94,49.16,42.35,33.54,44S7.47,46.51,6.32,60.52c-.91,11,13.84,9.6,29.46,7.91S65.22,60,62.87,54.41Z"/><path class="cls-1" d="M56.85,39.33C51.8,27.25,45.4,29.27,32.36,30.68S10.59,32.74,9.63,44.44c-.75,9.18,11.56,8,24.6,6.6S58.81,44,56.85,39.33Z"/><path class="cls-1" d="M15,29.49C15.62,24,18.69,19,28.47,18s16.3-2,18.91,6.78c2.06,6.88-7.16,8-16.94,9.07S14.39,34.62,15,29.49Z"/><path class="cls-1" d="M20.39,17.68C20.85,14,29.42,3.17,37.61,0c-2.41,8.37,3.7,8.49,5.51,14.39,1.42,4.64-5,5.43-11.91,6.17S20,21.14,20.39,17.68Z"/><path class="cls-2" d="M63.5,62.23c-1.38-.8-14.37-3.3-20.78-1.93s-10.12,2.56-12.49,3a102.31,102.31,0,0,0-14.76,5.23c-4.1,1.88-8,6.19-8.35,8.54S6,88.51,6.29,90.43s7.26,4.06,13.31,4.06,21.74.3,22.43,0,10.45-.13,12.68-.72c1.78-.47,4.91-7.36,5.28-7.53a56.68,56.68,0,0,0,5.33-2.17c1.64-.91,6.42-4.48,6.24-7.59-.23-4-1.08-8-3.48-9.44S65.05,63.14,63.5,62.23Z"/><path class="cls-3" d="M27.28,63.35c.65-.37,1.42-.42,2.13-.78a1.22,1.22,0,0,0,.63-1c.8-4.39-.54-3.7,1.33-7.73a11.5,11.5,0,0,1,1.46-2.52c.92-1,2.13-.58,3,.41s1.39.49,2.11,1.45c.18.24,2.72,1.92,3.36,3a9.61,9.61,0,0,1,.81,2.23c.26.63,0,1,2.57.84a64.66,64.66,0,0,1,7.6-.51c.42,1.25,2.3,4.66,2.66,5.93,1,3.62.22,6.44-3.24,9.3-2.56,2.12-2.55,1.79-4.11,2.35s-8.5-.43-10.22-1C32.22,73.39,27.33,64.51,27.28,63.35Z"/><path class="cls-3" d="M57.22,59.77a36.16,36.16,0,0,1,2.42-4.25c.88-1.24,4.27-3.73,5.5-3.72.75,0,.9,1.23,1.07,1.92.93,3.77.19,4-1.16,7-.12.27-1,2.26-.38,3.13a19.25,19.25,0,0,0,3.17,3.7c2.17,1.4,3.29,3.73,3.72,6.63-2.88-2.34-5.3-3-9-3.32-2.64-.21-4.77-2.66-5.6-5.21-.5-1.56-2-5.39-2.53-6.93A17.79,17.79,0,0,1,57.22,59.77Z"/><path class="cls-2" d="M41.2,96.41c-.89-.13-1.8-.23-2.68-.4a3.12,3.12,0,0,0-2.67.63,12.44,12.44,0,0,0,3.2,4,1.36,1.36,0,0,0,2.43-1.12C41.43,98.46,41.3,97.43,41.2,96.41Z"/><path class="cls-2" d="M13.1,96.92a8.21,8.21,0,0,0-5.16-.75,10.51,10.51,0,0,0,2.93,4.42,1.64,1.64,0,0,0,2,.44c.72-.37.5-1.11.47-1.73C13.28,98.51,13.18,97.72,13.1,96.92Z"/><path d="M61.73,71.73a14.54,14.54,0,0,0-5.49.72c-.6.3-1,.63-.83,1.24a5.15,5.15,0,0,0,2.23,3.36c1.31.94,2.5,1.24,3.71-.53C62.47,74.91,63.08,72.05,61.73,71.73Z"/><path class="cls-3" d="M41.88,97c.21-.81-.3-3.47.26-4.12-.36-1.17-1.16-1.32-1.68-2.46-1.25-2.72-3.16-3.82-5.63-5.41-1.71-1.11-4.88-6.25-6.78-9.45S26,63.87,25.26,64c-6.94.81-7.52,1.6-11.38,4.09-2.28,1.47-5.25,5.8-6.4,7.89a20.37,20.37,0,0,0-1.83,8.11c-.23,4.13,8.11,10.81,9.74,11.64.1-.26-2.08,1.15-2,.89C14,94.94,14,95,15.7,95s11.08-.52,16.62-.72c1.22,0,1,.12,1.62,1.23.23.43,1.13,1.21,1.37,1.67A3.16,3.16,0,0,1,38,96.56C38.86,96.74,41,96.88,41.88,97Z"/><path class="cls-4" d="M60.6,89.58c.76,3.5-6,5.37-5.94,4.74-.79-.21-2.89.5-4.18.53-2.2.05-5.62.26-7.82.21-.34.53-.08.79,0,1.7s.16,1.59.19,2.39a2.42,2.42,0,0,1-1.62,2.56c-1.27.65-2.4.14-3.41-.71a12.38,12.38,0,0,1-3.7-4.82c-.29-.66-.52-1.16-1.42-1.11s-8.72.28-9.89.37c-2,.14-4,.07-6,0-1.71,0-2.34.61-2.25,2.35,0,.8.16,1.6.14,2.4a2.18,2.18,0,0,1-2.49,2.28,4.15,4.15,0,0,1-3-1.7c-1.75-2.06,1.59-5.24,1-7.85-.3-1.35-4.47-5.64-4.73-7-.56.09-1.47.34-1.94.36-1.17.05-3.1-.16-3.41-.56C-.27,85,1.52,84,2.29,83a34.9,34.9,0,0,0,3.43-5.54,16.17,16.17,0,0,1,2.85-4.07c3.19-3.78,4.39-6.47,9.75-8.58,2.49-.57,10.36-1.77,11.53-3.07.5-4.33-.54-5.53,1.34-9.47.93-1.93,1.86-2.09,2.5-2a17.16,17.16,0,0,1,5.82,3.34c2.34,2,3.39,3.6,4,5.28A21.5,21.5,0,0,1,57,59.24c1.74-3.44,3-4.8,4.21-5.9.86-.75,2.8-3.18,4.06-2.68.39.15,1,1.59,1.15,2a5.9,5.9,0,0,1,.26,4,40.26,40.26,0,0,1-1.8,6.19A2,2,0,0,0,66,64.6a32.3,32.3,0,0,1,4.08,4.63,9,9,0,0,1-.76,12.29c-3.13,2.63-3.79,3-5.72,3.73-1.25.39-1.73.87-3.24,1.45A14.35,14.35,0,0,0,60.6,89.58ZM38,53.14c-1-1.09-4.82-2.55-5.14-1.86-1.88,4-2.25,5.71-2.45,10.78-.08.48-2.66,1.07-3.1,1.29a31.36,31.36,0,0,1-4.61,1.21c-4.43.7-4.11.75-8,3.25-2,1.3-5.25,5.69-6.37,7.47a16.92,16.92,0,0,0-2.14,8.23c-.23,4.13,3.81,5.91,4.87,10,.39,1.71-2.4,5.86-1.1,7.11.55.53,2.5,1.43,3.23,1.05s.6-1.94.57-2.55c0-.8-.14-1.59-.21-2.39.09-.26,0-.51.13-.77.35-1.15.61-1.21,2.35-1.15,5.55.17,10.79-.58,16.33-.79,1.22,0,1.58.25,2.3,1.53a25.42,25.42,0,0,0,3.46,4.82c.49.43,2,1,2.67.7S42,100.19,42,99.59c0-1-.18-2.06-.28-3.09a4.37,4.37,0,0,1,.75-2.12c3.08-.25,5.28-.22,8.38-.28.51,0,3.56-1,3.87-.81s4.71-2.52,4.74-5.51c.09-.92.38-1.45.93-1.7a51.57,51.57,0,0,0,5.19-2.92c2.94-1.69,5.28-3.74,5.58-7.29a4.93,4.93,0,0,0-.35-2.57,11.5,11.5,0,0,0-3-5.74c-1.35-1.13-3.14-2.5-3.68-3.88-.31-.78,2.73-5.75,1.8-9.52-.17-.68-.53-2.11-1.11-2a6.17,6.17,0,0,0-3.27,2,18.94,18.94,0,0,1-2.22,2.36,12,12,0,0,0-2,3.6,23.58,23.58,0,0,0-8-.72c-2.28.4-4.46-.21-6.46.72-.69-.62-.89-2.58-1.79-3.87"/><path class="cls-2" d="M7.12,77.9C5.91,79.56,3.69,82.63,2.41,84c-.87.93-1.7,1.45-.18,1.57A13.42,13.42,0,0,0,5,85.26a9.23,9.23,0,0,1,1.15-.21C6.16,83.76,6.9,79.38,7.12,77.9Z"/><path class="cls-5" d="M38,59.78c.39,1-.08.6-.65,1.26s-1.57.62-1.85-.34c-.62-2.18-.83-1-.74-3.23,0-.7.21-.45.83-.39C36.55,57.17,37.56,58.81,38,59.78Z"/><path class="cls-5" d="M53.81,91a12.88,12.88,0,0,1,1.33,2.82,8.57,8.57,0,0,0,.49,1.62c.21.58-.88.28-1.14-.62A26.82,26.82,0,0,1,53.81,91Z"/><path class="cls-5" d="M23.15,97.62c-.36-.58-.82-2.05-1.84-2.75a29.7,29.7,0,0,0,2.07,4.75C24.12,101,25.63,102.3,27,102s1.41-1.17,1.66-2.51a16.34,16.34,0,0,0,.44-2.58,5.89,5.89,0,0,0-.24-2.37,8,8,0,0,0-.47,2.37c-.08.58-.08,1.31-.19,2.14s-.36,1.76-1.2,2a2.51,2.51,0,0,1-2.52-1.11C23.92,99,23.4,98,23.15,97.62Z"/><path class="cls-5" d="M42.27,92.06a10.65,10.65,0,0,1,.33,2.78,18.61,18.61,0,0,0,0,1.92c0,.63.19,2.22.19,2.22l-.78.34a20.27,20.27,0,0,1-.32-2.82C41.72,95.57,41.57,92.79,42.27,92.06Z"/><path class="cls-6" d="M4.81,86.07c-5.53,5.45,17.38,84,29,84S70.55,89.39,64.53,85.79,10.33,80.61,4.81,86.07Z"/><path class="cls-7" d="M24.85,82.63c-12.13,6-16.59,12.14-19.24,20.08"/><path class="cls-7" d="M35,82.63c-12.8,4.77-24.63,21.61-27.28,29.55"/><path class="cls-7" d="M47.76,83.1c-17.33,6.51-33.35,29.5-36.93,40.33"/><path class="cls-7" d="M60.21,84.79c-21.56,8-41.47,36.28-45.93,49.6"/><path class="cls-7" d="M65.13,93.39c-22.08,8.32-42.49,37.7-47.06,51.56"/><path class="cls-7" d="M63.17,103.73C44.31,112.24,26.88,142.28,23,156.45"/><path class="cls-7" d="M59.18,118.56c-14.79,7.25-28.46,33.6-31.52,45.68"/><path class="cls-7" d="M54.67,132.44c-10,7.06-18.77,27.25-21.89,37.13"/><path class="cls-7" d="M44.14,82.68C56,88.76,60.33,95,62.83,103"/><path class="cls-7" d="M34.08,82.57c12.57,4.91,24,21.87,26.5,29.84"/><path class="cls-7" d="M21.53,82.91c17,6.69,32.48,29.84,35.87,40.72"/><path class="cls-7" d="M9.23,84.48c21.15,8.22,40.07,36.29,44.29,49.66"/><path class="cls-7" d="M4.25,93c21.67,8.55,41.21,37.59,45.52,51.48"/><path class="cls-7" d="M6,103.39c18.49,8.7,35.12,38.38,38.77,52.59"/><path class="cls-7" d="M9.77,118.25c14.49,7.4,27.54,33.63,30.39,45.73"/><path class="cls-7" d="M14,132.18c9.81,7.16,18.13,27,21.07,36.88"/><path d="M50.48,68.28c.28,1.13-.34,1.93-1.53,2.41a2.63,2.63,0,0,1-3-.83c-.12-.11,0-.52.11-.71s.48-.2.77-.07C48.94,70,48.94,70,50.48,68.28Z"/><path d="M65.77,67.11A1.93,1.93,0,0,1,64,69.19c-1.18.26-1.86-.51-2.43-1.38-.08-.13.06-.51.22-.67s.45-.1.68.08C64.14,68.53,64.14,68.53,65.77,67.11Z"/></g></g></svg>