<svg xmlns="http://www.w3.org/2000/svg" viewBox="0 0 178.55 135.91"><defs><style>.cls-1{fill:#f4f4f4;}.cls-2{fill:#f2e436;}.cls-3{fill:none;}.cls-4{fill:#fdfdfc;}.cls-5{fill:#f6c17a;}.cls-6{fill:#0e0e0d;}.cls-7{fill:#e4c3d5;}</style></defs><title>Corgi_E_1</title><g id="Layer_2" data-name="Layer 2"><g id="Layer_1-2" data-name="Layer 1"><path d="M90.16,1.12c37.93,11.08,32.49,4.32,55.5,26.79,30.37,10.66,54,72.3,3.43,85.26s-81.95,37.16-109,11.24S-4,87.82.81,73.44C15.76,28.77,23.65,13.56,53,8.9S77-2.73,90.16,1.12Z"/><path class="cls-1" d="M90.45,3.82C127,14.49,119.49,7.35,144,29.63c30.32,8.94,52.1,69.68,3.31,82.17S68.25,147.61,42.15,122.63-.37,87.37,4.27,73.51c14.42-43,22-57.7,50.37-62.2S77.74.11,90.45,3.82Z"/><path d="M125.55,70.75c2.31,19.53-18.54,35.1-38.21,35.1s-33-15.43-33-35.1S67.61,37.68,94.07,37.68C113.74,37.68,123.4,52.6,125.55,70.75Z"/><path class="cls-2" d="M123.4,70.82c0,18.47-20,33.08-38.48,33.08S56.49,89.29,56.49,70.82,75.35,39.74,93.83,39.74,123.4,52.34,123.4,70.82Z"/><path class="cls-3" d="M113.08,58.21a5.32,5.32,0,0,1,1.44.07A5.32,5.32,0,0,0,113.08,58.21Z"/><path class="cls-3" d="M106.17,73.2a4.16,4.16,0,0,0,4.4,1.43,3.67,3.67,0,0,1,.37.87c-.07-.32-.15-.64-.24-.93A4.64,4.64,0,0,1,106.17,73.2Z"/><path class="cls-3" d="M70.52,79.18c-.28-1-.55-1.94-.82-2.91a35.39,35.39,0,0,1-2.09-3,35.39,35.39,0,0,0,2.09,3c.27,1,.54,1.94.82,2.91Z"/><path class="cls-3" d="M94.35,55.76h0Z"/><path class="cls-4" d="M110.94,75.5c-.09-.3,0-1-.19-1.26a4.33,4.33,0,0,1-4.58-1c-1.4-1.48-2.58-1.76-4-3.2-2.12-2.09-3.75-4.92-5.86-7A11,11,0,0,1,94,58.37a2.9,2.9,0,0,1,.34-2.62h0a4.82,4.82,0,0,0-2-.84c.35.19.55.42.46.81a4.27,4.27,0,0,1-1.66,3.09c-1.21.89-2.33,1.23-3.57-.14-1-1.06-1.63-2.88-1-3.64l-.16.07a21.82,21.82,0,0,0-1.9,1.18h0A5.52,5.52,0,0,1,85,57.86c.23,1.64.22,6.69-1.77,8.44-3.37,3-6.68,4.85-9.35,8.37-.79,1-3.13.69-4.16,1.6.27,1,.54,1.94.82,2.91h0c.7.14,9.23,5.24,18.73,4.57,10.43-.74,21.87-7.26,21.87-7.26C111.08,76.21,111,75.87,110.94,75.5Z"/><path class="cls-5" d="M94,58.37A11,11,0,0,0,96.26,63c2.11,2.1,3.74,4.93,5.86,7,1.47,1.44,2.65,1.72,4,3.2a4.64,4.64,0,0,0,4.53,1.37,2.18,2.18,0,0,0-.39-.91c-1.28-.62-.6-1.34-.14-2.07a55.75,55.75,0,0,0,2.93-5.27c.44-.9.85-1.8,1.23-2.72s.75-1.83,1.08-2.77c0-.14.08-.26.12-.4a2.92,2.92,0,0,0,.12-1,1.18,1.18,0,0,0-.06-.27,1.07,1.07,0,0,0-.22-.37,1.55,1.55,0,0,0-.85-.46,5.32,5.32,0,0,0-1.44-.07,34.87,34.87,0,0,0-5.73.91c-.67.16-1.34.32-2,.53a11.65,11.65,0,0,0-2,.81c.38,1,1.22,2.07,1.31,2.62.07.39-2.71-2.48-2.91-2.68a29,29,0,0,0-7.39-4.64h0A2.9,2.9,0,0,0,94,58.37Zm14.53,3.3c.81-.51,1.58-1.1,2.41-1.59s1.89-.22,1.88.76a18.73,18.73,0,0,1-1.55,6.48c-.25.66-.93.74-1.58.54-1-.33-2.79-2.34-3.91-3.84A9.11,9.11,0,0,1,108.53,61.67Z"/><path class="cls-5" d="M73.86,74.67c2.67-3.52,6-5.4,9.35-8.37,2-1.75,2-6.8,1.77-8.44a5.52,5.52,0,0,0-.51-1.58h0c-.4.26-.84.48-1.22.77a39.39,39.39,0,0,0-6.06,4.69,21,21,0,0,0-1.75,2c-.54,1-1.1,2.7-1.64,3.74A4.94,4.94,0,0,1,74,65.26a6.4,6.4,0,0,1,1.23-2.65,30,30,0,0,0-10.43-1.45,2.72,2.72,0,0,0-.52.07,1.91,1.91,0,0,0-.8.37A1.62,1.62,0,0,0,63,63.47a49.72,49.72,0,0,0,4.57,9.78,35.39,35.39,0,0,0,2.09,3C70.73,75.36,73.07,75.72,73.86,74.67Zm-5.64-4.33a18,18,0,0,1-2.71-6c-.19-.66.35-1,1-1.19,1.11-.23,3.87.58,5.77,1.26a7.21,7.21,0,0,1-.91,3.22c-.38.81-.67,1.65-1.08,2.45A1.19,1.19,0,0,1,68.22,70.34Z"/><path class="cls-6" d="M70.32,70.07c.41-.8.7-1.64,1.08-2.45a7.21,7.21,0,0,0,.91-3.22c-1.9-.68-4.66-1.49-5.77-1.26-.68.15-1.22.53-1,1.19a18,18,0,0,0,2.71,6A1.19,1.19,0,0,0,70.32,70.07Zm-3.74-6a10.93,10.93,0,0,1,4.59,1c0,.83-1.75,3.68-2.07,4.49A23.85,23.85,0,0,1,66.58,64.05Z"/><path class="cls-7" d="M66.58,64.05a23.85,23.85,0,0,0,2.52,5.54c.32-.81,2-3.66,2.07-4.49A10.93,10.93,0,0,0,66.58,64.05Z"/><path class="cls-6" d="M69.09,78.45l1.43.73c-.28-1-.55-1.94-.82-2.91a35.39,35.39,0,0,1-2.09-3A49.72,49.72,0,0,1,63,63.47a1.62,1.62,0,0,1,.42-1.87,1.91,1.91,0,0,1,.8-.37,2.72,2.72,0,0,1,.52-.07,30,30,0,0,1,10.43,1.45A6.4,6.4,0,0,0,74,65.26a4.94,4.94,0,0,0-.19,2.25c.54-1,1.1-2.7,1.64-3.74a21,21,0,0,1,1.75-2,39.39,39.39,0,0,1,6.06-4.69c.38-.29.82-.51,1.22-.77h0a21.82,21.82,0,0,1,1.9-1.18l.16-.07a.87.87,0,0,1,.45-.31,14.32,14.32,0,0,1,5,0l.38.15a4.82,4.82,0,0,1,2,.84h0a29,29,0,0,1,7.39,4.64c.2.2,3,3.07,2.91,2.68-.09-.55-.93-1.6-1.31-2.62a11.65,11.65,0,0,1,2-.81c.67-.21,1.34-.37,2-.53a34.87,34.87,0,0,1,5.73-.91,5.32,5.32,0,0,1,1.44.07,1.55,1.55,0,0,1,.85.46,1.07,1.07,0,0,1,.22.37,1.18,1.18,0,0,1,.06.27,2.92,2.92,0,0,1-.12,1c0,.14-.07.26-.12.4-.33.94-.69,1.86-1.08,2.77s-.79,1.82-1.23,2.72a55.75,55.75,0,0,1-2.93,5.27c-.46.73-1.14,1.45.14,2.07a2.18,2.18,0,0,1,.39.91c.09.29.17.61.24.93s.14.71.18,1l.76-.52a18.49,18.49,0,0,0-.56-2.22,2.59,2.59,0,0,1,.29-2.33,56.19,56.19,0,0,0,5.18-10c1.16-3.22-.37-4.89-4.21-4.49a34.09,34.09,0,0,0-9.47,2.14c-.81.34-4.36-2.44-6.08-3.46-5.81-4.07-12.58-1.41-14.6.67a52.57,52.57,0,0,1-6.35,5.33c-.6.34-1.53-.36-3.89-1.21a17.19,17.19,0,0,0-7.32-.58c-2.63.21-4,1.79-3.27,4a42.29,42.29,0,0,0,5.9,12"/><path class="cls-6" d="M109.69,67.86c.65.2,1.33.12,1.58-.54a18.73,18.73,0,0,0,1.55-6.48c0-1-.92-1.33-1.88-.76s-1.6,1.08-2.41,1.59A9.11,9.11,0,0,0,105.78,64C106.9,65.52,108.64,67.53,109.69,67.86Zm1.94-6.8a24.45,24.45,0,0,1-1.41,6A8.74,8.74,0,0,1,107.15,64C107.7,63.26,110.86,61.62,111.63,61.06Z"/><path class="cls-7" d="M111.63,61.06c-.77.56-3.93,2.2-4.48,2.91a8.74,8.74,0,0,0,3.07,3.09A24.45,24.45,0,0,0,111.63,61.06Z"/><path d="M87.57,58.67c1.24,1.37,2.36,1,3.57.14a4.27,4.27,0,0,0,1.66-3.09c.09-.39-.11-.62-.46-.81L92,54.76a14.32,14.32,0,0,0-5,0,.87.87,0,0,0-.45.31C85.94,55.79,86.6,57.61,87.57,58.67Z"/><path d="M69.09,78.45C71.84,80,81.17,83.22,86.54,83c11.13-.48,22.43-5,25.28-7.32a3.12,3.12,0,0,1,0,1.79,109.49,109.49,0,0,1-19.11,5.8c-12.07,2.34-23.12-2.61-23.21-3.5A5,5,0,0,0,69.09,78.45Z"/><path d="M84.05,59c.45.89.08,1.69-.84,2.32a2.29,2.29,0,0,1-2.65-.14c-.12-.07-.13-.44,0-.62s.37-.26.64-.2C83.08,60.7,83.08,60.7,84.05,59Z"/><path d="M96.18,59.59c-.45.9-.07,1.69.85,2.31a2.26,2.26,0,0,0,2.65-.16c.13-.07.12-.43,0-.62s-.37-.25-.64-.2C97.16,61.34,97.16,61.34,96.18,59.59Z"/><path class="cls-6" d="M91.29,62.15a1.92,1.92,0,0,1,.93,2.91,7.17,7.17,0,0,1-1.35,1.6c-.77.77-1.39.62-2.08-.24a7.54,7.54,0,0,1-1.19-3.06c-.31-1.45.09-1.8,1.74-1.74A6.73,6.73,0,0,1,91.29,62.15Zm-1.16,3.76c.32-.34.63-.66.92-1,.77-.89.64-1.42-.46-1.78a2.06,2.06,0,0,0-1.75-.07A3.58,3.58,0,0,0,90.13,65.91Z"/><path class="cls-7" d="M88.34,62.63c0,1.37,1,3.7,1.67,3.52s.8-.82,1.17-1.23c1-1.1.82-1.75-.59-2.2A2.71,2.71,0,0,0,88.34,62.63Z"/></g></g></svg>