<svg xmlns="http://www.w3.org/2000/svg" viewBox="0 0 102.54 93.89"><defs><style>.cls-1{fill:#fdfdfc;}.cls-2{fill:#f6c17a;}.cls-3{fill:#0e0e0d;}.cls-4{fill:#e4c3d5;}</style></defs><title>Corgi_D</title><g id="Layer_2" data-name="Layer 2"><g id="Layer_1-2" data-name="Layer 1"><path class="cls-1" d="M37.57,79.73c-2.63.11-4.6-4.08-7.06-4.15-2-.3-9.64,5.85-10.77,4.8-1.5-1.39,4-10.11,5.61-11.08-1.16-1.77-6.56-7.15-6-8.19.87-1.6,2.58-1,3.66-1.87a20.9,20.9,0,0,1,7.61-4c4.05-1.11,6.1-14.32,10-15.81.61-3.74,7.86-7.24,7-7.18-1.07-1.48-2.81-4.12-4.33-5.06.06-1.35.13-2.71.2-4.06a24.64,24.64,0,0,0,4.43-2.36c4.3-3.49,9.25-5.78,14.11-8.3,2.87-1.48,4.82-6.68,4.82-7.34s.09-2.81.34-2.61c.56.43,1.7-1.14,2.44-.82,1.3.58,2.1-.16,3.57-.21,2.51-.08,4.89,4,5.37,4.77a4.33,4.33,0,0,0-1.37,3.23,11.52,11.52,0,0,0,1,5.67c1.53,3.51,3.09,7,4.63,10.51C83.87,28.14,84,30.84,85,33.28c.78,1.95,2,3.43,4.32,3.52a7.24,7.24,0,0,1-.17,3,31.29,31.29,0,0,1-10.31.42c-1.73-.21-2.68-.31-4.29.8-.83-.49.54,2.06,0,2.82C73,45.92,69.87,54.54,70.6,54.49a10.94,10.94,0,0,1-3.25,5.83C63.05,64.6,55.6,72.05,49.4,71.92,44.67,71.83,42.63,79.5,37.57,79.73ZM31.81,77.1c-2-.3-9.44,2.94-11.83,3-1.05-7,3.48-9.1,5.08-10.07"/><path class="cls-2" d="M73.62,40.86c1.61-1.11,3.45-.85,5.18-.64a31.29,31.29,0,0,0,10.31-.42,39.94,39.94,0,0,1-4,15.28c-5.22,11-15.95,24.19-27.92,27.32-11.45,3-10.62,2.56-17.59-.72-1.27-.63-2.07-.21-5.17-3.08,2.77-.51,7.82-6.82,15-6.68,6.2.13,13.65-7.32,17.95-11.6C69,58.72,73.83,42.64,73.62,40.86Z"/><path class="cls-2" d="M89.66,36.8A5.22,5.22,0,0,1,85,33.28c-1-2.44-2.18-3.25-3.25-5.67-1.55-3.5-2.27-7.77-3.8-11.27a16.23,16.23,0,0,1-.74-6.8,4.33,4.33,0,0,1,1.37-3.23A32.39,32.39,0,0,1,85.93,17c.14.34,1,2.73,1.06,2.31a8.08,8.08,0,0,0-.1-1.56c-.09-.93-.35-.92-.19-1.92a16.92,16.92,0,0,1,5-.16,35,35,0,0,1,6.68,1c2.61.71,3.09,2,1.57,4.27A74.13,74.13,0,0,1,90,32.75c-.78.76-1.8,1.43-.62,2.7C89.61,35.72,89.94,36.36,89.66,36.8Z"/><path class="cls-2" d="M62.21,15.57c-4.86,2.52-9.24,3.67-13.54,7.16-1.27,1-3.72-.32-5.21.45A67.8,67.8,0,0,1,41,4.17c0-1.72,1.14-2.8,2.8-2.29a31.56,31.56,0,0,1,11,5.87c1.76-.7,6.28-2.65,10.84-4.52.53-.22,1.25.13,1.8,0a8.28,8.28,0,0,1,0,2.22C67,7.61,65.08,14.09,62.21,15.57Z"/><path class="cls-2" d="M40.64,39.48c-.52.39-6,14.7-10,15.81a20.9,20.9,0,0,0-7.61,4c-1.78,1.44-2.06,2.11-4.48,1.9-.59-1.8-3.47-3-3.7-4.84,2.37-1,5.85-5.42,7.11-7.73a10.86,10.86,0,0,0,5,0c2.42-.74,12.31-15.14,16.27-21.38a13.44,13.44,0,0,1,4.07,3.39,5.51,5.51,0,0,1,.3,3c-2.34.84-5.1,3.87-5.55,4.5A5.87,5.87,0,0,1,40.64,39.48Z"/><path class="cls-1" d="M22.58,48.92c-1.26,2.3-5.37,6.34-7.74,7.38-.32-1.54-.91-3.87-1.18-5.42-.13-.72.58-2.1.82-2.81.68-2.06,2.91-1.32,4.63-.46S21.73,48,22.58,48.92Z"/><path class="cls-3" d="M48,34.28c-.07-.61-1.5-2.76-1.28-4.38.66.94,4.85,5.64,5.47,7.44s.46,3.64-1.07,4.76-5.09,0-6.63-1c-1.14-.71-3.84-2.72-4.23-3.67a17,17,0,0,1,4.61,2.33c.91.79,4.36,2.07,5.31,1.43s1-2.25.54-3.35C50.12,36.37,48.09,34.9,48,34.28Z"/><path class="cls-3" d="M72.8,42.09a11.6,11.6,0,0,0,3.55-.9c-1.1-.32-4.16-.1-6.06-.1s-4.52.9-5.09,2.7.74,2.35,2.14,3.49a19.16,19.16,0,0,0,2.68,2,7.62,7.62,0,0,0,2.91.87c-.35-.67-1.83-1.31-2.44-1.77a25.05,25.05,0,0,0-2.41-1.56c-1-.59-2-1.27-1.75-2.38a2.79,2.79,0,0,1,2.74-1.85A13.26,13.26,0,0,0,72.8,42.09Z"/><path class="cls-3" d="M50.89,8.94a10.36,10.36,0,0,1-2.24,3.78c-.73.9-1.37,1.86-2.13,2.73s-2.07.8-2.43-.46a27.46,27.46,0,0,1-.7-8.76c0-.92.78-1.21,1.59-1.13C46.3,5.23,49,7.33,50.89,8.94ZM45.07,6.85a25.94,25.94,0,0,0,.56,6.76,9.87,9.87,0,0,0,1.78-2.55C45.33,10.47,47.31,7.7,45.07,6.85Z"/><path class="cls-4" d="M44.68,6.28a11.84,11.84,0,0,1,4.67,3.11c-.36,1.06-3.33,4.06-4,5A36.5,36.5,0,0,1,44.68,6.28Z"/><path class="cls-3" d="M87,14a34.27,34.27,0,0,1,11.28.89c4.4,1,5.46,3.7,2.94,7.39a75.72,75.72,0,0,1-9.55,10.85A3.81,3.81,0,0,0,90.45,36c-.58,16.9-13.17,34.21-16,36.79C70,76.91,55.44,85.47,49,85.82c-8.3.44-7.81-2.87-12.07-5.25-1.32-.74-3-2-4.26-2.8A54.7,54.7,0,0,0,21.19,80.5c-2.25.84-2.52-.25-2.44-2.89a13.38,13.38,0,0,1,1.49-4.48c1.4-1.86,3.32-2.11,3.83-3.75C21.79,65,14.33,58.6,13.38,53.76a10,10,0,0,1-.17-5,4.2,4.2,0,0,1,2.92-3c.86-.32,1.85.27,3.76,1.35,2.72,1.54,3.58,1.23,6,.79s2.51-1.88,6.36-5.93,10.71-13.55,9-20.2A63.38,63.38,0,0,1,39.27,4C39.35,1,41.41-.56,44.4.19S50,1.75,52.28,3.75s3,3.25,3.84,3.06A59.73,59.73,0,0,0,65.17,2.4c3-1.9,11.54-2.71,16.4,4.76C83.08,9.13,86,14.07,87,14ZM51.33,13.5a7.44,7.44,0,0,1,1.07-2.82,8.65,8.65,0,0,1,2.38-2.93,31.56,31.56,0,0,0-11-5.87C42.13,1.37,41,2.45,41,4.17a67.8,67.8,0,0,0,2.47,19c-.07,1.35-.14,2.71-.2,4.06C41.15,34.51,29.12,48.41,26.7,49.15s-5.61-.12-8.16-1.44-3.49-.06-4.17,2c-.23.72.77,4.53,1.26,5.93.72,2,4.51,5.32,5.53,6.92,1.5,2.34,4,4.67,5,7.34.17.76-3.21,1.91-4.92,4.12-1.41,1.81-1.37,5.61-.93,5.89,1.65-1.46,11-3.71,13-3.12A55.39,55.39,0,0,0,40,81.1c8,3.61,6.63,4.72,17.8.78,10.1-3.57,21.45-15.83,26.67-26.81,2.3-4.83,4.43-9.89,4.69-15.28.23-1,.5-4.07.26-4.34-1.18-1.27-.16-1.94.62-2.7A74.13,74.13,0,0,0,99.9,20.94c1.52-2.23,1-3.56-1.57-4.27a35,35,0,0,0-6.68-1,16.92,16.92,0,0,0-5,.16c0,1.46.56,3.14.45,3.88-.08.53-2.05-4.23-2.19-4.57A36.62,36.62,0,0,0,78.54,6.3a5.29,5.29,0,0,0-1.91-1.85C76.56,4.18,71.2,2,70,2.4a26.48,26.48,0,0,0-2.56.79c-.55.17-1.11.29-1.64.51-1.9.78-5.19,1.61-8.5,3.69a28.26,28.26,0,0,0-2.71,1.94C53.58,10.46,52.33,12.37,51.33,13.5Z"/><path class="cls-3" d="M88,21.33A10.55,10.55,0,0,1,92,19.38c1.1-.36,2.17-.82,3.28-1.13,1.28-.36,2.17.46,1.78,1.71a27.58,27.58,0,0,1-4.18,7.73c-.54.75-1.32.58-1.95.08C89.86,26.94,88.71,23.69,88,21.33Zm3.74,4.92a25.59,25.59,0,0,0,3.22-6,10,10,0,0,0-2.89,1.18C93.53,23.08,90.36,24.32,91.77,26.25Z"/><path class="cls-4" d="M91.79,26.94a11.77,11.77,0,0,1-2.22-5.15c.88-.69,5-1.59,6.07-2A36.54,36.54,0,0,1,91.79,26.94Z"/><path class="cls-1" d="M40.31,81.27c2.43-.55,7.57,1.32,9.8,2.35-.9,1.18-2.34,5.13-3.26,6.3-.43.54-1.68,2.7-2.34,3-1.88.82-4.67-2.25-3.73-5.09C40.9,86.63,40.19,82.45,40.31,81.27Z"/><path d="M70.8,2.15a14.68,14.68,0,0,1,5.49,2c.57.49.88.95.57,1.57C76,7.29,75.4,8.37,73.84,9s-3,.69-3.9-1.55C69.16,5.4,69.25,2.13,70.8,2.15Z"/><path class="cls-3" d="M41.15,85.13c-.18-.65-.66-3.25-1.69-4-.29,1.25.25,5.17.37,7.27s1.29,4.93,3.37,5.41,2.61-1,3.81-2.66a21.28,21.28,0,0,0,2-3.13c.42-.88,1.49-3.1.8-3.29-.77.12-1.36,2.13-1.84,2.85a26.26,26.26,0,0,0-1.61,2.8c-.61,1.21-1.31,2.36-2.58,2.13a3,3,0,0,1-2.27-2.89A23.37,23.37,0,0,0,41.15,85.13Z"/><path d="M65.14,6.53c.29,1.12-.33,1.92-1.52,2.4a2.63,2.63,0,0,1-3-.82c-.12-.12,0-.52.11-.71s.48-.2.77-.07C63.61,8.27,63.61,8.26,65.14,6.53Z"/><path d="M78.67,10.32c-.74.91-.51,1.9.37,2.83a2.65,2.65,0,0,0,3,.49c.15-.05.24-.46.2-.69s-.36-.38-.68-.38C79.33,12.55,79.33,12.54,78.67,10.32Z"/><path d="M69.16,14.26c-.8-.4-.77,2.08.17,2.68,1.46.95,2.44.72,2.74.28a1.28,1.28,0,0,0,.23-.67c0-.27-.31-.34-.6-.33C69.62,16.35,70,14.66,69.16,14.26Z"/><path d="M6.4,44.79c-.35-.24,3-3.68,6.16-4.89,3.44-1.31,6-1.45,6.38-.81s-.18.66-.47.53c-1.09-.47-4.07.11-4.73.42C11.65,40.7,9.93,41.78,6.4,44.79Z"/><path d="M4.13,43c-.48-.31,4-4.93,8.27-6.56,4.61-1.75,8-1.94,8.56-1.08s-.24.89-.64.72c-1.45-.64-5.46.14-6.34.55C11.18,37.52,8.86,39,4.13,43Z"/><path d="M0,41.27C-.51,41,5.9,35.4,11.54,32.94c6.07-2.65,10.36-3.46,10.89-2.65s-.47,1-.93.86c-1.7-.4-6.85,1.12-8,1.71C9.82,34.29,6.66,36.22,0,41.27Z"/></g></g></svg>