<svg xmlns="http://www.w3.org/2000/svg" viewBox="0 0 141.05 58.62"><defs><style>.cls-1{fill:#d499d6;}.cls-2{fill:#fcfcfc;}.cls-3{fill:#0e0e0d;}.cls-4{fill:#f6c17a;}.cls-5{fill:#0e0e0c;}.cls-6{fill:#2f3536;}</style></defs><title>Corgi_Y</title><g id="Layer_2" data-name="Layer 2"><g id="Layer_1-2" data-name="Layer 1"><path d="M36.92,21.19S.87,43.12,0,46.88s51.5,5.42,76.41,7.36c24,1.86,39.19,4.38,39.19,4.38s13.06-21.34,24.62-27.4S36.92,21.19,36.92,21.19Z"/><path class="cls-1" d="M37.6,22.19S2.52,42.75,1.68,46.27s49.89,5,74.12,6.8C99.12,54.81,115,57.65,115,57.65s11.67-20.48,22.92-26.16S37.6,22.19,37.6,22.19Z"/><path class="cls-2" d="M89.88,35.18c-4.11-1.2-6.39,3.49-7.4,6.34,2.89.49,8.72,1,11.44,0,1.15-.42,2.56-1.64,2.62-3S91,35.65,89.88,35.18Z"/><path class="cls-3" d="M83.12,42.56c.93.08,9.06.08,10.59-.32s3.45-1.65,3.53-3.22-.86-1.81-2.22-2.44a16.29,16.29,0,0,0-3-.88,27.21,27.21,0,0,0-5.3-.24c.43.46,4.61.72,5.2,1s1.69.19,2.53.53,1.78.86,1.77,1.81a4.18,4.18,0,0,1-2.51,2.84c-1.79.11-8.27,0-10.53.39C82.41,42.12,82.12,42.47,83.12,42.56Z"/><path class="cls-2" d="M96.85,12c-1.38-.79-14.37-3.3-20.78-1.93s-10.12,2.57-12.49,3a103.55,103.55,0,0,0-14.76,5.23c-4.1,1.88-8,6.19-8.35,8.54s-.41,9.69,1.24,11.66C43,40,46.9,44.25,53,44.25s21.74.3,22.43,0,6.88-.35,9.11-.94c1.78-.47,9-6.52,9.32-6.7s3.21-1.87,4.86-2.78,6.42-4.48,6.24-7.59c-.23-4-1.08-8-3.48-9.44S98.4,12.9,96.85,12Z"/><path class="cls-4" d="M60.63,13.11c.65-.37,1.42-.42,2.13-.78a1.21,1.21,0,0,0,.63-1c.8-4.39-.54-3.7,1.33-7.73A11.5,11.5,0,0,1,66.18,1c.92-1,2.13-.57,3,.41s1.39.49,2.11,1.45C71.5,3.14,74,4.82,74.68,6a9.51,9.51,0,0,1,.81,2.24c.26.62-.12.84,2.49.63a64.88,64.88,0,0,1,7.68-.31c.42,1.25,2.3,4.66,2.66,5.93,1,3.62.22,6.44-3.24,9.31-2.56,2.12-2.55,1.78-4.11,2.34s-8.5-.42-10.22-1.05C65.57,23.15,60.68,14.27,60.63,13.11Z"/><path class="cls-4" d="M90.57,9.53A37,37,0,0,1,93,5.28c.88-1.24,4.27-3.73,5.5-3.72.75,0,.9,1.24,1.07,1.92.93,3.77.19,4-1.16,7-.12.28-1,2.27-.38,3.14a19.24,19.24,0,0,0,3.17,3.69c2.17,1.4,3.29,3.74,3.72,6.64-2.88-2.35-5.3-3.05-9-3.33-2.65-.2-4.78-2.66-5.61-5.21-.5-1.56-2-5.39-2.53-6.93A17.79,17.79,0,0,1,90.57,9.53Z"/><path d="M95.08,21.5a14.55,14.55,0,0,0-5.49.71c-.6.3-1,.64-.83,1.24A5.15,5.15,0,0,0,91,26.81c1.31.94,2.5,1.24,3.71-.52S96.43,21.81,95.08,21.5Z"/><path class="cls-4" d="M75.8,44.14a40.41,40.41,0,0,0-2-3.94c-1.25-2.73-3.16-3.83-5.63-5.42-1.71-1.11-4.88-6.25-6.78-9.45s-2.08-11.7-2.79-11.59c-6.94.81-7.52,1.6-11.38,4.09C45,19.3,42,23.63,40.83,25.72S39.16,31.09,39,33.83c-.23,4.13,8.31,10.9,10.06,11s11.07-.51,16.61-.72C66.89,44,75.23,44.79,75.8,44.14Z"/><path class="cls-5" d="M89.74,40.58c-3.56,2.81-4.83,3-6.44,3.52a33.69,33.69,0,0,1-7.3,1c-1.5-.09-9.1-.32-10-.27s-8.72.28-9.89.37c-2,.14-3.94-.34-5.94-.36-1.71,0-5.12-2.07-6.48-3.32S40,37.43,39.42,35.93a.41.41,0,0,0-.45-.25c-.68.14-1.78.38-2.17.4a8.14,8.14,0,0,1-3.31-.47.3.3,0,0,1-.14-.22c-.07-.76,1.57-1.71,2.29-2.65a34.9,34.9,0,0,0,3.43-5.54,16,16,0,0,1,2.85-4.07c3.18-3.78,4.39-6.46,9.71-8.57l.07,0c2.47-.55,9.92-1.71,11.4-3a.45.45,0,0,0,.12-.27c.45-4.2-.54-5.41,1.33-9.31C65.44.13,66.35-.07,67,0a.2.2,0,0,1,.11,0,17.09,17.09,0,0,1,5.77,3.32,12.57,12.57,0,0,1,3.82,4.92.39.39,0,0,0,.49.24A21.74,21.74,0,0,1,90,8.87a.4.4,0,0,0,.49-.2,16.75,16.75,0,0,1,4-5.57c.86-.75,2.8-3.19,4.06-2.69.39.16,1,1.59,1.15,2a5.88,5.88,0,0,1,.26,4,40.15,40.15,0,0,1-1.76,6.1.64.64,0,0,0,0,.2,2,2,0,0,0,1.13,1.67A34.14,34.14,0,0,1,103.43,19a9,9,0,0,1-.77,12.3c-3.13,2.63-3.79,3-5.72,3.73-1.25.39-1.17.87-2.63,1.93S90.68,39.83,89.74,40.58ZM71.32,2.9C70.31,1.8,66.5.35,66.18,1c-1.86,4-2.25,5.68-2.44,10.69a.47.47,0,0,1,0,.17c-.33.46-2.66,1-3.07,1.21A31.36,31.36,0,0,1,56,14.32c-4.43.7-4.11.75-8,3.25-2,1.29-5.25,5.69-6.37,7.47a17.14,17.14,0,0,0-2.14,8.23C39.31,37.4,47.67,44,49.42,44.05c5.55.18,10.75-.08,16.29-.29,1.18,0,9.24.49,10.2.37s5.85-.6,7.21-1a24.77,24.77,0,0,0,7.07-4.4,12.74,12.74,0,0,1,3.69-2.51c2.24-1.35,2.61-1.94,5-3.32,2.94-1.69,5.28-3.74,5.58-7.29a5,5,0,0,0-.35-2.58,11.48,11.48,0,0,0-2.92-5.71l0-.05c-1.35-1.12-3.12-2.48-3.66-3.85-.31-.79,2.73-5.75,1.81-9.52-.17-.69-.54-2.11-1.12-2a6.17,6.17,0,0,0-3.27,2,18.94,18.94,0,0,1-2.22,2.36A11.13,11.13,0,0,0,90.83,9.5a.4.4,0,0,1-.47.24,33.53,33.53,0,0,0-8.25-1.11,15.62,15.62,0,0,0-5.56,1.09.41.41,0,0,1-.49-.14c-.52-.81-.77-2.47-1.57-3.62"/><path class="cls-2" d="M40.47,27.66c-1.21,1.66-3.43,4.73-4.71,6.09-.87.93-1.7,1.45-.18,1.57a13.42,13.42,0,0,0,2.81-.3c.79-.17.67-.29,1.35-.39C39.71,33.35,40.25,29.14,40.47,27.66Z"/><path class="cls-3" d="M71.31,9.54c.39,1-.08.6-.65,1.26s-1.57.62-1.85-.34c-.62-2.17-.82-1-.73-3.23,0-.7.2-.45.82-.39C69.9,6.93,70.91,8.57,71.31,9.54Z"/><path d="M83.83,18c.28,1.13-.34,1.93-1.53,2.41a2.63,2.63,0,0,1-3-.83c-.12-.11,0-.52.11-.71s.49-.2.77-.07C82.29,19.78,82.3,19.78,83.83,18Z"/><path d="M99.12,16.87A1.92,1.92,0,0,1,97.39,19c-1.19.26-1.87-.51-2.44-1.37-.08-.14.06-.52.22-.68s.45-.1.68.08C97.49,18.29,97.49,18.29,99.12,16.87Z"/><path class="cls-2" d="M54.64,38.12c-4.11-1.2-6.39,3.13-7.41,6,2.9.49,7.92,1.35,10.64.36a4,4,0,0,0,2.37-3.22C60.3,39.92,55.77,38.59,54.64,38.12Z"/><path class="cls-3" d="M46.37,43.4c.55.45,2.26,1.78,3.46,1.89a30,30,0,0,0,7.27-.36c1.63-.42,3.45-1.66,3.53-3.23s-.86-1.8-2.22-2.43a18.12,18.12,0,0,0-2.6-1.16,6.63,6.63,0,0,0-2.58-.4,8.54,8.54,0,0,0,2.39,1.15c.59.24,1.36.44,2.2.78s1.78.86,1.77,1.81a4.15,4.15,0,0,1-2.51,2.83,47.51,47.51,0,0,1-7.31-.17A6.57,6.57,0,0,1,47.23,43C46.56,42.64,47.1,42.71,46.37,43.4Z"/><path class="cls-2" d="M83.2,37.8c-4.11-1.2-6.38,3.49-7.4,6.34,2.89.49,8.72,1,11.45,0,1.14-.42,2.55-1.64,2.61-3S84.34,38.27,83.2,37.8Z"/><path class="cls-3" d="M76.44,45.18c.93.08,9.06.08,10.59-.31s3.45-1.66,3.53-3.23-.86-1.81-2.22-2.44a17.1,17.1,0,0,0-3-.88,28,28,0,0,0-5.3-.24c.43.46,4.61.72,5.21,1s1.68.19,2.53.53,1.77.86,1.77,1.82A4.2,4.2,0,0,1,87,44.22c-1.79.11-8.27,0-10.53.39C75.73,44.75,75.44,45.09,76.44,45.18Z"/><path class="cls-6" d="M110.64,45.68c-1.27-1.77-2.57-3.21-1.42-5.41.51-1,1-1,1.81-.7a7.11,7.11,0,0,1,4.43,5c.26,1,.39,2.08-.53,2.68a2.69,2.69,0,0,1-2.92-.33A9.18,9.18,0,0,1,110.64,45.68Zm-.43-5.49a5.26,5.26,0,0,0,2.43,6.2,1.53,1.53,0,0,0,1.81,0,1.41,1.41,0,0,0,.31-1.6C114.09,42.44,112.76,40.72,110.21,40.19Z"/><path class="cls-6" d="M105.85,47.64c-1.31.77-2.81.12-4.36.46,1,1.34,2.14.73,3.11.64,1.19-.11,2-.06,2.58,1.25a4.91,4.91,0,0,0,2.67,2.8c-1.46-1.71-2.13-3.86-3.44-5.63a7.22,7.22,0,0,0-1.56-3.1C104.21,45.7,105.4,46.56,105.85,47.64Z"/><path class="cls-6" d="M118.22,30.59c2.25-.53,6.06,1.56,7.26,4.3-1.67-.57-1.63-1.48-3.11-2.06a3.5,3.5,0,0,0,.48,4.81C121.12,37.39,118.58,33.2,118.22,30.59ZM120.68,34a3.16,3.16,0,0,0,.72-2l-2.11-.87A4.68,4.68,0,0,0,120.68,34Z"/><path class="cls-6" d="M118.64,37l3,3c-.57.08-1.08-.53-1.53-.63a16.25,16.25,0,0,1-.39,2.19c-.27.76-1.26.89-2.07.32a9.23,9.23,0,0,1-4-6c-.16-.88.16-1.53,1-1.68s1.35.39,1.38,1.28c-.64.55-.84-.5-1.35-.3-.34,1.71,1.58,5.21,3.14,5.72.91.3,1.11-.22,1.14-1a8.16,8.16,0,0,0-.79-2.6l0,.06.34-.33Z"/></g></g></svg>