<svg xmlns="http://www.w3.org/2000/svg" viewBox="0 0 113.26 105.85"><defs><style>.cls-1{fill:#fdfdfc;}.cls-2{fill:#f6c17a;}.cls-3{fill:#0e0e0d;}.cls-4{fill:#e4c3d5;}.cls-5{fill:#232323;}</style></defs><title>Corgi_K1</title><g id="Layer_2" data-name="Layer 2"><g id="Layer_1-2" data-name="Layer 1"><path class="cls-1" d="M55.76,81.88c-6.69-.15-14.39-8.53-18.84-13.34a11.91,11.91,0,0,1-3.24-6.44c.79.09-2.21-9.36-3.72-11.67-.56-.85,1-3.53.12-3-1.69-1.27-2.72-1.21-4.6-1.07a33.19,33.19,0,0,1-11.1-.92c-.21-1.08-1.14-4.64-.89-5.72,2.51,0,3.89-1.54,4.82-3.61,1.17-2.58,1.41-5.49,2.67-8,1.83-3.71,3.67-7.41,5.49-11.13a12.54,12.54,0,0,0,1.33-6.08c-.05-1.32.14-1.51-.91-2.47.56-.81,12.29-2.48,12.27-1.76S41,13,44,14.73c5.14,2.93,10.37,5.63,14.85,9.59a27,27,0,0,0,4.67,2.75c0,1.46,0,2.93,0,4.39-1.69.94-2.49,4.41-3.71,6-1-.12-1.46.29-1.53,1.31a20,20,0,0,1-1.53,5.9,4.07,4.07,0,0,0,1.28,5,4.91,4.91,0,0,0,5.42.39c1.27-.71,1.91-2.09,3.17-2.78,4.16,1.79,5.77,16.13,10.08,17.52a22.21,22.21,0,0,1,8,4.61c1.13,1,4.36,0,5.23,1.78a104,104,0,0,0-8.29,9.51c1.56,1,7.79,7.7,5.37,11.51a57.67,57.67,0,0,0-12-3.91c-2.65,0-4.08,3.35-6.9,3.11C63.3,91.76,60.88,82,55.76,81.88Z"/><path class="cls-2" d="M31.05,47.26c-1.69-1.27-3.69-1.08-5.57-.94a33.19,33.19,0,0,1-11.1-.92,43.11,43.11,0,0,0,3.67,16.68C23.18,74.17,34.16,88.9,46.92,92.84c12.22,3.76,11.35,3.24,19,0,1.4-.62,2.24-.13,5.72-3.09-3-.67-8.13-7.71-15.9-7.88-6.69-.15-14.39-8.53-18.84-13.34C35.26,66.73,30.73,49.17,31.05,47.26Z"/><path class="cls-2" d="M13.46,38.22c1.33-1.32.26-2.09-.56-2.95A80.77,80.77,0,0,1,2.75,22.08c-1.53-2.47-1-3.89,1.89-4.53a38.44,38.44,0,0,1,7.26-.81,18.43,18.43,0,0,1,5.33.41c.13,1.09-.15,1.06-.29,2.05a8,8,0,0,0-.18,1.69c0,.45,1.08-2.08,1.25-2.44A35,35,0,0,1,26.47,7.26c1.05,1,3,0,3.08,1.29.08,2.14,1.64,9.41-.17,15.09s-3,7.2-6.74,10.49-7,5.54-9.56,5.53C12.8,39.17,13.18,38.5,13.46,38.22Z"/><path class="cls-2" d="M36.41,5.49C38.75,2.58,50.17,9.07,52.05,9.9A34,34,0,0,1,64.17,4.07c1.81-.47,3,.75,2.91,2.6a72.91,72.91,0,0,1-3.53,20.4c-1.57-.9-6.66,1.05-12.36-1.1s-6.67-2.39-9.69-6.25S31.35,4.68,36.41,5.49Z"/><path class="cls-2" d="M66.69,47.27c.55.45,5.77,16.13,10.08,17.52a22.21,22.21,0,0,1,8,4.61c1.86,1.63,2.12,2.37,4.75,2.25.72-1.91,3.87-3.05,4.21-5.06-2.51-1.22-6.07-6.11-7.32-8.66A11.79,11.79,0,0,1,81,57.76c-2.58-.92-13.43-19.39-17.42-26.3-1.69.94-2.49,4.41-3.71,6a5.9,5.9,0,0,0-.46,3.22c2.48,1,5.32,4.41,5.78,5.11A6.54,6.54,0,0,0,66.69,47.27Z"/><path class="cls-1" d="M89.56,57c1.89-.84,4.33-1.55,5,.71.22.78.93,2.3.75,3.08-.36,1.65-1.11,4.13-1.52,5.78-2.51-1.22-6.76-5.77-8-8.31C86.71,57.32,87.66,57.87,89.56,57Z"/><path class="cls-3" d="M15.91,63.11a4.69,4.69,0,0,1,4.37-.74c.43,1.31-4.61,2.48-6.67,2.75s-5-.3-5.89-2.18.3-2.76,1.64-4.2A20.91,20.91,0,0,1,12,56.14c.48-.35,2.05-2,2.8-2.22.39.29.15.77.4,1.3-.28.77-1.58,1.56-2.18,2.14a26.36,26.36,0,0,1-2.45,2.06c-1,.8-1.85,2.16-1.37,3.32a2.62,2.62,0,0,0,3,1.39C14,63.79,15.44,63.59,15.91,63.11Z"/><path class="cls-3" d="M62.73,7.49c.88,0,1.67.3,1.67,1.29a30,30,0,0,1-1.15,9.42c-.45,1.35-1.74,1.51-2.64.39-.78-1-1.43-2-2.18-3a11.3,11.3,0,0,1-2.24-4.19C58.25,9.71,61.31,7.57,62.73,7.49Zm-2.89,6.32a10.88,10.88,0,0,0,1.8,2.84,27.42,27.42,0,0,0,.91-7.28C60.1,10.19,62.12,13.27,59.84,13.81Z"/><path class="cls-4" d="M63,8.77c-2.45.82-3.14,1.45-5.18,3.15.35,1.16,3.41,4.53,4.09,5.56A39.12,39.12,0,0,0,63,8.77Z"/><path class="cls-3" d="M23.39,9c3-2.43,14.87-3.74,17.7-3.79,3.86-.08,8,3,9.55,3.63.85.25,1.73-1.06,4.28-3.12s5.58-2.86,8.66-3.49c3.26-.66,5.42,1.07,5.36,4.4a68.17,68.17,0,0,1-2.89,19c-2.19,7.09,5.71,20.22,9.6,24.68s4,6.1,6.59,6.69,3.49,1,6.5-.58c2.11-1.07,3.21-1.67,4.13-1.28a4.53,4.53,0,0,1,3,3.43,10.79,10.79,0,0,1-.41,5.38c-1.25,5.18-9.59,11.73-12.25,16.37.48,1.79,2.54,2.15,4,4.22a14.32,14.32,0,0,1,1.4,4.9c0,2.85-1.83,4.06-4.22,3a48.56,48.56,0,0,0-8.87-3.27c-1.42.82-3.36,1.59-4.82,2.33C66,93.89,64.54,97.75,55.61,96.9c-7-.67-22.32-10.58-27-15.27C25.76,78.72,12.12,57,12.26,38.73a4.11,4.11,0,0,0-1.16-3.17A82.16,82.16,0,0,1,1.29,23.41c-2.55-4.09-1.28-7,3.51-7.84A37.1,37.1,0,0,1,17,15.12C18.11,15.3,20.36,11.4,23.39,9Zm28.8,2.64A28.39,28.39,0,0,0,49.36,9.4C45.89,7,42.91,6.78,39.16,6.58S25.09,9,24.53,9.82c-3.68,3.5-4.55,4.92-5.39,6.66-.16.36-2.51,5.41-2.57,4.83-.09-.81.56-2.59.66-4.16a18.43,18.43,0,0,0-5.33-.41,38.44,38.44,0,0,0-7.26.81c-2.85.64-3.42,2.06-1.89,4.53A80.77,80.77,0,0,0,12.9,35.27c.82.86,1.89,1.63.56,2.95-.28.28.71,6.1.92,7.18,0,5.82,2.11,11.38,4.36,16.69,5.13,12.09,16.82,25.84,27.57,30.15,11.86,4.76,10.48,3.5,19.24,0,1.42-.58,3.9-2.8,7.32-4.36,2.06-.94,12.19,2.32,13.91,4,.48-.28.7-4.38-.73-6.4-1.75-2.46-5.34-3.85-5.12-4.66,1.17-2.84,4-5.24,5.74-7.7,1.17-1.68,5.41-5,6.27-7.21.6-1.49,1.86-5.56,1.63-6.34-.64-2.26-1.58-3.66-4.4-2.35s-6.42,2.2-8.87,1.18S65.53,39.4,63.59,31.46c0-1.46,0-2.93,0-4.39a72.91,72.91,0,0,0,3.53-20.4c.09-1.85-1.1-3.07-2.91-2.6A34,34,0,0,0,52.05,9.9a9.54,9.54,0,0,1,2.42,3.27,8,8,0,0,1,1,3.09C54.48,15,53.21,12.88,52.19,11.62Z"/><path class="cls-3" d="M12.16,29.86c-.71.51-1.56.65-2.1-.18a29.53,29.53,0,0,1-4.17-8.53c-.36-1.37.64-2.21,2-1.76,1.19.39,2.32.93,3.49,1.36a11.31,11.31,0,0,1,4.16,2.3C14.71,25.55,13.31,29,12.16,29.86Zm-1-6.88a11.1,11.1,0,0,0-3.06-1.4,27.39,27.39,0,0,0,3.2,6.6C12.9,26.16,9.53,24.68,11.14,23Z"/><path class="cls-4" d="M11.23,28.93c1.62-2,1.85-2.93,2.63-5.46-.92-.79-5.33-1.95-6.45-2.44A38.88,38.88,0,0,0,11.23,28.93Z"/><path class="cls-1" d="M63.6,99.34c.12,2.09-1.6,5.33-3.49,4.41-.66-.31-1.63-1.91-2-2.49A26.1,26.1,0,0,1,55,94.66c2.32-1,7.67-2.65,10.13-2C65.2,93.9,63.53,98.13,63.6,99.34Z"/><path class="cls-1" d="M12.42,64.37c-1.34.07-3.42-.17-3.53-2.16C8.78,61,10,59.63,10.36,59.13c1-1.21,3.28-2.71,4.78-4.07,1.45,1.78,2.16,4.91,3.31,7.1A18.35,18.35,0,0,1,12.42,64.37Z"/><path d="M38.71,18.43A15.93,15.93,0,0,0,32.6,20c-.67.46-1.05.92-.78,1.62.71,1.83,1.28,3.05,2.9,3.9s3.19,1.06,4.35-1.26C40.13,22.1,40.38,18.58,38.71,18.43Z"/><path d="M45.55,20.17c-1.31.13-2.54-2-2.38-3.57a2,2,0,0,1,1.89-1.88,2.05,2.05,0,0,1,2,1.54C47.66,17.91,46.85,20.05,45.55,20.17Z"/><path d="M26.33,25.36c-1.17.6-3.1-.92-3.53-2.44a2,2,0,0,1,1.06-2.44,2,2,0,0,1,2.39.7C27.45,22.48,27.49,24.77,26.33,25.36Z"/><path class="cls-3" d="M64.06,96.51c.23-.7.87-3.48,2-4.24.25,1.36-.51,5.56-.73,7.83-.25,2.42-1.62,5.26-3.88,5.68s-3-.77-4.21-2.59a23.46,23.46,0,0,1-2.07-3.47c-.4-1-1.24-3.87-.49-4,.83.17,1.38,2.37,1.86,3.17a28.34,28.34,0,0,1,1.61,3.09c.6,1.33,1.31,2.61,2.69,2.42a3.28,3.28,0,0,0,2.58-3A25.44,25.44,0,0,1,64.06,96.51Z"/><path class="cls-3" d="M14.38,45.4c4.82.93,16,1.11,21.91-1S58,34.22,63.74,29.64a64.38,64.38,0,0,0,3.75,9.23c1.81,3.19,8.83,13.73,10.17,15.26.11,2.8-13.12,15.44-19.7,18.47s-21.33,13-25.28,11-9.32-11.4-11.57-15.41C18,62.63,12.83,48.78,14.38,45.4Z"/><path class="cls-1" d="M58.84,53.86c-1.32.25-3.32.33-3.7-1.62-.28-1.24.78-2.72,1.11-3.27.79-1.33,1.74-3.95,3-5.5C61,45,64.64,46.74,66.45,48.34,65.68,49.41,60.16,53.61,58.84,53.86Z"/><path d="M42.91,14.43c.1.36,1.16.39,1.84-.38S46,12.86,46.14,12c0-.13-.25-.33-.44-.38s-.4.13-.51.36C44.41,13.63,42.81,14.07,42.91,14.43Z"/><path d="M23.29,17.3c-.28.25.17,1.21,1.16,1.48s1.64.62,2.45.34c.13-.05.19-.38.15-.56s-.3-.3-.55-.3C24.67,18.29,23.57,17.06,23.29,17.3Z"/><path class="cls-3" d="M37.46,34.18c-1.9.35-2.42,0-2.31-1.72A8.85,8.85,0,0,1,36,28.71c.65-1.12,1.35-1.4,2.36-.64a8.41,8.41,0,0,1,1.85,1.62,2.25,2.25,0,0,1-.58,3.54A8.07,8.07,0,0,1,37.46,34.18Zm-.82-1.59a2.46,2.46,0,0,0,2-.39c1.21-.61,1.27-1.24.23-2.14-.4-.34-.81-.65-1.24-1A4.26,4.26,0,0,0,36.64,32.59Z"/><path class="cls-4" d="M36.14,33.18c-.19-1.6.56-4.47,1.33-4.36s1.07.8,1.57,1.22c1.32,1.1,1.24,1.88-.31,2.65A3.24,3.24,0,0,1,36.14,33.18Z"/><path class="cls-1" d="M30.73,46.23c.09,4.94,1.6,7,3.78,13,2.25,6.21,11.13,16.88,11.9,17.7S64.77,67.77,64.54,66,56,56.45,54.4,54.6s-4.56-14.76-5.9-14.26S36.67,46,30.73,46.23Z"/><path d="M37,54.29s-8.12-6-6.75-8.22c3-.08,8.18-1.94,8.18-1.94Z"/><path class="cls-1" d="M36.6,52.82s-5.54-4.38-6-6.36c2.71.08,7.12-1.85,7.12-1.85Z"/><path d="M47.94,50.53s3.35-9.5,1-10.59c-2.5,1.6-7.86,3-7.86,3Z"/><path class="cls-1" d="M47.43,49.1s2.13-6.74,1.36-8.62C46.59,42.07,41.87,43,41.87,43Z"/><path d="M37.75,44.61c-.27,2,.75,2.79,1.78,3s2.06.62,2.61,0,.13-4.21-.29-4.23-2-.17-2.19.16S37.83,44.07,37.75,44.61Z"/><path d="M40.5,47.7c-.08.63,4,17.53,4.58,18.88s6.33,2.08,7,2.28.18-4.41.22-5.3c0-.72-8.85-14.24-10.11-16.63A12.5,12.5,0,0,0,40.5,47.7Z"/><path d="M106.21,56.37c.4-.15-2.07-4.26-4.9-6.16-3-2-5.49-2.76-6-2.22s0,.68.34.63c1.16-.22,3.95,1,4.52,1.47C102,51.2,103.46,52.65,106.21,56.37Z"/><path d="M108.82,55.14c.54-.2-2.77-5.7-6.57-8.25-4.1-2.75-7.36-3.71-8.1-3s0,.92.47.84c1.55-.29,5.29,1.37,6,2C103.2,48.21,105.13,50.15,108.82,55.14Z"/><path d="M113.21,54.38c.58-.11-4.39-7-9.33-10.71-5.32-4-9.31-5.71-10-5s.23,1,.71,1c1.75,0,6.42,2.63,7.43,3.47C105.26,45.37,107.89,48,113.21,54.38Z"/><path d="M32.1,7.5c-4.3,3.31-8.86,8.41-10.93,13s-.34,7.77-1.6,11.66A20.47,20.47,0,0,1,11.1,42.44c2.66-7.46,0-14.67,1-19.15S14.39,11,15.93,8.56s9.74-8.7,15.61-6.19C33.08,3,33.47,6,33.47,6Z"/><path d="M32.1,7.5A26.08,26.08,0,0,1,48.36,13c3.94,3.15,4.55,7.27,7.45,10.16A20.51,20.51,0,0,0,68,28.38c-5.77-5.43-6.71-13-9.63-16.59S51.54,4.12,49,2.62,39.1-2.2,32.43,2.18c-1.4.92-.95,4-.95,4Z"/><path d="M19.66,21.94c-.67,4.51.94,7.62.69,11.43s-3.48,6.68-5.42,8.41c.63-7.31-.78-12.74-.81-17.12S14,22.12,15.8,20.43C17.82,18.59,20.33,17.43,19.66,21.94Z"/><path d="M48.84,12c3.21,3.24,4.68,9,7.13,11.93s6.61,5.46,9.2,5.72c-4.84-5.52-6.76-12.88-9.34-16.44S54.47,11.06,52,10.79C49.26,10.5,45.64,8.75,48.84,12Z"/><path d="M32.5,29.84c.37-1.15.61-.69.93-.38.18-.51.25-.67.63-.4.11-.47.64-.14.72-.59.74.19-.2-.67,1.21-.51a1.77,1.77,0,0,1,2.12-.43c.77-.72.54-.48,1.56-.16.16-.57.64-1.1,2,.11-.15-.64,0-1.3-1-1.52a10.51,10.51,0,0,0-3.93.35c-1.31.28-3.43.91-4,1.63S31.8,28.63,32.5,29.84Z"/><path class="cls-5" d="M20,29.06a10.78,10.78,0,0,0,7.15,1c1.29,1.81,3.45,5.05,6.29,6.42,2.59,1.24,2.39,1.47,7-.16a17.23,17.23,0,0,0,4.32-2c3-1.72,4.66-8.06,5-10.17,2.5-1.22,2.94-3.11,4-3.77s1.5,2,3,2.19-1.56,2.33-1.27,3.54-.19,3.41-3.16,6.6-2.22,3.32-4.12,4-10.65,4.17-14,4.22S29.84,39.18,28,38.26s-2.5-2.2-4.14-3-5.16-.8-4.75-1.44S20,29.06,20,29.06Z"/></g></g></svg>